<svg id="Layer_1" data-name="Layer 1" xmlns="http://www.w3.org/2000/svg" viewBox="0 0 2046.13 1923.73"><defs><style>.cls-1{fill:#d7d8df;}.cls-2{fill:#9194af;}.cls-3{fill:#b3b4bc;}.cls-4{fill:#9a9cb2;}.cls-5{fill:#41445e;}.cls-6{fill:#61647f;}.cls-7{fill:#2c2e40;}.cls-8{fill:#40435b;}.cls-9{fill:#9093af;}.cls-10{fill:#5d607c;}.cls-11{fill:#1d1e2a;}.cls-12{fill:#ccc;}.cls-13{fill:#3e4159;}.cls-14{fill:#34b097;}.cls-15{fill:#c51;}.cls-16{fill:#666b9b;}.cls-17{fill:#f0ad45;}.cls-18{fill:#f1ae45;}.cls-19{fill:#34af97;}.cls-20{fill:#656a9a;}.cls-21{fill:#efad45;}.cls-22{fill:#edac45;}.cls-23{fill:#636898;}.cls-24{fill:#eaa944;}.cls-25{fill:#f6b44d;}.cls-26{fill:#47b699;}.cls-27{fill:#d35a16;}.cls-28{fill:#080911;}</style></defs><title>komp</title><path class="cls-1" d="M1211.71,264.46c4.66,0,9.33.11,14,.11q393.88,0,787.75,0a51.74,51.74,0,0,1,12.81,1.15c12.67,3.27,18.92,11.27,19.7,24.34,0.12,2,0,4,0,6q0,664.29.13,1328.58c0,10-2.3,18.63-10.22,24.73-3.45,2.66-8.19,3.93-12.55,5-3.14.77-6.63,0.16-10,.16H1157.67c-1.33,0-2.66.05-4,0q-127.39,0-254.78.09c-4.15,0-8.29,1.4-12.43,2.14-1.76-.75-3.46-1.93-5.29-2.16a72.68,72.68,0,0,0-9-.13q-421.4,0-842.8,0c-4,0-8.12.29-11.91-.65C6.82,1651.26.35,1642.49,0,1631.18c0-1.33,0-2.67,0-4Q0,959.84,0,292.5c0-14.13,4.61-21.41,16.88-26.27a27.84,27.84,0,0,1,7.71-1.58c3-.27,6-0.07,9-0.07H820.41c4.66,0,9.33-.07,14-0.11,3.66,0.11,7.31.31,11,.31q177.69,0,355.37,0C1204.4,264.77,1208.06,264.57,1211.71,264.46ZM1023.07,1474.83h182q381,0,762,.25c18.23,0,31.24-11.59,29.32-29.37a28.1,28.1,0,0,1,0-3q0-545.49,0-1091c0-3,.1-6-0.06-9-0.59-11.09-7.18-19.65-18-22.48a55.12,55.12,0,0,0-13.82-1.38q-942-.09-1884,0a76.34,76.34,0,0,0-9,.2c-11.8,1.4-20.36,9.22-22.56,20.82a59.2,59.2,0,0,0-.59,10.94q0,546,0,1092c0,2.67-.14,5.35.09,8,1.25,14.41,11.12,23.65,25.64,24,4,0.11,8,0,12,0h937Zm-3.62,133.81c28.14,1.11,50-23,50.26-49.77,0.26-26.44-21.52-50.7-50.56-50.75s-50.87,24-50.76,50.55S990.35,1610.12,1019.46,1608.64Z"/><path class="cls-1" d="M1315.56,1867.76v56H731.8c-2.17-6.86-2.8-40.73-1.06-55.41,0.24-.24.46-0.49,0.71-0.7a1.85,1.85,0,0,1,.78-0.55c2.31-.23,4.62-0.57,6.93-0.57q286.41,0,572.81.13C1312.91,1866.63,1313.83,1867.19,1315.56,1867.76Z"/><path class="cls-2" d="M886.47,1656.86c4.14-.75,8.29-2.14,12.43-2.14q127.39-.19,254.78-0.09c1.33,0,2.66,0,4,0,4.89,9.81,9.66,19.67,14.7,29.4,11.76,22.75,23.69,45.4,35.4,68.17,1.49,2.9,2.12,6.24,3.13,9.37-3.84,5.53-9.63,5-15.3,5-63.13,0-126.26.11-189.4-.09-19.45-.06-39.12,2.23-58.2-3.89-2.72-2.41-5.58-4.7-8.15-7.26q-30.06-29.93-60.06-59.93c-2.56-2.54-5.55-4.64-8.34-6.95q5.25-10.94,10.49-21.87C883.48,1663.33,885,1660.09,886.47,1656.86Z"/><path class="cls-3" d="M871.46,1688.43c2.79,2.3,5.78,4.4,8.34,6.95q30.09,29.9,60.06,59.93c2.57,2.56,5.43,4.85,8.15,7.26,2.4,2.72,4.66,5.57,7.22,8.13q40,40.11,80.08,80.21c2.69,2.71,4.57,6.24,6.82,9.39-3,.13-6,0.38-9,0.38q-120.47,0-240.93,0H781.48c2-4.41,3.22-7.63,4.8-10.68q27.61-53.2,55.31-106.36,12.91-24.81,25.89-49.59A51.28,51.28,0,0,1,871.46,1688.43Z"/><path class="cls-4" d="M1042.13,1860.28c-2.25-3.15-4.13-6.67-6.82-9.39q-39.94-40.21-80.08-80.21c-2.56-2.56-4.82-5.41-7.22-8.13,19.07,6.12,38.74,3.83,58.2,3.89,63.13,0.2,126.26.07,189.4,0.09,5.67,0,11.46.52,15.3-5,3.59,5.55,7.62,10.88,10.69,16.71,13.16,25,26,50.16,39,75.28,1,2,1.64,4.14,2.66,6.77-3,.17-5.29.41-7.57,0.41q-102.79,0-205.57,0C1047.44,1860.68,1044.78,1860.42,1042.13,1860.28Z"/><path class="cls-5" d="M996.38,190.45c-17.39-5.55-33.2-13.86-45.53-27.61-25.44-28.35-33.4-61.06-21.09-97.22,12.43-36.54,38.84-58.92,76.85-64.5,65.34-9.6,115.6,43.38,110.81,102.62-3.1,38.27-23.52,65.59-58.5,81.81-3.24,1.5-6.32,3.35-9.47,5-6.53.64-13.07,1.89-19.58,1.78C1018.68,192.18,1007.53,191.14,996.38,190.45Zm23.91-17.9c41.76,1,76.9-31.89,77.31-75.66,0.42-44-33.17-78.1-77.55-77.91-43.78.19-75.26,35-76.33,75.93C942.64,136.59,980.23,174.4,1020.29,172.55Z"/><path class="cls-6" d="M1211.71,264.46c-3.66.11-7.31,0.31-11,.31q-177.69,0-355.37,0c-3.66,0-7.31-.2-11-0.31,0-8.89,0-17.78,0-27.16,9.91-2.11,19.43-.81,28.86-1,9.92-.23,19.85-0.08,29.77,0,9.59,0,19.18.16,28.77,0.25l203.07-.1h86.84v28.09Z"/><path class="cls-5" d="M1124.87,236.36l-203.07.1v-29.9H1124Z"/><path class="cls-7" d="M1049.86,206.57h-53.6l0.12-16.12c11.16,0.68,22.31,1.73,33.47,1.92,6.51,0.11,13.05-1.14,19.58-1.78Z"/><path class="cls-8" d="M1023.07,1474.83h-937c-4,0-8,.08-12,0-14.52-.39-24.39-9.62-25.64-24-0.23-2.65-.09-5.33-0.09-8q0-546,0-1092A59.2,59.2,0,0,1,49,339.85c2.2-11.6,10.75-19.41,22.56-20.82a76.34,76.34,0,0,1,9-.2q942,0,1884,0a55.12,55.12,0,0,1,13.82,1.38c10.81,2.83,17.4,11.39,18,22.48,0.16,3,.06,6,0.06,9q0,545.49,0,1091a28.1,28.1,0,0,0,0,3c1.92,17.78-11.09,29.4-29.32,29.37q-381-.55-762-0.25h-182ZM138,466.78c0,3.67,0,7.33,0,11q0,457.91,0,915.81a56.6,56.6,0,0,0,.05,6c0.23,2.19.81,4.34,1.2,6.3,20.57,2.11,1766.6,1.13,1774.76-1.2V466.35c-0.08-1.66-.23-3.33-0.23-5,0-16.33.25-32.66-.1-49-0.35-16.15-10.48-25.8-26.6-26.12-2.66-.05-5.33,0-8,0H171.63c-3,0-6-.07-9,0-14.62.5-24.56,10-24.76,24.53C137.62,429.46,137.95,448.12,138,466.78Z"/><path class="cls-9" d="M1019.46,1608.64c-29.11,1.48-51-23.42-51.06-50s21.73-50.6,50.76-50.55,50.81,24.31,50.56,50.75C1069.45,1585.61,1047.59,1609.75,1019.46,1608.64Z"/><path class="cls-10" d="M1020.29,172.55c-40.06,1.85-77.65-36-76.56-77.64C944.79,54,976.27,19.17,1020.05,19c44.38-.19,78,33.88,77.55,77.91C1097.19,140.66,1062.05,173.6,1020.29,172.55Zm0.47-144.11c-36.87-1.17-68.54,28.75-68.22,68.08,0.31,38,28.94,67.08,67.25,67.5,38.88,0.43,68-29.84,68.55-68C1088.82,59.18,1057.33,27.11,1020.76,28.45Z"/><path class="cls-11" d="M1914,466.35v938.33c-8.16,2.33-1754.19,3.31-1774.76,1.2-0.39-2-1-4.11-1.2-6.3a56.6,56.6,0,0,1-.05-6q0-457.91,0-915.81c0-3.67,0-7.33,0-11,2.33,0,4.66.06,7,.06q879,0,1758,0C1906.7,466.82,1910.35,466.51,1914,466.35ZM859.71,1279.71c-2-.59-2.89-1.11-3.82-1.11q-189.38-.1-378.76-0.11a34.36,34.36,0,0,0-4.93.57,1.9,1.9,0,0,0-.76.61c-0.24.23-.45,0.48-1.35,1.43l0.62,12.48c16.68,2,381.36,1.23,388.77-.75a38,38,0,0,0,.58-4.71C860.08,1285.49,859.85,1282.85,859.71,1279.71Zm-235-619.61h273V645.45h-273v14.66Zm76.61,585.8c-11.77-2.29-223.58-1.76-230.38.4v13.56H701.34v-14Zm-40.2-568.46H483.8c0,3.65-.07,6.6,0,9.54,0,1.59.37,3.16,0.61,5.08h177c0.16-3.64.39-6.57,0.39-9.51A41.3,41.3,0,0,0,661.13,677.45Zm946.28,602.09c-12.15-2.3-131.83-1.73-138.38.44v13.62h138.38v-14.05ZM618.32,739.46H484.37v14.78H617.65c0.26-2,.59-3.62.64-5.2C618.38,746.09,618.32,743.14,618.32,739.46Zm-0.37-30H484.36v14.11C496.89,725.79,611,725.23,618,723V709.45ZM451.86,487.59c-12-2.07-104-1.68-111.37.28v13.27c11.52,2,103.39,1.59,110.87-.42,0.16-1.51.42-3.13,0.47-4.76C451.92,493.34,451.86,490.71,451.86,487.59Zm896.27,678.67c24,1.92,98.07,1.09,105-1v-13.79h-105v14.82Zm157.13-489H1401v14.76h104.23V677.31ZM612.34,627.54c11.79,2.18,92.59,1.69,99.23-.42V613.45H612.34v14.1ZM493.61,1373h-97.2v14.68h97.32c0.21-3.25.51-5.86,0.51-8.47A61.3,61.3,0,0,0,493.61,1373Zm0.22-792.16c-32.24.06-63.9-.21-95.54,0.18v15.87c32.27,0,64,0,95.54,0v-16Zm58.53,523.11c18,2.14,88.35,1.3,94.69-.89v-13.72H552.36v14.61ZM1386,676.73c-31.88.34-62.54-.48-93,0.5v15h93v-15.5Zm-591.11,269V931h-88v14.75h88Zm-72.55,363.43c-18.81-2.19-83-1.36-89.25.85v13.7h88.49c0.3-2.11.67-3.68,0.73-5.27C722.4,1315.52,722.32,1312.59,722.32,1309.17ZM641.46,1121H552.4v15.31c30,0,59.33.06,89.06-.05V1121Zm776.33,14.76h87.3v-15h-86.63c-0.26,2-.59,3.62-0.64,5.2C1417.72,1128.94,1417.79,1131.9,1417.79,1135.75ZM722.7,692.09h87.06V677.46H722.7v14.63Zm-264.23,93.7c15.82,2.11,78.14,1.37,85.06-.94,0.12-2.21.4-4.52,0.31-6.82s-0.58-4.39-.91-6.77H458.47v14.53Zm-1.88,285.83H537v-14.84c-20.51-1.76-73.13-1-80.41,1.12v13.72Zm80.65-46.75h-80v14.86h80v-14.86Zm834-285.49H1291v15.4c27.19,0.06,53.65.36,80.18-.15V739.38ZM456.77,1135.51c18.33,1.81,73.58,1.14,80.42-.84V1120.8H456.77v14.72Zm80.49-46.17H457v14.81h80.24v-14.81Zm43.81,234.4V1309H500.87v14.75h80.21Zm872.11-30v-15h-74.06v15h74.06ZM1292.67,659.66c12.34,2.17,66.06,1.64,72.41-.48V645.51h-72.41v14.15ZM567.83,898.91H495.15v14.75h72.68V898.91ZM398.2,691.74c13,2.14,64.64,1.56,70.87-.59V677.53H398.2v14.21Zm154.18,379.84h71.37v-14.78H552.38v14.78ZM469.06,882.15V867.3h-70.4v14.85h70.4ZM398.14,724.29c23,1.77,64.24,1,71-1.08V709.46h-71v14.83Zm0-64.05c21.06,1.77,64.19,1.08,71-1v-13.8h-71v14.79Zm154.25,379.34h71.37v-14.76H552.36v14.76Zm858.24,316h71v-14.84c-21.87-1.74-63.86-1-71,1.19v13.65ZM469.53,613c-23.83-.41-47.44-0.16-71.28-0.22-0.24,3.53-.56,5.82-0.5,8.09,0.07,2.51.49,5,.74,7.36,19.89,1.73,63.81,1,71-1.1V613Zm-0.34,141.41v-15H398.46v15h70.72Zm886.71-205H1287v14.78h68.87V549.38ZM688.24,1135.61h67.59v-14c-11.65-2.21-60.56-1.76-67.59.56v13.45ZM463.67,1341H396.44v14.62h67.22V1341ZM743.73,739.46H678.36v14.77h65.37V739.46Zm0-30H678.38v14.76h65.37V709.47Zm518.72-96.33v15.13h63.15V613.14h-63.15ZM753.7,1089.32h-61v14.82h61v-14.82ZM487.3,1309.4c-11.44-2.12-53.74-1.68-60.29.44v13.72H487.3V1309.4Zm957.32-49.21H1505v-14.66c-15.36-1.69-53.13-1.13-60.39.88v13.78Zm-154-474H1351v-14.8c-19.23-1.71-53.36-1-60.35,1.13v13.67ZM517.52,930.8h-60.4v14.78c17.65,1.69,53.31,1.07,60.4-1V930.8Zm-177.07-397H399.1V518.86H340.45v14.92Zm55.77,695.92c13.95,1.94,52.55,1.41,59.3-.6v-13.37c-13.58-1.95-52.17-1.42-59.3.78v13.19Zm437.12-108.82c-16.82-1.63-52.3-1.06-59.07.79v13.94h59.07v-14.73ZM543.24,645.47H484.37v14.58h58.88V645.47Zm0,222H484.37v14.58h58.88V867.47Zm186.2,190.13c-11.88-2.23-50-1.75-56.41.48v13.53h56.41v-14Zm15.42-1.06v15.15h56.23v-15.15H744.86Zm80.37,32.83H769v14.75h56.19v-14.75ZM772,1024.79H716.51v14.81H772v-14.81Zm660,190c-9.67,0-18.24-.11-26.81,0-8.8.14-17.67-.67-26.28,0.53v14.92H1432v-15.48ZM597.28,613.54H544.2v14.77h53.08V613.54Zm-39.84,760c-12.15-2.2-44-1.72-50.38.51v13.54h50.38v-14.05Zm821.32-49.85h50.39v-14.91h-50.39v14.91Zm50.59-78.88c-9.45,0-17.74,0-26,0s-16.35.11-24.4,0.16v15.3h50.43v-15.47ZM560.12,786.88c9.41,0,17.67.22,25.92-.06,8.44-.29,17,1.28,25.12-1V771.45h-51v15.43Zm-191,15.73v15.06h50.26V802.62H369.13Zm59.46,109.94C436,914.75,469.51,915,479,913V898.16c-9.08,0-17.39,0-25.7,0s-16.33.09-24.73,0.14v14.25ZM560.15,659.67c11.42,2.07,42.49,1.65,49-.49v-13.7h-49v14.19Zm790.14,461v15H1399v-15h-48.72Zm-30.1-145h46.9v-14.8h-46.9v14.8ZM396.48,1198.26c16,0.07,31.32.27,46.75-.12v-15.07H396.48v15.19Zm1116.75-46.93h-44.18v15.4c15.21,0.09,29.62.17,44.18,0v-15.37ZM368.76,849.55H411.2V834.94H368.76v14.61ZM1290.9,709.26v15h42.75v-15H1290.9ZM411.35,549.5H368.91v14.61h42.44V549.5Zm73.2,63.82v14.75h43.19V613.32H484.55ZM439.24,771.39H398.41v15.34c14.09,0.2,27.45.29,40.83,0V771.39Zm877.89,159.27v15.6c6.92,0,13.16,0,19.4,0,6.45,0,12.9-.12,19.35-0.19V930.66h-38.75ZM911.69,1279.24c-14.39-1.86-30.33-1.37-36.65.87v13.65h36.65v-14.52Zm495.79-222.39h-36.4v15.49c12.57-.34,24.34.63,36.4-0.59v-14.89Zm-862.17-476c-13,0-24.78-.43-36.33.27v15h36.33V580.82Zm936.41,634.69h-36.83V1230h36.83v-14.53Zm-190.88-348.3v15.12h34.88V867.21h-34.88Zm1.94,47.11c12.23-.07,23.32.32,34.45-0.21V898.92h-34.45v15.4Zm27.11-395.45h-34.73v14.85h34.73V518.87ZM428.78,1166.12h34.64v-14.78H428.78v14.78Zm926.77-109.8c-12.13-.1-23.43-0.69-34.7.38V1072c11.87,0.47,23.16.47,34.7,0.07v-15.72Zm61.71-317H1385v14.74h32.23V739.31ZM657.84,930.89H625.12v14.77h32.72V930.89Zm-48.71,14.8V930.86H576.56V945.7h32.57ZM716.5,1245.23v15.22c11.39,0.36,22.09.75,32.85-.24v-15H716.5Zm684.69-458.91V771c-11.37-.22-22.08-0.71-32.76.27v15.06h32.76ZM1529.75,1341h-33.41v14.77h33.41V1341ZM1342.63,534.27c11-.13,21,0.46,31.07-0.33V518.27c-10.68.21-20.72-.62-31.07,0.5v15.5Zm25.48,29.93h31.4V548.75c-10.92.2-21-.43-31.4,0.38V564.2ZM427,1278.82v14.85h30v-14.85H427Zm30.14-18.64v-14.74H426.84v14.74H457.1Zm952.74-614.8H1379.1v14.8h30.74v-14.8Zm-777.28,79a155.15,155.15,0,0,0,28.7,0V709.29a193.66,193.66,0,0,0-28.7-.15v15.19Zm627.9-237.46v14.76h29.21V486.87h-29.21Zm117.81,488.78H1407V960.24h-28.73v15.41ZM632.77,754.16H661V739.5H632.77v14.67ZM701.28,1025H672.82v14.74h28.46V1025Zm-244-64.32H429v15h28.34v-15Zm-0.08,47.59v-15H429.06v15h28.17ZM676.61,692.38a161.36,161.36,0,0,0,28.35,0V677.52H676.61v14.86Zm673.78,31.74h27.42V709.35h-27.42v14.77ZM559.15,945.8v-15c-9.43-.7-18.15-1-26.68,0v15h26.68Zm761.08-96.16h26.85V834.92h-26.85v14.72Zm51.87,96h27.39V931.06H1372.1v14.59Zm-14-128.17h23.09V803.06h-23.09v14.43Zm-14.84-14.65h-22.74v14.89h22.74V802.83Zm-607,520.65h21.66v-14.58H736.23v14.58Zm642.28,49.33v14.76h21.09v-14.76h-21.09Zm-780.32-49.29h19.54v-14.81H598.19v14.81Zm93.18-392.57H672.24v14.66h19.13V930.95Zm676.18,158.41H1349.1v14.53h18.45v-14.53Zm15.69-239.48v-15h-18.18v15h18.18ZM560.18,596.29H577.1V581.56H560.18v14.73Zm805.11,586.4h-16.37v15h16.37v-15ZM560.39,882h16.93V867.43H560.39V882Zm773.74,207.32h-17.81V1104h17.81v-14.72ZM810.72,945.57h14.35V930.85H810.72v14.72Zm-228.45-32H597V899H582.27v14.61Zm693.31-332.32H1261v15.38l14.61-.67V581.27ZM444.46,533.69h15V519.11h-15v14.58Zm-32-14.91v14.8h14.93v-14.8H412.51Zm906.66-16.9V487.23h-14.48v14.65h14.48Zm59.75,680.93v14.67h14.68v-14.67h-14.68ZM642.2,1039.52h15.37v-14.63H642.2v14.63ZM841,692.5V677.36H826.33V692.5H841Zm-198.74,379h15.55v-14.8H642.21v14.8ZM912.82,645.2v15.12h14.92V645.2H912.82ZM1303.2,1008V993.33h-12.45V1008h12.45Zm39.42-109.31v15.08h12.49V898.65h-12.49Zm2.07-270.92h12.66V613.25h-12.66v14.48ZM771.82,739.29H758.29v14.77h13.53V739.29ZM730.14,628.21H743.6V613.49H730.14v14.73Zm-67.59,476.07h13.15V1089.6H662.55v14.68Zm109-379.73V709.49H758.5v15.06h13.09Zm531.72,302.9h-12.49v14.72h12.49v-14.72Zm29.84,14.51v-14.59h-12.36V1042h12.36ZM1457,1323.8v-14.72H1444.9v14.72H1457ZM670,1120.09l-11.48.55v14.89H670v-15.44Zm-99.48,268.34,10.56-.73v-15.59l-11.41.55c0,4.36-.06,7.63,0,10.91A41.49,41.49,0,0,0,570.55,1388.43Z"/><path class="cls-12" d="M1914,466.35c-3.65.16-7.31,0.47-11,.47q-879,0-1758,0c-2.33,0-4.66,0-7-.06-0.08-18.66-.41-37.32-0.15-56,0.2-14.51,10.14-24,24.76-24.53,3-.1,6,0,9,0H1879.08c2.67,0,5.33,0,8,0,16.12,0.31,26.24,10,26.6,26.12,0.35,16.32.08,32.65,0.1,49C1913.78,463,1913.93,464.69,1914,466.35ZM266.65,408.74c-9.51.27-18.48,9.51-18.38,18.95s9.27,18.58,18.7,18.63c9.84,0.06,19.31-9.71,18.86-19.46C285.4,417.28,276.07,408.47,266.65,408.74Zm84.73,0c-9.43-.2-18.71,8.66-19.08,18.21-0.38,9.81,9.08,19.46,18.95,19.34,9.48-.12,18.56-9.25,18.6-18.71S360.89,409,351.37,408.75Zm-161.3,37.46a18.7,18.7,0,0,0,.47-37.37c-10.24-.31-18.88,8.42-18.75,18.95A18.58,18.58,0,0,0,190.07,446.21Z"/><path class="cls-7" d="M1020.76,28.45c36.56-1.34,68.06,30.73,67.57,67.59-0.51,38.14-29.67,68.41-68.55,68-38.3-.42-66.94-29.45-67.25-67.5C952.23,57.19,983.9,27.27,1020.76,28.45ZM980,78.53c-6.8,6.48-6.79,15-5.56,23,5.22,34.29,38.14,49.94,67.2,36.73,20.17-9.17,28.67-31.41,25.93-47.47-3.33-19.51-14.34-33.8-33.88-39-9.59-2.56-20.28-4.31-29.6,2.57-5.13.83-10.83,0.51-15.26,2.73C980.28,61.41,979,69.76,980,78.53Z"/><path class="cls-13" d="M859.71,1279.71c0.14,3.14.37,5.78,0.35,8.41a38,38,0,0,1-.58,4.71c-7.4,2-372.09,2.73-388.77.75l-0.62-12.48c0.89-1,1.11-1.2,1.35-1.43a1.9,1.9,0,0,1,.76-0.61,34.36,34.36,0,0,1,4.93-.57q189.38,0,378.76.11C856.82,1278.61,857.75,1279.13,859.71,1279.71Z"/><path class="cls-14" d="M624.72,660.11V645.45h273v14.66h-273Z"/><path class="cls-13" d="M701.34,1245.9v14H471V1246.3C477.76,1244.14,689.56,1243.62,701.34,1245.9Z"/><path class="cls-14" d="M661.13,677.45a41.3,41.3,0,0,1,.65,5.12c0,2.94-.23,5.87-0.39,9.51h-177c-0.24-1.92-.56-3.49-0.61-5.08-0.09-2.94,0-5.89,0-9.54H661.13Z"/><path class="cls-15" d="M1607.41,1279.54v14.05H1469V1280C1475.59,1277.81,1595.27,1277.24,1607.41,1279.54Z"/><path class="cls-14" d="M618.32,739.46c0,3.68.07,6.63,0,9.58-0.05,1.58-.38,3.15-0.64,5.2H484.37V739.46H618.32Z"/><path class="cls-14" d="M618,709.45V723c-6.93,2.26-121.06,2.82-133.59.6V709.45H618Z"/><path class="cls-16" d="M451.86,487.59c0,3.12.06,5.75,0,8.37-0.05,1.62-.31,3.24-0.47,4.76-7.49,2-99.35,2.39-110.87.42V487.87C347.83,485.92,439.88,485.52,451.86,487.59Z"/><path class="cls-17" d="M1348.13,1166.26v-14.82h105v13.79C1446.19,1167.35,1372.14,1168.19,1348.13,1166.26Z"/><path class="cls-15" d="M1505.26,677.31v14.76H1401V677.31h104.23Z"/><path class="cls-14" d="M612.34,627.54v-14.1h99.23v13.67C704.94,629.23,624.13,629.72,612.34,627.54Z"/><path class="cls-16" d="M493.61,1373a61.3,61.3,0,0,1,.63,6.21c0,2.61-.3,5.21-0.51,8.47H396.41V1373h97.2Z"/><path class="cls-18" d="M493.82,580.81v16c-31.58,0-63.27,0-95.54,0V581C429.93,580.6,461.59,580.88,493.82,580.81Z"/><path class="cls-19" d="M552.36,1103.93v-14.61H647V1103C640.7,1105.23,570.36,1106.06,552.36,1103.93Z"/><path class="cls-17" d="M1386,676.73v15.5h-93v-15C1323.44,676.26,1354.1,677.07,1386,676.73Z"/><path class="cls-19" d="M794.87,945.74h-88V931h88v14.75Z"/><path class="cls-19" d="M722.32,1309.17c0,3.41.08,6.35,0,9.27-0.06,1.59-.43,3.17-0.73,5.27H633.07V1310C639.37,1307.82,703.51,1307,722.32,1309.17Z"/><path class="cls-19" d="M641.46,1121v15.26c-29.73.11-59.08,0-89.06,0.05V1121h89.06Z"/><path class="cls-15" d="M1417.79,1135.75c0-3.85-.07-6.81,0-9.76,0.05-1.58.38-3.15,0.64-5.2h86.63v15h-87.3Z"/><path class="cls-19" d="M722.7,692.09V677.46h87.06v14.63H722.7Z"/><path class="cls-20" d="M458.47,785.79V771.26h84.45c0.34,2.38.82,4.56,0.91,6.77s-0.19,4.6-.31,6.82C536.6,787.16,474.28,787.89,458.47,785.79Z"/><path class="cls-21" d="M456.59,1071.61v-13.72c7.28-2.15,59.91-2.88,80.41-1.12v14.84H456.59Z"/><path class="cls-21" d="M537.23,1024.87v14.86h-80v-14.86h80Z"/><path class="cls-21" d="M1371.23,739.38v15.25c-26.53.52-53,.21-80.18,0.15v-15.4h80.18Z"/><path class="cls-21" d="M456.77,1135.51V1120.8h80.42v13.88C530.35,1136.65,475.09,1137.33,456.77,1135.51Z"/><path class="cls-21" d="M537.26,1089.34v14.81H457v-14.81h80.24Z"/><path class="cls-19" d="M581.08,1323.74H500.87V1309h80.21v14.75Z"/><path class="cls-21" d="M1453.18,1293.79h-74.06v-15h74.06v15Z"/><path class="cls-21" d="M1292.67,659.66V645.51h72.41v13.67C1358.73,661.3,1305,661.84,1292.67,659.66Z"/><path class="cls-19" d="M567.83,898.91v14.75H495.15V898.91h72.68Z"/><path class="cls-17" d="M398.2,691.74V677.53h70.87v13.63C462.84,693.3,411.17,693.88,398.2,691.74Z"/><path class="cls-14" d="M552.38,1071.58v-14.78h71.37v14.78H552.38Z"/><path class="cls-20" d="M469.06,882.15h-70.4V867.3h70.4v14.85Z"/><path class="cls-17" d="M398.14,724.29V709.46h71v13.75C462.38,725.33,421.12,726.06,398.14,724.29Z"/><path class="cls-17" d="M398.11,660.23V645.44h71v13.8C462.3,661.31,419.18,662,398.11,660.23Z"/><path class="cls-14" d="M552.36,1039.57v-14.76h71.37v14.76H552.36Z"/><path class="cls-17" d="M1410.6,1355.59v-13.65c7.15-2.22,49.15-2.93,71-1.19v14.84h-71Z"/><path class="cls-17" d="M469.53,613v14.13c-7.23,2.15-51.15,2.83-71,1.1-0.25-2.35-.67-4.85-0.74-7.36-0.06-2.27.26-4.56,0.5-8.09C422.09,612.85,445.69,612.61,469.53,613Z"/><path class="cls-17" d="M469.19,754.43H398.46v-15h70.72v15Z"/><path class="cls-17" d="M1355.9,549.38v14.78H1287V549.38h68.87Z"/><path class="cls-16" d="M688.24,1135.61v-13.45c7-2.32,55.95-2.77,67.59-.56v14H688.24Z"/><path class="cls-16" d="M463.67,1341v14.62H396.44V1341h67.22Z"/><path class="cls-14" d="M743.73,739.46v14.77H678.36V739.46h65.37Z"/><path class="cls-14" d="M743.75,709.47v14.76H678.38V709.47h65.37Z"/><path class="cls-18" d="M1262.47,613.14h63.15v15.13h-63.15V613.14Z"/><path class="cls-16" d="M753.7,1089.32v14.82h-61v-14.82h61Z"/><path class="cls-22" d="M487.3,1309.4v14.16H427v-13.72C433.56,1307.72,475.85,1307.28,487.3,1309.4Z"/><path class="cls-15" d="M1444.62,1260.19v-13.78c7.26-2,45-2.57,60.39-.88v14.66h-60.39Z"/><path class="cls-22" d="M1290.61,786.22V772.55c7-2.18,41.11-2.84,60.35-1.13v14.8h-60.35Z"/><path class="cls-22" d="M517.52,930.8v13.75c-7.08,2.1-42.75,2.72-60.4,1V930.8h60.4Z"/><path class="cls-20" d="M340.45,533.78V518.86H399.1v14.92H340.45Z"/><path class="cls-16" d="M396.22,1229.71v-13.19c7.12-2.2,45.71-2.73,59.3-.78v13.37C448.77,1231.12,410.17,1231.65,396.22,1229.71Z"/><path class="cls-17" d="M833.34,1120.88v14.73H774.27v-13.94C781,1119.82,816.52,1119.25,833.34,1120.88Z"/><path class="cls-19" d="M543.24,645.47v14.58H484.37V645.47h58.88Z"/><path class="cls-19" d="M543.24,867.47v14.58H484.37V867.47h58.88Z"/><path class="cls-20" d="M729.44,1057.6v14H673v-13.53C679.49,1055.85,717.56,1055.37,729.44,1057.6Z"/><path class="cls-22" d="M744.86,1056.54h56.23v15.15H744.86v-15.15Z"/><path class="cls-22" d="M825.23,1089.37v14.75H769v-14.75h56.19Z"/><path class="cls-18" d="M772,1024.79v14.81H716.51v-14.81H772Z"/><path class="cls-17" d="M1432,1214.79v15.48h-53.09v-14.92c8.62-1.19,17.48-.39,26.28-0.53C1413.76,1214.69,1422.33,1214.79,1432,1214.79Z"/><path class="cls-17" d="M597.28,613.54v14.77H544.2V613.54h53.08Z"/><path class="cls-19" d="M557.44,1373.51v14.05H507.06V1374C513.45,1371.79,545.29,1371.31,557.44,1373.51Z"/><path class="cls-22" d="M1378.77,1323.66v-14.91h50.39v14.91h-50.39Z"/><path class="cls-22" d="M1429.35,1244.78v15.47h-50.43v-15.3c8-.06,16.22-0.13,24.4-0.16S1419.9,1244.78,1429.35,1244.78Z"/><path class="cls-21" d="M560.12,786.88V771.45h51v14.41c-8.11,2.24-16.69.67-25.12,1C577.79,787.1,569.53,786.88,560.12,786.88Z"/><path class="cls-20" d="M369.13,802.62h50.26v15.06H369.13V802.62Z"/><path class="cls-22" d="M428.59,912.55V898.31c8.4-.05,16.57-0.12,24.73-0.14s16.62,0,25.7,0V913C469.51,915,436,914.75,428.59,912.55Z"/><path class="cls-21" d="M560.15,659.67V645.48h49v13.7C602.64,661.32,571.58,661.74,560.15,659.67Z"/><path class="cls-21" d="M1350.29,1120.63H1399v15h-48.72v-15Z"/><path class="cls-21" d="M1320.2,975.68v-14.8h46.9v14.8h-46.9Z"/><path class="cls-20" d="M396.48,1198.26v-15.19h46.75v15.07C427.8,1198.53,412.47,1198.33,396.48,1198.26Z"/><path class="cls-15" d="M1513.23,1151.33v15.37c-14.56.2-29,.12-44.18,0v-15.4h44.18Z"/><path class="cls-23" d="M368.76,849.55V834.94H411.2v14.61H368.76Z"/><path class="cls-21" d="M1290.9,709.26h42.75v15H1290.9v-15Z"/><path class="cls-23" d="M411.35,549.5v14.61H368.91V549.5h42.44Z"/><path class="cls-14" d="M484.55,613.32h43.19v14.75H484.55V613.32Z"/><path class="cls-21" d="M439.24,771.39v15.34c-13.38.28-26.75,0.19-40.83,0V771.39h40.83Z"/><path class="cls-21" d="M1317.13,930.66h38.75v15.41c-6.45.06-12.9,0.15-19.35,0.19-6.24,0-12.49,0-19.4,0v-15.6Z"/><path class="cls-20" d="M911.69,1279.24v14.52H875V1280.1C881.36,1277.86,897.3,1277.38,911.69,1279.24Z"/><path class="cls-15" d="M1407.48,1056.85v14.89c-12.06,1.23-23.83.25-36.4,0.59v-15.49h36.4Z"/><path class="cls-19" d="M545.31,580.82v15.29H509v-15C520.53,580.38,532.29,580.84,545.31,580.82Z"/><path class="cls-15" d="M1481.72,1215.51V1230h-36.83v-14.53h36.83Z"/><path class="cls-21" d="M1290.84,867.21h34.88v15.12h-34.88V867.21Z"/><path class="cls-23" d="M1292.78,914.32v-15.4h34.45v15.19C1316.11,914.64,1305,914.25,1292.78,914.32Z"/><path class="cls-21" d="M1319.89,518.87v14.85h-34.73V518.87h34.73Z"/><path class="cls-20" d="M428.78,1166.12v-14.78h34.64v14.78H428.78Z"/><path class="cls-24" d="M1355.55,1056.32V1072c-11.54.4-22.83,0.41-34.7-.07V1056.7C1332.12,1055.63,1343.42,1056.22,1355.55,1056.32Z"/><path class="cls-15" d="M1417.26,739.31v14.74H1385V739.31h32.23Z"/><path class="cls-19" d="M657.84,930.89v14.77H625.12V930.89h32.72Z"/><path class="cls-21" d="M609.13,945.7H576.56V930.86h32.57V945.7Z"/><path class="cls-20" d="M716.5,1245.23h32.85v15c-10.76,1-21.46.6-32.85,0.24v-15.22Z"/><path class="cls-15" d="M1401.19,786.31h-32.76V771.25c10.68-1,21.39-.49,32.76-0.27v15.34Z"/><path class="cls-15" d="M1529.75,1341v14.77h-33.41V1341h33.41Z"/><path class="cls-15" d="M1342.63,534.27v-15.5c10.35-1.12,20.39-.3,31.07-0.5v15.67C1363.65,534.73,1353.61,534.14,1342.63,534.27Z"/><path class="cls-15" d="M1368.12,564.2V549.13c10.37-.81,20.47-0.18,31.4-0.38V564.2h-31.4Z"/><path class="cls-23" d="M427,1278.82h30v14.85H427v-14.85Z"/><path class="cls-23" d="M457.1,1260.18H426.84v-14.74H457.1v14.74Z"/><path class="cls-15" d="M1409.84,645.38v14.8H1379.1v-14.8h30.74Z"/><path class="cls-24" d="M632.55,724.33V709.14a193.66,193.66,0,0,1,28.7.15v15.07A155.15,155.15,0,0,1,632.55,724.33Z"/><path class="cls-16" d="M1260.45,486.87h29.21v14.76h-29.21V486.87Z"/><path class="cls-15" d="M1378.26,975.64V960.24H1407v15.41h-28.73Z"/><path class="cls-24" d="M632.77,754.16V739.5H661v14.67H632.77Z"/><path class="cls-23" d="M701.28,1025v14.74H672.82V1025h28.46Z"/><path class="cls-24" d="M457.31,960.71v15H429v-15h28.34Z"/><path class="cls-23" d="M457.23,1008.3H429.06v-15h28.17v15Z"/><path class="cls-24" d="M676.61,692.38V677.52H705v14.89A161.36,161.36,0,0,1,676.61,692.38Z"/><path class="cls-15" d="M1350.39,724.12V709.35h27.42v14.77h-27.42Z"/><path class="cls-19" d="M559.15,945.8H532.47v-15c8.52-1,17.24-.71,26.68,0v15Z"/><path class="cls-22" d="M1320.23,849.64V834.92h26.85v14.72h-26.85Z"/><path class="cls-15" d="M1372.1,945.65V931.06h27.39v14.59H1372.1Z"/><path class="cls-15" d="M1358.09,817.48V803.06h23.09v14.43h-23.09Z"/><path class="cls-22" d="M1343.25,802.83v14.89h-22.74V802.83h22.74Z"/><path class="cls-18" d="M736.23,1323.48v-14.58h21.66v14.58H736.23Z"/><path class="cls-16" d="M1378.51,1372.81h21.09v14.76h-21.09v-14.76Z"/><path class="cls-18" d="M598.19,1323.52v-14.81h19.54v14.81H598.19Z"/><path class="cls-22" d="M691.37,930.95v14.66H672.24V930.95h19.13Z"/><path class="cls-23" d="M1367.55,1089.36v14.53H1349.1v-14.53h18.45Z"/><path class="cls-15" d="M1383.24,849.88h-18.18v-15h18.18v15Z"/><path class="cls-24" d="M560.18,596.29V581.56H577.1v14.73H560.18Z"/><path class="cls-24" d="M1365.29,1182.69v15h-16.37v-15h16.37Z"/><path class="cls-23" d="M560.39,882V867.43h16.93V882H560.39Z"/><path class="cls-18" d="M1334.13,1089.32V1104h-17.81v-14.72h17.81Z"/><path class="cls-24" d="M810.72,945.57V930.85h14.35v14.72H810.72Z"/><path class="cls-24" d="M582.27,913.59V899H597v14.61H582.27Z"/><path class="cls-13" d="M1275.58,581.27V596l-14.61.67V581.27h14.61Z"/><path class="cls-16" d="M444.46,533.69V519.11h15v14.58h-15Z"/><path class="cls-14" d="M412.51,518.78h14.93v14.8H412.51v-14.8Z"/><path class="cls-13" d="M1319.16,501.88h-14.48V487.23h14.48v14.65Z"/><path class="cls-23" d="M1378.91,1182.81h14.68v14.67h-14.68v-14.67Z"/><path class="cls-18" d="M642.2,1039.52v-14.63h15.37v14.63H642.2Z"/><path class="cls-24" d="M841,692.5H826.33V677.36H841V692.5Z"/><path class="cls-18" d="M642.21,1071.5v-14.8h15.55v14.8H642.21Z"/><path class="cls-24" d="M912.82,645.2h14.92v15.12H912.82V645.2Z"/><path class="cls-13" d="M1303.2,1008h-12.45V993.33h12.45V1008Z"/><path class="cls-23" d="M1342.62,898.65h12.49v15.08h-12.49V898.65Z"/><path class="cls-13" d="M1344.69,627.73V613.25h12.66v14.48h-12.66Z"/><path class="cls-18" d="M771.82,739.29v14.77H758.29V739.29h13.53Z"/><path class="cls-18" d="M730.14,628.21V613.49H743.6v14.73H730.14Z"/><path class="cls-24" d="M662.55,1104.28V1089.6h13.15v14.68H662.55Z"/><path class="cls-18" d="M771.59,724.55H758.5V709.49h13.09v15.06Z"/><path class="cls-23" d="M1303.31,1027.45v14.72h-12.49v-14.72h12.49Z"/><path class="cls-13" d="M1333.15,1042h-12.36v-14.59h12.36V1042Z"/><path class="cls-19" d="M1457,1323.8H1444.9v-14.72H1457v14.72Z"/><path class="cls-18" d="M670,1120.09v15.44H658.55v-14.89Z"/><path class="cls-24" d="M570.55,1388.43a41.49,41.49,0,0,1-.82-4.86c-0.09-3.27,0-6.55,0-10.91l11.41-.55v15.59Z"/><path class="cls-25" d="M266.65,408.74c9.43-.27,18.75,8.54,19.19,18.12,0.44,9.75-9,19.51-18.86,19.46-9.43-.05-18.6-9.19-18.7-18.63S257.13,409,266.65,408.74Z"/><path class="cls-26" d="M351.37,408.75c9.51,0.2,18.5,9.37,18.47,18.84s-9.11,18.6-18.6,18.71c-9.87.12-19.33-9.53-18.95-19.34C332.66,417.41,341.94,408.55,351.37,408.75Z"/><path class="cls-27" d="M190.07,446.21a18.58,18.58,0,0,1-18.28-18.42c-0.12-10.53,8.51-19.25,18.75-18.95A18.7,18.7,0,0,1,190.07,446.21Z"/><path class="cls-28" d="M1004.09,54.4c9.32-6.88,20-5.13,29.6-2.57,19.54,5.21,30.55,19.5,33.88,39,2.74,16.06-5.76,38.3-25.93,47.47-29.06,13.21-62-2.44-67.2-36.73-1.23-8.06-1.24-16.57,5.56-23,0.8,1.45,1.48,3,2.41,4.34,4.87,7.13,12.2,10.5,19.57,8.81,8.21-1.88,13.59-7,15.17-15.26s-1.8-14.86-8.77-19.55C1007,56,1005.53,55.22,1004.09,54.4Z"/><path class="cls-1" d="M1004.09,54.4c1.44,0.82,2.93,1.55,4.3,2.48,7,4.69,10.36,11.23,8.77,19.55s-7,13.38-15.17,15.26c-7.37,1.69-14.69-1.68-19.57-8.81-0.93-1.36-1.62-2.89-2.41-4.34-1-8.78.28-17.13,8.83-21.4C993.26,54.91,999,55.23,1004.09,54.4Z"/></svg>