<svg xmlns="http://www.w3.org/2000/svg" xmlns:xlink="http://www.w3.org/1999/xlink" viewBox="0 0 843 469.64"><defs><style>.cls-1{fill:#f7cd45;}.cls-2{isolation:isolate;}.cls-3{fill:#fff;}.cls-4{opacity:0.9;fill:url(#Gradient_bez_nazwy_2);}.cls-5{fill:#35889a;}.cls-11,.cls-12,.cls-13,.cls-6{mix-blend-mode:multiply;}.cls-7{fill:#f7a069;}.cls-8{fill:#d25710;}.cls-9{fill:#f4d47d;}.cls-10{clip-path:url(#clip-path);}.cls-11{opacity:0.79;}.cls-12{opacity:0.5;}.cls-13{opacity:0.25;}.cls-14{fill:#35b49a;}.cls-15{fill:none;}</style><linearGradient id="Gradient_bez_nazwy_2" x1="250.89" y1="45.31" x2="665.86" y2="460.28" gradientUnits="userSpaceOnUse"><stop offset="0" stop-color="#696e9e"/><stop offset="0.12" stop-color="#696e9e" stop-opacity="0.83"/><stop offset="0.38" stop-color="#696e9e" stop-opacity="0.47"/><stop offset="0.6" stop-color="#696e9e" stop-opacity="0.22"/><stop offset="0.78" stop-color="#696e9e" stop-opacity="0.06"/><stop offset="0.89" stop-color="#696e9e" stop-opacity="0"/></linearGradient><clipPath id="clip-path"><rect class="cls-1" x="342.96" y="238.91" width="102.76" height="65.9" rx="4.9" ry="4.9"/></clipPath></defs><title>Koduje-illustracja-</title><g class="cls-2"><g id="Warstwa_3" data-name="Warstwa 3"><polygon class="cls-3" points="748.68 85.34 397.33 449.53 41.63 85.34 748.68 85.34"/><polygon class="cls-4" points="507.27 32.26 503.5 36.03 493.38 24.88 296.09 24.88 396.04 143.49 312.93 376.06 453.28 517.13 611.76 517.13 801.37 326.36 507.27 32.26"/><polygon class="cls-5" points="278.22 32.35 326.17 32.35 418.63 130.4 370.68 130.4 278.22 32.35"/><rect class="cls-1" x="340.45" y="106.94" width="112.02" height="15.05" rx="5" ry="5"/><g class="cls-6"><rect class="cls-7" x="340.45" y="111.96" width="112.02" height="10.04" rx="4.28" ry="4.28"/></g><rect class="cls-8" x="349.02" y="115.98" width="9.28" height="32.03" rx="3.96" ry="3.96"/><rect class="cls-8" x="435.99" y="115.98" width="9.28" height="32.03" rx="3.96" ry="3.96"/><circle class="cls-8" cx="397.33" cy="276.92" r="140.47"/><circle class="cls-1" cx="394.32" cy="273.41" r="140.47"/><g class="cls-6"><circle class="cls-7" cx="394.32" cy="274.2" r="130.98"/></g><circle class="cls-9" cx="394.65" cy="275.33" r="126.2"/><g class="cls-6"><path class="cls-7" d="M274.38,281.77A131,131,0,0,1,480,174.15,131,131,0,1,0,319.65,380.82,130.68,130.68,0,0,1,274.38,281.77Z"/></g><g class="cls-6"><path class="cls-7" d="M309.05,360.47A120.5,120.5,0,0,0,479.47,190.05Z"/></g><path class="cls-8" d="M495.78,339.52l-10.41-10.41L365.67,313,303,333.71,359.9,390.6A120.66,120.66,0,0,0,495.78,339.52Z"/><rect class="cls-8" x="337.89" y="234.4" width="112.9" height="82.69" rx="6.67" ry="6.67"/><path class="cls-3" d="M485.67,330.4L394.34,313,303,330.17s0,3.12,0,3.54c0,0.92,1.2,1.82,3.08,1.82H482.59c2,0,3.24-1,3.06-2C485.58,333.18,485.67,330.4,485.67,330.4Z"/><path class="cls-1" d="M484.76,328.88l-34-19.54H337.89l-34,19.54c-1.94,1.11-.56,3,2.17,3H482.59C485.33,331.9,486.7,330,484.76,328.88Z"/><rect class="cls-1" x="342.96" y="238.91" width="102.76" height="65.9" rx="4.9" ry="4.9"/><g class="cls-10"><g class="cls-11"><path class="cls-7" d="M392,251.89l15.8,15.8,3.66-1.42,36.29,36.29-5,4.52s-12.22,2.25-12.75,2.25l-32.86-.44L379,290.76l2.76-8.13,0.87-5.26-5.21-7.2,10.38-5.84Z"/></g></g><polygon class="cls-8" points="424.96 122 439.16 106.94 377.39 106.94 363.19 122 424.96 122"/><g class="cls-12"><circle class="cls-7" cx="394.34" cy="273.35" r="28.67"/></g><path class="cls-3" d="M371.19,242.62H353a6.94,6.94,0,0,0-6.92,6.92v18.18a2.45,2.45,0,0,0,4.18,1.73l22.65-22.65A2.45,2.45,0,0,0,371.19,242.62Z"/><circle class="cls-3" cx="394.34" cy="273.35" r="26.55"/><g class="cls-13"><path class="cls-7" d="M423,274.8l-8.53-8.53-3.66,1.42L395,251.89l-4.21,12.45-10.38,5.84,5.21,7.2-0.87,5.26L382,290.76,393.21,302l1.14,0A28.67,28.67,0,0,0,423,274.8Z"/></g><path class="cls-1" d="M395.85,252.83l5,10.09a1.69,1.69,0,0,0,1.27.92l11.14,1.62a1.69,1.69,0,0,1,.93,2.88l-8.06,7.86a1.69,1.69,0,0,0-.49,1.49l1.9,11.09a1.69,1.69,0,0,1-2.45,1.78l-10-5.24a1.69,1.69,0,0,0-1.57,0l-10,5.24a1.69,1.69,0,0,1-2.45-1.78l1.9-11.09a1.69,1.69,0,0,0-.49-1.49l-8.06-7.86a1.69,1.69,0,0,1,.93-2.88l11.14-1.62a1.69,1.69,0,0,0,1.27-.92l5-10.09A1.69,1.69,0,0,1,395.85,252.83Z"/><path class="cls-3" d="M392.72,255.63l-3.83,7.75a2.88,2.88,0,0,1-2.17,1.58l-8.56,1.24a1.38,1.38,0,0,0-.95.59L392,272.29a1.47,1.47,0,0,0,2-1.38V254.85A1.4,1.4,0,0,0,392.72,255.63Z"/><g class="cls-6"><path class="cls-7" d="M447.46,106.94H412.6V122h34.86c2.76,0,5-3.39,5-7.53S450.22,106.94,447.46,106.94Z"/></g><path class="cls-8" d="M447.46,112H412.6v10h34.86A5,5,0,0,0,447.46,112Z"/><polygon class="cls-14" points="511 32.35 463.05 32.35 370.59 130.4 418.54 130.4 511 32.35"/><polygon class="cls-5" points="383.17 116.98 370.59 130.4 418.54 130.4 431.13 116.98 383.17 116.98"/><rect class="cls-3" x="342.96" y="313.04" width="36.98" height="1.55" rx="0.66" ry="0.66"/><rect class="cls-3" x="332.1" y="319.57" width="36.98" height="1.55" rx="0.66" ry="0.66"/><rect class="cls-3" x="319.48" y="326" width="36.98" height="1.55" rx="0.66" ry="0.66"/><circle class="cls-8" cx="394.19" cy="173.08" r="12.96"/><circle class="cls-3" cx="393.34" cy="172.46" r="12.96"/><path class="cls-15" d="M423,274.8A28.67,28.67,0,0,1,394.34,302l-1.14,0,6.9,6.9L433,309.34c0.53,0,12.75-2.25,12.75-2.25l2-7.53Z"/><g class="cls-6"><circle class="cls-7" cx="393.19" cy="172.32" r="10.66"/></g><circle class="cls-1" cx="393.37" cy="172.48" r="10.09"/><path class="cls-8" d="M497,271.63H462.35a3.67,3.67,0,0,0-3.52,3.07c-0.47,2.5,1.25,4.73,3.41,4.73h27.83a3.62,3.62,0,0,0,2.46-1l6.5-6a0.46,0.46,0,0,0,.13-0.42h0v-2.08H497v1.69Z"/><path class="cls-8" d="M482,285.41H462.35a3.67,3.67,0,0,0-3.52,3.07c-0.47,2.5,1.25,4.73,3.41,4.73h12.88a3.62,3.62,0,0,0,2.46-1l6.5-6a0.45,0.45,0,0,0,.14-0.28h0v-2.08H482v1.55Z"/><path class="cls-8" d="M514.36,255.75h-2.21v1.69h-49.8a3.67,3.67,0,0,0-3.52,3.07c-0.47,2.5,1.25,4.73,3.41,4.73h43a3.62,3.62,0,0,0,2.46-1l6.5-6a0.46,0.46,0,0,0,.13-0.42h0v-2.08Z"/><path class="cls-8" d="M326.56,271.63H291.95v-1.69h-2.21V272h0a0.46,0.46,0,0,0,.13.42l6.5,6a3.62,3.62,0,0,0,2.46,1h27.83c2.16,0,3.88-2.23,3.41-4.73A3.67,3.67,0,0,0,326.56,271.63Z"/><path class="cls-8" d="M330.08,260.51a3.67,3.67,0,0,0-3.52-3.07h-49.8v-1.69h-2.21v2.08h0a0.46,0.46,0,0,0,.13.42l6.5,6a3.62,3.62,0,0,0,2.46,1h43C328.83,265.24,330.55,263,330.08,260.51Z"/><path class="cls-8" d="M326.56,285.41H306.9v-1.55h-2.21v2.08h0a0.45,0.45,0,0,0,.14.28l6.5,6a3.62,3.62,0,0,0,2.46,1h12.88c2.16,0,3.88-2.23,3.41-4.73A3.67,3.67,0,0,0,326.56,285.41Z"/><path class="cls-1" d="M498.76,269.53H462.35a3.67,3.67,0,0,0-3.52,3.07c-0.47,2.5,1.25,4.73,3.41,4.73h27.83a3.62,3.62,0,0,0,2.46-1l6.5-6A0.47,0.47,0,0,0,498.76,269.53Z"/><path class="cls-1" d="M514,255.33h-51.6a3.67,3.67,0,0,0-3.52,3.07c-0.47,2.5,1.25,4.73,3.41,4.73h43a3.62,3.62,0,0,0,2.46-1l6.5-6A0.47,0.47,0,0,0,514,255.33Z"/><path class="cls-1" d="M483.81,283.31H462.35a3.67,3.67,0,0,0-3.52,3.07c-0.47,2.5,1.25,4.73,3.41,4.73h12.88a3.62,3.62,0,0,0,2.46-1l6.5-6A0.47,0.47,0,0,0,483.81,283.31Z"/><path class="cls-1" d="M290.15,269.53h36.41a3.67,3.67,0,0,1,3.52,3.07c0.47,2.5-1.25,4.73-3.41,4.73H298.85a3.62,3.62,0,0,1-2.46-1l-6.5-6A0.47,0.47,0,0,1,290.15,269.53Z"/><path class="cls-1" d="M275,255.33h51.6a3.67,3.67,0,0,1,3.52,3.07c0.47,2.5-1.25,4.73-3.41,4.73h-43a3.62,3.62,0,0,1-2.46-1l-6.5-6A0.47,0.47,0,0,1,275,255.33Z"/><path class="cls-1" d="M305.1,283.31h21.46a3.67,3.67,0,0,1,3.52,3.07c0.47,2.5-1.25,4.73-3.41,4.73H313.79a3.62,3.62,0,0,1-2.46-1l-6.5-6A0.47,0.47,0,0,1,305.1,283.31Z"/><rect class="cls-3" x="286.45" y="257.91" width="33.03" height="1.55" rx="0.66" ry="0.66"/><rect class="cls-3" x="296.09" y="271.91" width="23.39" height="1.55" rx="0.66" ry="0.66"/><rect class="cls-3" x="311.3" y="285.69" width="8.18" height="1.55" rx="0.66" ry="0.66"/><rect class="cls-3" x="462.39" y="257.91" width="33.03" height="1.55" rx="0.66" ry="0.66"/><rect class="cls-3" x="462.39" y="271.91" width="23.39" height="1.55" rx="0.66" ry="0.66"/><rect class="cls-3" x="462.39" y="285.69" width="8.18" height="1.55" rx="0.66" ry="0.66"/><polygon class="cls-5" points="479.59 65.66 511 32.35 463.05 32.35 454.91 40.98 479.59 65.66"/><path class="cls-3" d="M347.91,353.78h3.75v2.64h-3.75v7.64H345v-18.5h7.69v2.64h-4.78v5.58Z"/><path class="cls-3" d="M360.17,364.06a5.69,5.69,0,0,1-.26-2.27v-2.91c0-1.72-.58-2.35-1.9-2.35h-1v7.53h-2.91v-18.5h4.39c3,0,4.31,1.4,4.31,4.26v1.45c0,1.9-.61,3.15-1.9,3.75,1.45,0.61,1.93,2,1.93,3.94v2.86a5.45,5.45,0,0,0,.32,2.25h-3ZM357,348.2v5.68h1.14c1.08,0,1.74-.48,1.74-2v-1.82c0-1.32-.45-1.9-1.48-1.9H357Z"/><path class="cls-3" d="M364.48,350c0-3,1.56-4.65,4.41-4.65s4.41,1.69,4.41,4.65v9.62c0,3-1.56,4.65-4.41,4.65s-4.41-1.69-4.41-4.65V350Zm2.91,9.81c0,1.32.58,1.82,1.51,1.82s1.51-.5,1.51-1.82v-10c0-1.32-.58-1.82-1.51-1.82s-1.51.5-1.51,1.82v10Z"/><path class="cls-3" d="M377.78,350.66v13.4h-2.62v-18.5h3.65l3,11.07V345.56h2.59v18.5h-3Z"/><path class="cls-3" d="M385.63,345.56h9v2.64h-3v15.86h-2.91V348.2h-3v-2.64Z"/><path class="cls-3" d="M394.91,353.49h5.29v2.64h-5.29v-2.64Z"/><path class="cls-3" d="M405.09,353.36h4V356h-4v5.42h5v2.64h-7.93v-18.5h7.93v2.64h-5v5.15Z"/><path class="cls-3" d="M414.5,350.66v13.4h-2.62v-18.5h3.65l3,11.07V345.56h2.59v18.5h-3Z"/><path class="cls-3" d="M423.2,345.56h4.6c2.91,0,4.33,1.61,4.33,4.57v9.36c0,3-1.43,4.57-4.33,4.57h-4.6v-18.5Zm2.91,2.64v13.22h1.64c0.93,0,1.48-.48,1.48-1.8V350c0-1.32-.56-1.8-1.48-1.8H426.1Z"/><path class="cls-3" d="M436.76,345.56v14.27c0,1.32.58,1.8,1.51,1.8s1.51-.48,1.51-1.8V345.56h2.75v14.09c0,3-1.48,4.65-4.33,4.65s-4.34-1.69-4.34-4.65V345.56h2.91Z"/><path class="cls-3" d="M364.47,202c3.25,0,4.92,1.94,4.92,5.34V208h-3.16v-0.88c0-1.52-.61-2.09-1.67-2.09s-1.67.58-1.67,2.09c0,4.37,6.53,5.19,6.53,11.26,0,3.4-1.7,5.34-5,5.34s-5-1.94-5-5.34v-1.3h3.16v1.52c0,1.52.67,2.06,1.73,2.06s1.73-.55,1.73-2.06c0-4.37-6.53-5.19-6.53-11.26C359.55,203.93,361.22,202,364.47,202Z"/><path class="cls-3" d="M380.59,202.23v3l-6.34,15.24h6.34v3h-9.77v-3l6.34-15.24h-6v-3h9.47Z"/><path class="cls-3" d="M386.94,215l-1,1.94v6.53h-3.34V202.23h3.34v9.26l4.37-9.26h3.34L389,211.7l4.64,11.78h-3.43Z"/><path class="cls-3" d="M394.65,207.33c0-3.4,1.79-5.34,5.07-5.34s5.07,1.94,5.07,5.34v11c0,3.4-1.79,5.34-5.07,5.34s-5.07-1.94-5.07-5.34v-11ZM398,218.59c0,1.52.67,2.09,1.73,2.09s1.73-.58,1.73-2.09V207.12c0-1.52-.67-2.09-1.73-2.09s-1.73.58-1.73,2.09v11.47Z"/><path class="cls-3" d="M405.73,217.56l1.49-1.58V202.23h3.34V212.4l3.67-3.95v3l-3.67,3.95v5H416v3h-8.83V219l-1.49,1.58v-3Z"/><path class="cls-3" d="M428.31,223.48h-3.37l-0.58-3.85h-4.1l-0.58,3.85h-3.07l3.4-21.25h4.89Zm-7.62-6.74h3.22L422.3,206Z"/><rect class="cls-3" x="345" y="368.75" width="97.52" height="2.58"/><rect class="cls-3" x="358.29" y="227.27" width="70.93" height="2.58"/><rect class="cls-3" x="358.29" y="196.06" width="70.93" height="2.58"/><rect class="cls-3" x="364.32" y="374.02" width="58.88" height="2.58"/><path class="cls-3" d="M385.84,172.68v-0.4a0.47,0.47,0,0,1,.31-0.44l4.1-1.51v0.74a0.47,0.47,0,0,1-.31.45l-1.47.53a0.47,0.47,0,0,0,0,.89l1.47,0.53a0.47,0.47,0,0,1,.31.45v0.74l-4.1-1.51A0.47,0.47,0,0,1,385.84,172.68Z"/><path class="cls-3" d="M394.92,167.74h0.27a0.47,0.47,0,0,1,.44.65l-3.36,8.53a0.47,0.47,0,0,1-.44.3h-0.27a0.47,0.47,0,0,1-.44-0.65l3.36-8.53A0.47,0.47,0,0,1,394.92,167.74Z"/><path class="cls-3" d="M396.49,174.63V173.9a0.47,0.47,0,0,1,.31-0.45l1.47-.53a0.47,0.47,0,0,0,0-.89l-1.47-.53a0.47,0.47,0,0,1-.31-0.45v-0.74l4.1,1.51a0.47,0.47,0,0,1,.31.44v0.4a0.47,0.47,0,0,1-.31.44Z"/><polygon class="cls-14" points="300.75 8.45 488.37 8.45 511 32.35 278.22 32.35 300.75 8.45"/><g class="cls-12"><path class="cls-7" d="M384.56,289.55l9.24-4.86a1.57,1.57,0,0,1,1.46,0l9.25,4.86a1.57,1.57,0,0,0,2.27-1.65L405,277.61a1.57,1.57,0,0,1,.45-1.39l7.48-7.29a1.57,1.57,0,0,0-.87-2.67l-5.2-.53a8.87,8.87,0,0,0-8.34,4l-1.88,2.88a27,27,0,0,1-4.14,4.94l-2.6,2.44a28.23,28.23,0,0,0-5.52,7.17,22.3,22.3,0,0,0-1.25,2.45A1.54,1.54,0,0,0,384.56,289.55Z"/></g><g class="cls-12"><path class="cls-7" d="M394.83,280v2.36a2,2,0,0,0,1.08,1.76l8.11,4.13a0.63,0.63,0,0,0,.79-0.94l-6.37-8.57a2,2,0,0,0-3.2,0l-0.06.08A2,2,0,0,0,394.83,280Z"/></g><g class="cls-12"><path class="cls-7" d="M401.06,275.9l1.9,0.6a1.67,1.67,0,0,0,1.69-.43l5.37-5.49a0.53,0.53,0,0,0-.56-0.88l-8.5,3a1.67,1.67,0,0,0-.78,2.58l0,0.06A1.67,1.67,0,0,0,401.06,275.9Z"/></g></g></g></svg>