<svg width="343" height="291" viewBox="0 0 343 291" version="1.1" xmlns="http://www.w3.org/2000/svg" xmlns:xlink="http://www.w3.org/1999/xlink">
<title>img</title>
<desc>Created using Figma</desc>
<g id="Canvas" transform="translate(-13468 82)">
<g id="img">
<g id="Rectangle 7">
<use xlink:href="#path0_fill" transform="translate(13468 -82)" fill="#696F9F"/>
</g>
<g id="Group">
<g id="Group">
<g id="Group">
<g id="Rectangle 8">
<use xlink:href="#path1_fill" transform="matrix(0.962016 -0.272992 0.272992 0.962016 13540 -10.0007)" fill="#E0E0E0"/>
</g>
<g id="Rectangle 8">
<use xlink:href="#path2_fill" transform="matrix(0.962016 -0.272992 0.272992 0.962016 13606.6 170.19)" fill="#696F9F" fill-opacity="0.1"/>
</g>
<g id="Rectangle 8">
<use xlink:href="#path2_fill" transform="matrix(0.962016 -0.272992 0.272992 0.962016 13602.9 157.101)" fill="#696F9F" fill-opacity="0.1"/>
</g>
<g id="Rectangle 8">
<use xlink:href="#path2_fill" transform="matrix(0.962016 -0.272992 0.272992 0.962016 13599.2 144.012)" fill="#696F9F" fill-opacity="0.1"/>
</g>
<g id="Rectangle 8">
<use xlink:href="#path2_fill" transform="matrix(0.962016 -0.272992 0.272992 0.962016 13595.5 130.923)" fill="#696F9F" fill-opacity="0.1"/>
</g>
<g id="Rectangle 8">
<use xlink:href="#path2_fill" transform="matrix(0.962016 -0.272992 0.272992 0.962016 13591.7 117.835)" fill="#696F9F" fill-opacity="0.1"/>
</g>
<g id="Rectangle 8">
<use xlink:href="#path2_fill" transform="matrix(0.962016 -0.272992 0.272992 0.962016 13588 104.746)" fill="#696F9F" fill-opacity="0.1"/>
</g>
<g id="Rectangle 8">
<use xlink:href="#path2_fill" transform="matrix(0.962016 -0.272992 0.272992 0.962016 13584.3 91.6567)" fill="#696F9F" fill-opacity="0.1"/>
</g>
<g id="Rectangle 8">
<use xlink:href="#path2_fill" transform="matrix(0.962016 -0.272992 0.272992 0.962016 13580.6 78.5679)" fill="#696F9F" fill-opacity="0.1"/>
</g>
<g id="Rectangle 8">
<use xlink:href="#path2_fill" transform="matrix(0.962016 -0.272992 0.272992 0.962016 13576.9 65.4789)" fill="#696F9F" fill-opacity="0.1"/>
</g>
<g id="Rectangle 8">
<use xlink:href="#path2_fill" transform="matrix(0.962016 -0.272992 0.272992 0.962016 13573.2 52.3901)" fill="#696F9F" fill-opacity="0.1"/>
</g>
<g id="Rectangle 8">
<use xlink:href="#path2_fill" transform="matrix(0.962016 -0.272992 0.272992 0.962016 13569.5 39.3012)" fill="#696F9F" fill-opacity="0.1"/>
</g>
<g id="Rectangle 8">
<use xlink:href="#path2_fill" transform="matrix(0.962016 -0.272992 0.272992 0.962016 13565.7 26.2123)" fill="#696F9F" fill-opacity="0.1"/>
</g>
<g id="Rectangle 8">
<use xlink:href="#path2_fill" transform="matrix(0.962016 -0.272992 0.272992 0.962016 13562 13.1235)" fill="#696F9F" fill-opacity="0.1"/>
</g>
</g>
<g id="Ellipse 2">
<use xlink:href="#path3_fill" transform="matrix(0.962016 -0.272992 0.272992 0.962016 13603.1 26.4011)" fill="#696F9F"/>
</g>
<g id="Rectangle 9">
<use xlink:href="#path4_fill" transform="matrix(0.962016 -0.272992 0.272992 0.962016 13631.1 44.4457)" fill="#696F9F"/>
</g>
<g id="Ellipse 2">
<use xlink:href="#path3_fill" transform="matrix(0.962016 -0.272992 0.272992 0.962016 13667.6 8.1107)" fill="#696F9F"/>
</g>
</g>
<g id="Group">
<g id="Group">
<g id="Rectangle 8">
<use xlink:href="#path1_fill" transform="matrix(0.962016 -0.272992 0.272992 0.962016 13525 -19.0006)" fill="#F2F2F2"/>
</g>
<g id="Rectangle 8">
<use xlink:href="#path2_fill" transform="matrix(0.962016 -0.272992 0.272992 0.962016 13591.6 161.19)" fill="#696F9F" fill-opacity="0.1"/>
</g>
<g id="Rectangle 8">
<use xlink:href="#path2_fill" transform="matrix(0.962016 -0.272992 0.272992 0.962016 13587.9 148.101)" fill="#696F9F" fill-opacity="0.1"/>
</g>
<g id="Rectangle 8">
<use xlink:href="#path2_fill" transform="matrix(0.962016 -0.272992 0.272992 0.962016 13584.2 135.012)" fill="#696F9F" fill-opacity="0.1"/>
</g>
<g id="Rectangle 8">
<use xlink:href="#path2_fill" transform="matrix(0.962016 -0.272992 0.272992 0.962016 13580.5 121.923)" fill="#696F9F" fill-opacity="0.1"/>
</g>
<g id="Rectangle 8">
<use xlink:href="#path2_fill" transform="matrix(0.962016 -0.272992 0.272992 0.962016 13576.7 108.835)" fill="#696F9F" fill-opacity="0.1"/>
</g>
<g id="Rectangle 8">
<use xlink:href="#path2_fill" transform="matrix(0.962016 -0.272992 0.272992 0.962016 13573 95.7457)" fill="#696F9F" fill-opacity="0.1"/>
</g>
<g id="Rectangle 8">
<use xlink:href="#path2_fill" transform="matrix(0.962016 -0.272992 0.272992 0.962016 13569.3 82.6567)" fill="#696F9F" fill-opacity="0.1"/>
</g>
<g id="Rectangle 8">
<use xlink:href="#path2_fill" transform="matrix(0.962016 -0.272992 0.272992 0.962016 13565.6 69.5679)" fill="#696F9F" fill-opacity="0.1"/>
</g>
<g id="Rectangle 8">
<use xlink:href="#path2_fill" transform="matrix(0.962016 -0.272992 0.272992 0.962016 13561.9 56.479)" fill="#696F9F" fill-opacity="0.1"/>
</g>
<g id="Rectangle 8">
<use xlink:href="#path2_fill" transform="matrix(0.962016 -0.272992 0.272992 0.962016 13558.2 43.3901)" fill="#696F9F" fill-opacity="0.1"/>
</g>
<g id="Rectangle 8">
<use xlink:href="#path2_fill" transform="matrix(0.962016 -0.272992 0.272992 0.962016 13554.5 30.3012)" fill="#696F9F" fill-opacity="0.1"/>
</g>
<g id="Rectangle 8">
<use xlink:href="#path2_fill" transform="matrix(0.962016 -0.272992 0.272992 0.962016 13550.7 17.2123)" fill="#696F9F" fill-opacity="0.1"/>
</g>
<g id="Rectangle 8">
<use xlink:href="#path2_fill" transform="matrix(0.962016 -0.272992 0.272992 0.962016 13547 4.12349)" fill="#696F9F" fill-opacity="0.1"/>
</g>
</g>
<g id="Ellipse 2">
<use xlink:href="#path3_fill" transform="matrix(0.962016 -0.272992 0.272992 0.962016 13588.1 17.4012)" fill="#696F9F"/>
</g>
<g id="Rectangle 9">
<use xlink:href="#path4_fill" transform="matrix(0.962016 -0.272992 0.272992 0.962016 13616.1 35.4457)" fill="#696F9F"/>
</g>
<g id="Ellipse 2">
<use xlink:href="#path3_fill" transform="matrix(0.962016 -0.272992 0.272992 0.962016 13652.6 -0.889288)" fill="#696F9F"/>
</g>
</g>
<g id="XMLID 17">
<g id="XMLID 22">
<use xlink:href="#path5_fill" transform="translate(13641.4 35)" fill="#F4B405"/>
</g>
<g id="XMLID 21">
<use xlink:href="#path6_fill" transform="translate(13627 112.414)" fill="#F7CD45"/>
</g>
<g id="XMLID 18">
<g id="XMLID 20">
<use xlink:href="#path7_fill" transform="translate(13685.9 149.016)" fill="#F4B405"/>
</g>
<g id="XMLID 19">
<use xlink:href="#path8_fill" transform="translate(13679.6 129.649)" fill="#F4B405"/>
</g>
</g>
</g>
</g>
</g>
</g>
<defs>
<path id="path0_fill" d="M 0 0L 333.903 31.7358L 343 208.472L 29.9657 290L 0 0Z"/>
<path id="path1_fill" d="M 0 0L 179.49 0L 179.49 227.11L 0 227.11L 0 0Z"/>
<path id="path2_fill" d="M 0 0L 149.741 0L 149.741 3.13977L 0 3.13977L 0 0Z"/>
<path id="path3_fill" d="M 10 5C 10 7.76142 7.76142 10 5 10C 2.23858 10 0 7.76142 0 5C 0 2.23858 2.23858 0 5 0C 7.76142 0 10 2.23858 10 5Z"/>
<path id="path4_fill" d="M 0 0L 33 0L 33 4L 0 4L 0 0Z"/>
<path id="path5_fill" d="M 52.2109 0C 23.3797 0 4.28781e-07 23.6621 4.28781e-07 52.8132L 4.28781e-07 84.2963L 19.3613 84.2963L 19.3613 52.8132C 19.3613 34.4693 34.0579 19.5952 52.1828 19.5952C 70.3076 19.5952 85.0323 34.4693 85.0323 52.8132L 85.0323 84.2963L 104.394 84.2963L 104.394 52.8132C 104.394 23.6621 81.0421 0 52.2109 0Z"/>
<path id="path6_fill" d="M 133 3.47169e-06L 0 3.47169e-06L 0 89.5862L 133 89.5862L 133 3.47169e-06Z"/>
<path id="path7_fill" d="M 1.96704 -1.73584e-06L 13.2916 -1.73584e-06L 15.5396 36.517L 0 36.517L 1.96704 -1.73584e-06Z"/>
<path id="path8_fill" d="M 13.9098 28.1556C 21.5919 28.1556 27.8196 21.8528 27.8196 14.0778C 27.8196 6.30285 21.5919 -3.47169e-06 13.9098 -3.47169e-06C 6.22762 -3.47169e-06 0 6.30285 0 14.0778C 0 21.8528 6.22762 28.1556 13.9098 28.1556Z"/>
</defs>
</svg>
