<svg width="29" height="23" viewBox="0 0 29 23" version="1.1" xmlns="http://www.w3.org/2000/svg" xmlns:xlink="http://www.w3.org/1999/xlink">
<title>open-book (1)</title>
<desc>Created using Figma</desc>
<g id="Canvas" transform="translate(-5349 -108)">
<g id="open-book (1)">
<g id="Group">
<g id="Group">
<g id="Group">
<g id="Vector">
<use xlink:href="#path0_fill" transform="translate(5352.4 108)" fill="#BDBDBD"/>
</g>
<g id="Vector">
<use xlink:href="#path1_fill" transform="translate(5364.31 108)" fill="#BDBDBD"/>
</g>
<g id="Vector">
<use xlink:href="#path2_fill" transform="translate(5365.74 111.725)" fill="#BDBDBD"/>
</g>
<g id="Vector">
<use xlink:href="#path3_fill" transform="translate(5349 111.725)" fill="#BDBDBD"/>
</g>
</g>
</g>
</g>
</g>
</g>
<defs>
<path id="path0_fill" d="M 1.03492 -2.16538e-08C 1.03414 -2.16538e-08 1.03326 -2.16538e-08 1.03248 -2.16538e-08C 0.758201 -2.16538e-08 0.500227 0.110994 0.305429 0.312709C 0.108482 0.516655 1.7879e-08 0.78821 1.7879e-08 1.0773L 1.7879e-08 17.2312C 1.7879e-08 17.8236 0.466052 18.3067 1.03902 18.3082C 3.45453 18.3142 7.50146 18.8369 10.2933 21.8698L 10.2933 4.96422C 10.2933 4.76342 10.2439 4.57478 10.1506 4.41868C 7.85922 0.587914 3.45589 0.00587912 1.03492 -2.16538e-08Z"/>
<path id="path1_fill" d="M 10.2932 17.2313L 10.2932 1.0773C 10.2932 0.78821 10.1847 0.516655 9.98775 0.312709C 9.79295 0.110994 9.53478 3.40274e-08 9.26079 3.40274e-08C 9.25992 3.40274e-08 9.25904 3.40274e-08 9.25826 3.40274e-08C 6.83738 0.00598054 2.43406 0.588015 0.142559 4.41878C 0.0493098 4.57488 6.91323e-07 4.76352 6.91323e-07 4.96432L 6.91323e-07 21.8698C 2.79182 18.8369 6.83875 18.3142 9.25425 18.3082C 9.82713 18.3067 10.2932 17.8236 10.2932 17.2313Z"/>
<path id="path2_fill" d="M 11.2183 2.53659e-07L 10.4659 2.53659e-07L 10.4659 13.5059C 10.4659 15.0184 9.27886 16.2517 7.81968 16.2554C 5.77082 16.2605 2.39256 16.6764 -5.24452e-07 19.0271C 4.13793 17.9754 8.50005 18.6591 10.9861 19.2472C 11.2965 19.3206 11.6172 19.2448 11.8659 19.039C 12.1137 18.8337 12.2559 18.5269 12.2559 18.1976L 12.2559 1.0771C 12.256 0.483205 11.7904 2.53659e-07 11.2183 2.53659e-07Z"/>
<path id="path3_fill" d="M 1.79 13.5059L 1.79 2.53659e-07L 1.03756 2.53659e-07C 0.465564 2.53659e-07 0 0.483205 0 1.0771L 0 18.1973C 0 18.5267 0.142169 18.8334 0.389988 19.0387C 0.63849 19.2443 0.958956 19.3205 1.26985 19.2469C 3.75585 18.6587 8.11807 17.9751 12.2558 19.0268C 9.86335 16.6762 6.48509 16.2604 4.43623 16.2553C 2.97715 16.2517 1.79 15.0184 1.79 13.5059Z"/>
</defs>
</svg>
