<?xml version="1.0" encoding="utf-8"?>
<!-- Generator: Adobe Illustrator 19.0.0, SVG Export Plug-In . SVG Version: 6.00 Build 0)  -->
<svg version="1.1" id="Capa_1" xmlns="http://www.w3.org/2000/svg" xmlns:xlink="http://www.w3.org/1999/xlink" x="0px" y="0px"
	 viewBox="128 -128 512 512" style="enable-background:new 128 -128 512 512;" xml:space="preserve">
<style type="text/css">
	.st0{fill:#FFFFFF;}
</style>
<g>
	<path class="st0" d="M227.6,20.9h-33.2c-15.3,0-27.8,12.4-27.8,27.8s12.4,27.8,27.8,27.8h100.2c0.1,0,0.2,0,0.2,0
		c1.7,0,3.5-0.2,5.2-0.5c0.8-0.2,1.6-0.5,2.4-0.7c0.9-0.3,1.9-0.5,2.8-0.9c0.9-0.4,1.8-0.9,2.6-1.4c0.7-0.4,1.5-0.7,2.1-1.2
		c1.5-1,2.9-2.1,4.2-3.4c0,0,0.1,0,0.1-0.1c0.1-0.1,0.1-0.1,0.1-0.2c0.3-0.3,0.6-0.7,0.9-1.1c5.7-5.1,9.4-12.4,9.4-20.6V-53.8
		c0-15.3-12.4-27.8-27.8-27.8S269-69.1,269-53.8v37.7l-93.7-93.6c-5.4-5.4-12.5-8.1-19.6-8.1s-14.2,2.7-19.6,8.1
		c-10.8,10.8-10.8,28.4,0,39.3L227.6,20.9z"/>
	<path class="st0" d="M175.4,365.7l93.7-93.7v37.7c0,15.3,12.4,27.8,27.8,27.8s27.8-12.4,27.8-27.8V209.6c0-8.2-3.7-15.6-9.4-20.6
		c-1.6-1.8-3.3-3.4-5.3-4.7c-0.7-0.4-1.4-0.7-2.1-1.1c-0.9-0.5-1.8-1-2.7-1.4c-0.9-0.4-1.8-0.6-2.8-0.9c-0.8-0.2-1.6-0.5-2.4-0.7
		c-1.8-0.4-3.6-0.6-5.4-0.6H194.4c-15.3,0-27.8,12.4-27.8,27.8s12.4,27.8,27.8,27.8h33.2l-91.4,91.4c-10.8,10.8-10.8,28.4,0,39.2
		C147,376.6,164.5,376.6,175.4,365.7z"/>
	<path class="st0" d="M471.2,337.5c15.3,0,27.8-12.4,27.8-27.8v-37.7l93.7,93.7c10.8,10.8,28.4,10.8,39.2,0
		c10.8-10.8,10.8-28.4,0-39.2l-91.4-91.4h33.2c15.3,0,27.8-12.4,27.8-27.8s-12.4-27.8-27.8-27.8H473.4c-1.8,0-3.6,0.2-5.4,0.6
		c-0.9,0.2-1.6,0.5-2.5,0.7c-0.9,0.3-1.8,0.5-2.7,0.8c-1,0.4-1.9,1-2.8,1.5c-0.6,0.4-1.3,0.6-1.9,1c-2,1.3-3.7,2.9-5.3,4.7
		c-5.7,5.1-9.4,12.4-9.4,20.6v100.2C443.4,325.1,455.9,337.5,471.2,337.5z"/>
	<path class="st0" d="M611.1-117.9c-7.1,0-14.2,2.7-19.6,8.1l-93.7,93.7v-37.7c0-15.3-12.4-27.8-27.8-27.8
		c-15.3,0-27.8,12.4-27.8,27.8V46.4c0,8.2,3.7,15.6,9.4,20.6c1.6,1.8,3.3,3.4,5.2,4.7c0.6,0.4,1.3,0.7,2,1.1
		c0.9,0.5,1.8,1.1,2.8,1.5c0.9,0.4,1.8,0.6,2.7,0.9c0.8,0.2,1.6,0.6,2.4,0.7c1.8,0.4,3.6,0.5,5.4,0.5h100.2
		c15.3,0,27.8-12.4,27.8-27.8s-12.4-27.8-27.8-27.8h-33.2l91.4-91.4c10.8-10.8,10.8-28.4,0-39.2
		C625.3-115.2,618.2-117.9,611.1-117.9z"/>
</g>
</svg>
