<svg width="24" height="17" viewBox="0 0 24 17" version="1.1" xmlns="http://www.w3.org/2000/svg" xmlns:xlink="http://www.w3.org/1999/xlink">
<title>Group</title>
<desc>Created using Figma</desc>
<g id="Canvas" transform="translate(-5080 200)">
<g id="Group">
<g id="eye-close-up">
<g id="Group">
<g id="Vector">
<use xlink:href="#path0_fill" transform="matrix(1 0 0 -1 5080 -183.414)" fill="#BDBDBD"/>
</g>
<g id="Vector">
<use xlink:href="#path1_fill" transform="matrix(1 0 0 -1 5088.54 -187.78)" fill="#BDBDBD"/>
</g>
</g>
</g>
</g>
</g>
<defs>
<path id="path0_fill" d="M 12 -1.56773e-07C 6.70643 -1.56773e-07 2.14408 3.1131 0.0482755 7.60552C -0.0160918 7.74165 -0.0160918 7.9009 0.0482755 8.0396C 2.14408 12.532 6.70646 15.6451 12 15.6451C 17.2935 15.6451 21.8559 12.532 23.9517 8.0396C 24.0161 7.90347 24.0161 7.74422 23.9517 7.60552C 21.8559 3.1131 17.2936 -1.56773e-07 12 -1.56773e-07ZM 12 13.2204C 9.01078 13.2204 6.59057 10.8034 6.59057 7.82384C 6.59057 4.84174 9.01336 2.42729 12 2.42729C 14.9892 2.42729 17.4094 4.84431 17.4094 7.82384C 17.4094 10.8034 14.9866 13.2204 12 13.2204Z"/>
<path id="path1_fill" d="M 3.46296 6.90944C 5.3755 6.90944 6.92592 5.3627 6.92592 3.45472C 6.92592 1.54673 5.3755 0 3.46296 0C 1.55042 0 0 1.54673 0 3.45472C 0 5.3627 1.55042 6.90944 3.46296 6.90944Z"/>
</defs>
</svg>
