<svg id="Warstwa_1" data-name="Warstwa 1" xmlns="http://www.w3.org/2000/svg" viewBox="0 0 32 32"><defs><style>.cls-1{fill:#686d9e;}</style></defs><title>ico</title><polygon class="cls-1" points="28.75 11 25.06 11 28.33 17.5 25.06 24 28.75 24 32.02 17.5 28.75 11"/><polygon class="cls-1" points="3.25 24 6.94 24 3.67 17.5 6.94 11 3.25 11 -0.02 17.5 3.25 24"/><polygon class="cls-1" points="24.87 9 21.61 9 17.85 26 21.11 26 24.87 9"/><polygon class="cls-1" points="17.08 20.49 15.8 17.5 18.58 11 14.56 11 13 14.86 13 11 9 11 9 24 13 24 13 20.19 14.56 24 16.45 24 17.08 20.49"/></svg>