<svg width="50" height="50" viewBox="0 0 50 50" version="1.1" xmlns="http://www.w3.org/2000/svg" xmlns:xlink="http://www.w3.org/1999/xlink">
<title>fb</title>
<desc>Created using Figma</desc>
<g id="Canvas" transform="translate(2271 -292)">
<g id="fb">
<g id="Group">
<g id="Vector">
<use xlink:href="#path0_fill" transform="translate(-2271 292)" fill="#34B399"/>
</g>
</g>
</g>
</g>
<defs>
<path id="path0_fill" d="M 47.2387 3.91041e-11L 2.75967 3.91041e-11C 1.23658 3.91041e-11 0 1.23411 0 2.75967L 0 47.2387C 0 48.7642 1.23658 50 2.75967 50L 26.7059 50L 26.7059 30.6371L 20.1903 30.6371L 20.1903 23.09L 26.7059 23.09L 26.7059 17.5245C 26.7059 11.0675 30.6486 7.54956 36.41 7.54956C 39.1721 7.54956 41.5407 7.75621 42.2314 7.84595L 42.2314 14.5953L 38.2352 14.5969C 35.1026 14.5969 34.4983 16.0862 34.4983 18.2704L 34.4983 23.0875L 41.9721 23.0875L 40.9949 30.6338L 34.4975 30.6338L 34.4975 49.9975L 47.2379 49.9975C 48.7626 49.9975 50 48.7601 50 47.2387L 50 2.75802C 49.9992 1.23411 48.7634 3.91041e-11 47.2387 3.91041e-11Z"/>
</defs>
</svg>
