<svg width="12" height="12" viewBox="0 0 12 12" version="1.1" xmlns="http://www.w3.org/2000/svg" xmlns:xlink="http://www.w3.org/1999/xlink">
<title>Vector</title>
<desc>Created using Figma</desc>
<g id="Canvas" transform="translate(1927 976)">
<g id="Vector">
<use xlink:href="#path0_fill" transform="translate(-1927 -976)" fill="#FFFFFF"/>
</g>
</g>
<defs>
<path id="path0_fill" d="M 11.3858 4.74034L 10.5435 4.59745C 10.4558 4.31418 10.343 4.04094 10.2051 3.78024L 10.7014 3.08586C 10.912 2.79006 10.8794 2.38646 10.6212 2.13077L 9.87418 1.38375C 9.7338 1.24337 9.5483 1.16566 9.35027 1.16566C 9.19485 1.16566 9.04695 1.21329 8.92161 1.30353L 8.22473 1.79987C 7.954 1.65699 7.67073 1.53917 7.37744 1.45143L 7.23706 0.619177C 7.1769 0.260706 6.86856 0 6.50508 0L 5.44973 0C 5.08624 0 4.77791 0.260706 4.71775 0.619177L 4.57236 1.47149C 4.2916 1.55922 4.01836 1.67454 3.75765 1.81492L 3.06829 1.31857C 2.94295 1.22833 2.79255 1.1807 2.63713 1.1807C 2.43909 1.1807 2.25108 1.25841 2.11321 1.39879L 1.36369 2.14581C 1.10799 2.4015 1.0729 2.8051 1.28347 3.1009L 1.78482 3.80531C 1.67703 4.00836 1.58679 4.21893 1.51409 4.43451C 1.45393 4.5047 1.39627 4.57489 1.34112 4.64257L 0.619174 4.76541C 0.260705 4.82557 0 5.1339 0 5.49739L 0 6.55275C 0 6.91623 0.260705 7.22457 0.619174 7.28473L 1.47148 7.43012C 1.55921 7.71088 1.67453 7.98412 1.8149 8.24483L 1.32107 8.93169C 1.1105 9.22749 1.14309 9.63108 1.40129 9.88678L 2.14831 10.6338C 2.28869 10.7742 2.47419 10.8519 2.67222 10.8519C 2.82764 10.8519 2.97554 10.8043 3.10088 10.714L 3.80528 10.2127C 4.05847 10.3455 4.32419 10.4533 4.59742 10.5385L 4.7378 11.3808C 4.79797 11.7393 5.1063 12 5.46978 12L 6.52764 12C 6.89112 12 7.19946 11.7393 7.25962 11.3808L 7.37994 10.6739C 7.45515 10.6087 7.53286 10.5385 7.61057 10.4684C 7.82114 10.3931 8.02418 10.3029 8.21971 10.2001L 8.91409 10.6965C 9.03943 10.7867 9.18983 10.8343 9.34525 10.8343C 9.54329 10.8343 9.72879 10.7566 9.86917 10.6163L 10.6162 9.86923C 10.8719 9.61354 10.907 9.20994 10.6964 8.91414L 10.2001 8.21725C 10.3379 7.95404 10.4532 7.6808 10.5385 7.40004L 11.3808 7.25966C 11.7392 7.1995 11.9999 6.89116 11.9999 6.52768L 11.9999 5.47232C 12.0049 5.10884 11.7442 4.8005 11.3858 4.74034ZM 4.08855 5.99875C 4.08855 4.94339 4.94587 4.08607 6.00122 4.08607C 7.05657 4.08607 7.91389 4.94339 7.91389 5.99875C 7.91389 7.0541 7.05657 7.91143 6.00122 7.91143C 4.94587 7.91143 4.08855 7.0541 4.08855 5.99875Z"/>
</defs>
</svg>
