<svg width="20" height="19" viewBox="0 0 20 19" version="1.1" xmlns="http://www.w3.org/2000/svg" xmlns:xlink="http://www.w3.org/1999/xlink">
<title>house-black-silhouette-without-door</title>
<desc>Created using Figma</desc>
<g id="Canvas" transform="translate(-5082 440)">
<g id="house-black-silhouette-without-door">
<g id="Group">
<g id="Vector">
<use xlink:href="#path0_fill" transform="translate(5082 -440)" fill="#BDBDBD"/>
</g>
</g>
</g>
</g>
<defs>
<path id="path0_fill" d="M 19.7494 9.27017C 20.112 8.8789 20.077 8.2792 19.6713 7.93105L 10.733 0.256397C 10.3273 -0.0917527 9.67685 -0.0844596 9.27969 0.272839L 0.311057 8.34023C -0.0861093 8.69753 -0.105602 9.29646 0.267898 9.67743L 0.492754 9.90722C 0.865798 10.2882 1.46878 10.3336 1.8387 10.0084L 2.50896 9.41935L 2.50896 18.0426C 2.50896 18.5717 2.94583 19 3.4846 19L 6.9806 19C 7.51937 19 7.95624 18.5717 7.95624 18.0426L 7.95624 12.0098L 12.4154 12.0098L 12.4154 18.0426C 12.4077 18.5713 12.7932 18.9996 13.3319 18.9996L 17.0368 18.9996C 17.5756 18.9996 18.0124 18.5713 18.0124 18.0422L 18.0124 9.54078C 18.0124 9.54078 18.1976 9.69995 18.426 9.89692C 18.654 10.0935 19.1328 9.93589 19.4954 9.54423L 19.7494 9.27017Z"/>
</defs>
</svg>
