<svg width="22" height="18" viewBox="0 0 22 18" version="1.1" xmlns="http://www.w3.org/2000/svg" xmlns:xlink="http://www.w3.org/1999/xlink">
<title>movie-player</title>
<desc>Created using Figma</desc>
<g id="Canvas" transform="translate(-5081 140)">
<g id="movie-player">
<g id="Group">
<g id="Vector">
<use xlink:href="#path0_fill" transform="translate(5081.97 -139.541)" fill="#BDBDBD"/>
</g>
</g>
</g>
</g>
<defs>
<path id="path0_fill" d="M 0.5 4.01021e-09C 0.223858 4.01021e-09 0 0.223858 0 0.5L 0 16.5811C 0 16.8573 0.223858 17.0811 0.5 17.0811L 19.6672 17.0811C 19.9433 17.0811 20.1672 16.8573 20.1672 16.5811L 20.1672 0.5C 20.1672 0.223858 19.9433 4.01021e-09 19.6672 4.01021e-09L 0.5 4.01021e-09ZM 8.03578 1.7198C 8.03578 1.44366 8.25964 1.2198 8.53578 1.2198L 11.6634 1.2198C 11.9395 1.2198 12.1634 1.44366 12.1634 1.7198L 12.1634 2.49362C 12.1634 2.76976 11.9395 2.99362 11.6634 2.99362L 8.53578 2.99362C 8.25964 2.99362 8.03578 2.76976 8.03578 2.49362L 8.03578 1.7198ZM 6.50225 15.3603C 6.50225 15.6364 6.2784 15.8603 6.00225 15.8603L 2.87225 15.8603C 2.59611 15.8603 2.37225 15.6364 2.37225 15.3603L 2.37225 14.5871C 2.37225 14.311 2.59611 14.0871 2.87225 14.0871L 6.00225 14.0871C 6.2784 14.0871 6.50225 14.311 6.50225 14.5871L 6.50225 15.3603ZM 6.50225 2.49362C 6.50225 2.76976 6.2784 2.99362 6.00225 2.99362L 2.87225 2.99362C 2.59611 2.99362 2.37225 2.76976 2.37225 2.49362L 2.37225 1.7198C 2.37225 1.44366 2.59611 1.2198 2.87225 1.2198L 6.00225 1.2198C 6.2784 1.2198 6.50225 1.44366 6.50225 1.7198L 6.50225 2.49362ZM 12.1636 15.3602C 12.1637 15.6363 11.9398 15.8603 11.6636 15.8603L 8.53578 15.8603C 8.25964 15.8603 8.03578 15.6364 8.03578 15.3603L 8.03578 14.5871C 8.03578 14.311 8.25964 14.0871 8.53578 14.0871L 11.6635 14.0871C 11.9396 14.0871 12.1634 14.3109 12.1635 14.587L 12.1636 15.3602ZM 8.18814 11.2222C 7.8549 11.4062 7.44646 11.1652 7.44646 10.7845L 7.44646 6.17849C 7.44646 5.79782 7.8549 5.55678 8.18814 5.74078L 12.3591 8.0438C 12.7035 8.23398 12.7035 8.72905 12.3591 8.91922L 8.18814 11.2222ZM 17.8266 15.3603C 17.8266 15.6364 17.6027 15.8603 17.3266 15.8603L 14.1956 15.8603C 13.9194 15.8603 13.6956 15.6364 13.6956 15.3603L 13.6956 14.5871C 13.6956 14.311 13.9194 14.0871 14.1956 14.0871L 17.3266 14.0871C 17.6027 14.0871 17.8266 14.311 17.8266 14.5871L 17.8266 15.3603ZM 17.8266 2.49362C 17.8266 2.76976 17.6027 2.99362 17.3266 2.99362L 14.1956 2.99362C 13.9194 2.99362 13.6956 2.76976 13.6956 2.49362L 13.6956 1.7198C 13.6956 1.44366 13.9194 1.2198 14.1956 1.2198L 17.3266 1.2198C 17.6027 1.2198 17.8266 1.44366 17.8266 1.7198L 17.8266 2.49362Z"/>
</defs>
</svg>
