<svg width="73" height="50" viewBox="0 0 73 50" version="1.1" xmlns="http://www.w3.org/2000/svg" xmlns:xlink="http://www.w3.org/1999/xlink">
<title>preview-menu</title>
<desc>Created using Figma</desc>
<g id="Canvas" transform="translate(1777 -292)">
<g id="preview-menu">
<g id="Group">
<g id="Vector">
<use xlink:href="#path0_fill" transform="translate(-1749.31 308.128)" fill="#696E9E"/>
</g>
<g id="Vector">
<use xlink:href="#path1_fill" transform="translate(-1777 292)" fill="#696E9E"/>
</g>
</g>
</g>
</g>
<defs>
<path id="path0_fill" d="M 9.12381 0.0085802C 3.89654 -0.218693 -0.421649 4.09949 0.0328968 9.32676C 0.26017 13.6449 3.66926 17.2813 7.98744 17.5086C 13.2147 17.7359 17.5329 13.4177 17.0784 8.1904C 17.0784 3.87222 13.442 0.235853 9.12381 0.0085802ZM 8.44199 13.6449C 6.16926 13.4177 4.35108 11.5995 4.12381 9.09949C 3.89653 6.14494 6.16926 3.87222 9.12381 4.09949C 11.3965 4.32676 13.2147 6.14494 13.442 8.64494C 13.442 11.3722 11.1693 13.8722 8.44199 13.6449Z"/>
<path id="path1_fill" d="M 0 0L 0 50L 72.7273 50L 72.7273 0L 0 0ZM 56.5909 25.9091C 51.3636 32.9545 44.3182 37.5 36.3636 37.5C 28.4091 37.5 21.3636 33.1818 16.1364 25.9091C 15.6818 25.2273 15.6818 24.5455 16.1364 23.8636C 21.3636 16.8182 28.4091 12.2727 36.3636 12.2727C 44.3182 12.2727 51.3636 16.5909 56.5909 23.8636C 56.8182 24.5455 56.8182 25.4545 56.5909 25.9091Z"/>
</defs>
</svg>
