<svg width="84" height="50" viewBox="0 0 84 50" version="1.1" xmlns="http://www.w3.org/2000/svg" xmlns:xlink="http://www.w3.org/1999/xlink">
<title>preview</title>
<desc>Created using Figma</desc>
<g id="Canvas" transform="translate(1996 -292)">
<g id="preview">
<g id="Vector">
<use xlink:href="#path0_fill" transform="translate(-1996 292)" fill="#BDBDBD"/>
</g>
</g>
</g>
<defs>
<path id="path0_fill" d="M 41.9492 -2.61819e-07C 25.9195 -2.61819e-07 11.383 8.76802 0.656461 23.0096C -0.21882 24.1764 -0.21882 25.8065 0.656461 26.9732C 11.383 41.232 25.9195 50 41.9492 50C 57.9788 50 72.5154 41.232 83.2418 26.9904C 84.1171 25.8236 84.1171 24.1935 83.2418 23.0268C 72.5154 8.76802 57.9788 -2.61819e-07 41.9492 -2.61819e-07ZM 43.099 42.6047C 32.4584 43.2738 23.6712 34.5058 24.3405 23.8504C 24.8897 15.0652 32.0121 7.94441 40.7993 7.39533C 51.44 6.72615 60.2271 15.4942 59.5578 26.1496C 58.9914 34.9176 51.869 42.0384 43.099 42.6047ZM 42.567 34.4715C 36.8348 34.8318 32.0979 30.1132 32.4755 24.3823C 32.7673 19.6465 36.6117 15.8202 41.3485 15.5113C 47.0807 15.151 51.8175 19.8696 51.44 25.6005C 51.131 30.3535 47.2867 34.1798 42.567 34.4715Z"/>
</defs>
</svg>
