<svg width="13" height="13" viewBox="0 0 13 13" version="1.1" xmlns="http://www.w3.org/2000/svg" xmlns:xlink="http://www.w3.org/1999/xlink">
<title>refresh-page-option</title>
<desc>Created using Figma</desc>
<g id="Canvas" transform="translate(1927 1023)">
<g id="refresh-page-option">
<g id="Group">
<g id="Group">
<g id="Vector">
<use xlink:href="#path0_fill" transform="matrix(1 0 0 -1 -1926.85 -1010)" fill="#FFFFFF"/>
</g>
<g id="Vector">
<use xlink:href="#path1_fill" transform="matrix(1 0 0 -1 -1927 -1017.58)" fill="#FFFFFF"/>
</g>
</g>
</g>
</g>
</g>
<defs>
<path id="path0_fill" d="M 12.687 0.702321C 12.5799 0.595243 12.4529 0.541526 12.3062 0.541526C 12.1595 0.541526 12.0327 0.595243 11.9253 0.702321L 10.8251 1.7943C 10.2214 1.22434 9.53013 0.782718 8.75155 0.469637C 7.97302 0.156526 7.17158 7.73055e-13 6.34776 7.73055e-13C 4.79605 7.73055e-13 3.44194 0.469666 2.28521 1.40921C 1.12845 2.34863 0.366763 3.57433 2.48787e-09 5.08661L 2.48787e-09 5.14581C 2.48787e-09 5.21916 0.026769 5.28269 0.080396 5.33623C 0.134023 5.38985 0.197462 5.41662 0.270803 5.41662L 1.95503 5.41662C 2.07921 5.41662 2.16379 5.3517 2.20896 5.222C 2.44591 4.6578 2.59538 4.32773 2.65752 4.23177C 3.05244 3.58853 3.57718 3.0835 4.23173 2.71673C 4.88634 2.34999 5.59162 2.16655 6.34764 2.16655C 7.48187 2.16655 8.46643 2.55309 9.30157 3.32611L 8.1334 4.49404C 8.02647 4.60127 7.9727 4.72829 7.9727 4.87501C 7.9727 5.02169 8.02644 5.14866 8.1334 5.25586C 8.24074 5.36308 8.36774 5.41665 8.51445 5.41665L 12.3062 5.41665C 12.4529 5.41665 12.5799 5.36308 12.687 5.25586C 12.7941 5.14866 12.8477 5.02172 12.8477 4.87501L 12.8477 1.0832C 12.8477 0.936487 12.7945 0.809576 12.687 0.702321Z"/>
<path id="path1_fill" d="M 12.5175 0.000355845L 10.8925 0.000355845C 10.7684 0.000355845 10.6837 0.0651894 10.6387 0.195005C 10.4018 0.759269 10.2522 1.08919 10.1902 1.18515C 9.79516 1.82824 9.27039 2.33345 8.61601 2.70019C 7.96137 3.06705 7.2561 3.25028 6.50004 3.25028C 5.95278 3.25028 5.42516 3.14881 4.91741 2.94574C 4.4096 2.74243 3.95533 2.45461 3.55477 2.08218L 4.71432 0.922702C 4.82148 0.815594 4.87511 0.688477 4.87511 0.541852C 4.87511 0.395169 4.82148 0.26805 4.71432 0.161002C 4.60709 0.053687 4.48018 -1.51989e-07 4.33347 -1.51989e-07L 0.541725 -1.51989e-07C 0.394925 -1.51989e-07 0.267957 0.053687 0.160762 0.161002C 0.0535677 0.26808 0 0.395198 0 0.541881L 0 4.33369C 0 4.48028 0.0535677 4.60737 0.160792 4.71454C 0.268076 4.82156 0.395043 4.87545 0.541754 4.87545C 0.688436 4.87545 0.815344 4.82159 0.922598 4.71454L 2.01438 3.62262C 2.61815 4.19803 3.30516 4.64108 4.07536 4.9514C 4.84555 5.26185 5.64255 5.41686 6.46628 5.41686C 8.01239 5.41686 9.36086 4.94713 10.5119 4.00771C 11.6629 3.06832 12.419 1.84238 12.7803 0.330246C 12.786 0.318981 12.7886 0.299208 12.7886 0.271104C 12.7886 0.197644 12.7617 0.134381 12.7081 0.0805756C 12.6545 0.0272442 12.591 0.000355845 12.5175 0.000355845Z"/>
</defs>
</svg>
