<svg width="50" height="50" viewBox="0 0 50 50" version="1.1" xmlns="http://www.w3.org/2000/svg" xmlns:xlink="http://www.w3.org/1999/xlink">
<title>refresh</title>
<desc>Created using Figma</desc>
<g id="Canvas" transform="translate(2762 -292)">
<g id="refresh">
<g id="Group">
<g id="Group">
<g id="Vector">
<use xlink:href="#path0_fill" transform="matrix(1 0 0 -1 -2761.41 342)" fill="#FFFFFF"/>
</g>
<g id="Vector">
<use xlink:href="#path1_fill" transform="matrix(1 0 0 -1 -2762 312.834)" fill="#FFFFFF"/>
</g>
</g>
</g>
</g>
</g>
<defs>
<path id="path0_fill" d="M 48.7961 2.70123C 48.384 2.2894 47.8956 2.08279 47.3312 2.08279C 46.767 2.08279 46.2793 2.2894 45.8664 2.70123L 41.6349 6.90114C 39.313 4.709 36.6542 3.01046 33.6597 1.8063C 30.6653 0.602023 27.5829 2.97329e-12 24.4144 2.97329e-12C 18.4462 2.97329e-12 13.2382 1.80641 8.78923 5.42003C 4.34017 9.03319 1.41062 13.7474 9.56869e-09 19.5639L 9.56869e-09 19.7916C 9.56869e-09 20.0737 0.102957 20.318 0.309214 20.524C 0.515471 20.7302 0.759467 20.8332 1.04155 20.8332L 7.51931 20.8332C 7.99693 20.8332 8.32222 20.5835 8.49598 20.0846C 9.40732 17.9146 9.98219 16.6451 10.2212 16.276C 11.7401 13.8021 13.7583 11.8596 16.2758 10.449C 18.7935 9.03844 21.5061 8.33288 24.4139 8.33288C 28.7763 8.33288 32.563 9.81958 35.7751 12.7928L 31.2822 17.2848C 30.8709 17.6972 30.6641 18.1858 30.6641 18.75C 30.6641 19.3142 30.8708 19.8026 31.2822 20.2148C 31.695 20.6273 32.1835 20.8333 32.7477 20.8333L 47.3312 20.8333C 47.8955 20.8333 48.3839 20.6273 48.7961 20.2148C 49.208 19.8026 49.4141 19.3143 49.4141 18.75L 49.4141 4.16616C 49.4141 3.60187 49.2093 3.11376 48.7961 2.70123Z"/>
<path id="path1_fill" d="M 48.144 0.00136864L 41.8941 0.00136864C 41.4166 0.00136864 41.091 0.250729 40.9179 0.75002C 40.0069 2.92027 39.4313 4.18919 39.1929 4.55827C 37.6735 7.03169 35.6552 8.97481 33.1384 10.3853C 30.6205 11.7963 27.9079 12.5011 25.0001 12.5011C 22.8952 12.5011 20.8659 12.1108 18.913 11.3298C 16.9599 10.5478 15.2127 9.44081 13.6721 8.00838L 18.1319 3.54885C 18.5441 3.1369 18.7503 2.64799 18.7503 2.08405C 18.7503 1.51988 18.5441 1.03096 18.1319 0.619239C 17.7195 0.206489 17.2314 -5.84572e-07 16.6671 -5.84572e-07L 2.08355 -5.84572e-07C 1.51893 -5.84572e-07 1.0306 0.206489 0.618314 0.619239C 0.206029 1.03108 0 1.51999 0 2.08416L 0 16.668C 0 17.2319 0.206029 17.7207 0.618428 18.1329C 1.03106 18.5445 1.51939 18.7518 2.08366 18.7518C 2.64782 18.7518 3.13592 18.5446 3.54844 18.1329L 7.74757 13.9332C 10.0698 16.1463 12.7121 17.8503 15.6744 19.0439C 18.6367 20.2379 21.702 20.8341 24.8702 20.8341C 30.8167 20.8341 36.0032 19.0275 40.4302 15.4143C 44.8573 11.8012 47.7653 7.08608 49.1548 1.27018C 49.1766 1.22685 49.1868 1.1508 49.1868 1.04271C 49.1868 0.760169 49.0834 0.516852 48.8773 0.309906C 48.6709 0.104785 48.4266 0.00136864 48.144 0.00136864Z"/>
</defs>
</svg>
