<svg width="12" height="16" viewBox="0 0 12 16" version="1.1" xmlns="http://www.w3.org/2000/svg" xmlns:xlink="http://www.w3.org/1999/xlink">
<title>sort-down</title>
<desc>Created using Figma</desc>
<g id="Canvas" transform="translate(-5086 379)">
<g id="sort-down">
<g id="Group">
<g id="Vector">
<use xlink:href="#path0_fill" transform="matrix(6.12323e-17 -1 1 6.12323e-17 5086 -363)" fill="#34b399"/>
</g>
</g>
</g>
</g>
<defs>
<path id="path0_fill" d="M 15.703 0.395775C 15.5052 0.131852 15.2708 -6.45769e-08 14.9999 -6.45769e-08L 1.00008 -6.45769e-08C 0.729069 -6.45769e-08 0.494784 0.131852 0.296837 0.395775C 0.0988911 0.65999 0 0.972363 0 1.33348C 0 1.69452 0.0988911 2.0069 0.296837 2.27089L 7.29676 11.6039C 7.49493 11.8679 7.72921 12 8 12C 8.27079 12 8.50529 11.8679 8.70307 11.6039L 15.703 2.27082C 15.9007 2.0069 16 1.69452 16 1.33341C 16 0.972363 15.9007 0.65999 15.703 0.395775Z"/>
</defs>
</svg>
