<svg width="50" height="50" viewBox="0 0 50 50" version="1.1" xmlns="http://www.w3.org/2000/svg" xmlns:xlink="http://www.w3.org/1999/xlink">
<title>settings</title>
<desc>Created using Figma</desc>
<g id="Canvas" transform="translate(2924 -292)">
<g id="settings">
<g id="Vector">
<use xlink:href="#path0_fill" transform="translate(-2924 292)" fill="#FFFFFF"/>
</g>
</g>
</g>
<defs>
<path id="path0_fill" d="M 47.4407 19.7514L 43.9312 19.156C 43.5656 17.9758 43.0956 16.8373 42.5212 15.751L 44.5892 12.8577C 45.4666 11.6252 45.3308 9.9436 44.255 8.87821L 41.1424 5.76562C 40.5575 5.1807 39.7846 4.8569 38.9595 4.8569C 38.3119 4.8569 37.6956 5.05536 37.1734 5.43138L 34.2697 7.49947C 33.1416 6.90411 31.9614 6.4132 30.7393 6.04763L 30.1544 2.5799C 29.9037 1.08628 28.619 -1.27502e-06 27.1045 -1.27502e-06L 22.7072 -1.27502e-06C 21.1927 -1.27502e-06 19.908 1.08628 19.6573 2.5799L 19.0515 6.13119C 17.8817 6.49676 16.7432 6.97723 15.6569 7.56215L 12.7845 5.49405C 12.2623 5.11803 11.6356 4.91958 10.988 4.91958C 10.1629 4.91958 9.37951 5.24336 8.80504 5.82828L 5.68202 8.94088C 4.61664 10.0063 4.47042 11.6879 5.34779 12.9204L 7.43677 15.8554C 6.98763 16.7015 6.61162 17.5789 6.30871 18.4771C 6.05804 18.7696 5.81781 19.062 5.58802 19.3441L 2.57989 19.8559C 1.08627 20.1065 0 21.3913 0 22.9058L 0 27.3031C 0 28.8176 1.08627 30.1024 2.57989 30.353L 6.13115 30.9588C 6.49672 32.1287 6.97719 33.2672 7.5621 34.3535L 5.50446 37.2154C 4.62709 38.4479 4.76287 40.1295 5.83869 41.1949L 8.95127 44.3075C 9.53619 44.8924 10.3091 45.2162 11.1343 45.2162C 11.7818 45.2162 12.3981 45.0178 12.9203 44.6417L 15.8553 42.5527C 16.9103 43.1063 18.0174 43.5555 19.1559 43.9106L 19.7408 47.4201C 19.9915 48.9137 21.2762 50 22.7908 50L 27.1985 50C 28.713 50 29.9977 48.9137 30.2484 47.4201L 30.7498 44.4746C 31.0631 44.203 31.3869 43.9106 31.7107 43.6181C 32.5881 43.3048 33.4341 42.9288 34.2488 42.5005L 37.142 44.5686C 37.6643 44.9446 38.291 45.1431 38.9386 45.1431C 39.7637 45.1431 40.5366 44.8193 41.1215 44.2344L 44.2341 41.1218C 45.2995 40.0564 45.4457 38.3748 44.5684 37.1423L 42.5003 34.2386C 43.0747 33.1418 43.5552 32.0033 43.9103 30.8335L 47.4198 30.2486C 48.9134 29.9979 49.9997 28.7132 49.9997 27.1987L 49.9997 22.8013C 50.0206 21.2868 48.9343 20.0021 47.4407 19.7514ZM 17.0356 24.9948C 17.0356 20.5974 20.6078 17.0253 25.0051 17.0253C 29.4024 17.0253 32.9745 20.5974 32.9745 24.9948C 32.9745 29.3921 29.4024 32.9643 25.0051 32.9643C 20.6078 32.9643 17.0356 29.3921 17.0356 24.9948Z"/>
</defs>
</svg>
