<svg width="18" height="18" viewBox="0 0 18 18" version="1.1" xmlns="http://www.w3.org/2000/svg" xmlns:xlink="http://www.w3.org/1999/xlink">
<title>new-window</title>
<desc>Created using Figma</desc>
<g id="Canvas" transform="translate(-5083 260)">
<g id="new-window">
<g id="XMLID 18">
<use xlink:href="#path0_fill" transform="translate(5083 -260)" fill="#BDBDBD"/>
</g>
<g id="XMLID 17">
<use xlink:href="#path1_fill" transform="translate(5091.65 -260)" fill="#BDBDBD"/>
</g>
</g>
</g>
<defs>
<path id="path0_fill" d="M 15.0652 9.45652L 15.0652 15.0652L 2.93478 15.0652L 2.93478 2.93478L 8.54348 2.93478L 8.54348 0L 0 0L 0 18L 18 18L 18 9.45652L 15.0652 9.45652Z"/>
<path id="path1_fill" d="M 1.31739 9.24783C 1.65652 9.24783 1.99565 9.11739 2.25652 8.85652L 6.71739 4.39565L 6.71739 6.18261C 6.71739 6.91304 7.30435 7.5 8.03478 7.5C 8.76522 7.5 9.35217 6.92609 9.35217 6.19565L 9.35217 1.42174C 9.35217 1.03043 9.18261 0.678261 8.9087 0.443478C 8.83044 0.365217 8.75217 0.286957 8.66087 0.221739C 8.63478 0.195652 8.59565 0.182609 8.56956 0.169565C 8.53043 0.143478 8.47826 0.117391 8.43913 0.104348C 8.4 0.0913044 8.34783 0.0782609 8.3087 0.0652174C 8.26957 0.0521739 8.23044 0.0391304 8.19131 0.026087C 8.1 0.0130435 8.02174 0 7.93043 0L 3.15652 0C 2.42609 0 1.83913 0.586957 1.83913 1.31739C 1.83913 2.04783 2.42609 2.63478 3.15652 2.63478L 4.73478 2.63478L 0.391305 6.9913C -0.130434 7.51304 -0.130434 8.34783 0.391305 8.85652C 0.639131 9.11739 0.978261 9.24783 1.31739 9.24783Z"/>
</defs>
</svg>
