<svg width="60" height="50" viewBox="0 0 60 50" version="1.1" xmlns="http://www.w3.org/2000/svg" xmlns:xlink="http://www.w3.org/1999/xlink">
<title>twitter</title>
<desc>Created using Figma</desc>
<g id="Canvas" transform="translate(2189 -292)">
<g id="twitter">
<g id="Group">
<g id="Group">
<g id="Vector">
<use xlink:href="#path0_fill" transform="translate(-2189 292)" fill="#34B399"/>
</g>
</g>
</g>
</g>
</g>
<defs>
<path id="path0_fill" d="M 59.375 5.91579C 57.1897 6.91967 54.8448 7.60049 52.3812 7.90445C 54.8967 6.34275 56.8224 3.86567 57.735 0.923119C 55.3753 2.36935 52.7707 3.4195 49.9954 3.98878C 47.773 1.53092 44.6118 1.90306e-07 41.1056 1.90306e-07C 34.379 1.90306e-07 28.9249 5.65428 28.9249 12.624C 28.9249 13.6125 29.0325 14.578 29.2403 15.5012C 19.1188 14.9742 10.1437 9.94691 4.13685 2.3078C 3.08683 4.16953 2.48949 6.33882 2.48949 8.65447C 2.48949 13.0356 4.64144 16.9013 7.90649 19.1629C 5.91034 19.0937 4.03295 18.5244 2.38936 17.5782L 2.38936 17.7359C 2.38936 23.8517 6.58937 28.9559 12.1584 30.1176C 11.1381 30.4023 10.0621 30.56 8.94905 30.56C 8.16252 30.56 7.4019 30.4792 6.65612 30.3253C 8.20696 35.345 12.7038 38.9952 18.0318 39.0953C 13.8651 42.4802 8.61143 44.4919 2.90511 44.4919C 1.92193 44.4919 0.953494 44.4303 4.60868e-12 44.3188C 5.39101 47.9075 11.7912 50 18.67 50C 41.0761 50 53.3237 30.76 53.3237 14.0742L 53.2828 12.4395C 55.6759 10.67 57.7462 8.44677 59.375 5.91579Z"/>
</defs>
</svg>
