<svg width="97" height="68" viewBox="0 0 97 68" version="1.1" xmlns="http://www.w3.org/2000/svg" xmlns:xlink="http://www.w3.org/1999/xlink">
<title>yt btn</title>
<desc>Created using Figma</desc>
<g id="Canvas" transform="translate(-647 -277)">
<g id="yt btn">
<g id="Group">
<g id="Vector">
<use xlink:href="#path0_fill" transform="translate(647 277)" fill="#FFFFFF"/>
</g>
</g>
</g>
</g>
<defs>
<path id="path0_fill" d="M 95.201 10.8618C 94.015 5.70983 89.801 1.90883 84.728 1.34183C 72.715 0.000825882 60.556 -0.00617371 48.453 0.000826286C 36.348 -0.00617371 24.187 0.000825882 12.174 1.34183C 7.104 1.90883 2.893 5.70983 1.707 10.8618C 0.0190001 18.1988 0 26.2078 0 33.7618C 0 41.3158 0 49.3238 1.688 56.6598C 2.872 61.8108 7.084 65.6118 12.157 66.1798C 24.169 67.5218 36.329 67.5288 48.434 67.5218C 60.541 67.5288 72.698 67.5218 84.709 66.1798C 89.779 65.6128 93.994 61.8118 95.18 56.6598C 96.869 49.3228 96.875 41.3148 96.875 33.7618C 96.875 26.2078 96.889 18.1988 95.201 10.8618ZM 35.936 48.7978C 35.936 38.0818 35.936 27.4778 35.936 16.7608C 46.203 22.1178 56.402 27.4388 66.734 32.8288C 56.434 38.1708 46.23 43.4598 35.936 48.7978Z"/>
</defs>
</svg>
