<svg width="72" height="50" viewBox="0 0 72 50" version="1.1" xmlns="http://www.w3.org/2000/svg" xmlns:xlink="http://www.w3.org/1999/xlink">
<title>yt</title>
<desc>Created using Figma</desc>
<g id="Canvas" transform="translate(2099 -292)">
<g id="yt">
<g id="Group">
<g id="Vector">
<use xlink:href="#path0_fill" transform="translate(-2099 292)" fill="#34B399"/>
</g>
</g>
</g>
</g>
<defs>
<path id="path0_fill" d="M 70.633 8.0431C 69.7531 4.22808 66.6265 1.41347 62.8627 0.993612C 53.9498 0.000611559 44.9286 -0.00457159 35.949 0.000611858C 26.9679 -0.00457159 17.9452 0.000611559 9.03232 0.993612C 5.27071 1.41347 2.14642 4.22808 1.26648 8.0431C 0.0140968 13.4761 0 19.4067 0 25.0004C 0 30.594 0 36.5239 1.25239 41.9562C 2.13084 45.7704 5.25587 48.5851 9.01971 49.0057C 17.9318 49.9994 26.9538 50.0046 35.9349 49.9994C 44.9175 50.0046 53.9372 49.9994 62.8486 49.0057C 66.6102 48.5858 69.7375 45.7712 70.6174 41.9562C 71.8705 36.5232 71.875 30.5933 71.875 25.0004C 71.875 19.4067 71.8854 13.4761 70.633 8.0431ZM 26.6622 36.1344C 26.6622 28.1993 26.6622 20.3471 26.6622 12.4113C 34.2796 16.3781 41.8466 20.3182 49.5123 24.3095C 41.8704 28.2652 34.2997 32.1817 26.6622 36.1344Z"/>
</defs>
</svg>
