<svg xmlns="http://www.w3.org/2000/svg" xmlns:xlink="http://www.w3.org/1999/xlink" version="1.1" x="0px" y="0px" viewBox="0 0 880.4 1347.1" style="enable-background:new 0 0 880.4 1347.1;" xml:space="preserve">
					<style type="text/css">
						.st0{fill:#525169;}
						.st1{fill:#F7B076;}
						.st2{fill:#FACEA3;}
						.st3{fill:#62627F;}
						.st4{fill:#916036;}
						.st5{fill:#B07F48;}
						.st6{fill:none;stroke:#DB8C4A;stroke-width:6.9219;stroke-linecap:round;stroke-miterlimit:10;}
						.st7{fill:#DB8C4A;}
						.st8{fill:#D8D8D8;}
						.st9{fill:none;stroke:#7F4E24;stroke-width:4.4217;stroke-linecap:round;stroke-miterlimit:10;}
						.st10{fill:#424254;}
						.hidden{display:none;}
						.st12{display:inline;}						.st13{display:inline;fill:none;stroke:#7F4E24;stroke-width:4.0881;stroke-linecap:round;stroke-miterlimit:10;}
						.st14{display:inline;fill:#525169;}
						.st15{display:inline;fill:#A5AAD8;}
						#eyes {	animation-name: blinking;	animation-duration: 5s;	animation-iteration-count: infinite; animation-timing-function: ease-in-out; } @keyframes blinking {	0% {		opacity: 1;	}	49% {		opacity: 1;	}	50% {		opacity: 0;	}	53% {		opacity: 1;	}	80% {	opacity: 1;	}	81% {		opacity: 0;	}	82% {		opacity: 1;	}	100% {	opacity: 1;	} }
					</style>
					<g id="Wojtek">
						<g id="arm-whole">
							<path id="arm" class="st0" d="M565.7,894.7c0,0-59.7-102.1-72-143c-53.3-176.3-169.3-84-164.5-10.7    c6.2,94.7,121.3,351.9,287.5,325.8L565.7,894.7z"/>
							<g id="forearm_1_">
								<path id="forearm" class="st0" d="M616.7,1067c65-171.3,41.9-134.1,87.7-314.1c21.1-82.9-16.8-102.8-44.4-96.7     c-110.3,24.5-40.2,15.7-94.2,238.5C565.7,894.7,504.6,1061.2,616.7,1067z"/>
								<g id="hand">
									<path class="st1" d="M720.7,566c-1.6-3.7-3.9-12-8.9-13c-5.5-1-11.6,1.2-19.4-0.7c-8-2-12.6-7.4-22-9.5      c-4.6-1-13.3,3.2-18.9,2.5c5.1-37.4,14.4-108.1,13.9-115.6c-0.5-8.3-6.3-21.1-13.1-20c-0.2,19.5-10.5,46.9-12.2,57.6      c-2,13-6.8,54.5-16.4,59.9c-9.6,5.5,8.4,26.1-3.2,37.7c-5.1,5.1-13.8,4.9-21.9,3.1c-6.1,5.4-11.3,26-3.6,39.9      c7.3,13.2,3,36.7,11.9,51.2c0.1,9.1,0.2,14.8,0.2,14.8s87.8,28.4,92,15.7C715.4,640.7,739,608.4,720.7,566z"/>
									<g>
										<path class="st2" d="M656.4,544.7c-4.8,21.7-13.2,47.9-11.2,61.6c2,13.7,17.8,6.8,17.8,6.8l16.2-67.1       C679.2,546,659.5,530.1,656.4,544.7z"/>
										<path class="st2" d="M682.7,548.9c-4.8,21.7-13.7,49.9-11.6,63.5s15,5.1,15,5.1s3.4-37.2,15.8-65.7       C700.8,547.1,685.9,534.3,682.7,548.9z"/>
										<path class="st2" d="M704.5,554.7c-4.1,14.5-12.2,33.5-9.8,42.4c2.4,8.9,10.2,12.2,10.2,12.2s13.7-36.1,14.7-45.4       C720.7,553.7,707.3,545,704.5,554.7z"/>
										<path class="st2" d="M625.4,609.7c-7.7-5.4-5.8-11.2-9.1-21.9c6.8-3,13.7-2.2,23.4,3.1l5.1-18.6c-8-5-15.8-7.8-22.9-8.8       c10.1-10.9,8.2-18.5,11.7-31.4c2.8-10.6,10.9-49.9,13-62.8c1.7-10.7,5.7-40.2,5.9-59.7c-4.7,0.8-9.9,8.4-14,29       c-10.1,50.3-18.9,83.3-19.6,97.6c-0.7,14.7-14.3,27-14.3,27s-2.4,1.6-6,4.8c-7.4,5.4-12.8,19.3-5.7,35.8       c-0.6,22.1,14.5,64.7,14.5,64.7l38.9-13.8c0,0,2.6-7.2,3.1-25.6S634.1,615.8,625.4,609.7z"/>
									</g>
								</g>
							</g>
						</g>
						<g id="top">
							<path id="collar" class="st3" d="M42.3,717.3c30.2-74.4,73.3-172.4,113.7-193.7c61.4-32.4,153.1-9.5,201.2,40.9    c6.4,6.7,12.4,33.5,8.5,49.6c26.6,66.4-4.7,158.8-61.4,178.6L42.3,717.3z"/>
							<path id="shirt" class="st0" d="M366.2,609.5c-12,96.3-109.6,139.7-123,145.3l-35.4-82.6l-78.8,47.9c-1.4-5.4-53.5-95.7,7-180.5    c0-0.1-78.2-17.2-135.3,8.1v708.9c86.4-53.7,217.6-171.4,362.5-349.6c18-22.1,60.3-65.8,71.3-86.4    C485.1,726,469.1,655.6,366.2,609.5z"/>
						</g>
						<g id="Neck">
							<path class="st1" d="M374.9,475.3c27.4-31.2-159.5-36.1-159.5-36.1c-10,43.4-32.9,148.1-32.5,187c10.1,21.5,23.8,39.5,42,43.4    c38.7,0.4,87.3-26.7,104.8-47C331.1,599.2,339.3,515.7,374.9,475.3z"/>
							<path class="st2" d="M192.7,459.9c0.8,58.8-28.2,103.3-28.2,103.3s0.4,25,18.4,63.1c-0.4-38.9,63.5-108.2,73.5-151.6    C256.4,474.6,192,408.1,192.7,459.9z"/>
						</g>
						<g id="head">
							<path id="back_hair" class="st4" d="M185.5,389.4l-11.2-2.5c-10.1,19.6-6.1,78.1,5.2,91.2c3.7-3,15.7-29.2,25.7-20L185.5,389.4z"/>
							<g>
								<path class="st2" d="M392.2,423.4c6.1-23.1-0.3-34-28.6-71.5c-13.4-17.8,53-49,32-57.3s-3.9-79-27.9-100     c-27.4-24.1-91.7,2.6-91.7,2.6s-85.8,68.3-118.3,72.7c5.1,35.2,9.4,86.4,10.4,102.5c1.3,21.1,42.6,176.1,100.9,200.2     c17.7,7.3,49.1,25.3,76.8,24.2c6.4-17.6,21-58.3,26.9-77.3C382.4,487.9,386.1,446.5,392.2,423.4z"/>
								<path class="st1" d="M398.7,525c12.1-111.1,44.1-93.7,41.8-156.3c-1.4-36.9,13.9-140.9,13.9-140.9l-37.6-47.4l-108.6-24     l-82.6-3.6L158.2,236l-2.3,22.4c0.6,3.5,1.2,7.4,1.8,11.4c32.5-4.3,118.3-72.7,118.3-72.7s64.4-26.6,91.7-2.6     c23.9,21,6.9,91.7,27.9,100s-45.5,39.6-32,57.3c28.4,37.5,34.7,48.3,28.6,71.5c-6.1,23.1-9.8,64.5-19.5,96.1     c-5.8,19-20.5,59.7-26.9,77.3C370.9,595.8,392.8,579.2,398.7,525z"/>
								<g>
									<path class="st1" d="M297,364.2c10.3-13.3-10.4-27.7-27.8-29.1c-21.8-1.7-33.4-2.4-44.3-1.7c-17.3,1.1-15.6,18.6-11.4,29.1      c4.2,10.5,59.2,36,80,6.4c0.9-1.2,1.7-2.4,2.6-3.5C296.4,365,296.7,364.6,297,364.2z"/>
									<path class="st1" d="M420,316.7c0,0-45.6,10.3-59.4,17.3c-15.8,8-14.9,32.1-8.4,39.6c13.2,15.3,69.5,3.5,88.4-10.6      C464.3,311.9,420,316.7,420,316.7z"/>
								</g>
							</g>
							<g id="ears">
								<ellipse transform="matrix(7.973001e-02 -0.9968 0.9968 7.973001e-02 21.9652 772.9809)" class="st1" cx="429.6" cy="374.6" rx="43.9" ry="17"/>

								<ellipse transform="matrix(0.9549 -0.2969 0.2969 0.9549 -110.2011 64.9387)" class="st1" cx="158.7" cy="395.3" rx="17" ry="43.9"/>
							</g>
							<g>
								<path class="st5" d="M464.8,204.8c-0.1-0.1-0.1-0.2-0.1-0.2S462.7,204.6,464.8,204.8z"/>
								<path class="st5" d="M150.6,269.2c-10.4-19.4,14.6-85.4,59.7-119.5c1.8-6-35.2,16.8-32.3,11.4c8.5-16.3,21.6-29.4,39.6-35.9     c19.3-7.1,42.8-13.4,64.8-18.6c4.5-1.1,32.6,3.8,32.6,3.8s-8.7-9.2-3.8-10.3c25.3-5.3,28-8.4,28-8.4l34.9,33.2l-24.9-49     c0,0,77.8,19.8,89.4,39c4.1-21.3-12.6-49.6-15.5-72.8c-6.2,15.5-32.7,20.4-32.7,20.4s-2.9-25.3-16.1-36.3     c0.8,27.1-15.8,21.8-15.8,21.8l-66.2-28.7l1.5,24.5l-11.3,4.1c0,0-23.9-1.9-31.4-7.5c-13,12-11.8,40.6-11.8,40.6     s-25.7-35.6-24.6-49.5c-16.9,11.7-4.4,50.2-4.4,50.2s-18.1-31-26-57.6c-25.9,23.9-5.6,57-5.6,57s-20.2,9.2-53.1,57.6     C92.8,187,81.8,216.8,95.7,242.9c6.4-17.5,20.3-17,31.9-12C108.9,302.5,175,390.2,175,390.2s1.8-43.5,0.8-76.3     c-0.9-28,2.9-60.6,9.2-77.1C165.9,253.7,150.6,269.2,150.6,269.2z"/>
								<path class="st5" d="M464.8,204.8c-2.2-0.2-0.1-0.2-0.1-0.2S464.7,204.7,464.8,204.8c2.1,0.2,8.4,0.6,24.8,1.4     c-16.9-26.4-23.7-33.4-49.2-35.5c-2.1-24.2,12.3-28.5,38.2-26.5c-15.3-9.2-14.5-18.7-47.9-14.4c0,0,13.4,28.7-15.2,56.9     c0,0,7.7,12.8,17.3,41c5.5,16.1,4.3,26.8,4.7,41.1c5.1,5.4,10.2,12.8,12.1,15.5c6,8.3,13.9,18.1,12.2,39c-0.8,9.8-3,18.5-6,25.1     c4.8-1,9-2.7,9.8-5.5c4.7-16,5-65.4,5-65.4s15.9-6.6,15.3-24.7C485.3,235.7,466.5,207.4,464.8,204.8z"/>
								<path class="st4" d="M430.6,129.9c4.5-4.4,7-9.5,8-15.1c-11.7-19.2-89.4-39-89.4-39l24.9,49l-34.9-33.2c0,0-2.7,3.1-28,8.4     c-4.9,1,3.8,10.3,3.8,10.3s-28.1-4.9-32.6-3.8c-22,5.2-45.4,11.5-64.8,18.6c-18,6.6-31.1,19.6-39.6,35.9     c-2.8,5.4,34.1-17.4,32.3-11.4c-45.1,34.1-70.1,100.1-59.7,119.5c0,0,15.3-15.6,34.4-32.4c0.4-1.1,0.9-2.2,1.3-3.1     c17.9-38.3,76.6-54.6,76.6-54.6s15.2,28.7,76.5,26.6c47.8-1.6,76-18.9,76-18.9C444,158.6,430.6,129.9,430.6,129.9z"/>
								<path class="st4" d="M449.4,284.4c-1.9-2.7-7-10.1-12.1-15.5c0.2,6.5,0.7,13.8,2.4,22.6c6.4,34.7-0.9,58.3-0.9,58.3     s9.2,0.2,16.9-1.4c3-6.5,5.2-15.3,6-25.1C463.3,302.6,455.4,292.7,449.4,284.4z"/>
							</g>
							<g id="nose">
								<path class="st1" d="M360.7,405c-4.1-0.1-7.8,2-10.8,5.4c-2.9-1.8-6.1-2.8-9.5-2.9c-4.2-0.1-8.2,1.3-11.6,3.8     c-2.5-3.4-5.7-5.6-9.3-5.6c-8.2-0.2-15.1,10.6-15.4,24c-0.2,12.8,5.6,23.4,13.3,24.5c8.6,7.2,25.3,18.6,28.9,19.1     c3.7,0.5,15.3-13.7,20.2-21.6c5.9-3.7,10.2-12.1,10.4-22C377.2,416.2,370,405.2,360.7,405z"/>
								<path class="st2" d="M359.6,397.5c-2.6,0-5,0.8-7.3,2.3c-4.4-3.7-9.9-6-15.9-6.1c-5.5-0.1-10.6,1.5-14.9,4.5     c-1.5-0.9-3.1-1.5-4.8-1.5c-8.2-0.2-15.1,10.6-15.4,24c-0.3,13.4,6.2,24.4,14.4,24.6c1.7,0,14.1,3.6,19.6,3.7     c6.1,0.1,20.7-2.9,23.3-2.9c9.2,0.2,16.9-10.6,17.2-24S368.8,397.7,359.6,397.5z"/>
							</g>
							<path id="Beard_57_" class="st4" d="M318,529.2l-4.1,43.7c-1.1,13.9-25.2,9.1-35.4-0.4c-2.6-2.4-5.9-1.7-9-4.9    c2.7,24.6,27.7,34.4,56.3,35.3c28.6,0.9,51.9-7.6,62.8-36.8c-35.2,27.1-41.7,23.9-50.9,8.3c-4.9-8.4-3.9-25.1-3.7-45.1H318z"/>
							<g id="Mouth">
								<path class="st6" d="M282.6,493.4c32.4,14,54.8,18.5,89.6-1.1"/>

									<ellipse transform="matrix(7.972988e-02 -0.9968 0.9968 7.972988e-02 -232.1587 735.0432)" class="st7" cx="282" cy="493.3" rx="5.8" ry="5.5"/>

									<ellipse transform="matrix(7.972988e-02 -0.9968 0.9968 7.972988e-02 -145.9315 822.912)" class="st7" cx="372.7" cy="490.5" rx="6" ry="5.7"/>
							</g>
							<g id="eyes">
								<g id="eye_Left">
									<g id="Left_Eyeball_4_">
										<path class="st8" d="M422.8,357.7c0,0-12.3-11.7-28-12.1c-15.7-0.4-30.1,11.9-33.1,19.4C375.5,368.7,389.7,383,422.8,357.7z"/>
										<path class="st9" d="M425,362.2c-15.9-25.5-50.4-24.4-66.2,5.2"/>
									</g>

										<ellipse id="_x2B_Left_Pupil_4_" transform="matrix(8.157822e-02 -0.9967 0.9967 8.157822e-02 2.1635 720.236)" class="st10" cx="391.9" cy="358.9" rx="12.5" ry="13.2"/>
								</g>
								<g id="eye_Right">
									<g id="Right_Eyeball_4_">
										<path class="st8" d="M221,362.2c0,0,11.5-12.5,27.2-14s30.8,9.9,34.3,17.2C269,370,255.7,385.2,221,362.2z"/>
										<path class="st9" d="M219.1,366.8c14.2-26.5,48.7-27.7,66.4,0.8"/>
									</g>

										<ellipse id="_x2B_Right_Pupil_4_" transform="matrix(0.9891 -0.1475 0.1475 0.9891 -50.5373 41.3083)" class="st10" cx="253.2" cy="361.3" rx="13.2" ry="12.5"/>
								</g>
							</g>
							<g id="Blink" class="hidden">
								<g class="st12">
									<path class="st1" d="M297,364.2c10.3-13.3-10.4-27.7-27.8-29.1c-21.8-1.7-33.4-2.4-44.3-1.7c-17.3,1.1-14.9,21.8-10.7,32.2      c4.2,10.5,58.5,32.9,79.3,3.2c0.9-1.2,1.7-2.4,2.6-3.5C296.4,365,296.7,364.6,297,364.2z"/>
									<path class="st1" d="M420,316.7c0,0-45.6,10.3-59.4,17.3c-15.8,8-14.9,32.1-8.4,39.6c13.2,15.3,69.5,3.5,88.4-10.6      C427.9,319.8,420,316.7,420,316.7z"/>
								</g>
								<path class="st13" d="M362.9,366.8c16.4,7.2,37.1,8.8,61.9-4.7"/>
								<path class="st13" d="M284.8,367.7c-16.4,7.2-37.1,8.8-61.9-4.7"/>
							</g>
							<g id="eyebrows">
								<path id="eyebrow_Right" class="st4" d="M281.1,344.9c0,0-29.4-9.2-42.8-7.5c-13.4,1.7-23.2,8.4-23.2,8.4l-9.8-11.7     c0,0,13.4-16.4,34.4-13.2c21,3.2,48.4,10.8,54.3,17.1C290.5,345.6,281.1,344.9,281.1,344.9z"/>
								<path id="eyebrow_Left" class="st4" d="M349.3,340.4c7.3,4.7,13.6,2.9,35.4-4.9s57.6-2.7,63.1,5.1c6.1-16.9-17.4-32.9-45.6-24.1     c-28.2,8.8-55.2,18.9-55.2,18.9S347.6,339.3,349.3,340.4z"/>
							</g>
							<g id="sunglasses" class="hidden">
								<path class="st14" d="M249,403.5l-20.2-1.1c-23.8-1.3-30.4-21.6-29.9-31.7l0.8-14c1-17.9,25-25.9,33.3-25.5l70.9,3.9     c8.3,0.5,14.7,9.1,14.1,19.3l-1,17.4C316.5,382,284.8,405.5,249,403.5z"/>
								<path class="st14" d="M406,400.5l19.2-1.7c22.7-2,28.3-21.5,27.5-31.1l-1.1-13.3c-1.5-17.1-24.6-23.9-32.5-23.3l-67.5,5.8     c-7.9,0.7-13.7,9.1-12.9,18.8l1.4,16.6C341,382,372,403.4,406,400.5z"/>
								<polygon class="st14" points="141.9,355.4 201.8,371.5 218.6,336.2 135,342.5    "/>
								<path class="st14" d="M315.2,371.8c6-12.8,22.2-13,25.5-1.4s9.9-33.3,9.9-33.3s-35.6,0.9-49.1-1     C288,334.3,315.2,371.8,315.2,371.8z"/>
								<path class="st15" d="M221.6,348c-5.5,7.2-19.6,19.3-2.4,16.6c17.2-2.7,38.5-8.4,33.9-14.6C248.4,343.9,221.6,348,221.6,348z"/>
								<path class="st15" d="M360.6,346.4c-5.5,7.2-19.6,19.3-2.4,16.6c17.2-2.7,38.5-8.4,33.9-14.6     C387.4,342.3,360.6,346.4,360.6,346.4z"/>
							</g>
						</g>
					</g>
					<g id="Wojtek2" class="hidden">
						<g id="arm_2_" class="st12">
							<path id="arm_3_" class="st0" d="M706.3,1046.1c0,0-60.5-103.5-73-144.9c-54-178.6-171.6-85.2-166.7-10.8    c6.3,95.9,122.9,356.6,291.3,330.2L706.3,1046.1z"/>
							<g id="forearm_2_">
								<path id="forearm_3_" class="st0" d="M757.9,1220.6c65.9-173.6,42.4-135.8,88.8-318.3c21.4-84-17-104.2-45-98     c-111.7,24.8-40.7,15.9-95.5,241.7C706.3,1046.1,644.4,1214.8,757.9,1220.6z"/>
								<g id="hand_1_">
									<path class="st1" d="M863.3,713c-1.6-3.7-4-12.2-9-13.1c-5.6-1-11.7,1.2-19.6-0.8c-8.1-2-12.8-7.5-22.3-9.6      c-4.7-1-13.5,3.2-19.1,2.5c5.1-37.9,14.6-109.5,14.1-117.1c-0.6-8.4-6.4-21.4-13.3-20.3c-0.2,19.8-10.7,47.5-12.4,58.4      c-2.1,13.2-6.9,55.2-16.6,60.7c-9.7,5.5,8.5,26.5-3.3,38.2c-5.2,5.2-14,5-22.2,3.2c-6.1,5.5-11.5,26.3-3.6,40.5      c7.4,13.3,3,37.2,12,51.9c0.1,9.2,0.2,15,0.2,15s88.9,28.8,93.2,15.9C857.9,788.7,881.9,755.9,863.3,713z"/>
									<g>
										<path class="st2" d="M798.1,691.4c-4.8,22-13.4,48.6-11.3,62.4c2.1,13.8,18,6.9,18,6.9l16.5-68       C821.2,692.7,801.3,676.6,798.1,691.4z"/>
										<path class="st2" d="M824.9,695.6c-4.8,22-13.8,50.5-11.8,64.4c2.1,13.8,15.2,5.2,15.2,5.2s3.5-37.7,16.1-66.6       C843.1,693.8,828.1,680.9,824.9,695.6z"/>
										<path class="st2" d="M846.9,701.6c-4.2,14.7-12.4,33.9-9.9,43c2.5,9,10.4,12.4,10.4,12.4s13.9-36.5,14.9-46       C863.3,700.5,849.7,691.7,846.9,701.6z"/>
										<path class="st2" d="M766.7,757.2c-7.8-5.5-5.9-11.4-9.2-22.2c6.9-3,13.9-2.3,23.7,3.2l5.2-18.8c-8.1-5.1-16-7.9-23.2-8.9       c10.3-11,8.3-18.7,11.8-31.8c2.9-10.8,11.1-50.5,13.2-63.7c1.7-10.9,5.8-40.7,6-60.5c-4.8,0.8-10,8.5-14.2,29.4       c-10.2,51-19.2,84.5-19.8,98.9c-0.7,14.9-14.5,27.4-14.5,27.4s-2.4,1.6-6.1,4.8c-7.5,5.5-12.9,19.6-5.8,36.3       c-0.6,22.4,14.7,65.6,14.7,65.6l39.5-14c0,0,2.6-7.3,3.1-26C791.6,758.3,775.5,763.5,766.7,757.2z"/>
									</g>
								</g>
							</g>
						</g>
						<g id="top_1_" class="st12">
							<path class="st3" d="M205.7,964.8c7.3-79.9,20-186.2,52.5-218.4c49.3-48.8,143.7-53.6,204.4-19.3c8,4.5,21.6,28.4,22.6,45    c44.8,55.8,41.6,153.3-6.9,188.7L205.7,964.8z"/>
							<path class="st0" d="M484.4,767.6c16.6,95.7-64.3,165.5-75.4,174.8l-57.9-68.8l-61.5,68.7c-2.9-4.8-79-76-45.8-174.7    c0-0.1-96.1,7.6-139.9,60c-20.4,8.8-20.7,30.3-38.5,70.5c-15.9,36-35,108.6-51.8,282.1c-7.5,77.4-11,128.8-12.9,168.9l552.3,1.9    c0.7-65.3,1.8-160.3,15-297.9c2.7-28.4,38.6-80.5,43.1-103.4C632,844.5,596.3,781.8,484.4,767.6z M144.6,1348.6    c3.1-35.6,12.5-150.8,16.7-164.6c2.2,30.5-2.7,140.2-2.1,164L144.6,1348.6z"/>
						</g>
						<g id="Neck_1_" class="st12">
							<path class="st1" d="M453.6,636.6c-4-41.4-163.1,11.9-163.1,11.9c3.1,44.4,11.6,151.3,23.3,188.4c15.9,17.6,34.3,30.9,52.8,29.3    c37.2-10.9,88-67.4,98.9-91.9C469.8,750,457.9,681.6,453.6,636.6z"/>
							<path class="st2" d="M272.2,675.1c-9.4,19.3-7.2,85.5-7.2,85.5s20.6,45,48.9,76.2c-11.7-37.1,0.3-135.3-2.8-179.8    C311.1,657.1,294.9,628.6,272.2,675.1z"/>
						</g>
						<g id="head_1_" class="st12">
							<path id="back_hair_1_" class="st4" d="M257.1,582.1l-11.2-2.5c-10.1,19.6-6.1,78.1,5.2,91.2c3.7-3,15.7-29.2,25.7-20L257.1,582.1    z"/>
							<g>
								<path class="st2" d="M463.8,616.1c6.1-23.1-0.3-34-28.6-71.5c-13.4-17.8,53-49,32-57.3s-3.9-79-27.9-100     c-27.4-24.1-91.7,2.6-91.7,2.6s-85.8,68.3-118.3,72.7c5.1,35.2,9.4,86.4,10.4,102.5c1.3,21.1,42.6,176.1,100.9,200.2     c17.7,7.3,49.1,25.3,76.8,24.2c6.4-17.6,21-58.3,26.9-77.3C454,680.5,457.7,639.2,463.8,616.1z"/>
								<path class="st1" d="M470.3,717.7c12.1-111.1,44.1-93.7,41.8-156.3c-1.4-36.9,13.9-140.9,13.9-140.9l-37.6-47.4l-108.6-24     l-82.6-3.6l-67.4,83.1l-2.3,22.4c0.6,3.5,1.2,7.4,1.8,11.4c32.5-4.3,118.3-72.7,118.3-72.7s64.4-26.6,91.7-2.6     c23.9,21,6.9,91.7,27.9,100s-45.5,39.6-32,57.3c28.4,37.5,34.7,48.3,28.6,71.5c-6.1,23.1-9.8,64.5-19.5,96.1     c-5.8,19-20.5,59.7-26.9,77.3C442.4,788.4,464.4,771.8,470.3,717.7z"/>
								<g>
									<path class="st1" d="M368.6,556.8c10.3-13.3-10.4-27.7-27.8-29.1c-21.8-1.7-33.4-2.4-44.3-1.7c-17.3,1.1-15.6,18.6-11.4,29.1      c4.2,10.5,59.2,36,80,6.4c0.9-1.2,1.7-2.4,2.6-3.5C367.9,557.6,368.2,557.2,368.6,556.8z"/>
									<path class="st1" d="M491.6,509.3c0,0-45.6,10.3-59.4,17.3c-15.8,8-14.9,32.1-8.4,39.6c13.2,15.3,69.5,3.5,88.4-10.6      C535.8,504.5,491.6,509.3,491.6,509.3z"/>
								</g>
							</g>
							<g id="ears_1_">
									<ellipse transform="matrix(7.973001e-02 -0.9968 0.9968 7.973001e-02 -104.2112 1021.5886)" class="st1" cx="501.2" cy="567.2" rx="43.9" ry="17"/>
									<ellipse transform="matrix(0.9549 -0.2969 0.2969 0.9549 -164.1702 94.8705)" class="st1" cx="230.2" cy="587.9" rx="17" ry="43.9"/>
							</g>
							<g>
								<path class="st5" d="M536.4,397.5c-0.1-0.1-0.1-0.2-0.1-0.2S534.2,397.3,536.4,397.5z"/>
								<path class="st5" d="M222.2,461.9c-10.4-19.4,14.6-85.4,59.7-119.5c1.8-6-35.2,16.8-32.3,11.4c8.5-16.3,21.6-29.4,39.6-35.9     c19.3-7.1,42.8-13.4,64.8-18.6c4.5-1.1,32.6,3.8,32.6,3.8s-8.7-9.2-3.8-10.3c25.3-5.3,28-8.4,28-8.4l34.9,33.2l-24.9-49     c0,0,77.8,19.8,89.4,39c4.1-21.3-12.6-49.6-15.5-72.8c-6.2,15.5-32.7,20.4-32.7,20.4s-2.9-25.3-16.1-36.3     c0.8,27.1-15.8,21.8-15.8,21.8L364,211.9l1.5,24.5l-11.3,4.1c0,0-23.9-1.9-31.4-7.5c-13,12-11.8,40.6-11.8,40.6     S285.3,238,286.4,224c-16.9,11.7-4.4,50.2-4.4,50.2s-18.1-31-26-57.6c-25.9,23.9-5.6,57-5.6,57s-20.2,9.2-53.1,57.6     c-32.9,48.4-43.9,78.2-29.9,104.4c6.4-17.5,20.3-17,31.9-12c-18.7,71.6,47.3,159.3,47.3,159.3s1.8-43.5,0.8-76.3     c-0.9-28,2.9-60.6,9.2-77.1C237.5,446.3,222.2,461.9,222.2,461.9z"/>
								<path class="st5" d="M536.4,397.5c-2.2-0.2-0.1-0.2-0.1-0.2S536.3,397.3,536.4,397.5c2.1,0.2,8.4,0.6,24.8,1.4     c-16.9-26.4-23.7-33.4-49.2-35.5c-2.1-24.2,12.3-28.5,38.2-26.5c-15.3-9.2-14.5-18.7-47.9-14.4c0,0,13.4,28.7-15.2,56.9     c0,0,7.7,12.8,17.3,41c5.5,16.1,4.3,26.8,4.7,41.1c5.1,5.4,10.2,12.8,12.1,15.5c6,8.3,13.9,18.1,12.2,39c-0.8,9.8-3,18.5-6,25.1     c4.8-1,9-2.7,9.8-5.5c4.7-16,5-65.4,5-65.4s15.9-6.6,15.3-24.7C556.9,428.4,538.1,400,536.4,397.5z"/>
								<path class="st4" d="M502.2,322.6c4.5-4.4,7-9.5,8-15.1c-11.7-19.2-89.4-39-89.4-39l24.9,49l-34.9-33.2c0,0-2.7,3.1-28,8.4     c-4.9,1,3.8,10.3,3.8,10.3s-28.1-4.9-32.6-3.8c-22,5.2-45.4,11.5-64.8,18.6c-18,6.6-31.1,19.6-39.6,35.9     c-2.8,5.4,34.1-17.4,32.3-11.4c-45.1,34.1-70.1,100.1-59.7,119.5c0,0,15.3-15.6,34.4-32.4c0.4-1.1,0.9-2.2,1.3-3.1     c17.9-38.3,76.6-54.6,76.6-54.6s15.2,28.7,76.5,26.6c47.8-1.6,76-18.9,76-18.9C515.6,351.2,502.2,322.6,502.2,322.6z"/>
								<path class="st4" d="M521,477.1c-1.9-2.7-7-10.1-12.1-15.5c0.2,6.5,0.7,13.8,2.4,22.6c6.4,34.7-0.9,58.3-0.9,58.3     s9.2,0.2,16.9-1.4c3-6.5,5.2-15.3,6-25.1C534.9,495.2,527,485.3,521,477.1z"/>
							</g>
							<g id="nose_1_">
								<path class="st1" d="M432.3,597.6c-4.1-0.1-7.8,2-10.8,5.4c-2.9-1.8-6.1-2.8-9.5-2.9c-4.2-0.1-8.2,1.3-11.6,3.8     c-2.5-3.4-5.7-5.6-9.3-5.6c-8.2-0.2-15.1,10.6-15.4,24c-0.2,12.8,5.6,23.4,13.3,24.5c8.6,7.2,25.3,18.6,28.9,19.1     c3.7,0.5,15.3-13.7,20.2-21.6c5.9-3.7,10.2-12.1,10.4-22C448.8,608.8,441.5,597.8,432.3,597.6z"/>
								<path class="st2" d="M431.1,590.1c-2.6,0-5,0.8-7.3,2.3c-4.4-3.7-9.9-6-15.9-6.1c-5.5-0.1-10.6,1.5-14.9,4.5     c-1.5-0.9-3.1-1.5-4.8-1.5c-8.2-0.2-15.1,10.6-15.4,24s6.2,24.4,14.4,24.6c1.7,0,14.1,3.6,19.6,3.7c6.1,0.1,20.7-2.9,23.3-2.9     c9.2,0.2,16.9-10.6,17.2-24C447.6,601.3,440.3,590.3,431.1,590.1z"/>
							</g>
							<path id="Beard_1_" class="st4" d="M389.5,721.9l-4.1,43.7c-1.1,13.9-25.2,9.1-35.4-0.4c-2.6-2.4-5.9-1.7-9-4.9    c2.7,24.6,27.7,34.4,56.3,35.3c28.6,0.9,51.9-7.6,62.8-36.8c-35.2,27.1-41.7,23.9-50.9,8.3c-4.9-8.4-3.9-25.1-3.7-45.1H389.5z"/>
							<g id="Mouth_1_">
								<path class="st6" d="M354.1,686.1c32.4,14,54.8,18.5,89.6-1.1"/>

									<ellipse transform="matrix(7.972988e-02 -0.9968 0.9968 7.972988e-02 -358.3351 983.6509)" class="st7" cx="353.6" cy="685.9" rx="5.8" ry="5.5"/>

									<ellipse transform="matrix(7.972988e-02 -0.9968 0.9968 7.972988e-02 -272.1078 1071.5197)" class="st7" cx="444.3" cy="683.1" rx="6" ry="5.7"/>
							</g>
							<g id="eyes_1_">
								<g id="eye_Left_1_">
									<g id="Left_Eyeball_1_">
										<path class="st8" d="M494.4,550.3c0,0-12.3-11.7-28-12.1c-15.7-0.4-30.1,11.9-33.1,19.4C447,561.3,461.3,575.6,494.4,550.3z"/>
										<path class="st9" d="M496.5,554.8c-15.9-25.5-50.4-24.4-66.2,5.2"/>
									</g>

										<ellipse id="_x2B_Left_Pupil_1_" transform="matrix(8.157822e-02 -0.9967 0.9967 8.157822e-02 -124.1163 968.4769)" class="st10" cx="463.4" cy="551.6" rx="12.5" ry="13.2"/>
								</g>
								<g id="eye_Right_1_">
									<g id="Right_Eyeball_1_">
										<path class="st8" d="M292.5,554.8c0,0,11.5-12.5,27.2-14s30.8,9.9,34.3,17.2C340.5,562.6,327.2,577.9,292.5,554.8z"/>
										<path class="st9" d="M290.7,559.5c14.2-26.5,48.7-27.7,66.4,0.8"/>
									</g>

										<ellipse id="_x2B_Right_Pupil_1_" transform="matrix(0.9891 -0.1475 0.1475 0.9891 -78.1768 53.974)" class="st10" cx="324.7" cy="553.9" rx="13.2" ry="12.5"/>
								</g>
							</g>
							<g id="Blink_1_" class="hidden">
								<g class="st12">
									<path class="st1" d="M370,560.5c10.3-13.3-10.4-27.7-27.8-29.1c-21.8-1.7-33.4-2.4-44.3-1.7c-17.3,1.1-14.9,21.8-10.7,32.2      c4.2,10.5,58.5,32.9,79.3,3.2c0.9-1.2,1.7-2.4,2.6-3.5C369.4,561.3,369.7,560.9,370,560.5z"/>
									<path class="st1" d="M493.1,513c0,0-45.6,10.3-59.4,17.3c-15.8,8-14.9,32.1-8.4,39.6c13.2,15.3,69.5,3.5,88.4-10.6      C500.9,516.2,493.1,513,493.1,513z"/>
								</g>
								<path class="st13" d="M436,563.2c16.4,7.2,37.1,8.8,61.9-4.7"/>
								<path class="st13" d="M357.9,564c-16.4,7.2-37.1,8.8-61.9-4.7"/>
							</g>
							<g id="eyebrows_1_">
								<path id="eyebrow_Right_1_" class="st4" d="M352.6,537.5c0,0-29.4-9.2-42.8-7.5c-13.4,1.7-23.2,8.4-23.2,8.4l-9.8-11.7     c0,0,13.4-16.4,34.4-13.2c21,3.2,48.4,10.8,54.3,17.1C362,538.3,352.6,537.5,352.6,537.5z"/>
								<path id="eyebrow_Left_1_" class="st4" d="M420.8,533.1c7.3,4.7,13.6,2.9,35.4-4.9s57.6-2.7,63.1,5.1     c6.1-16.9-17.4-32.9-45.6-24.1c-28.2,8.8-55.2,18.9-55.2,18.9S419.1,532,420.8,533.1z"/>
							</g>
							<g id="sunglasses_1_" class="hidden">
								<path class="st14" d="M326.3,590.6l-20.2-1.1c-23.8-1.3-30.4-21.6-29.9-31.7l0.8-14c1-17.9,25-25.9,33.3-25.5l70.9,3.9     c8.3,0.5,14.7,9.1,14.1,19.3l-1,17.4C393.9,569.1,362.1,592.6,326.3,590.6z"/>
								<path class="st14" d="M483.4,587.6l19.2-1.7c22.7-2,28.3-21.5,27.5-31.1l-1.1-13.3c-1.5-17.1-24.6-23.9-32.5-23.3l-67.5,5.8     c-7.9,0.7-13.7,9.1-12.9,18.8l1.4,16.6C418.4,569.2,449.4,590.6,483.4,587.6z"/>
								<polygon class="st14" points="219.2,542.5 279.2,558.6 295.9,523.3 212.4,529.6    "/>
								<path class="st14" d="M392.6,559c6-12.8,22.2-13,25.5-1.4c3.3,11.6,9.9-33.3,9.9-33.3s-35.6,0.9-49.1-1     C365.4,521.4,392.6,559,392.6,559z"/>
								<path class="st15" d="M298.9,535.2c-5.5,7.2-19.6,19.3-2.4,16.6s38.5-8.4,33.9-14.6S298.9,535.2,298.9,535.2z"/>
								<path class="st15" d="M437.9,533.6c-5.5,7.2-19.6,19.3-2.4,16.6s38.5-8.4,33.9-14.6S437.9,533.6,437.9,533.6z"/>
							</g>
						</g>
					</g>
					<g id="wojtek_3" class="hidden">
						<g id="arm_4_" class="st12">
							<path id="arm_5_" class="st0" d="M114.2,395.4c0,0,84,85.5,106.3,122.5c96.2,159.9,187.2,40.4,164.3-30.5    C355.1,396,178.1,171.9,21.3,238.9L114.2,395.4z"/>
							<g id="forearm_4_">
								<path id="forearm_5_" class="st0" d="M21.3,238.9C0,423.3,13.5,381,13.3,569.2c-0.1,86.7,42.1,96.8,67.6,84     c102.2-51.5,35.6-25.4,33.2-257.8C114.2,395.4,132.8,216.7,21.3,238.9z"/>
								<g id="hand_2_">
									<path class="st1" d="M43.7,756.9c2.5,3.2,6.9,10.8,12,10.5c5.7-0.4,11.1-4.1,19.2-4.1c8.4,0,14.2,4.1,24,3.8      c4.8-0.1,12.3-6.5,17.9-7.1c4.3,38,12.7,109.8,15,117c2.6,8,11.5,19.2,17.8,16.4c-4.7-19.2-1.3-48.7-2.3-59.7      c-1.2-13.3-6.8-55.2,1.2-63c8-7.7-14.7-23.6-6.2-37.9c3.8-6.3,12.3-8.3,20.8-8.5c4.6-6.8,4.7-28.4-6.4-40.1      c-10.5-11.1-12-35.3-24.4-47.4c-2.3-8.9-3.9-14.5-3.9-14.5s-93.3-6-94.3,7.5C30.3,682.1,15.2,719.8,43.7,756.9z"/>
									<g>
										<path class="st2" d="M112.2,761.8c-0.7-22.5,1.1-50.4-4.3-63.3c-5.4-12.9-19.1-2.3-19.1-2.3l0.7,69.9       C89.5,766.2,112.7,776.9,112.2,761.8z"/>
										<path class="st2" d="M85.3,764.2c-0.7-22.5,1-52.4-4.4-65.3c-5.4-12.9-16-1.3-16-1.3s5.9,37.4,0.8,68.5       C68,770.5,85.7,779.3,85.3,764.2z"/>
										<path class="st2" d="M62.4,763.9c0.4-15.3,3.7-35.9-0.9-44.1c-4.6-8.2-13.1-9.4-13.1-9.4s-4.5,38.8-3.1,48.3       C46.8,769,62.1,774.2,62.4,763.9z"/>
										<path class="st2" d="M126.5,690.3c8.9,3.4,8.5,9.6,14.4,19.3c-6,4.6-12.9,5.6-23.8,2.7l-0.4,19.5c9.1,2.9,17.5,3.7,24.7,2.9       c-7.2,13.2-3.5,20.2-3.6,33.8c-0.1,11.2,1.7,51.7,2.9,65c1,11,4.4,40.9,9,60.1c4.4-1.9,7.6-10.7,6.5-32       c-2.6-52-2.2-86.6-5-100.7c-3-14.6,7.3-30.1,7.3-30.1s2-2.2,4.7-6.2c5.9-7.2,7.7-22.2-3.3-36.6c-4.9-21.9-30.4-60-30.4-60       l-34.8,23.3c0,0-0.7,7.7,3.4,25.9C102.1,695.4,116.4,686.4,126.5,690.3z"/>
									</g>
								</g>
							</g>
						</g>
						<g id="top_2_" class="st12">
							<path class="st3" d="M619.4,351.4c12.6,79.3,26.3,185.4,2.7,224.6c-35.8,59.5-126.2,87.2-193.4,68.9c-8.9-2.4-27.9-22.2-32.9-38.1    c-57.1-43.1-78-138.4-39.7-184.7L619.4,351.4z"/>
							<path class="st0" d="M397.6,611c-39.5-88.7,21.7-176.2,30.2-188l73,52.5l42.7-81.7c4,3.9,95.3,54.3,87.3,158.2    c0,0.1,91.3-31,120.9-92.5c17.6-13.5,12.7-34.5,20-77.8c6.5-38.8-15.8-78.8,9.3-248.2C792.4,56.4,798,40,799.9,0H223.1    c-0.7,65.3,2.4,218,23.3,354.7c4.3,28.2-17.6,87.5-16.4,110.8C235.6,572.6,285.7,624.6,397.6,611z M654.2,0    c-3.1,35.6-19.8,172-22.5,186.2C626,156.2,617.6,23.8,616.9,0H654.2z"/>
						</g>
						<g id="Neck_2_" class="st12">
							<path class="st2" d="M448.5,724.4c10.3,40.3,159.3-36.9,159.3-36.9c-9.9-43.4-34.8-147.7-52.2-182.5    c-18.5-14.9-38.6-25.2-56.7-20.8c-35,16.5-76.5,80.2-83.5,106.1C414.9,614.8,437.3,680.6,448.5,724.4z"/>
							<path class="st1" d="M621.8,658.2c6.3-20.5-6.1-85.6-6.1-85.6s-27.3-41.2-60.1-67.7c17.3,34.9-9.9,97.9,0,141.3    C555.6,646.2,606.5,707.7,621.8,658.2z"/>
						</g>
						<g id="head_2_" class="st12">
							<g id="ears_2_">

									<ellipse transform="matrix(0.9859 -0.1674 0.1674 0.9859 -127.8604 83.9294)" class="st1" cx="434" cy="800.5" rx="17" ry="43.9"/>

									<ellipse transform="matrix(0.8528 -0.5222 0.5222 0.8528 -271.0374 466.2014)" class="st1" cx="691.5" cy="713.9" rx="17" ry="43.9"/>
							</g>
							<g>
								<path class="st1" d="M733.7,834c-0.9,0.2-1.8,0.5-2.8,0.9c1.6,3.8,3.1,7.4,4.5,10.7L733.7,834z"/>
								<path class="st2" d="M735.4,845.6c-1.5-3.3-3-6.9-4.5-10.7c-13.6-32.9-30.4-81.5-35.3-96.8c-6.5-20.2-84.5-160.2-147-169.3     c-18.9-2.7-53.8-12.5-80.4-4.6c-24,7.1-41.2,28.5-33.7,82.5c15.5,110.7-19.8,101.7-2.2,161.7c0.5,1.7,1,3.6,1.5,5.6     c2.5,10.1,5,23.9,7.4,38.7c6.8,43.2,12.2,95.7,12.2,95.7l48.1,36.7l111.1-3.4l80.9-16.8l45-97.1L735.4,845.6z"/>
								<path class="st1" d="M589.6,584.8c19.3,32.6,99.2,157.5,87.9,259.1s-30,137.6-30,137.6l106.7-30.7l-62.6-222.1     c0,0-39.4-75.4-70.9-111.9C610,604.4,589.6,584.8,589.6,584.8z"/>
							</g>
							<path class="st5" d="M684.6,722.5c0,0,76.1,72.9,75.5,146.8c12.5,1.9,18.7,65.9,40.5,109.4c-40.1-22.9-43.7,44.5-43.7,44.5    s36.7,61.5,17.4,91.1c-14.2-23.9-37.1-54.9-37.1-54.9s19.3,39.7,5.8,55.2c-2.3-13.8-38.9-51-38.9-51s11.2,36.5,1.5,51.3    c-8.7-3.6-32.3,0.4-32.3,0.4l-10,6.8l7.5,23.4l-71.2-11.6c0,0-17.4-1.1-9.9,25c-15.6-7.5-28.5-52.4-28.5-52.4s-20.5,32.4-22.7,49    c-10.7-27.5-53.6-91.9-37.7-117.9c-5.6,2.2-4,14-16.4,27.2c-11.4-24.7-12.9-27.7-11.4-10.3c-10.1-7.5-22.8-39.1-22.8-39.1    s-1.3-22.8-6.3-40.2c-5-17.4-3.1-48.7-3.1-48.7s-22.8-58.7-22.2-75.3c0.3-7.7,20.2-24.8,20.2-24.8s-1.3,24.6,13.4,56.7    c12,26.2,9,39.3,22.5,60c16.2,25,26.8,35.5,26.8,35.5s23.2-23.7,69.1-37c58.9-17,80.7,7,80.7,7s53-30.2,60.9-71.7    c3.2-16.5-1.3-51.6-9.5-80.4C693.5,765.2,684.6,722.5,684.6,722.5z"/>
							<g id="nose_2_">
								<path class="st1" d="M500.8,753.8c3.9-0.9,7.1-3.8,9.1-7.9c3.2,1,6.6,1.2,10,0.4c4.1-1,7.6-3.3,10.3-6.5c3.3,2.7,6.9,4,10.4,3.2     c8-1.9,12-14,9-27c-2.9-12.5-11.2-21.3-18.9-20.4c-10.2-4.9-29.1-11.8-32.7-11.4c-3.7,0.4-11.5,17.1-14.3,25.9     c-4.9,5-6.9,14.2-4.7,23.9C482.1,747,491.9,755.9,500.8,753.8z"/>
								<path class="st2" d="M503.8,760.8c2.5-0.6,4.7-2,6.5-4c5.2,2.5,11,3.4,16.9,2c5.3-1.2,9.9-4.1,13.3-8c1.7,0.5,3.4,0.7,5,0.3     c8-1.9,12-14,9-27c-3-13.1-12-22.1-20-20.3c-1.7,0.4-14.5,0-19.9,1.2c-5.9,1.4-19.4,7.9-21.9,8.5c-9,2.1-13.8,14.4-10.8,27.4     C485.1,754,494.8,762.9,503.8,760.8z"/>
							</g>
							<path id="Beard_2_" class="st4" d="M511.8,622.9l-6.7-43.3c-2.3-13.7,22.2-15,34.4-8.3c3.1,1.7,6.1,0.2,9.9,2.5    c-8.6-23.2-35.3-26.5-63.3-20.4s-48.4,20.1-51.8,51.1c27.5-34.9,34.6-33.4,47.4-20.5c6.8,6.9,9.9,23.4,14.7,42.8L511.8,622.9z"/>
							<g id="Mouth_2_">
								<path class="st6" d="M554.9,648.9c-34.9-5.6-57.6-4.5-86.6,23.1"/>

									<ellipse transform="matrix(0.9859 -0.1674 0.1674 0.9859 -100.7813 102.1323)" class="st7" cx="555.5" cy="648.9" rx="5.5" ry="5.8"/>

									<ellipse transform="matrix(0.9859 -0.1674 0.1674 0.9859 -106.1873 87.8804)" class="st7" cx="468.2" cy="673.9" rx="5.7" ry="6"/>
							</g>
							<g id="eyes_2_">
								<g id="eye_Left_2_">
									<g id="Left_Eyeball_2_">
										<path class="st8" d="M452.2,814.9c0,0,14.8,8.4,30.1,4.9c15.3-3.5,26.2-18.9,27.3-26.9C495.5,792.6,478.1,782.3,452.2,814.9z"/>
										<path class="st9" d="M449.1,811.1c21.7,20.8,54.9,11.3,62.9-21.3"/>
									</g>

										<ellipse id="_x2B_Left_Pupil_2_" transform="matrix(0.9862 -0.1656 0.1656 0.9862 -126.8008 90.9104)" class="st10" cx="481.9" cy="806.1" rx="13.2" ry="12.5"/>
								</g>
								<g id="eye_Right_2_">
									<g id="Right_Eyeball_2_">
										<path class="st8" d="M646.8,761c0,0-8.1,15-22.9,20.2c-14.8,5.2-32.3-2-37.5-8.2C598.4,765.2,607.5,747.2,646.8,761z"/>
										<path class="st9" d="M647.5,756.1c-7.2,29.2-40.4,38.8-64.6,15.6"/>
									</g>

										<ellipse id="_x2B_Right_Pupil_2_" transform="matrix(0.9226 -0.3858 0.3858 0.9226 -249.297 297.1768)" class="st10" cx="615.8" cy="769.8" rx="13.2" ry="12.5"/>
								</g>
							</g>
							<g id="Blink_2_" class="hidden">
								<g class="st12">
									<path class="st2" d="M575.6,775.2c-7.1,15.3,16.2,24.8,33.5,22.3c21.6-3.1,33.1-5,43.6-8c16.7-4.8,9.8-24.5,3.4-33.8      c-6.4-9.3-64.3-19.3-78.1,14.1c-0.6,1.4-1.2,2.7-1.8,4C576,774.3,575.8,774.7,575.6,775.2z"/>
									<path class="st2" d="M465.9,848.4c0,0,42.3-20,54.3-29.8c13.7-11.2,7.5-34.6-0.5-40.5c-16.2-12-68.6,11.7-83.9,29.7      C457.5,847,465.9,848.4,465.9,848.4z"/>
								</g>
								<path class="st13" d="M510.7,787c-17.6-3.5-38.1-0.5-59.4,18"/>
								<path class="st13" d="M586.7,769.1c14.4-10.6,34.3-16.7,61.4-8.9"/>
							</g>
							<g id="eyebrows_2_">
								<path id="eyebrow_Right_2_" class="st4" d="M592.8,792.6c0,0,30.8,1.7,43.3-3.2c12.6-4.9,20.5-13.8,20.5-13.8l12.4,8.9     c0,0-9,19.2-30.1,21.2s-49.5,1.4-56.9-3.3C583.5,794.1,592.8,792.6,592.8,792.6z"/>
								<path id="eyebrow_Left_2_" class="st4" d="M527.8,813.6c-8.2-2.7-13.9,0.5-33.1,13.5c-19.2,13-55.2,16.8-62.5,10.6     c-1.8,17.9,25,27.6,50.2,12.2s48.9-31.9,48.9-31.9S529.7,814.2,527.8,813.6z"/>
							</g>
							<path class="st4" d="M737.9,833.9c14.9,16.2,6.8,86.4-28.5,130.5c-0.3,6.3,36.9,40.2,31.5,37.3c-22.9-12.7-29.4-14.3-45.2-3.5    c-17,11.6,0.8,35.3-19.3,45.8c-4.1,2.2-58.9-15.7-58.9-15.7s10.7,6.8,6.2,9c-23.2,11.3-0.4,33.2-0.4,33.2l-66.6-41.8l37,71.3    c0,0-130.6-30.2-93-62.4c0,0-20-24.5,0.8-58.9c20.8-34.4,127.7-65.5,167.6-47.5C690.2,940.7,737.9,833.9,737.9,833.9z"/>
							<g id="sunglasses_2_" class="hidden">
								<path class="st14" d="M603.6,730.8l19.8-4c23.4-4.7,34.8,13.3,36.8,23.3l2.7,13.7c3.5,17.6-17.7,31.3-25.9,33l-69.7,13.9     c-8.2,1.6-16.5-5.2-18.5-15.2l-3.4-17.1C543.6,768.5,568.5,737.9,603.6,730.8z"/>
								<path class="st14" d="M452.3,772.9l-18.2,6.4c-21.5,7.5-22.1,27.9-18.9,37l4.4,12.6c5.7,16.2,29.8,17.1,37.3,14.4l63.9-22.5     c7.5-2.6,11-12.3,7.8-21.4l-5.5-15.7C519.9,774.6,484.5,761.5,452.3,772.9z"/>
								<polygon class="st14" points="719.4,750.7 657.3,750.1 649.9,788.5 729.2,761.6    "/>
								<path class="st14" d="M547.4,778c-2.6,13.8-18.3,18.1-24.3,7.7c-6.1-10.4-1.3,34.7-1.3,34.7s34.3-9.8,47.8-11.3     C583.1,807.6,547.4,778,547.4,778z"/>
								<path class="st15" d="M644,777.7c3.5-8.3,14.2-23.5-1.8-16.6S607,778.9,613,783.7C619.1,788.4,644,777.7,644,777.7z"/>
								<path class="st15" d="M509.8,813.9c3.5-8.3,14.2-23.5-1.8-16.6s-35.2,17.8-29.2,22.5C484.8,824.6,509.8,813.9,509.8,813.9z"/>
							</g>
						</g>
					</g>
				</svg>