<svg xmlns="http://www.w3.org/2000/svg" xmlns:xlink="http://www.w3.org/1999/xlink" version="1.1" id="wojtek-img-top" x="0px" y="0px" viewBox="0 0 926.6 1178.8" style="enable-background:new 0 0 926.6 1178.8;" xml:space="preserve" width="220px">
				<style type="text/css">
					.st0{fill:#525169;}
					.st1{fill:#F7B076;}
					.st2{fill:#FACEA3;}
					.st3{fill:#62627F;}
					.st4{fill:#B07F48;}
					.st5{fill:#916036;}
					.st6{fill:none;stroke:#DB8C4A;stroke-width:6.9219;stroke-linecap:round;stroke-miterlimit:10;}
					.st7{fill:#DB8C4A;}
					.st8{fill:#D8D8D8;}
					.st9{fill:none;stroke:#7F4E24;stroke-width:4.4217;stroke-linecap:round;stroke-miterlimit:10;}
					.st10{fill:#424254;}
					.st11{display:none;}
					.st12{display:inline;}
					.st13{display:inline;fill:none;stroke:#7F4E24;stroke-width:4.0881;stroke-linecap:round;stroke-miterlimit:10;}
					.st14{display:inline;fill:#525169;}
					.st15{display:inline;fill:#A5AAD8;}					
					#eyes {	animation-name: blinking;	animation-duration: 5s;	animation-iteration-count: infinite; animation-timing-function: ease-in-out; } @keyframes blinking {	0% {		opacity: 1;	}	49% {		opacity: 1;	}	50% {		opacity: 0;	}	53% {		opacity: 1;	}	80% {	opacity: 1;	}	81% {		opacity: 0;	}	82% {		opacity: 1;	}	100% {	opacity: 1;	} }	
				</style>
				<g id="arm_8_">
					<path id="arm_9_" class="st0" d="M826.1,804.5c0,0-125.9-256.6-223.3-238.8c-183.6,33.5,35.8-183.5,100.8-147   c83.8,47.1,174.4,225.7,207.7,321L826.1,804.5z"/>
					<g id="forearm_8_">
						<path id="forearm_9_" class="st0" d="M911.3,739.8c25.1,184,10.7,141.9,14.8,330.1c1.9,86.7-40,97.7-65.9,85.3    c-103.3-49.3-36.1-24.7-38.6-257C821.7,898.2,799.4,719.9,911.3,739.8z"/>
						<g>
							<path class="st1" d="M845.3,1157.5L810,1135c0,0-0.2,0.4-0.6,1c1-4.1,1.6-6.5,1.6-6.5s93.1-8,94.4,5.6c1.5,15.8,4,30.2,5.9,43.7     l-67.9,0C846,1163.8,845.3,1157.5,845.3,1157.5z"/>
							<path class="st2" d="M809.4,1136c0.4-0.7,0.6-1,0.6-1l35.3,22.5c0,0,0.7,6.3-1.9,21.3h-52.1h-4.8     C794.2,1160.7,806.4,1140.7,809.4,1136z"/>
						</g>
					</g>
				</g>
				<g id="arm_10_">
					<path id="arm_11_" class="st0" d="M103.6,808.5c0,0,125.9-256.6,223.3-238.8c183.6,33.5-35.8-183.5-100.8-147   c-83.8,47.1-174.4,225.7-207.7,321L103.6,808.5z"/>
					<g id="forearm_10_">
						<path id="forearm_11_" class="st0" d="M18.4,743.8c-25.1,184-10.7,141.9-14.8,330.1c-1.9,86.7,40,97.7,65.9,85.3    c103.3-49.3,36.1-24.7,38.6-257C108,902.2,130.3,723.9,18.4,743.8z"/>
						<g>
							<path class="st1" d="M58.8,1157.5L23.5,1135c0,0-0.2,0.4-0.6,1c1-4.1,1.6-6.5,1.6-6.5s93.1-8,94.4,5.6c1.5,15.8,4,30.2,5.9,43.7     l-67.9,0C59.5,1163.8,58.8,1157.5,58.8,1157.5z"/>
							<path class="st2" d="M22.9,1136c0.4-0.7,0.6-1,0.6-1l35.3,22.5c0,0,0.7,6.3-1.9,21.3H4.8H0C7.7,1160.7,19.9,1140.7,22.9,1136z"/>
						</g>
					</g>
				</g>
				<g id="top_3_">
					<path class="st3" d="M617.4,365.3c2.2,80.2,2.1,187.3-26.4,223c-43.2,54.3-136.4,70.1-200.7,43.3c-8.5-3.6-24.8-25.7-27.7-42   c-51-50.1-59.4-147.4-15.4-188.2L617.4,365.3z"/>
					<path class="st0" d="M650.9,307.8c-1.7-30.5-4.2-284-4.8-307.8H252.2c-0.7,65.3-8.2,182.1-5.1,320.4c0.6,28.5-28.8,84.5-30.6,107.8   c-8.3,106.9,34.6,165,147.4,165.9c-27.7-93,44.3-171.9,54.3-182.5l65.6,61.5l52.9-75.5c3.5,4.4,87.5,66.1,66.1,168.1   c0,0.1,94.6-18.9,131.9-76.1C753.8,478.5,651.2,320.8,650.9,307.8z"/>
				</g>
				<g id="Neck_3_">
					<path class="st2" d="M399.6,713.1c5,41.3,162.7-16,162.7-16c-4.2-44.3-15.4-150.9-28.1-187.7c-16.4-17.2-35-30-53.5-28   c-36.9,11.8-86.2,69.6-96.5,94.4C380.6,600.1,394.2,668.2,399.6,713.1z"/>
					<path class="st1" d="M580,670c8.9-19.5,5-85.7,5-85.7s-21.7-44.4-50.8-75c12.7,36.8-22.5,95.8-18.3,140.1   C516,649.4,558.5,717,580,670z"/>
				</g>
				<g id="head_3_">
					<g id="ears_3_">
							<ellipse transform="matrix(0.9993 -3.837129e-02 3.837129e-02 0.9993 -29.9093 14.9834)" class="st1" cx="375.4" cy="786.7" rx="17" ry="43.9"/>
							<ellipse transform="matrix(0.9132 -0.4074 0.4074 0.9132 -243.4362 325.2753)" class="st1" cx="642" cy="734.2" rx="17" ry="43.9"/>
					</g>
					<g>
						<path class="st1" d="M668.2,858.7c-0.9,0.1-1.9,0.3-2.9,0.6c1.1,4,2.1,7.7,3.1,11.2L668.2,858.7z"/>
						<path class="st2" d="M668.4,870.5c-1-3.5-2.1-7.2-3.1-11.2c-9.2-34.4-19.6-84.7-22.4-100.5c-3.8-20.8-63-169.8-123.8-186.9    c-18.4-5.2-51.8-19.3-79.1-15c-24.7,3.9-44.6,23-44.1,77.4c1,111.7-32.8,98.3-23.1,160.1c0.3,1.8,0.5,3.7,0.8,5.7    c1.2,10.4,1.9,24.3,2.3,39.3c1.2,43.7-0.3,96.5-0.3,96.5l43,42.6l110.7,11l82.4-6.2l57.2-90.5L668.4,870.5z"/>
						<path class="st1" d="M557.6,592.9c15,34.8,78,169.1,53.6,268.3s-47.6,132.5-47.6,132.5l109.8-16.6l-33.4-228.4    c0,0-29.3-79.8-55.8-120.1C575.3,615,557.6,592.9,557.6,592.9z"/>
					</g>
					<path class="st4" d="M634,741.8c0,0,66,82.1,55.8,155.4c12.1,3.5,10,67.8,26,113.7c-36.8-27.9-49.1,38.4-49.1,38.4   s28.4,65.8,5.5,92.6c-11-25.5-29.7-59.2-29.7-59.2s14,41.9-1.4,55.4c-0.5-14-32-55.6-32-55.6s6.3,37.6-5.1,51   c-8.2-4.7-32.1-3.8-32.1-3.8l-10.8,5.4l4.4,24.2l-69.1-20.7c0,0-17.1-3.3-13.1,23.5c-14.5-9.4-21.4-55.7-21.4-55.7   s-24.5,29.5-28.9,45.6c-7.1-28.7-41.2-98.1-22.2-121.8c-5.9,1.5-5.8,13.4-19.8,24.9c-8.1-26-9.2-29.1-9.9-11.7   c-9.1-8.7-17.5-41.7-17.5-41.7s1.6-22.8-1.1-40.7c-2.7-17.9,3.3-48.7,3.3-48.7s-15-61.1-12.2-77.5c1.3-7.6,23.2-22,23.2-22   s-4.5,24.3,6,58c8.6,27.6,3.8,40.1,14.5,62.4c12.8,26.9,22,38.7,22,38.7s26-20.5,73.3-27.7c60.6-9.2,79.1,17.4,79.1,17.4   s56.4-23.1,69.7-63.3c5.3-16,5.4-51.3,1-80.9C637.3,785.2,634,741.8,634,741.8z"/>
					<g id="nose_3_">
						<path class="st1" d="M447.7,749.1c4-0.4,7.5-2.9,10.1-6.6c3.1,1.4,6.4,2.1,9.8,1.7c4.2-0.4,8-2.3,11.1-5.1    c2.9,3.1,6.3,4.8,9.9,4.5c8.2-0.8,13.7-12.3,12.4-25.6c-1.3-12.7-8.3-22.5-16.1-22.7c-9.4-6.1-27.3-15.5-30.9-15.6    c-3.7-0.1-13.6,15.4-17.5,23.8c-5.5,4.3-8.7,13.2-7.7,23.1C430,739.9,438.6,750,447.7,749.1z"/>
						<path class="st2" d="M449.8,756.4c2.6-0.3,4.9-1.4,6.9-3.2c4.8,3.1,10.5,4.8,16.5,4.2c5.5-0.5,10.4-2.8,14.3-6.2    c1.6,0.7,3.2,1.1,4.9,0.9c8.2-0.8,13.7-12.3,12.4-25.6s-9-23.5-17.2-22.7c-1.7,0.2-14.4-1.9-19.9-1.4c-6,0.6-20.2,5.4-22.8,5.6    c-9.2,0.9-15.5,12.5-14.2,25.8S440.6,757.3,449.8,756.4z"/>
					</g>
					<path id="Beard_3_" class="st5" d="M475.5,620.6l-1.1-43.8c-0.5-13.9,23.9-12,35.2-3.8c2.8,2.1,6.1,0.9,9.5,3.8   c-5.6-24.1-31.6-30.8-60.1-28.4s-50.6,13.7-58,44c31.8-31.1,38.6-28.7,49.6-14.2c5.9,7.7,6.8,24.5,9,44.4L475.5,620.6z"/>
					<g id="Mouth_3_">
						<path class="st6" d="M514.9,652c-33.8-10.1-56.6-11.9-88.8,11.7"/>
							<ellipse transform="matrix(0.9993 -3.837142e-02 3.837142e-02 0.9993 -24.6438 20.2608)" class="st7" cx="515.5" cy="652.1" rx="5.5" ry="5.8"/>
							<ellipse transform="matrix(0.9993 -3.837142e-02 3.837142e-02 0.9993 -25.2257 16.8271)" class="st7" cx="425.8" cy="665.6" rx="5.7" ry="6"/>
					</g>
					<g id="eyes">
						<g id="eye_Left_3_">
							<g id="Left_Eyeball_3_">
								<path class="st8" d="M391.6,803.4c0,0,13.6,10.2,29.3,8.7c15.6-1.5,28.5-15.4,30.6-23.2C437.4,786.9,421.5,774.3,391.6,803.4z"/>
								<path class="st9" d="M389,799.1c18.8,23.5,52.9,18.3,65.1-12.9"/>
							</g>

								<ellipse id="_x2B_Left_Pupil_3_" transform="matrix(0.9993 -3.651834e-02 3.651834e-02 0.9993 -28.8771 15.952)" class="st10" cx="422.2" cy="798.5" rx="13.2" ry="12.5"/>
						</g>
						<g id="eye_Right_3_">
							<g id="Right_Eyeball_3_">
								<path class="st8" d="M591.6,775.1c0,0-10,13.8-25.3,17.1s-31.8-6.2-36.1-13C543,773,554.4,756.3,591.6,775.1z"/>
								<path class="st9" d="M592.8,770.3c-10.9,28-45.1,33.3-66,7.1"/>
							</g>

								<ellipse id="_x2B_Right_Pupil_3_" transform="matrix(0.9648 -0.2631 0.2631 0.9648 -185.4652 174.7624)" class="st10" cx="559.7" cy="779.8" rx="13.2" ry="12.5"/>
						</g>
					</g>
					<g id="Blink_3_" class="st11">
						<g class="st12">
							<path class="st2" d="M513.9,777.5c-9.3,14,12.3,26.9,29.8,27.1c21.8,0.2,33.5,0,44.3-1.4c17.2-2.3,13.4-22.8,8.4-32.9     c-4.9-10.1-60.6-28.7-79.4,2.3c-0.8,1.3-1.6,2.5-2.4,3.7C514.5,776.6,514.2,777,513.9,777.5z"/>
							<path class="st2" d="M394.5,833.4c0,0,44.8-13.4,58.1-21.3c15.2-9,12.6-33.1,5.6-40.1c-14.2-14.3-69.6,1.3-87.4,16.8     C386.5,830.8,394.5,833.4,394.5,833.4z"/>
						</g>
						<path class="st13" d="M448,779.4c-16.8-6.1-37.6-6.2-61.4,8.9"/>
						<path class="st13" d="M525.9,773.1c15.8-8.4,36.4-11.3,62,0.4"/>
					</g>
					<g id="eyebrows_3_">
						<path id="eyebrow_Right_3_" class="st5" d="M533.9,799.4c0,0,30.3,5.6,43.4,2.4c13.1-3.2,22.1-11.1,22.1-11.1l11.1,10.4    c0,0-11.4,17.8-32.6,17.1c-21.2-0.7-49.3-5-56-10.6C524.5,799.7,533.9,799.4,533.9,799.4z"/>
						<path id="eyebrow_Left_3_" class="st5" d="M466.7,811.8c-7.8-3.8-13.9-1.3-34.6,9.1c-20.7,10.4-56.9,9.5-63.3,2.4    c-4.1,17.5,21.2,30.6,48.2,18.6c27-12.1,52.6-25.3,52.6-25.3S468.6,812.7,466.7,811.8z"/>
					</g>
					<path class="st5" d="M672.4,859.1c12.6,18-4.4,86.5-45.2,125.7c-1.1,6.2,31.3,44.7,26.4,41c-21.1-15.5-27.3-18-44.3-9.3   c-18.4,9.3-3.8,35.1-25,42.9c-4.4,1.6-56.4-23.2-56.4-23.2s9.7,8.1,4.9,9.7c-24.5,8.2-4.7,32.9-4.7,32.9l-60.7-50.1l27.5,75.5   c0,0-125.6-46.8-84.2-73.9c0,0-16.7-26.9,8.4-58.3c25.1-31.4,135.2-48.4,172.4-25.4C611.3,958.9,672.4,859.1,672.4,859.1z"/>
					<g id="sunglasses_3_" class="st11">
						<path class="st14" d="M548.7,742.7l20.1-2c23.8-2.4,33.4,16.6,34.4,26.7l1.4,13.9c1.8,17.9-20.7,29.5-29,30.3l-70.7,7.1    c-8.3,0.8-15.9-6.8-16.9-16.9l-1.8-17.3C485.3,774.4,513.1,746.3,548.7,742.7z"/>
						<path class="st14" d="M394,770l-18.7,4.6c-22.1,5.4-24.7,25.6-22.4,35l3.2,12.9c4.1,16.6,28,19.9,35.7,18l65.8-16.2    c7.7-1.9,12.1-11.2,9.8-20.6l-4-16.1C461.1,778.2,427.2,761.8,394,770z"/>
						<polygon class="st14" points="662,773.7 600.3,767.1 589.2,804.5 670.7,785.4   "/>
						<path class="st14" d="M488.2,784.3c-4,13.5-19.9,16.3-25,5.3s-4.6,34.4-4.6,34.4s35.1-6.4,48.7-6.6    C520.9,817.1,488.2,784.3,488.2,784.3z"/>
						<path class="st15" d="M584.4,793.3c4.3-8,16.4-22.1-0.2-16.7c-16.6,5.3-36.8,14.3-31.2,19.6C558.5,801.5,584.4,793.3,584.4,793.3z    "/>
						<path class="st15" d="M447.3,816.3c4.3-8,16.4-22.1-0.2-16.7c-16.6,5.3-36.8,14.3-31.2,19.6C421.4,824.6,447.3,816.3,447.3,816.3z    "/>
					</g>
				</g>
				</svg>