<svg xmlns="http://www.w3.org/2000/svg" xmlns:xlink="http://www.w3.org/1999/xlink" id="wojtek-img-bottom" width="256" height="258" viewBox="0 0 286 258" version="1.1">		
	<style>
	#eyes {	animation-name: blinking;	animation-duration: 5s;	animation-iteration-count: infinite; animation-timing-function: ease-in-out; } @keyframes blinking {	0% {		opacity: 1;	}	49% {		opacity: 1;	}	50% {		opacity: 0;	}	53% {		opacity: 1;	}	80% {	opacity: 1;	}	81% {		opacity: 0;	}	82% {		opacity: 1;	}	100% {	opacity: 1;	} }
	</style>
		<g id="Canvas" transform="translate(699 922)">
		<clipPath id="clip-0" clip-rule="evenodd">
		<path d="M -699 -922L -413 -922L -413 -549L -699 -549L -699 -922Z" fill="#FFFFFF"/>
		</clipPath>
		<g id="wojtek" clip-path="url(#clip-0)">
		<g id="tooltip-02 (1)">
		<g id="Wojtek2">
		<g id="arm-whole">
		<g id="arm 3">
		<g id="Vector">
		<use xlink:href="#path0_fill" transform="translate(-561.336 -750.345)" fill="#525169"/>
		</g>
		</g>
		<g id="forearm 2">
		<g id="forearm 3">
		<g id="Vector">
		<use xlink:href="#path1_fill" transform="translate(-495.412 -748.956)" fill="#525169"/>
		</g>
		</g>
		<g id="hand 1">
		<g id="Group">
		<g id="Vector">
		<use xlink:href="#path2_fill" transform="translate(-482.785 -822.089)" fill="#F7B076"/>
		</g>
		</g>
		<g id="Group">
		<g id="Group">
		<g id="Vector">
		<use xlink:href="#path3_fill" transform="translate(-466.695 -783.672)" fill="#FACEA3"/>
		</g>
		</g>
		<g id="Group">
		<g id="Vector">
		<use xlink:href="#path4_fill" transform="translate(-458.938 -782.618)" fill="#FACEA3"/>
		</g>
		</g>
		<g id="Group">
		<g id="Vector">
		<use xlink:href="#path5_fill" transform="translate(-451.896 -780.122)" fill="#FACEA3"/>
		</g>
		</g>
		<g id="Group">
		<g id="Vector">
		<use xlink:href="#path6_fill" transform="translate(-483.249 -822.069)" fill="#FACEA3"/>
		</g>
		</g>
		</g>
		</g>
		</g>
		</g>
		<g id="top 1">
		<g id="Group">
		<g id="Vector">
		<use xlink:href="#path7_fill" transform="translate(-638.394 -777.866)" fill="#62627F"/>
		</g>
		</g>
		<g id="Group">
		<g id="Vector">
		<use xlink:href="#path8_fill" transform="translate(-699 -759.467)" fill="#525169"/>
		</g>
		</g>
		</g>
		<g id="Neck 1">
		<g id="Group">
		<g id="Vector">
		<use xlink:href="#path9_fill" transform="translate(-613.324 -802.569)" fill="#F7B076"/>
		</g>
		</g>
		<g id="Group">
		<g id="Vector">
		<use xlink:href="#path10_fill" transform="translate(-620.929 -794.458)" fill="#FACEA3"/>
		</g>
		</g>
		</g>
		<g id="head 1">
		<g id="back hair 1">
		<g id="Vector">
		<use xlink:href="#path11_fill" transform="translate(-632.035 -812.929)" fill="#916036"/>
		</g>
		</g>
		<g id="head base 1">
		<g id="Vector">
		<use xlink:href="#path12_fill" transform="translate(-636.709 -885.937)" fill="#FACEA3"/>
		</g>
		<g id="Group">
		<g id="Vector">
		<use xlink:href="#path13_fill" transform="translate(-636.147 -882.439)" fill="#F7B076"/>
		</g>
		</g>
		<g id="Group">
		<g id="Group">
		<g id="Vector">
		<use xlink:href="#path14_fill" transform="translate(-619.562 -828.732)" fill="#F7B076"/>
		</g>
		</g>
		<g id="Group">
		<g id="Vector">
		<use xlink:href="#path15_fill" transform="translate(-579.032 -833.597)" fill="#F7B076"/>
		</g>
		</g>
		</g>
		</g>
		<g id="ears 1">
		<g id="Group">
		<g id="Vector">
		<use xlink:href="#path16_fill" transform="matrix(0.0801957 -0.996763 0.996837 0.079267 -560.905 -804.086)" fill="#F7B076"/>
		</g>
		</g>
		<g id="Group">
		<g id="Vector">
		<use xlink:href="#path17_fill" transform="matrix(0.955391 -0.295317 0.29849 0.954404 -643.617 -821.296)" fill="#F7B076"/>
		</g>
		</g>
		</g>
		<g id="x2B Hair 1">
		<g id="Vector">
		<use xlink:href="#path18_fill" transform="translate(-655.307 -921)" fill="#B07F48"/>
		</g>
		<g id="Group">
		<g id="Vector">
		<use xlink:href="#path19_fill" transform="translate(-638.052 -904.335)" fill="#916036"/>
		</g>
		</g>
		<g id="Group">
		<g id="Vector">
		<use xlink:href="#path20_fill" transform="translate(-556.632 -849.438)" fill="#916036"/>
		</g>
		</g>
		</g>
		<g id="nose 1">
		<g id="Group">
		<g id="Vector">
		<use xlink:href="#path21_fill" transform="translate(-591.951 -807.611)" fill="#F7B076"/>
		</g>
		</g>
		<g id="Group">
		<g id="Vector">
		<use xlink:href="#path22_fill" transform="translate(-592.81 -810.932)" fill="#FACEA3"/>
		</g>
		</g>
		</g>
		<g id="Beard 1">
		<g id="Vector">
		<use xlink:href="#path23_fill" transform="translate(-602.208 -771.077)" fill="#916036"/>
		</g>
		</g>
		<g id="Mouth 1">
		<g id="Group">
		<g id="Vector">
		<use xlink:href="#path24_fill" transform="translate(-599.373 -782.956)" fill="#DB8C4A"/>
		</g>
		</g>
		<g id="Group">
		<g id="Vector">
		<use xlink:href="#path25_fill" transform="matrix(0.0801955 -0.996763 0.996837 0.0792669 -600.245 -780.105)" fill="#DB8C4A"/>
		</g>
		</g>
		<g id="Group">
		<g id="Vector">
		<use xlink:href="#path26_fill" transform="matrix(0.0801955 -0.996763 0.996837 0.0792669 -573.504 -780.864)" fill="#DB8C4A"/>
		</g>
		</g>
		</g>
		<g id="eyes">
		<g id="eye Left 1">
		<g id="Left Eyeball 1">
		<g id="Group">
		<g id="Vector">
		<use xlink:href="#path27_fill" transform="translate(-574.921 -825.071)" fill="#D8D8D8"/>
		</g>
		</g>
		<g id="Group">
		<g id="Vector">
		<use xlink:href="#path28_fill" transform="translate(-576.452 -826.192)" fill="#7F4E24"/>
		</g>
		</g>
		</g>
		<g id="x2B Left Pupil 1">
		<g id="Vector">
		<use xlink:href="#path29_fill" transform="matrix(0.0820545 -0.996661 0.996739 0.0811046 -570.187 -817.793)" fill="#424254"/>
		</g>
		</g>
		</g>
		<g id="eye Right 1">
		<g id="Right Eyeball 1">
		<g id="Group">
		<g id="Vector">
		<use xlink:href="#path30_fill" transform="translate(-616.547 -824.339)" fill="#D8D8D8"/>
		</g>
		</g>
		<g id="Group">
		<g id="Vector">
		<use xlink:href="#path31_fill" transform="translate(-617.753 -825.427)" fill="#7F4E24"/>
		</g>
		</g>
		</g>
		<g id="x2B Right Pupil 1">
		<g id="Vector">
		<use xlink:href="#path32_fill" transform="matrix(0.989225 -0.146657 0.148348 0.988973 -611.435 -823.503)" fill="#424254"/>
		</g>
		</g>
		</g>
		</g>
		<g id="eyebrows 1">
		<g id="eyebrow Right 1">
		<g id="Vector">
		<use xlink:href="#path33_fill" transform="translate(-621.188 -832.449)" fill="#916036"/>
		</g>
		</g>
		<g id="eyebrow Left 1">
		<g id="Vector">
		<use xlink:href="#path34_fill" transform="translate(-579.296 -834.354)" fill="#916036"/>
		</g>
		</g>
		</g>
		</g>
		</g>
		</g>
		</g>
		</g>
		<defs>
		<path id="path0_fill" d="M 70.9083 72.7615C 70.9083 72.7615 53.0222 42.3418 49.3267 30.1739C 33.3623 -22.3184 -1.40472 5.13278 0.0439092 26.9997C 1.90643 55.1856 36.3778 131.808 86.1632 124.049L 70.9083 72.7615Z"/>
		<path id="path1_fill" d="M 20.2389 122.66C 39.7214 71.637 32.7739 82.7468 46.4915 29.1083C 52.8182 4.41982 41.4657 -1.51717 33.1878 0.305076C 0.165103 7.59404 21.1554 4.97823 4.95443 71.3431C 4.984 71.3725 -13.316 120.926 20.2389 122.66Z"/>
		<path id="path2_fill" d="M 38.8021 46.5746C 38.3291 45.4871 37.6196 42.9889 36.1414 42.7244C 34.4858 42.4305 32.6824 43.0771 30.3469 42.4893C 27.9522 41.9014 26.5627 40.2849 23.7542 39.6677C 22.3647 39.3738 19.7631 40.6082 18.1075 40.4025C 19.6153 29.2633 22.4238 8.21934 22.276 5.98563C 22.0986 3.51678 20.3839 -0.304041 18.344 0.0192597C 18.2849 5.83868 15.1807 13.98 14.6781 17.1836C 14.0573 21.0632 12.6382 33.4074 9.77052 35.0239C 6.90283 36.6404 12.2834 42.8125 8.79492 46.2513C 7.2576 47.7796 4.65599 47.7208 2.23176 47.1918C 0.428367 48.8083 -1.16807 54.9216 1.16747 59.0952C 3.35519 63.0042 2.05438 70.0286 4.71512 74.3491C 4.74468 77.0531 4.77425 78.7577 4.77425 78.7577C 4.77425 78.7577 31.0564 87.2223 32.3277 83.4309C 37.2057 68.853 44.2714 59.2127 38.8021 46.5746Z"/>
		<path id="path3_fill" d="M 3.4366 1.83895C 2.01754 8.30497 -0.524939 16.123 0.0959002 20.1789C 0.716739 24.2349 5.41738 22.2069 5.41738 22.2069L 10.2954 2.22105C 10.2658 2.22105 4.38264 -2.51092 3.4366 1.83895Z"/>
		<path id="path4_fill" d="M 3.57289 2.01918C 2.15383 8.4852 -0.506906 16.8616 0.0843697 20.947C 0.705209 25.0029 4.57807 22.4753 4.57807 22.4753C 4.57807 22.4753 5.61279 11.3949 9.33782 2.90091C 8.98306 1.49014 4.51893 -2.33069 3.57289 2.01918Z"/>
		<path id="path5_fill" d="M 3.06426 1.25741C 1.82258 5.57789 -0.601652 11.221 0.137443 13.8955C 0.876537 16.5407 3.21208 17.54 3.21208 17.54C 3.21208 17.54 7.32143 6.8123 7.61707 4.02015C 7.88315 0.934097 3.89205 -1.62291 3.06426 1.25741Z"/>
		<path id="path6_fill" d="M 10.7077 59.5756C 8.40174 57.9591 8.96344 56.225 7.98784 53.0508C 10.0277 52.169 12.0972 52.3748 14.9945 53.9913L 16.5318 48.4657C 14.1371 46.9668 11.8016 46.1439 9.67298 45.85C 12.718 42.6169 12.1268 40.3538 13.1615 36.5036C 14.0188 33.3294 16.4431 21.6612 17.0639 17.7816C 17.5665 14.5779 18.7786 5.81942 18.8377 3.58777e-06C 17.4187 0.235132 15.8814 2.49823 14.6397 8.64095C 11.6242 23.6304 8.96345 33.4763 8.78607 37.7086C 8.57912 42.0879 4.49932 45.7618 4.49932 45.7618C 4.49932 45.7618 3.78978 46.232 2.69592 47.1726C 0.478636 48.7891 -1.1178 52.9332 0.981224 57.8415C 0.803841 64.4251 5.3271 77.122 5.3271 77.122L 17.0048 73.0072C 17.0048 73.0072 17.7734 70.8617 17.9213 65.3656C 18.0691 59.8695 13.3093 61.3978 10.7077 59.5756Z"/>
		<path id="path7_fill" d="M -9.02214e-07 76.3875C 2.15815 52.9041 5.91276 21.6615 15.521 12.1976C 30.0959 -2.17465 58.0041 -3.55602 75.9197 6.52509C 78.2848 7.84769 82.3055 14.8721 82.6011 19.751C 95.8457 36.1512 94.8997 64.8074 80.5613 75.2119L -9.02214e-07 76.3875Z"/>
		<path id="path8_fill" d="M 143 0.0002834C 147.908 28.1275 123.99 48.6424 120.709 51.3757L 103.591 31.1547L 85.4097 51.3464C 84.5524 49.9356 62.0543 29.0092 71.8695 0.0002834C 71.8695 -0.0291076 43.4587 2.234 30.5098 17.6349C 24.4788 20.2213 24.3901 26.5404 19.1278 38.3555C 14.4271 48.9363 8.78044 70.2742 3.81372 121.268C 1.59644 144.016 0.561712 159.123 2.25554e-07 170.909L 163.281 171.467C 163.488 152.275 163.813 124.354 167.715 83.9116C 168.513 75.5645 179.127 60.2518 180.457 53.5213C 186.636 22.6313 176.052 4.1738 143 0.0002834ZM 42.5423 170.791C 43.4587 160.328 44.3752 150.805 45.6465 146.75C 46.2969 155.714 46.6812 163.62 46.8586 170.615L 42.5423 170.791Z"/>
		<path id="path9_fill" d="M 48.2185 4.62951C 47.0359 -7.53836 0 8.12705 0 8.12705C 0.916477 21.1766 3.42939 52.5956 6.88835 63.4997C 11.589 68.6725 17.0287 72.5815 22.498 72.1113C 33.4957 68.9076 48.5141 52.3017 51.7366 45.1009C 53.0078 37.9589 49.4897 17.8555 48.2185 4.62951Z"/>
		<path id="path10_fill" d="M 2.19471 7.8336C -0.58428 13.5061 0.0661195 32.9629 0.0661195 32.9629C 0.0661195 32.9629 6.15625 46.1889 14.5228 55.3588C 11.0638 44.4548 14.6115 15.5928 13.695 2.51383C 13.6655 2.54322 8.90569 -5.83322 2.19471 7.8336Z"/>
		<path id="path11_fill" d="M 5.02222 0.734771L 1.71108 -3.58777e-06C -1.27486 5.76063 -0.0923073 22.9544 3.2484 26.8046C 4.34226 25.9229 7.8899 18.2224 10.8463 20.9264L 5.02222 0.734771Z"/>
		<path id="path12_fill" d="M -1.80443e-06 30.6548C 2.0399 38.3259 4.16849 62.5147 4.55282 68.7162C 4.93715 74.9177 17.147 120.474 34.3827 127.557C 44.3161 131.642 69.0314 147.131 72.7269 113.596C 76.3041 80.9428 85.7645 86.0568 85.0845 67.6581C 84.6706 56.8128 89.1939 26.2462 89.1939 26.2462L 77.0136 11.051L 25.0109 -1.79388e-06L -1.80443e-06 30.6548Z"/>
		<path id="path13_fill" d="M 9.02214e-07 35.181C 8.83957 35.1516 35.8608 13.755 35.8608 13.755C 35.8608 13.755 54.8999 5.93698 62.9708 12.9908C 70.0365 19.1629 65.0107 39.9424 71.2191 42.3818C 77.4275 44.8213 57.7676 54.0206 61.7587 59.2229C 70.1548 70.2445 72.0173 73.4187 70.2139 80.2374C 68.4105 87.0561 67.3167 99.1946 64.449 108.482C 62.2022 115.742 55.5799 133.67 55.5799 133.67C 55.5799 133.67 62.7639 144.251 73.1112 118.74C 90.9381 74.8295 92.0616 12.0503 92.0616 12.0503L 45.3804 1.79285L 3.63634 -3.58777e-06L 9.02214e-07 35.181Z"/>
		<path id="path14_fill" d="M 25.5136 9.13151C 28.5587 5.22251 22.439 0.990215 17.2949 0.578741C 10.85 0.0790944 7.42056 -0.126646 4.19811 0.0790908C -0.916416 0.402392 -0.413831 5.54583 0.827847 8.63188C 2.06953 11.7179 18.3296 19.2126 24.4789 10.5129C 24.7449 10.1602 24.9814 9.80751 25.2475 9.48421C 25.3066 9.36665 25.3953 9.24908 25.5136 9.13151Z"/>
		<path id="path15_fill" d="M 21.3468 0.0352803C 21.3468 0.0352803 7.86574 3.06257 3.78594 5.11994C -0.885135 7.47122 -0.619059 14.5544 1.30259 16.7588C 5.205 21.2556 21.8494 17.7875 27.437 13.6433C 34.414 -1.37547 21.3468 0.0352803 21.3468 0.0352803Z"/>
		<path id="path16_fill" d="M 12.9031 10.0513C 20.0293 10.0513 25.8063 7.80125 25.8063 5.02565C 25.8063 2.25006 20.0293 0 12.9031 0C 5.77692 0 0 2.25006 0 5.02565C 0 7.80125 5.77692 10.0513 12.9031 10.0513Z"/>
		<path id="path17_fill" d="M 5.02325 25.8187C 7.79752 25.8187 10.0465 20.039 10.0465 12.9094C 10.0465 5.77972 7.79752 -3.58963e-06 5.02325 -3.58963e-06C 2.24899 -3.58963e-06 0 5.77972 0 12.9094C 0 20.039 2.24899 25.8187 5.02325 25.8187Z"/>
		<path id="path18_fill" d="M 25.1606 109.041C 25.1606 109.041 5.64851 83.2647 11.1769 62.2207C 7.74753 60.7806 3.63817 60.6042 1.74609 65.7477C -2.36328 58.0766 0.859177 49.3181 10.5857 35.0635C 20.3121 20.8088 26.284 18.1342 26.284 18.1342C 26.284 18.1342 20.2826 8.43522 27.9396 1.38138C 30.2751 9.22878 35.6262 18.3106 35.6262 18.3106C 35.6262 18.3106 31.9307 7.02445 36.9565 3.5857C 36.6313 7.67105 44.2292 18.1342 44.2292 18.1342C 44.2292 18.1342 43.8745 9.72842 47.7177 6.2015C 49.9646 7.8474 57.0008 8.40582 57.0008 8.40582L 60.3415 7.2008L 59.898 1.79388e-06L 79.4692 8.43522C 79.4692 8.43522 84.3768 9.99294 84.1403 2.02798C 88.0723 5.29038 88.9001 12.6969 88.9001 12.6969C 88.9001 12.6969 96.7049 11.2568 98.5674 6.70115C 99.6613 15.3127 107.2 26.2755 100.785 32.5358C 110.659 31.272 110.422 34.0348 114.946 36.7681C 107.289 36.1509 103.061 37.4441 103.652 44.5568C 111.191 45.1446 113.201 47.2313 118.198 54.9906C 108.471 54.5203 110.836 54.5203 110.836 54.5203C 110.836 54.5203 116.927 63.4258 117.104 68.7455C 117.281 74.0653 112.581 76.0051 112.581 76.0051C 112.581 76.0051 112.492 90.5243 111.102 95.2268C 110.452 97.4018 103.209 97.2548 103.209 97.2548C 103.209 97.2548 105.367 90.3185 103.475 80.1199C 101.938 71.7728 103.741 68.2753 101.406 61.3978C 98.5674 53.1095 96.291 49.3475 96.291 49.3475C 96.291 49.3475 87.9245 54.4321 73.8225 54.9024C 55.7295 55.4902 51.2063 47.0844 51.2063 47.0844C 51.2063 47.0844 33.8228 51.8751 28.5604 63.1319C 26.4614 67.5993 25.1902 77.9155 25.4562 86.7034C 25.6927 96.2555 25.1606 109.041 25.1606 109.041Z"/>
		<path id="path19_fill" d="M 0.692527 56.8128C -2.3821 51.1109 5.00884 31.7129 18.3421 21.6906C 18.8742 19.9271 7.93565 26.6282 8.793 25.0411C 11.3059 20.2504 15.1788 16.4002 20.5003 14.4898C 26.2061 12.403 33.1535 10.5514 39.6576 9.02304C 40.9879 8.69974 49.2954 10.1399 49.2954 10.1399C 49.2954 10.1399 46.7233 7.43592 48.1719 7.11262C 55.6516 5.5549 56.4498 4.64378 56.4498 4.64378L 66.7675 14.4016L 59.4062 -3.58777e-06C 59.4062 -3.58777e-06 96.5974 9.43451 83.4711 15.8711C 83.4711 15.8711 87.4326 24.3064 78.9774 32.5946C 70.5221 40.8829 39.1254 39.2958 31.0249 35.3868C 24.8757 32.4183 0.692527 56.8128 0.692527 56.8128Z"/>
		<path id="path20_fill" d="M 11.2451 17.8451C 10.7425 23.9878 8.31828 28.808 5.83493 28.6022C 3.35157 28.3965 -0.432586 8.32244 0.0404345 2.17972C 0.513455 -3.963 6.33751 4.64856 7.60875 6.38263C 9.41214 8.82208 11.7477 11.7318 11.2451 17.8451Z"/>
		<path id="path21_fill" d="M 16.7346 0.00101227C 15.5225 -0.0283787 14.4286 0.588821 13.5417 1.58812C 12.6843 1.05908 11.7383 0.765178 10.7331 0.735787C 9.49146 0.706396 8.3089 1.11787 7.30373 1.85264C 6.56464 0.853348 5.6186 0.206735 4.55431 0.206735C 2.13008 0.147953 0.0901715 3.32218 0.00148024 7.26057C -0.0576473 11.0226 1.65706 14.1381 3.93347 14.4614C 6.47595 16.5775 11.4131 19.9281 12.4774 20.0751C 13.5713 20.222 17.0007 16.0485 18.4493 13.7266C 20.1935 12.6391 21.4648 10.1703 21.5239 7.26057C 21.6126 3.29279 19.4544 0.0597943 16.7346 0.00101227Z"/>
		<path id="path22_fill" d="M 17.2386 1.11816C 16.47 1.11816 15.7604 1.35329 15.0805 1.79415C 13.7797 0.706686 12.1537 0.0306827 10.3798 0.00129174C 8.75383 -0.0280993 7.24608 0.442157 5.97483 1.32389C 5.53138 1.05937 5.05835 0.883022 4.55577 0.883022C 2.13154 0.82424 0.0916405 3.99847 0.00294922 7.93686C -0.0857421 11.8753 1.8359 15.1083 4.26013 15.1671C 4.76271 15.1671 8.42862 16.2251 10.0546 16.2545C 11.858 16.2839 16.1743 15.4022 16.943 15.4022C 19.6629 15.461 21.9393 12.2867 22.028 8.34834C 22.1166 4.40995 19.9585 1.17695 17.2386 1.11816Z"/>
		<path id="path23_fill" d="M 14.3384 3.58777e-06L 13.1263 12.8439C 12.8011 16.9292 5.67624 15.5184 2.66074 12.7263C 1.89208 12.0209 0.916478 12.2266 1.80443e-06 11.2861C 0.798223 18.5163 8.18916 21.3967 16.6444 21.6612C 25.0996 21.9257 31.988 19.4274 35.2104 10.8453C 24.804 18.8102 22.8823 17.8697 20.1625 13.2847C 18.7139 10.8159 19.0095 5.90759 19.0686 0.0293874L 14.3384 0.0293874L 14.3384 3.58777e-06Z"/>
		<path id="path24_fill" d="M 14.6666 5.88397C 10.2025 5.88397 5.82704 4.50259 0.623822 2.26888C 0.0916747 2.03375 -0.144832 1.44593 0.0916783 0.916897C 0.328188 0.387859 0.919466 0.152717 1.45161 0.387845C 11.0598 4.53198 17.3274 5.53128 27.0243 0.123336C 27.5269 -0.141183 28.1477 0.0351597 28.4138 0.505416C 28.6798 1.00506 28.5025 1.62228 28.0294 1.8868C 23.0332 4.70833 18.8055 5.88397 14.6666 5.88397Z"/>
		<path id="path25_fill" d="M 1.70475 3.2519C 2.64625 3.2519 3.40948 2.52394 3.40948 1.62595C 3.40948 0.727965 2.64625 3.60872e-06 1.70475 3.60872e-06C 0.763242 3.60872e-06 0 0.727965 0 1.62595C 0 2.52394 0.763242 3.2519 1.70475 3.2519Z"/>
		<path id="path26_fill" d="M 1.76352 3.37014C 2.73749 3.37014 3.52705 2.61572 3.52705 1.68508C 3.52705 0.75444 2.73749 3.60872e-06 1.76352 3.60872e-06C 0.789556 3.60872e-06 0 0.75444 0 1.68508C 0 2.61572 0.789556 3.37014 1.76352 3.37014Z"/>
		<path id="path27_fill" d="M 18.0635 3.5591C 18.0635 3.5591 14.4271 0.120362 9.78561 0.00279752C 5.14409 -0.114766 0.886911 3.50033 -1.80443e-06 5.70466C 4.05023 6.79213 8.27785 10.995 18.0635 3.5591Z"/>
		<path id="path28_fill" d="M 0.644104 8.17788C 0.525849 8.17788 0.437158 8.14849 0.348467 8.08971C 0.0232654 7.91336 -0.0949878 7.53128 0.0823947 7.20798C 2.41793 2.85811 6.40904 0.15414 10.7253 0.00718481C 14.746 -0.13977 18.5006 1.97639 20.8066 5.65026C 20.984 5.94417 20.8953 6.35564 20.5997 6.53199C 20.304 6.70834 19.8901 6.62016 19.7127 6.32625C 17.6433 3.00507 14.3913 1.18281 10.7845 1.30038C 6.88206 1.41794 3.4231 3.79862 1.26495 7.7958C 1.11713 8.06032 0.880615 8.17788 0.644104 8.17788Z"/>
		<path id="path29_fill" d="M 3.67402 7.80452C 5.70312 7.80452 7.34804 6.05743 7.34804 3.90227C 7.34804 1.74711 5.70312 3.60872e-06 3.67402 3.60872e-06C 1.64491 3.60872e-06 0 1.74711 0 3.90227C 0 6.05743 1.64491 7.80452 3.67402 7.80452Z"/>
		<path id="path30_fill" d="M 1.80443e-06 4.14962C 1.80443e-06 4.14962 3.39983 0.475747 8.04134 0.0348824C 12.6533 -0.376592 17.147 2.94459 18.1817 5.09014C 14.1906 6.44212 10.2586 10.9096 1.80443e-06 4.14962Z"/>
		<path id="path31_fill" d="M 20.304 7.4716C 20.0971 7.4716 19.8605 7.35403 19.7423 7.17769C 17.3181 3.32747 13.7113 1.18193 9.80888 1.29949C 6.2021 1.41705 3.0979 3.47442 1.23539 6.91316C 1.058 7.23646 0.673674 7.35403 0.348472 7.17769C 0.0232708 7.00134 -0.0949915 6.61926 0.0823911 6.29596C 2.12229 2.50452 5.72907 0.153233 9.74975 0.00627838C 14.0661 -0.140677 18.205 2.29878 20.8362 6.4723C 21.0135 6.76621 20.9248 7.17768 20.6292 7.35403C 20.5405 7.4422 20.4223 7.4716 20.304 7.4716Z"/>
		<path id="path32_fill" d="M 3.90192 7.3487C 6.05689 7.3487 7.80384 5.70363 7.80384 3.67435C 7.80384 1.64506 6.05689 3.58823e-06 3.90192 3.58823e-06C 1.74695 3.58823e-06 0 1.64506 0 3.67435C 0 5.70363 1.74695 7.3487 3.90192 7.3487Z"/>
		<path id="path33_fill" d="M 22.4093 7.17552C 22.4093 7.17552 13.7176 4.47155 9.75604 4.9712C 5.7945 5.47084 2.89725 7.44005 2.89725 7.44005L -1.80443e-06 4.0013C -1.80443e-06 4.0013 3.96154 -0.81883 10.1699 0.121682C 16.3783 1.06219 24.4788 3.29592 26.2231 5.14755C 25.1883 7.38127 22.4093 7.17552 22.4093 7.17552Z"/>
		<path id="path34_fill" d="M 0.679965 7.7581C 2.83812 9.13948 4.70064 8.61045 11.1455 6.31796C 17.5904 4.02546 28.1743 5.52439 29.8003 7.81689C 31.6037 2.84981 24.6562 -1.85274 16.3192 0.733667C 7.98221 3.32007 1.80443e-06 6.28855 1.80443e-06 6.28855C 1.80443e-06 6.28855 0.177381 7.4348 0.679965 7.7581Z"/>
		</defs>
</svg>