<svg xmlns="http://www.w3.org/2000/svg" xmlns:xlink="http://www.w3.org/1999/xlink" viewBox="0 0 843 469.64"><defs><style>.cls-1{fill:#ff6b31;}.cls-2{isolation:isolate;}.cls-3{fill:#fff;}.cls-4{fill:#f36b66;}.cls-5{fill:#d15c26;}.cls-28,.cls-6{mix-blend-mode:multiply;}.cls-7{fill:#8487c1;}.cls-8{opacity:0.25;}.cls-9{fill:#f4b606;}.cls-10{fill:#f7cd45;}.cls-11{fill:#ccccd6;}.cls-12{fill:#5a5e82;}.cls-13{fill:#35b49a;}.cls-14{fill:#97231d;}.cls-15{fill:#6d1717;}.cls-16{clip-path:url(#clip-path);}.cls-17{fill:#ededed;}.cls-18{fill:#2b8e76;}.cls-19{fill:#1d1e2a;}.cls-20{fill:#cbcbcb;}.cls-21{fill:#3f425b;}.cls-22{fill:#d25710;}.cls-23{fill:#686d9e;}.cls-24{fill:#f7b246;}.cls-25{fill:#42b596;}.cls-26{fill:#f6b348;}.cls-27{fill:#d25813;}.cls-28,.cls-30{opacity:0.5;}.cls-29{fill:#f4e8c6;}</style><clipPath id="clip-path"><path class="cls-1" d="M624.62,310.66l4.78-.33a14.6,14.6,0,0,0,4.69-1.12l4.07-1.73,15.33,12.15-13.14,24.69-7.57,3.54,6.27-24.9Z"/></clipPath></defs><title>Koduje-illustracja-</title><g class="cls-2"><g id="Warstwa_2" data-name="Warstwa 2"><polygon class="cls-3" points="821.33 61.56 714.7 402.65 31.16 353.82 821.33 61.56"/><polygon class="cls-4" points="688.74 61.56 643.84 281.13 298.31 266.8 249.48 61.56 688.74 61.56"/><polygon class="cls-5" points="283.95 311.34 281.4 309.42 328.5 264.29 388.03 264.29 373.05 305.68 324.54 316.12 294.36 323.62 283.95 311.34"/><g class="cls-6"><polygon class="cls-4" points="347.62 195.99 356.39 178.36 382.68 178.36 425.63 221.31 368.4 221.31 347.62 195.99"/></g><ellipse class="cls-7" cx="605.36" cy="347.85" rx="13.34" ry="35.15" transform="translate(195.79 913.28) rotate(-83.96)"/><g class="cls-8"><polygon class="cls-7" points="358.89 363.96 302.2 422.56 609.36 436.7 732.34 353.49 659.96 302.11 490.58 302.11 358.89 363.96"/></g><g class="cls-6"><polygon class="cls-4" points="659.96 302.11 408.72 302.11 408.72 89.45 710.14 89.45 659.96 302.11"/></g><polygon class="cls-9" points="723.58 79.88 420.97 291.08 420.97 78.42 722.39 78.42 723.58 79.88"/><polygon class="cls-10" points="673.4 292.54 422.17 292.54 422.17 79.88 723.58 79.88 673.4 292.54"/><polygon class="cls-9" points="496.01 277.1 522.6 222.19 561.1 222.19 645.13 293.54 509.8 293.54 496.01 277.1"/><polygon class="cls-7" points="438.69 195.9 437.5 195.9 312.35 195.9 331.78 345.65 437.5 345.65 438.69 345.65 544.4 345.65 563.84 195.9 438.69 195.9"/><polygon class="cls-7" points="438.87 415.08 437.32 415.08 273.47 415.08 298.92 422.56 437.32 422.56 438.87 422.56 577.27 422.56 602.72 415.08 438.87 415.08"/><polygon class="cls-11" points="544.4 344.29 438.69 344.29 437.5 344.29 331.78 344.29 273.47 415.08 437.5 415.08 438.69 415.08 602.72 415.08 544.4 344.29"/><path class="cls-9" d="M529.18,107.48l4.2,11.77s6.82,10.32,16.89,26.63a43.11,43.11,0,0,0,18.68,16.38l9.81-5.61a142.19,142.19,0,0,0,22.5-15.35l23.26-17.51s-13.81-3.06-23.5-7.64c-5.81-2.74-19.18-23-19.18-23Z"/><polygon class="cls-12" points="438.5 204.8 437.43 204.8 324.09 203.61 341.69 340.41 437.43 340.41 438.5 340.41 534.24 340.41 551.84 203.61 438.5 204.8"/><polygon class="cls-11" points="549.43 191.38 438.12 191.38 437.22 191.38 328.13 191.38 313.07 195.9 437.22 195.9 438.12 195.9 562.27 195.9 549.43 191.38"/><polygon class="cls-13" points="438.63 203.61 437.56 203.61 325.29 203.61 342.73 337.94 437.56 337.94 438.63 337.94 533.46 337.94 550.89 203.61 438.63 203.61"/><path class="cls-14" d="M645.29,297.92l-13.43-10.83-36.51,4.61L580.72,293l1.06,47.93a3.61,3.61,0,0,0-.21.87,3.84,3.84,0,0,0,.27,1.81h0c1.73,4.42,11.13,8.62,22.82,9.85s21.76-.9,24.37-4.86l0.45,0Z"/><path class="cls-5" d="M604.81,353.49l13.83-56.57,4.74-8.76-28,3.54L580.72,293l1.06,47.93a3.6,3.6,0,0,0-.21.87,3.84,3.84,0,0,0,.27,1.81h0c1.73,4.42,11.13,8.62,22.82,9.85h0.16Z"/><ellipse class="cls-1" cx="612.82" cy="293.54" rx="12.46" ry="32.85" transform="translate(256.47 872.11) rotate(-83.96)"/><ellipse class="cls-14" cx="612.82" cy="293.54" rx="11.08" ry="29.2" transform="translate(256.47 872.11) rotate(-83.96)"/><path class="cls-15" d="M589.17,297.87c5,3.16,13.16,5.71,22.49,6.69s17.81,0.19,23.39-1.84c-5-3.16-13.16-5.71-22.49-6.69S594.75,295.84,589.17,297.87Z"/><path class="cls-15" d="M622.83,338.53l3.25,12.5a7.83,7.83,0,0,0,2.94-2.43l0.45,0,2.83-9.09-0.47-2.63Z"/><polygon class="cls-15" points="632.39 334.15 622.83 336.14 632.39 346.5 639.06 343.91 644.62 336.3 637.76 340.33 632.39 334.15"/><polygon class="cls-15" points="638.16 311.85 624.62 314.24 634.06 333.96 639.06 316.41 638.16 311.85"/><polygon class="cls-5" points="632.98 311.45 624.62 310.66 624.62 314.24 637.13 324.11 632.19 344.91 622.83 336.14 622.83 338.53 632.78 347.85 639.06 342.32 645.29 327.66 642.74 319.42 632.98 311.45"/><path class="cls-1" d="M624.62,310.66l4.78-.33a14.6,14.6,0,0,0,4.69-1.12l4.07-1.73,15.33,12.15-13.14,24.69-7.57,3.54,6.27-24.9Z"/><g class="cls-16"><polygon class="cls-14" points="628.55 331.47 639.06 322.95 645.29 326.24 653.49 319.62 656.03 338.1 640.35 354.61 623.38 357.69 628.55 331.47"/></g><path class="cls-15" d="M647.79,321.93l5.71-2.32-9.83,18.48-4.6-15.15h3.55A13.78,13.78,0,0,0,647.79,321.93Z"/><path class="cls-17" d="M521.94,226.12l-3.24-2a2.18,2.18,0,0,0-1.1-.25H359.07a2.18,2.18,0,0,0-1.1.25l-3.24,2,6.43,2.94,75.28,0.47v0h3.77v0l75.28-.47Z"/><polygon class="cls-18" points="544.98 249.16 521.94 226.12 505.46 238.98 365.05 317.83 385.16 337.94 533.46 337.94 544.98 249.16"/><path class="cls-19" d="M365.27,317.61q-5.89-41.9-10.45-83.92l166.91-.15c-3.61,28.08-6.33,56.25-9.35,84.4C463.33,317.91,414.3,317.64,365.27,317.61Zm44.8-10.8,14.91,0c0.82,0,.71.13,0.67-0.83,0-.65,0-0.65-0.59-0.65l-30.53-.09c-0.82,0-.82,0-0.72.88,0.07,0.6.07,0.61,0.63,0.61Zm4.41-55.08h11.47c0.81,0,.81,0,0.79-0.83s0.07-.6-0.6-0.6l-23.21,0c-0.91,0-.88,0-0.86.92,0,0.46.18,0.52,0.6,0.52C406.62,251.73,410.56,251.73,414.48,251.72Zm-11.33,50.55-9,0c-0.95,0-.82-0.15-0.72.87,0.06,0.59.07,0.59,0.63,0.59l17.87,0c0.82,0,.8,0,0.75-0.92,0-.45-0.16-0.56-0.55-0.56C409.2,302.3,406.19,302.28,403.15,302.27Zm-5.53-47.69h7.13c0.9,0,.88,0,0.86-0.91,0-.45-0.18-0.52-0.59-0.52q-7.28,0-14.67,0c-1,0-.94,0-0.89,1,0,0.41.18,0.47,0.56,0.47C392.56,254.58,395.09,254.59,397.61,254.58Zm82.27,51h-4.95c-0.88,0-.86,0-1,1,0,0.44.09,0.5,0.44,0.5l10.32,0c1,0,.94,0,1-1,0-.39-0.09-0.45-0.41-0.45C483.54,305.56,481.7,305.55,479.89,305.54ZM395.81,256h-5.18c-1,0-1,0-.92,1a0.41,0.41,0,0,0,.52.46c3.6,0,7.17,0,10.72,0,1,0,1,0,1-1a0.36,0.36,0,0,0-.46-0.41C399.58,256,397.7,256,395.81,256Zm0.26,4h5.16c0.95,0,.92,0,0.89-0.93,0-.4-0.17-0.47-0.54-0.47-3.53,0-7.07,0-10.65,0-1.07,0-1.06,0-1,1a0.35,0.35,0,0,0,.45.38h5.65Zm-16.35-22.93H384c1,0,1,0,.92-1a0.46,0.46,0,0,0-.58-0.52c-3,0-6,0-8.95,0-1.12,0-1.11,0-1,1.13a0.38,0.38,0,0,0,.48.42C376.49,237.07,378.11,237.07,379.72,237.07ZM469,295.45h3.56c0.93,0,.92,0,1-1,0-.34,0-0.44-0.38-0.44-2.52,0-5,0-7.49,0-1,0-1,0-1,1,0,0.33.1,0.38,0.36,0.37C466.31,295.44,467.64,295.45,469,295.45Zm7.4-42.38h-3.75c-1,0-1,0-1.07,1,0,0.36,0,.47.43,0.47,2.67,0,5.35,0,8,0,1,0,1,0,1.09-1,0-.32,0-0.43-0.39-0.43C479.27,253.08,477.82,253.07,476.37,253.07Zm-71-4.21h3.54c1,0,1,0,1-1a0.38,0.38,0,0,0-.48-0.45c-2.57,0-5.15,0-7.74,0-1,0-1,0-1,1.05a0.35,0.35,0,0,0,.44.4C402.54,248.86,404,248.86,405.36,248.86Zm-12.78,65.33h-3.34c-0.92,0-.9,0-0.79,1.05,0,0.4.15,0.53,0.52,0.52,2.38,0,4.73,0,7,0,0.94,0,.92,0,0.81-1.1,0-.36-0.13-0.47-0.45-0.47C395.13,314.21,393.86,314.19,392.58,314.19ZM385.24,246h3.48c1.05,0,1,0,1-1a0.37,0.37,0,0,0-.46-0.44c-2.5,0-5,0-7.53,0-1.09,0-1.07,0-1,1.07a0.36,0.36,0,0,0,.45.41C382.51,246,383.88,246,385.24,246ZM403,288.47h-3.25c-0.86,0-.85,0-0.78.89a0.44,0.44,0,0,0,.54.51c2.26,0,4.5,0,6.72,0,1,0,1,0,.89-1a0.34,0.34,0,0,0-.42-0.37C405.43,288.48,404.19,288.47,403,288.47Zm63.07-34h3.23c1,0,1,0,1.09-1,0-.33-0.05-0.42-0.39-0.42-2.33,0-4.65,0-7,0-1.1,0-1.09,0-1.14,1.08,0,0.27.05,0.35,0.33,0.35C463.46,254.5,464.74,254.5,466,254.5Zm-54.7,55.13h2.77c0.85,0,.82,0,0.77-1,0-.44-0.16-0.51-0.49-0.5-1.95,0-3.91,0-5.89,0-1,0-.94,0-0.85,1.1,0,0.35.15,0.41,0.41,0.41C409.14,309.62,410.23,309.63,411.32,309.63ZM403,291.16H400c-0.9,0-.88,0-0.82.94a0.42,0.42,0,0,0,.53.47c2.08,0,4.14,0,6.18,0,1,0,1,0,.89-1a0.34,0.34,0,0,0-.42-0.38C405.24,291.17,404.1,291.16,403,291.16Zm12-14.88h2.86c1,0,.93,0,0.9-0.95,0-.35-0.14-0.42-0.46-0.41-2.06,0-4.13,0-6.21,0-1,0-1,0-.93,1a0.3,0.3,0,0,0,.37.33h3.47Zm59.39,16.44h2.81c1,0,.93,0,1-1,0-.37-0.09-0.43-0.41-0.42-2,0-4.07,0-6.08,0-1,0-1,0-1,1,0,0.32.09,0.38,0.37,0.38C472.08,292.71,473.19,292.72,474.31,292.72Zm-59.25-38.16H418c1,0,1,0,1-1,0-.37-0.15-0.43-0.48-0.43-2.13,0-4.26,0-6.4,0-1.06,0-1,0-1,1,0,0.33.14,0.38,0.44,0.38C412.71,254.56,413.89,254.56,415.06,254.56Zm-23.25,8.2h2.92c1,0,.93,0,0.88-0.92,0-.41-0.18-0.46-0.55-0.46-2.07,0-4.14,0-6.23,0-1.08,0-1.06,0-1,1a0.36,0.36,0,0,0,.46.37C389.5,262.76,390.66,262.76,391.81,262.76Zm2.6,28.38h-2.52c-1,0-1,0-.89,1a0.35,0.35,0,0,0,.43.38c1.89,0,3.77,0,5.63,0,1,0,1,0,.9-1a0.32,0.32,0,0,0-.4-0.36C396.52,291.16,395.47,291.15,394.41,291.15ZM394,287h2.52c1,0,1,0,.9-1a0.34,0.34,0,0,0-.42-0.38c-1.88,0-3.77,0-5.68,0-1.05,0-1,0-.93,1a0.33,0.33,0,0,0,.41.36C391.84,287,392.91,287,394,287Zm0.19,1.46h-2.58c-1,0-1,0-.9,1a0.35,0.35,0,0,0,.43.38c1.9,0,3.78,0,5.65,0,1,0,1,0,.91-1a0.32,0.32,0,0,0-.4-0.35C396.25,288.47,395.2,288.46,394.16,288.46Zm-0.51-4.21h2.58c1,0,1,0,.89-1a0.35,0.35,0,0,0-.44-0.4c-1.87,0-3.76,0-5.66,0-1.09,0-1.07,0-1,1,0,0.31.16,0.34,0.42,0.34h3.17ZM465,259.94h2.62c1,0,1,0,1.06-1,0-.34-0.08-0.4-0.4-0.4-1.92,0-3.83,0-5.73,0-1.08,0-1.07,0-1.12,1.07,0,0.28.07,0.34,0.34,0.33C462.8,259.93,463.88,259.94,465,259.94ZM400.13,309.6h2.49c0.9,0,.88,0,0.8-1,0-.41-0.16-0.48-0.49-0.48-1.76,0-3.54,0-5.33,0-1,0-1,0-.88,1.13a0.34,0.34,0,0,0,.41.39C398.12,309.59,399.13,309.6,400.13,309.6ZM469.65,307h2.13c1,0,.95,0,1-1.08,0-.32,0-0.42-0.34-0.41-1.63,0-3.24,0-4.84,0-1,0-1,0-1,1.1,0,0.3,0,.4.31,0.39C467.83,307,468.73,307,469.65,307Zm-74.07-33.44h2.34c1,0,1,0,.89-1,0-.35-0.16-0.41-0.49-0.41-1.69,0-3.39,0-5.09,0-1,0-1,0-.94,1a0.35,0.35,0,0,0,.45.37C393.69,273.55,394.63,273.56,395.58,273.56Zm6.14,12.07h-2.15c-1,0-1,0-.91,1a0.35,0.35,0,0,0,.43.38c1.64,0,3.26,0,4.88,0,1,0,1,0,.9-1a0.3,0.3,0,0,0-.38-0.33C403.57,285.64,402.64,285.63,401.71,285.63Zm-0.16-1.37h2.19c1,0,1,0,.9-1a0.35,0.35,0,0,0-.44-0.4c-1.63,0-3.27,0-4.91,0-1,0-1,0-.89,1a0.33,0.33,0,0,0,.4.36C399.71,284.25,400.63,284.26,401.55,284.26Zm63.7-32.6h2.3c1,0,1,0,1.09-1,0-.33,0-0.43-0.39-0.42-1.7,0-3.4,0-5.1,0-1.11,0-1.1,0-1.15,1.09,0,0.27,0,.36.33,0.35C463.3,251.65,464.28,251.66,465.25,251.66Zm-80.63.11h2.3c1,0,1,0,1-1a0.37,0.37,0,0,0-.46-0.42c-1.7,0-3.41,0-5.13,0-1.14,0-1.13,0-1,1.09a0.31,0.31,0,0,0,.39.35C382.65,251.76,383.64,251.77,384.62,251.77Zm0.18,1.42H382.5c-1.05,0-1,0-1,1a0.37,0.37,0,0,0,.47.42c1.71,0,3.41,0,5.11,0,1.13,0,1.11,0,1-1.07,0-.32-0.16-0.35-0.43-0.35C386.74,253.19,385.77,253.19,384.8,253.19Zm1.75,17.76h2.29c1,0,1,0,.9-1a0.37,0.37,0,0,0-.47-0.41c-1.67,0-3.36,0-5.05,0-1.07,0-1.06,0-.94,1a0.34,0.34,0,0,0,.42.36C384.66,270.93,385.61,270.94,386.55,270.94Zm-2.18-22h2.27c1.08,0,1.06,0,1-1.05a0.35,0.35,0,0,0-.44-0.4c-1.72,0-3.46,0-5.19,0-1.11,0-1.1,0-1,1.08a0.34,0.34,0,0,0,.42.38C382.39,248.88,383.38,248.9,384.37,248.89Zm0.82,8.51h2.24c1.06,0,1.05,0,1-1A0.35,0.35,0,0,0,388,256c-1.71,0-3.42,0-5.14,0-1.1,0-1.09,0-1,1a0.33,0.33,0,0,0,.42.37C383.23,257.4,384.22,257.41,385.19,257.41Zm86.6,55.49h2c0.93,0,.92,0,1-1.08,0-.4-0.08-0.46-0.39-0.46-1.51,0-3,0-4.49,0-1,0-1,0-1.06,1.2,0,0.29.07,0.34,0.29,0.34C470,312.89,470.91,312.9,471.79,312.9ZM385.41,260h2.28c1.06,0,1,0,1-1a0.35,0.35,0,0,0-.44-0.38c-1.7,0-3.41,0-5.12,0-1.12,0-1.11,0-1,1.08a0.29,0.29,0,0,0,.37.31C383.46,260,384.44,260,385.41,260Zm79.75-17.09h2.15c1,0,1,0,1.13-1.05,0-.39-0.1-0.45-0.43-0.45-1.62,0-3.24,0-4.86,0-1.15,0-1.14,0-1.19,1.17,0,0.28.08,0.33,0.33,0.32C463.24,242.92,464.2,242.92,465.16,242.92Zm-51.51,49.66h1.9c0.94,0,.92,0,0.87-1a0.37,0.37,0,0,0-.46-0.43c-1.45,0-2.9,0-4.36,0-1,0-1,0-.89,1.06a0.3,0.3,0,0,0,.37.34h2.57Zm-22.53,20.06h2c1,0,1,0,.86-1.12a0.37,0.37,0,0,0-.44-0.42c-1.5,0-3,0-4.54,0-1,0-1,0-.87,1.17a0.34,0.34,0,0,0,.4.37C389.37,312.63,390.24,312.64,391.11,312.64ZM410.18,256h-2c-1,0-1,0-.93,1,0,0.37.16,0.42,0.49,0.42,1.5,0,3,0,4.5,0,1,0,1,0,1-1,0-.32-0.14-0.38-0.43-0.38C411.9,256,411,256,410.18,256Zm0.24,4h2c1,0,1,0,.93-1,0-.36-0.15-0.42-0.48-0.42-1.49,0-3,0-4.49,0-1,0-1,0-1,1a0.34,0.34,0,0,0,.44.37C408.7,260,409.56,260,410.42,260Zm51.84-11.2h1.9c1.08,0,1.07,0,1.14-1.08,0-.34-0.1-0.38-0.4-0.38-1.47,0-2.93,0-4.4,0-1.11,0-1.1,0-1.15,1.1,0,0.27,0,.36.33,0.36C460.55,248.78,461.4,248.79,462.26,248.79Zm-48.78,41.09h1.7c0.93,0,.91,0,0.86-1a0.36,0.36,0,0,0-.46-0.42c-1.29,0-2.58,0-3.88,0-1,0-1,0-.9,1.06a0.3,0.3,0,0,0,.37.33C412,289.86,412.72,289.87,413.49,289.88ZM474.68,304h1.63c1,0,1,0,1-1.09,0-.3-0.06-0.38-0.33-0.38-1.26,0-2.52,0-3.76,0-1,0-1,0-1.06,1.13,0,0.26.06,0.34,0.29,0.34C473.21,303.95,473.94,304,474.68,304Zm-81.78,4.11h-1.63c-1,0-1,0-.88,1.12a0.34,0.34,0,0,0,.41.39c1.29,0,2.57,0,3.84,0,1.06,0,1.05,0,.88-1.2,0-.25-0.11-0.32-0.33-0.32C394.44,308.09,393.67,308.08,392.9,308.07Zm71-45.37h1.67c1,0,1,0,1.09-1,0-.3-0.09-0.35-0.36-0.35-1.33,0-2.65,0-4,0-1.08,0-1.06,0-1.1,1.06,0,0.28.09,0.33,0.34,0.32C462.37,262.7,463.15,262.71,463.92,262.71Zm-72.13,12.21h-1.65c-1.07,0-1.06,0-1,1,0,0.31.15,0.36,0.45,0.36,1.32,0,2.64,0,4,0,1.11,0,1.1,0,1-1.06a0.29,0.29,0,0,0-.37-0.29h-2.39ZM389.36,301H391c1,0,1,0,.89-1.06a0.36,0.36,0,0,0-.45-0.39c-1.3,0-2.6,0-3.92,0-1.06,0-1.05,0-.89,1.1a0.33,0.33,0,0,0,.41.35C387.82,301,388.6,301,389.36,301Zm2.54-50.65h-1.7c-1.12,0-1.1,0-1,1.07a0.34,0.34,0,0,0,.43.37c1.34,0,2.69,0,4,0,1.13,0,1.12,0,1-1.11a0.3,0.3,0,0,0-.37-0.32C393.5,250.33,392.7,250.32,391.91,250.32Zm-14.39-10.2h1.83c1.05,0,1,0,1-1.07a0.42,0.42,0,0,0-.53-0.46c-1.36,0-2.72,0-4.09,0-1.14,0-1.13,0-1,1.16a0.34,0.34,0,0,0,.43.36C375.92,240.12,376.72,240.13,377.52,240.13Zm42.75,51.07h-1.52c-1,0-1,0-.91,1a0.32,0.32,0,0,0,.4.37c1.19,0,2.38,0,3.57,0,1,0,1,0,.93-1.06,0-.26-0.07-0.35-0.33-0.35C421.69,291.21,421,291.2,420.26,291.19Zm-26.63-21.61h-1.7c-1,0-1,0-.9,1,0,0.36.17,0.41,0.5,0.41,1.28,0,2.56,0,3.83,0s1.13,0,1-1.08a0.28,0.28,0,0,0-.35-0.28h-2.36ZM411.43,287h1.47c0.94,0,.92,0,0.87-1a0.37,0.37,0,0,0-.47-0.41c-1.13,0-2.27,0-3.41,0s-1,0-.9,1a0.34,0.34,0,0,0,.43.37C410.09,287,410.76,287,411.43,287Zm3.43-2.74h1.39c1,0,1,0,.94-1.05a0.28,0.28,0,0,0-.36-0.32h-3.46c-1.06,0-1.06,0-1,1.07a0.27,0.27,0,0,0,.34.3C413.46,284.27,414.17,284.28,414.87,284.28Zm2.55,2.75h1.46c1,0,1,0,.91-1,0-.29-0.08-0.39-0.39-0.39-1.14,0-2.28,0-3.42,0s-1,0-.92,1c0,0.27.08,0.37,0.37,0.36C416.08,287,416.75,287,417.42,287Zm2.19,2.86H421c1,0,1,0,.92-1,0-.28-0.08-0.37-0.36-0.36-1.13,0-2.26,0-3.39,0s-1,0-.94,1c0,0.26.08,0.35,0.34,0.34C418.26,289.87,418.93,289.89,419.61,289.89ZM396.9,247.42h-1.42c-1.1,0-1.09,0-1,1.08a0.33,0.33,0,0,0,.41.38c1.16,0,2.32,0,3.47,0s1.11,0,1-1.1c0-.27-0.09-0.37-0.38-0.36C398.3,247.44,397.6,247.42,396.9,247.42Zm72.22,53.78h1.24c1,0,1,0,1.07-1.1,0-.28,0-0.36-0.3-0.35-1.07,0-2.13,0-3.19,0s-1,0-1,1.12c0,0.26,0,.34.28,0.33C467.82,301.19,468.47,301.2,469.11,301.2Zm-69.65-38.45h1.25c1.09,0,1.07,0,1-1.06,0-.28-0.13-0.32-0.39-0.32h-3.22c-1.13,0-1.12,0-1,1.08a0.29,0.29,0,0,0,.37.3C398.13,262.75,398.8,262.75,399.47,262.75Zm-17,2.67h1.32c1.08,0,1.06,0,1-1,0-.32-0.17-0.37-0.47-0.37-1.09,0-2.19,0-3.29,0s-1.07,0-1,1a0.34,0.34,0,0,0,.42.37C381.11,265.41,381.79,265.42,382.45,265.42Zm6.14,6.79h-1.26c-1.08,0-1.07,0-1,1a0.33,0.33,0,0,0,.41.36c1,0,2.1,0,3.14,0s1.11,0,1-1.07a0.29,0.29,0,0,0-.37-0.29C389.88,272.22,389.24,272.21,388.6,272.21ZM400,315.77h1.15c1,0,1,0,.84-1.18,0-.29-0.11-0.39-0.36-0.39-1,0-1.95,0-2.93,0s-1,0-.85,1.18c0,0.3.11,0.4,0.37,0.39C398.86,315.76,399.45,315.77,400,315.77Zm68.58-7.45h-1.13c-1,0-1,0-1,1.19,0,0.23,0,.33.25,0.33,1.21,0,2.42.06,3.64,0,0.55,0,.18-0.68.3-1,0.06-.18.14-0.48-0.23-0.46C469.82,308.34,469.22,308.32,468.63,308.32Zm0.19-4.37H470c1,0,1,0,1-1.09,0-.29,0-0.39-0.32-0.39-1,0-1.92,0-2.88,0s-1,0-1,1.11c0,0.27,0,.37.3,0.36C467.64,303.93,468.23,303.94,468.82,303.94ZM467,292.71h1.13c1,0,1,0,1-1,0-.28,0-0.38-0.32-0.37-1,0-1.9,0-2.85,0s-1,0-1.06,1.1c0,0.27.09,0.31,0.31,0.3C465.8,292.7,466.38,292.7,467,292.71Zm-68.51-41h1.23c1.09,0,1.07,0,1-1.06a0.32,0.32,0,0,0-.4-0.38c-1,0-2.06,0-3.1,0s-1.11,0-1,1.09a0.3,0.3,0,0,0,.38.35C397.18,251.73,397.82,251.75,398.46,251.74Zm66.71,25.76h-1.07c-1,0-1,0-1.08,1,0,0.27.06,0.34,0.32,0.33,0.91,0,1.82,0,2.73,0,1.11,0,1.11,0,1.11-1.1,0-.2-0.05-0.27-0.26-0.26h-1.76ZM388.42,298h1.13c1,0,1,0,.88-1a0.38,0.38,0,0,0-.48-0.41c-0.91,0-1.83,0-2.76,0-1.1,0-1.09,0-.91,1.11a0.31,0.31,0,0,0,.38.32C387.25,298,387.84,298,388.42,298Zm2.6-49.12h1.06c1.08,0,1.06,0,1-1.06a0.36,0.36,0,0,0-.46-0.39c-0.87,0-1.75,0-2.62,0-1.18,0-1.18,0-1,1.16a0.29,0.29,0,0,0,.36.3H391Zm85.62,46.58h0.93c1,0,1,0,1.06-1,0-.28,0-0.38-0.33-0.38-0.83,0-1.65,0-2.47,0-1.06,0-1,0-1.09,1.09,0,0.29.09,0.34,0.33,0.33C475.59,295.46,476.11,295.47,476.64,295.47Zm-13.06-39.55h-0.94c-1.09,0-1.08,0-1.12,1.07,0,0.28.07,0.34,0.34,0.34,0.83,0,1.66,0,2.49,0,1.16,0,1.15,0,1.16-1.14a0.22,0.22,0,0,0-.27-0.27C464.68,255.92,464.13,255.92,463.58,255.92Zm-81.36,10.87h-0.91c-1.15,0-1.14,0-1,1.06a0.31,0.31,0,0,0,.38.31h2.5c1.14,0,1.13,0,1-1.05a0.31,0.31,0,0,0-.38-0.31C383.28,266.8,382.75,266.79,382.22,266.79ZM379.73,243h0.93c1.17,0,1.16,0,1-1.16a0.32,0.32,0,0,0-.39-0.34c-0.85,0-1.71,0-2.57,0-1.17,0-1.17,0-1,1.16a0.32,0.32,0,0,0,.39.34C378.64,243,379.19,243,379.73,243Zm4.61,19.74h0.82c1.19,0,1.18,0,1-1.11a0.25,0.25,0,0,0-.31-0.28c-1.09,0-2.2-.06-3.29,0-0.62.05-.09,0.62-0.17,0.93,0,0.16-.08.44,0.33,0.42S383.81,262.77,384.34,262.77Zm80.23,13.54h0.73c1,0,1,0,1.07-1.06,0-.24,0-0.32-0.29-0.31-0.7,0-1.41,0-2.11,0-1.08,0-1.07,0-1.09,1.08,0,0.22,0,.3.27,0.29C463.62,276.3,464.09,276.31,464.57,276.31Zm-36.28,30.56h0.59c0.95,0,.94,0,0.88-1.12,0-.28-0.09-0.37-0.33-0.37-0.59,0-1.18,0-1.77,0-1,0-1,0-.87,1.17,0,0.24.09,0.33,0.29,0.32C427.47,306.86,427.88,306.87,428.28,306.87ZM474,299.76h-0.63c-1,0-1,0-1.06,1.12,0,0.26.07,0.33,0.3,0.33,0.62,0,1.25,0,1.88,0,1.08,0,1.07,0,1.08-1.17,0-.22-0.06-0.28-0.26-0.28H474ZM392.73,246h0.64c1.14,0,1.13,0,1-1.15a0.3,0.3,0,0,0-.38-0.33c-0.66,0-1.32,0-2,0-1.15,0-1.14,0-1,1.15a0.3,0.3,0,0,0,.38.33C391.84,246,392.29,246,392.73,246Zm75.85,39.77H468c-1.09,0-1.08,0-1.08,1.1a0.23,0.23,0,0,0,.28.29H469c1.09,0,1.08,0,1.09-1.1,0-.23-0.07-0.3-0.28-0.29C469.43,285.75,469,285.74,468.58,285.74Zm-6.07-16.17H462c-1,0-1,0-1.07,1,0,0.27,0,.37.34,0.36,0.58,0,1.15,0,1.73,0,1.09,0,1.08,0,1.1-1.08,0-.26-0.09-0.3-0.32-0.29C463.33,269.58,462.92,269.57,462.52,269.57ZM463.58,240h0.55c1.16,0,1.14,0,1.2-1.19,0-.29-0.09-0.33-0.33-0.33-0.62,0-1.23,0-1.84,0-1.2,0-1.19,0-1.22,1.22,0,0.26.09,0.31,0.31,0.3C462.69,240,463.14,240,463.58,240Zm-73.22,53.83H389c-0.45,0-.25.37-0.19,0.54s-0.23.8,0.35,0.85c0.88,0.07,1.75,0,2.61,0,0.45,0,.24-0.38.19-0.54s0.23-.76-0.35-0.85A8.43,8.43,0,0,0,390.36,293.85Zm73.85-6.73h0.46c1.05,0,1,0,1.06-1.1,0-.23-0.06-0.29-0.28-0.29-0.55,0-1.1,0-1.64,0-1.09,0-1.09,0-1.08,1.12,0,0.21.06,0.27,0.26,0.26C463.4,287.11,463.81,287.12,464.21,287.12Zm13,25.8c0.4,0,.8,0,1.2,0s0.31-.31.28-0.5c0-.35.35-0.94-0.16-1a9.33,9.33,0,0,0-2.4,0c-0.57.07-.2,0.69-0.32,1s-0.11.49,0.24,0.47S476.85,312.91,477.24,312.91Zm-14.83-39.33h0.51c1.08,0,1.08,0,1.07-1.06a0.79,0.79,0,0,1,0-.08,0.18,0.18,0,0,0-.22-0.22h-2.54c-0.35,0-.29.26-0.26,0.42,0.08,0.31-.32.74,0.18,0.94a0.62,0.62,0,0,0,.21,0h1Zm7.25-12.26h-0.49c-1.14,0-1.14,0-1.11,1.12a0.27,0.27,0,0,1,0,0c0,0.17.07,0.22,0.23,0.22h2.52c0.12,0,.25,0,0.25-0.17a2.24,2.24,0,0,0,0-1.14,1.26,1.26,0,0,0-.88-0.07C470,261.31,469.83,261.32,469.65,261.32Zm-68.4,15h0.44c1.09,0,1.09,0,.94-1.08a0.59,0.59,0,0,1,0-.08c0-.15-0.09-0.19-0.23-0.19h-2.53c-0.1,0-.23,0-0.21.13a2.54,2.54,0,0,0,.16,1.16,1.24,1.24,0,0,0,.83.06C400.84,276.28,401,276.27,401.25,276.27Zm4.18-1.35c-0.42,0-.84,0-1.26,0s-0.21.44-.18,0.65-0.24.67,0.3,0.69c0.81,0,1.62,0,2.42,0,0.51,0,.21-0.44.19-0.65s0.24-.65-0.29-0.69S405.82,274.92,405.43,274.92Zm9.83,28.85h0.48c1,0,1,0,.86-1.13,0-.26-0.1-0.35-0.33-0.34-0.51,0-1,0-1.54,0-1,0-1,0-.85,1.08a0.85,0.85,0,0,1,0,.09,0.24,0.24,0,0,0,.28.3h1.09Zm56.05-45.23h-0.45c-1.15,0-1.15,0-1.13,1.13a0.28,0.28,0,0,1,0,0c0,0.17.06,0.23,0.22,0.23h2.45a0.24,0.24,0,0,0,.28-0.26c0.18-1.14.18-1.14-1-1.14h-0.4ZM471,241.42h-1.24c-0.45,0-.34.36-0.3,0.53,0.07,0.32-.41.88,0.19,0.94,0.81,0.08,1.65,0,2.47,0,0.45,0,.34-0.36.3-0.53-0.07-.32.42-0.83-0.19-0.95A6.79,6.79,0,0,0,471,241.42ZM468.73,240h0.41c1.14,0,1.14,0,1.16-1.2a0.32,0.32,0,0,1,0,0c0-.21-0.05-0.28-0.25-0.27a20.19,20.19,0,0,0-2.4,0c-0.64.08-.22,0.69-0.35,1s-0.12.49,0.27,0.46S468.35,240,468.73,240Zm2.46,11.64h0.36c1.12,0,1.11,0,1.17-1.1,0-.29-0.1-0.34-0.35-0.34-0.48,0-1,0-1.45,0-1.13,0-1.12,0-1.17,1.1,0,0.24,0,.35.31,0.34S470.81,251.65,471.19,251.65Zm-10-14.67c0.4,0,.8,0,1.2,0s0.32-.44.3-0.64,0.37-.83-0.21-0.88a22.09,22.09,0,0,0-2.31,0c-0.5,0-.32.44-0.3,0.65s-0.36.79,0.21,0.88A7,7,0,0,0,461.19,237Zm-69.88,68.29c-0.37,0-.75,0-1.12,0s-0.22.42-.17,0.62-0.2.8,0.35,0.85a19.86,19.86,0,0,0,2.14,0c0.46,0,.22-0.42.17-0.62s0.2-.76-0.34-0.85A6.35,6.35,0,0,0,391.31,305.28Zm-0.26-1.57h0.34c1.12,0,1.12,0,.89-1.18v0a0.22,0.22,0,0,0-.26-0.24h-2.24c-0.15,0-.18.07-0.19,0.22,0,1.1.09,1.24,1.12,1.24h0.34Zm78.17-24.83a8.14,8.14,0,0,0,1.07,0c0.52-.07.25-0.49,0.28-0.74s0.28-.6-0.2-0.61c-0.69,0-1.38,0-2.07,0a0.23,0.23,0,0,0-.28.24c-0.17,1.13-.18,1.13.93,1.13h0.26Zm-64.67-21.49c1.34,0,1.34,0,1.21-1.12a0.63,0.63,0,0,1,0-.09c0-.16-0.09-0.2-0.23-0.19h-2.15c-0.1,0-.23,0-0.22.14a2.63,2.63,0,0,0,.15,1.2,1.28,1.28,0,0,0,.85.06h0.4Zm63.6-1.47c-0.34,0-.69,0-1,0s-0.32.29-.29,0.46-0.36.85,0.2,0.93a16.38,16.38,0,0,0,2,0c0.4,0,.32-0.29.29-0.46s0.36-.8-0.19-0.94A4.32,4.32,0,0,0,468.15,255.91ZM404.76,260a2.33,2.33,0,0,0,1.18-.07,1.59,1.59,0,0,0,0-1s0,0,0,0c0-.19-0.09-0.25-0.27-0.24h-2.1a0.19,0.19,0,0,0-.23.22c0,1.16,0,1.17,1.13,1.17h0.29ZM410,284.27h1c0.4,0,.26-0.33.21-0.49s0.26-.79-0.31-0.86a17.15,17.15,0,0,0-1.95,0,0.2,0.2,0,0,0-.25.23c0,1.1,0,1.13,1.07,1.13H410ZM469,274.95c-1.33,0-1.33,0-1.34,1.06a0.71,0.71,0,0,1,0,.09c0,0.16.06,0.22,0.22,0.22h2a0.23,0.23,0,0,0,.27-0.25c0.16-1.12.17-1.12-.95-1.12H469Zm-80.65,3.86c1.34,0,1.34,0,1.17-1.07a0.25,0.25,0,0,1,0,0c0-.18-0.08-0.25-0.28-0.24h-2.1c-0.16,0-.22,0-0.23.21,0,1.12,0,1.15,1.17,1.15h0.27Zm0.3,2.8c0.34,0,.68,0,1,0s0.28-.27.22-0.44,0.21-.82-0.35-0.9a7.46,7.46,0,0,0-2,0c-0.6.08-.1,0.61-0.17,0.93a0.3,0.3,0,0,0,.34.41C388,281.59,388.28,281.61,388.61,281.61Zm19.63-28.46H408c-1.17,0-1.16,0-1,1.14a0.24,0.24,0,0,0,.3.28c0.42,0,.84,0,1.26,0,1.12,0,1.12,0,1-1.12,0-.23-0.08-0.32-0.32-0.3S408.57,253.15,408.24,253.15ZM397,274.92h-1c-0.46,0-.25.37-0.2,0.52s-0.25.75,0.33,0.81,1.29,0,1.93,0a0.2,0.2,0,0,0,.25-0.23c0-1.12,0-1.12-1.12-1.12H397Zm67.74-6.8h0.17c1.13,0,1.13,0,1.13-1.11a0.21,0.21,0,0,0-.27-0.26h-1.92a0.22,0.22,0,0,0-.27.24c-0.15,1.14-.15,1.14,1,1.13h0.17Zm0.09-4.12c-1.14,0-1.14,0-1.16,1.09,0,0.22.05,0.3,0.28,0.29,0.48,0,1,0,1.44,0,0.32,0,.38-0.1.4-0.39C465.84,264,465.85,264,464.82,264Zm3.22,1.37c1.13,0,1.12,0,1.14-1.09a0.23,0.23,0,0,0-.29-0.29c-0.5,0-1,0-1.5,0a0.28,0.28,0,0,0-.34.32C467,265.38,466.95,265.38,468,265.38Zm-51.17,44.27c0.94,0,.94,0,0.85-1.13a0.73,0.73,0,0,1,0-.09,0.23,0.23,0,0,0-.27-0.29,11.41,11.41,0,0,1-1.19,0c-0.3,0-.4.07-0.37,0.45C416,309.64,416,309.65,416.87,309.65ZM466.93,316c1,0,1,0,1-1.2,0-.27,0-0.37-0.28-0.37a9.54,9.54,0,0,1-1.15,0c-0.31,0-.41.08-0.43,0.48C466.06,316,466,316,466.93,316Zm-61.27-6.38h0.65c0.14,0,.21,0,0.21-0.23,0-1.24,0-1.28-1.07-1.29a1.69,1.69,0,0,1-.33,0c-0.4-.08-0.46.12-0.41,0.53C404.83,309.61,404.82,309.61,405.66,309.61Zm3.18-34.69a3.86,3.86,0,0,1-.47,0c-0.3,0-.39.06-0.36,0.36,0.09,1,.07,1,1.11,1h0.17c0.42,0.07.56-.07,0.5-0.51C409.69,274.92,409.72,274.92,408.84,274.92ZM465.71,290a3.05,3.05,0,0,1,.42,0c0.32,0,.43-0.08.44-0.43,0-1,0-1-.93-1h0c-0.66,0-.57-0.08-0.61.6S464.95,290,465.71,290Zm-2.65-1.4a3.2,3.2,0,0,1-.46,0c-0.3,0-.37.1-0.38,0.39,0,1,0,1,.93,1h0.08c0.54,0,.54,0,0.57-0.58C463.84,288.59,463.84,288.59,463.07,288.59Zm5.21-20.47a4.09,4.09,0,0,1,.48,0c0.3,0,.37-0.1.38-0.37,0.07-1,.08-1-1-1H468.1c-0.66,0-.56-0.08-0.61.58S467.45,268.12,468.28,268.12Zm-71.77-23.63c-0.87,0-.87,0-0.82.66s0.06,0.81.92,0.81,0.8,0,.74-0.73S397.3,244.49,396.51,244.49Zm2.16,26.45h0.18c0.66,0,.59.07,0.54-0.56-0.07-.8-0.07-0.8-0.94-0.8s-0.73,0-.67.64S397.85,270.94,398.68,270.94ZM382.2,238.6c-0.83,0-.83,0-0.77.71s0.07,0.82.88,0.81,0.78,0,.72-0.75S383,238.6,382.2,238.6Zm3.06,1.52a2.07,2.07,0,0,1,.32,0c0.41,0.06.52-.09,0.47-0.51-0.11-1-.09-1-1.09-1h-0.19c-0.33,0-.46.08-0.38,0.42a2.5,2.5,0,0,1,0,.33C384.51,240.12,384.51,240.12,385.27,240.12ZM407.11,287c0.73,0,.73,0,0.67-0.73s-0.05-.64-0.79-0.64-0.71,0-.65.71S406.4,287,407.11,287Zm58.17,11.2c0.69,0,.69,0,0.72-0.7s0-.73-0.78-0.73c-0.58,0-.58,0-0.61.63C464.57,298.21,464.57,298.21,465.28,298.21Zm-58.42-13.94a1.49,1.49,0,0,1,.25,0c0.41,0.07.58-.07,0.46-0.49a0.69,0.69,0,0,1,0-.13c-0.06-.75-0.06-0.75-0.82-0.75s-0.69,0-.64.68S406.17,284.27,406.86,284.27ZM464.59,237c0.76,0,.77,0,0.81-0.65,0.06-1,.18-0.89-0.61-0.89s-0.81-.12-0.86.7S463.77,237,464.59,237Zm-4.43,7.43c-0.79,0-.76-0.11-0.79.61,0,0.93-.17.86,0.6,0.86s0.8,0.12.84-.65S461,244.42,460.16,244.41ZM401.37,272.9c-0.06-.69-0.06-0.69-0.76-0.69h0c-0.66,0-.66,0-0.6.65s0.06,0.71.79,0.71S401.43,273.56,401.37,272.9Zm66.44,23.89c-0.79,0-.69-0.1-0.73.56-0.05.87,0,.87,0.5,0.87,0.78,0,.78,0,0.81-0.61C468.44,296.78,468.44,296.78,467.81,296.78Zm-39.1-45.08c0.72,0,.72,0,0.71-0.68s0-.76-0.75-0.75-0.7,0-.69.7S428,251.71,428.72,251.71Zm-7.67,2.85c0.7,0,.7,0,0.68-0.51,0-.9,0-0.9-0.56-0.9-0.9,0-.9,0-0.88.58C420.32,254.56,420.33,254.56,421.05,254.55Zm0.18,21c0-.66,0-0.66-0.66-0.66s-0.66,0-.62.67,0,0.68.64,0.68S421.27,276.28,421.24,275.59Zm-8.46-27.42c0-.76,0-0.76-0.69-0.76s-0.71,0-.67.71,0,0.74.71,0.74S412.81,248.85,412.78,248.17Zm3,11.12c0-.69,0-0.69-0.71-0.69s-0.65,0-.61.72,0,0.67.69,0.67S415.86,260,415.83,259.28Zm-1.46-2.64c0,0.73,0,.73.68,0.73s0.69,0,.66-0.69,0-.71-0.7-0.71S414.33,256,414.36,256.64Zm-4.82,32.54a1.63,1.63,0,0,1,0-.26c0-.36-0.11-0.46-0.46-0.45-0.75,0-.75,0-0.69.8,0,0.59,0,.59.62,0.59S409.6,289.87,409.54,289.18Zm55.65-16.26a0.79,0.79,0,0,0,0,.6,1.54,1.54,0,0,0,1,0c0.27-.05.14-0.34,0.16-0.51,0.06-.86.05-0.85-0.82-0.83-0.25,0-.38.06-0.37,0.33A3.33,3.33,0,0,1,465.19,272.92Zm3-24.8c0-.88.17-0.78-0.73-0.78h-0.27a0.18,0.18,0,0,0-.21.15c0,0.38-.06.75-0.08,1.13a0.14,0.14,0,0,0,.13.15,2.12,2.12,0,0,0,1,0A0.74,0.74,0,0,0,468.17,248.12Zm-6.61,32.94c0-.8.16-0.73-0.71-0.73-0.12,0-.3,0-0.33.11a3.87,3.87,0,0,0-.05,1.14,0.15,0.15,0,0,0,.11.1,1.58,1.58,0,0,0,.87,0A0.73,0.73,0,0,0,461.56,281.06ZM461.44,284c0-.2,0-0.35,0-0.51s0-.22-0.17-0.22-0.5,0-.75,0-0.18.21-.17,0.33c0,0.34-.23.79,0.11,1a1.07,1.07,0,0,0,.85,0A0.73,0.73,0,0,0,461.44,284Zm11.48,25.18c0.05-.82.05-0.83-0.44-0.82-0.67,0-.56-0.11-0.62.68,0,0.19,0,.38,0,0.57s0,0.25.1,0.25a2.06,2.06,0,0,0,.85,0A0.85,0.85,0,0,0,472.92,309.15ZM464,284c0-.81.17-0.74-0.7-0.75h-0.13a0.21,0.21,0,0,0-.25.23c0,0.31,0,.63,0,0.94a0.15,0.15,0,0,0,.13.19,1.6,1.6,0,0,0,.87,0A0.72,0.72,0,0,0,464,284Zm-54.71,7.87c-0.06-.68-0.06-0.68-0.59-0.68s-0.56,0-.51.6a2.7,2.7,0,0,1,0,.39c0,0.33.11,0.42,0.42,0.41C409.32,292.55,409.32,292.57,409.26,291.85ZM404,315c0-.2,0-0.39-0.06-0.58a0.2,0.2,0,0,0-.18-0.22c-0.7-.16-0.82,0-0.74.79l0.06,0.54a0.22,0.22,0,0,0,.16.24C403.92,316,404.12,315.77,404,315Z"/><path class="cls-20" d="M521.72,233.54l-166.91.15q-0.32-3.06-.64-6.23a6.15,6.15,0,0,1,.6-1.25,8.11,8.11,0,0,1,1-.71H521a9.23,9.23,0,0,1,1,.66,5,5,0,0,1,.59,1.26Q522.13,230.53,521.72,233.54ZM376.6,229.72a2,2,0,0,0-1.93-1.86,1.64,1.64,0,0,0-1.59,1.87,2,2,0,0,0,2,1.86A1.63,1.63,0,0,0,376.6,229.72Zm-9.94-1.86a1.63,1.63,0,0,0-1.6,1.85,2.05,2.05,0,0,0,1.92,1.88,1.62,1.62,0,0,0,1.62-1.85A2.07,2.07,0,0,0,366.66,227.86Zm-7.38,0a1.63,1.63,0,0,0-1.61,1.85,2.07,2.07,0,0,0,1.93,1.89,1.61,1.61,0,0,0,1.63-1.85A2.08,2.08,0,0,0,359.28,227.86Z"/><path class="cls-21" d="M410.07,306.81l-15.62,0c-0.56,0-.56,0-0.63-0.61-0.1-.88-0.1-0.88.72-0.88l30.53,0.09c0.56,0,.56,0,0.59.65,0,1,.15.83-0.67,0.83Z"/><path class="cls-13" d="M414.48,251.72c-3.92,0-7.86,0-11.82,0-0.41,0-.58-0.07-0.6-0.52,0-.91-0.05-0.92.86-0.92l23.21,0c0.67,0,.58-0.08.6,0.6s0,0.83-.79.83H414.48Z"/><path class="cls-21" d="M403.15,302.27c3,0,6,0,9,0,0.39,0,.53.11,0.55,0.56,0,0.92.07,0.92-.75,0.92l-17.87,0c-0.56,0-.57,0-0.63-0.59-0.11-1-.23-0.87.72-0.87Z"/><path class="cls-13" d="M397.61,254.58c-2.52,0-5.06,0-7.6,0-0.38,0-.54-0.06-0.56-0.47-0.05-.95-0.08-1,0.89-1q7.39,0,14.67,0c0.41,0,.58.07,0.59,0.52,0,0.91,0,.91-0.86.91h-7.13Z"/><path class="cls-22" d="M479.89,305.54c1.82,0,3.65,0,5.5,0,0.32,0,.45.06,0.41,0.45-0.11,1-.09,1-1,1l-10.32,0c-0.34,0-.48-0.06-0.44-0.5,0.1-1,.07-1,1-1h4.95Z"/><path class="cls-13" d="M395.81,256c1.89,0,3.77,0,5.64,0a0.36,0.36,0,0,1,.46.41c0.06,1,.08,1-1,1-3.55,0-7.12,0-10.72,0a0.41,0.41,0,0,1-.52-0.46c-0.07-.95-0.08-0.95.92-1h5.18Z"/><path class="cls-13" d="M396.07,260h-5.65a0.35,0.35,0,0,1-.45-0.38c-0.09-1-.11-1,1-1,3.57,0,7.12,0,10.65,0,0.38,0,.52.06,0.54,0.47,0,0.93.06,0.93-.89,0.93h-5.16Z"/><path class="cls-23" d="M379.72,237.07c-1.61,0-3.23,0-4.85,0a0.38,0.38,0,0,1-.48-0.42c-0.11-1.13-.12-1.13,1-1.13,3,0,6,0,8.95,0a0.46,0.46,0,0,1,.58.52c0.06,1,.08,1-0.92,1h-4.27Z"/><path class="cls-24" d="M469,295.45c-1.33,0-2.66,0-4,0-0.27,0-.38,0-0.36-0.37,0.06-1.05,0-1,1-1,2.48,0,5,0,7.49,0,0.34,0,.41.11,0.38,0.44-0.08,1-.07,1-1,1H469Z"/><path class="cls-22" d="M476.37,253.07c1.45,0,2.9,0,4.36,0,0.35,0,.42.1,0.39,0.43-0.1,1-.09,1-1.09,1-2.69,0-5.37,0-8,0-0.38,0-.47-0.11-0.43-0.47,0.09-1,.07-1,1.07-1h3.75Z"/><path class="cls-13" d="M405.36,248.86c-1.41,0-2.82,0-4.23,0a0.35,0.35,0,0,1-.44-0.4c-0.07-1.05-.08-1.05,1-1.05,2.59,0,5.17,0,7.74,0a0.38,0.38,0,0,1,.48.45c0,1,.05,1-1,1h-3.54Z"/><path class="cls-23" d="M392.58,314.19c1.28,0,2.54,0,3.8,0,0.32,0,.41.11,0.45,0.47,0.12,1.1.13,1.1-.81,1.1-2.32,0-4.67,0-7,0-0.36,0-.47-0.12-0.52-0.52-0.11-1.06-.13-1.05.79-1.05h3.34Z"/><path class="cls-24" d="M385.24,246c-1.36,0-2.73,0-4.09,0a0.36,0.36,0,0,1-.45-0.41c-0.09-1.07-.1-1.07,1-1.07,2.52,0,5,0,7.53,0a0.37,0.37,0,0,1,.46.44c0.07,1,.09,1-1,1h-3.48Z"/><path class="cls-13" d="M403,288.47c1.24,0,2.47,0,3.69,0a0.34,0.34,0,0,1,.42.37c0.09,1,.1,1-0.89,1-2.22,0-4.47,0-6.72,0a0.44,0.44,0,0,1-.54-0.51c-0.07-.89-0.08-0.89.78-0.89H403Z"/><path class="cls-24" d="M466,254.5c-1.28,0-2.57,0-3.85,0-0.28,0-.34-0.08-0.33-0.35,0-1.08,0-1.08,1.14-1.08,2.32,0,4.64,0,7,0,0.34,0,.42.09,0.39,0.42-0.09,1-.07,1-1.09,1H466Z"/><path class="cls-13" d="M411.32,309.63c-1.09,0-2.18,0-3.27,0-0.27,0-.38-0.06-0.41-0.41-0.1-1.11-.11-1.11.85-1.1,2,0,3.94,0,5.89,0,0.33,0,.47.06,0.49,0.5,0,1,.07,1-0.77,1h-2.77Z"/><path class="cls-13" d="M403,291.16c1.15,0,2.29,0,3.42,0a0.34,0.34,0,0,1,.42.38c0.09,1,.1,1-0.89,1-2,0-4.11,0-6.18,0a0.42,0.42,0,0,1-.53-0.47c-0.06-.94-0.09-0.94.82-0.94H403Z"/><path class="cls-13" d="M414.92,276.28h-3.47a0.3,0.3,0,0,1-.37-0.33c-0.09-1-.1-1,0.93-1,2.08,0,4.15,0,6.21,0,0.32,0,.45.07,0.46,0.41,0,0.95.05,0.95-.9,0.95h-2.86Z"/><path class="cls-22" d="M474.31,292.72c-1.12,0-2.23,0-3.34,0-0.28,0-.39-0.06-0.37-0.38,0.06-1,0-1,1-1,2,0,4,0,6.08,0,0.32,0,.44.06,0.41,0.42-0.09,1-.07,1-1,1h-2.81Z"/><path class="cls-13" d="M415.06,254.56c-1.18,0-2.35,0-3.53,0-0.3,0-.42-0.05-0.44-0.38-0.06-1-.07-1,1-1,2.14,0,4.27,0,6.4,0,0.33,0,.47.06,0.48,0.43,0,1,0,1-1,1h-2.94Z"/><path class="cls-23" d="M391.81,262.76c-1.16,0-2.32,0-3.48,0a0.36,0.36,0,0,1-.46-0.37c-0.1-1-.12-1,1-1,2.09,0,4.16,0,6.23,0,0.37,0,.53.05,0.55,0.46,0.05,0.92.08,0.92-.88,0.92h-2.92Z"/><path class="cls-24" d="M394.41,291.15c1.06,0,2.11,0,3.15,0a0.32,0.32,0,0,1,.4.36c0.11,1,.12,1-0.9,1-1.86,0-3.74,0-5.63,0a0.35,0.35,0,0,1-.43-0.38c-0.11-1-.12-1,0.89-1h2.52Z"/><path class="cls-24" d="M394,287c-1.06,0-2.13,0-3.2,0a0.33,0.33,0,0,1-.41-0.36c-0.11-1-.12-1,0.93-1,1.91,0,3.8,0,5.68,0a0.34,0.34,0,0,1,.42.38c0.09,1,.11,1-0.9,1H394Z"/><path class="cls-24" d="M394.16,288.46c1,0,2.09,0,3.12,0a0.32,0.32,0,0,1,.4.35c0.11,1,.12,1-0.91,1-1.87,0-3.76,0-5.65,0a0.35,0.35,0,0,1-.43-0.38c-0.11-1-.12-1,0.9-1h2.58Z"/><path class="cls-24" d="M393.65,284.25h-3.17c-0.26,0-.39,0-0.42-0.34-0.11-1-.13-1,1-1,1.9,0,3.78,0,5.66,0a0.35,0.35,0,0,1,.44.4c0.08,1,.1,1-0.89,1h-2.58Z"/><path class="cls-24" d="M465,259.94c-1.08,0-2.15,0-3.23,0-0.26,0-.35-0.05-0.34-0.33,0-1.07,0-1.07,1.12-1.07,1.91,0,3.82,0,5.73,0,0.32,0,.43.06,0.4,0.4-0.08,1-.06,1-1.06,1H465Z"/><path class="cls-13" d="M400.13,309.6c-1,0-2,0-3,0a0.34,0.34,0,0,1-.41-0.39c-0.13-1.13-.14-1.13.88-1.13,1.79,0,3.57,0,5.33,0,0.33,0,.46.07,0.49,0.48,0.08,1,.1,1-0.8,1h-2.49Z"/><path class="cls-24" d="M469.65,307c-0.91,0-1.82,0-2.73,0-0.27,0-.33-0.09-0.31-0.39,0.06-1.11,0-1.11,1-1.1,1.6,0,3.22,0,4.84,0,0.3,0,.36.09,0.34,0.41-0.08,1.08-.07,1.08-1,1.08h-2.13Z"/><path class="cls-13" d="M395.58,273.56c-0.94,0-1.89,0-2.84,0a0.35,0.35,0,0,1-.45-0.37c-0.1-1-.11-1,0.94-1,1.71,0,3.4,0,5.09,0,0.33,0,.47.05,0.49,0.41,0.07,1,.09,1-0.89,1h-2.34Z"/><path class="cls-13" d="M401.71,285.63c0.93,0,1.86,0,2.78,0a0.3,0.3,0,0,1,.38.33c0.11,1,.12,1-0.9,1-1.62,0-3.25,0-4.88,0a0.35,0.35,0,0,1-.43-0.38c-0.1-1-.11-1,0.91-1h2.15Z"/><path class="cls-13" d="M401.55,284.26c-0.92,0-1.84,0-2.76,0a0.33,0.33,0,0,1-.4-0.36c-0.11-1-.12-1,0.89-1,1.65,0,3.28,0,4.91,0a0.35,0.35,0,0,1,.44.4c0.07,1,.09,1-0.9,1h-2.19Z"/><path class="cls-24" d="M465.25,251.66c-1,0-1.95,0-2.92,0-0.28,0-.34-0.08-0.33-0.35,0.05-1.09,0-1.09,1.15-1.09,1.7,0,3.4,0,5.1,0,0.35,0,.42.09,0.39,0.42-0.08,1-.07,1-1.09,1h-2.3Z"/><path class="cls-24" d="M384.62,251.77c-1,0-2,0-3,0a0.31,0.31,0,0,1-.39-0.35c-0.12-1.08-.12-1.09,1-1.09,1.71,0,3.43,0,5.13,0a0.37,0.37,0,0,1,.46.42c0.08,1,.09,1-1,1h-2.3Z"/><path class="cls-24" d="M384.8,253.19c1,0,1.93,0,2.9,0,0.27,0,.4,0,0.43.35,0.1,1.07.12,1.07-1,1.07-1.7,0-3.4,0-5.11,0a0.37,0.37,0,0,1-.47-0.42c-0.09-1-.1-1,1-1h2.31Z"/><path class="cls-23" d="M386.55,270.94c-0.95,0-1.9,0-2.85,0a0.34,0.34,0,0,1-.42-0.36c-0.12-1-.13-1,0.94-1,1.69,0,3.38,0,5.05,0a0.37,0.37,0,0,1,.47.41c0.09,1,.1,1-0.9,1h-2.29Z"/><path class="cls-24" d="M384.37,248.89c-1,0-2,0-3,0a0.34,0.34,0,0,1-.42-0.38c-0.1-1.07-.11-1.08,1-1.08,1.74,0,3.47,0,5.19,0a0.35,0.35,0,0,1,.44.4c0.08,1.06.1,1.05-1,1.05h-2.27Z"/><path class="cls-24" d="M385.19,257.41c-1,0-2,0-2.94,0a0.33,0.33,0,0,1-.42-0.37c-0.11-1-.12-1,1-1,1.72,0,3.43,0,5.14,0a0.35,0.35,0,0,1,.44.39c0.09,1,.1,1-1,1h-2.24Z"/><path class="cls-24" d="M471.79,312.9c-0.88,0-1.76,0-2.63,0-0.21,0-.3-0.05-0.29-0.34,0-1.21,0-1.2,1.06-1.2,1.49,0,3,0,4.49,0,0.3,0,.42.06,0.39,0.46-0.1,1.08-.08,1.09-1,1.08h-2Z"/><path class="cls-24" d="M385.41,260c-1,0-2,0-2.93,0a0.29,0.29,0,0,1-.37-0.31c-0.13-1.08-.14-1.08,1-1.08,1.71,0,3.42,0,5.12,0a0.35,0.35,0,0,1,.44.38c0.09,1,.1,1-1,1h-2.28Z"/><path class="cls-24" d="M465.16,242.92c-1,0-1.92,0-2.88,0-0.24,0-.34,0-0.33-0.32,0-1.17,0-1.17,1.19-1.17,1.62,0,3.24,0,4.86,0,0.34,0,.47.06,0.43,0.45-0.1,1.05-.08,1.05-1.13,1.05h-2.15Z"/><path class="cls-23" d="M413.65,292.58h-2.57a0.3,0.3,0,0,1-.37-0.34c-0.11-1.07-.12-1.06.89-1.06,1.46,0,2.91,0,4.36,0a0.37,0.37,0,0,1,.46.43c0.05,1,.07,1-0.87,1h-1.9Z"/><path class="cls-23" d="M391.11,312.64c-0.87,0-1.75,0-2.62,0a0.34,0.34,0,0,1-.4-0.37c-0.17-1.17-.18-1.17.87-1.17,1.53,0,3,0,4.54,0a0.37,0.37,0,0,1,.44.42c0.13,1.12.15,1.12-.86,1.12h-2Z"/><path class="cls-13" d="M410.18,256c0.86,0,1.73,0,2.59,0,0.29,0,.42.05,0.43,0.38,0.05,1,.07,1-1,1-1.5,0-3,0-4.5,0-0.33,0-.47-0.05-0.49-0.42,0-1-.06-1,0.93-1h2Z"/><path class="cls-13" d="M410.42,260c-0.86,0-1.72,0-2.57,0a0.34,0.34,0,0,1-.44-0.37c-0.07-1-.08-1,1-1,1.5,0,3,0,4.49,0,0.33,0,.47.05,0.48,0.42,0,1,.05,1-0.93,1h-2Z"/><path class="cls-24" d="M462.26,248.79c-0.86,0-1.72,0-2.57,0-0.29,0-.34-0.09-0.33-0.36,0-1.1,0-1.1,1.15-1.1,1.46,0,2.93,0,4.4,0,0.29,0,.42,0,0.4.38-0.08,1.08-.06,1.08-1.14,1.08h-1.9Z"/><path class="cls-23" d="M413.49,289.87c-0.76,0-1.53,0-2.29,0a0.3,0.3,0,0,1-.37-0.33c-0.11-1.06-.12-1.06.9-1.06,1.3,0,2.59,0,3.88,0a0.36,0.36,0,0,1,.46.42c0,1,.07,1-0.86,1h-1.7Z"/><path class="cls-22" d="M474.68,304c-0.74,0-1.47,0-2.2,0-0.23,0-.3-0.07-0.29-0.34,0-1.14,0-1.14,1.06-1.13,1.25,0,2.5,0,3.76,0,0.27,0,.35.08,0.33,0.38-0.07,1.09-.06,1.09-1,1.09h-1.63Z"/><path class="cls-24" d="M392.9,308.07c0.77,0,1.54,0,2.3,0,0.22,0,.29.07,0.33,0.32,0.17,1.2.18,1.2-.88,1.2-1.27,0-2.56,0-3.84,0a0.34,0.34,0,0,1-.41-0.39c-0.14-1.13-.15-1.13.88-1.12h1.63Z"/><path class="cls-24" d="M463.92,262.71c-0.78,0-1.55,0-2.33,0-0.25,0-.35,0-0.34-0.32,0-1.06,0-1.06,1.1-1.06,1.32,0,2.65,0,4,0,0.27,0,.38,0,0.36.35-0.06,1,0,1-1.09,1h-1.67Z"/><path class="cls-24" d="M391.79,274.92h2.39a0.29,0.29,0,0,1,.37.29c0.13,1.06.14,1.06-1,1.06-1.31,0-2.63,0-4,0-0.29,0-.42,0-0.45-0.36-0.1-1-.11-1,1-1h1.65Z"/><path class="cls-23" d="M389.36,301c-0.77,0-1.54,0-2.31,0a0.33,0.33,0,0,1-.41-0.35c-0.16-1.1-.17-1.1.89-1.1,1.31,0,2.62,0,3.92,0a0.36,0.36,0,0,1,.45.39C392,301,392,301,391,301h-1.65Z"/><path class="cls-13" d="M391.91,250.32c0.79,0,1.59,0,2.38,0a0.3,0.3,0,0,1,.37.32c0.13,1.11.14,1.11-1,1.11-1.34,0-2.68,0-4,0a0.34,0.34,0,0,1-.43-0.37c-0.1-1.07-.11-1.07,1-1.07h1.7Z"/><path class="cls-23" d="M377.52,240.13c-0.8,0-1.6,0-2.4,0a0.34,0.34,0,0,1-.43-0.36c-0.14-1.16-.15-1.16,1-1.16,1.36,0,2.73,0,4.09,0a0.42,0.42,0,0,1,.53.46c0.08,1.07.1,1.07-1,1.07h-1.83Z"/><path class="cls-24" d="M420.26,291.19c0.71,0,1.43,0,2.14,0,0.26,0,.32.08,0.33,0.35,0.06,1.06.07,1.06-.93,1.06-1.19,0-2.38,0-3.57,0a0.32,0.32,0,0,1-.4-0.37c-0.06-1-.07-1,0.91-1h1.52Z"/><path class="cls-13" d="M393.64,269.58H396a0.28,0.28,0,0,1,.35.28c0.16,1.08.17,1.08-1,1.08s-2.55,0-3.83,0c-0.33,0-.47-0.05-0.5-0.41-0.08-1-.1-1,0.9-1h1.7Z"/><path class="cls-23" d="M411.43,287c-0.67,0-1.34,0-2,0a0.34,0.34,0,0,1-.43-0.37c-0.08-1-.1-1,0.9-1s2.27,0,3.41,0a0.37,0.37,0,0,1,.47.41c0.05,1,.07,1-0.87,1h-1.47Z"/><path class="cls-24" d="M414.87,284.28c-0.7,0-1.4,0-2.1,0a0.27,0.27,0,0,1-.34-0.3c-0.1-1.07-.11-1.07,1-1.07h3.46a0.28,0.28,0,0,1,.36.32c0.07,1.05.09,1.05-.94,1.05h-1.39Z"/><path class="cls-24" d="M417.42,287c-0.67,0-1.34,0-2,0-0.28,0-.35-0.09-0.37-0.36-0.07-1-.08-1,0.92-1s2.29,0,3.42,0c0.3,0,.37.09,0.39,0.39,0,1,.06,1-0.91,1h-1.46Z"/><path class="cls-24" d="M419.61,289.89c-0.67,0-1.35,0-2,0-0.26,0-.32-0.08-0.34-0.34-0.08-1.05-.08-1.05.94-1s2.27,0,3.39,0c0.28,0,.34.09,0.36,0.36,0.06,1,.07,1-0.92,1h-1.4Z"/><path class="cls-24" d="M396.9,247.42c0.7,0,1.41,0,2.1,0,0.29,0,.36.09,0.38,0.36,0.09,1.1.1,1.1-1,1.1s-2.32,0-3.47,0a0.33,0.33,0,0,1-.41-0.38c-0.09-1.07-.1-1.08,1-1.08h1.42Z"/><path class="cls-24" d="M469.11,301.2c-0.65,0-1.29,0-1.93,0-0.24,0-.29-0.08-0.28-0.33,0-1.13,0-1.12,1-1.12s2.12,0,3.19,0c0.26,0,.32.08,0.3,0.35-0.06,1.1-.05,1.1-1.07,1.1h-1.24Z"/><path class="cls-24" d="M399.47,262.75c-0.67,0-1.34,0-2,0a0.29,0.29,0,0,1-.37-0.3c-0.12-1.08-.13-1.08,1-1.08h3.22c0.25,0,.36,0,0.39.32,0.09,1.06.11,1.06-1,1.06h-1.25Z"/><path class="cls-23" d="M382.45,265.42c-0.67,0-1.34,0-2,0a0.34,0.34,0,0,1-.42-0.37c-0.12-1-.13-1,1-1s2.2,0,3.29,0c0.3,0,.43,0,0.47.37,0.11,1,.12,1-1,1h-1.32Z"/><path class="cls-24" d="M388.6,272.21c0.64,0,1.29,0,1.93,0a0.29,0.29,0,0,1,.37.29c0.14,1.07.15,1.07-1,1.07s-2.09,0-3.14,0a0.33,0.33,0,0,1-.41-0.36c-0.11-1-.12-1,1-1h1.26Z"/><path class="cls-13" d="M400,315.77c-0.59,0-1.19,0-1.78,0-0.26,0-.33-0.1-0.37-0.39-0.15-1.19-.15-1.18.85-1.18s2,0,2.93,0c0.26,0,.33.09,0.36,0.39,0.14,1.18.15,1.18-.84,1.18H400Z"/><path class="cls-24" d="M468.63,308.32c0.59,0,1.19,0,1.79,0,0.36,0,.29.28,0.23,0.46-0.12.35,0.25,1-.3,1-1.22.09-2.43,0-3.64,0-0.22,0-.25-0.09-0.25-0.33,0-1.19,0-1.19,1-1.19h1.13Z"/><path class="cls-24" d="M468.82,303.94c-0.59,0-1.17,0-1.76,0-0.26,0-.31-0.09-0.3-0.36,0-1.11,0-1.11,1-1.11s1.92,0,2.88,0c0.28,0,.33.09,0.32,0.39-0.06,1.09-.06,1.09-1,1.09h-1.15Z"/><path class="cls-24" d="M467,292.71c-0.58,0-1.17,0-1.75,0-0.22,0-.31,0-0.31-0.3,0-1.11,0-1.11,1.06-1.1s1.89,0,2.85,0c0.28,0,.34.09,0.32,0.37-0.06,1,0,1-1,1H467Z"/><path class="cls-24" d="M398.46,251.74c-0.64,0-1.27,0-1.91,0a0.3,0.3,0,0,1-.38-0.35c-0.09-1.08-.1-1.09,1-1.09s2.07,0,3.1,0a0.32,0.32,0,0,1,.4.38c0.08,1.06.09,1.06-1,1.06h-1.23Z"/><path class="cls-24" d="M465.16,277.51h1.76c0.2,0,.26.06,0.26,0.26,0,1.11,0,1.11-1.11,1.1-0.91,0-1.82,0-2.73,0-0.26,0-.33-0.07-0.32-0.33,0-1,0-1,1.08-1h1.07Z"/><path class="cls-23" d="M388.42,298c-0.58,0-1.17,0-1.75,0a0.31,0.31,0,0,1-.38-0.32c-0.18-1.11-.19-1.11.91-1.11,0.92,0,1.84,0,2.76,0a0.38,0.38,0,0,1,.48.41c0.11,1,.13,1-0.88,1h-1.13Z"/><path class="cls-13" d="M391,248.88h-1.7a0.29,0.29,0,0,1-.36-0.3c-0.16-1.15-.17-1.16,1-1.16,0.88,0,1.75,0,2.62,0a0.36,0.36,0,0,1,.46.39c0.08,1.07.1,1.06-1,1.06H391Z"/><path class="cls-22" d="M476.64,295.47c-0.52,0-1,0-1.57,0-0.24,0-.34,0-0.33-0.33,0.05-1.09,0-1.09,1.09-1.09,0.82,0,1.64,0,2.47,0,0.29,0,.35.1,0.33,0.38-0.07,1-.06,1-1.06,1h-0.93Z"/><path class="cls-24" d="M463.58,255.92h1.65a0.22,0.22,0,0,1,.27.27c0,1.14,0,1.14-1.16,1.14-0.83,0-1.66,0-2.49,0-0.27,0-.35-0.06-0.34-0.34,0-1.07,0-1.07,1.12-1.07h0.94Z"/><path class="cls-23" d="M382.22,266.79c0.53,0,1.06,0,1.59,0a0.31,0.31,0,0,1,.38.31c0.16,1.06.17,1.05-1,1.05h-2.5a0.31,0.31,0,0,1-.38-0.31c-0.16-1.05-.17-1.05,1-1.06h0.91Z"/><path class="cls-23" d="M379.73,243c-0.54,0-1.09,0-1.63,0a0.32,0.32,0,0,1-.39-0.34c-0.16-1.16-.16-1.16,1-1.16,0.86,0,1.71,0,2.57,0a0.32,0.32,0,0,1,.39.34c0.15,1.16.16,1.16-1,1.16h-0.93Z"/><path class="cls-24" d="M384.34,262.77c-0.53,0-1.07,0-1.6,0s-0.37-.26-0.33-0.42c0.08-.32-0.45-0.88.17-0.93,1.08-.09,2.19,0,3.29,0a0.25,0.25,0,0,1,.31.28c0.17,1.11.17,1.1-1,1.11h-0.82Z"/><path class="cls-24" d="M464.57,276.31c-0.47,0-.94,0-1.41,0-0.23,0-.28-0.08-0.27-0.29,0-1.08,0-1.08,1.09-1.08,0.7,0,1.4,0,2.11,0,0.25,0,.3.08,0.29,0.31,0,1.06,0,1.06-1.07,1.06h-0.73Z"/><path class="cls-23" d="M428.28,306.87c-0.4,0-.81,0-1.21,0-0.2,0-.27-0.08-0.29-0.32-0.11-1.18-.11-1.17.87-1.17,0.59,0,1.18,0,1.77,0,0.24,0,.31.08,0.33,0.37,0.06,1.12.07,1.13-.88,1.12h-0.59Z"/><path class="cls-22" d="M474,299.76h1.3c0.19,0,.26.06,0.26,0.28,0,1.17,0,1.17-1.08,1.17-0.63,0-1.25,0-1.88,0-0.23,0-.3-0.07-0.3-0.33,0-1.13,0-1.13,1.06-1.12H474Z"/><path class="cls-13" d="M392.73,246c-0.45,0-.89,0-1.34,0a0.3,0.3,0,0,1-.38-0.33c-0.13-1.14-.14-1.15,1-1.15,0.66,0,1.32,0,2,0a0.3,0.3,0,0,1,.38.33c0.13,1.15.14,1.14-1,1.15h-0.64Z"/><path class="cls-22" d="M468.58,285.74c0.42,0,.85,0,1.27,0,0.21,0,.29.06,0.28,0.29,0,1.1,0,1.1-1.09,1.1h-1.82a0.23,0.23,0,0,1-.28-0.29c0-1.1,0-1.1,1.08-1.1h0.55Z"/><path class="cls-24" d="M462.52,269.57c0.4,0,.81,0,1.21,0,0.23,0,.33,0,0.32.29,0,1.08,0,1.08-1.1,1.08-0.58,0-1.15,0-1.73,0-0.29,0-.35-0.09-0.34-0.36,0-1,0-1,1.07-1h0.56Z"/><path class="cls-24" d="M463.58,240c-0.44,0-.89,0-1.33,0-0.22,0-.31,0-0.31-0.3,0-1.21,0-1.22,1.22-1.22,0.61,0,1.23,0,1.84,0,0.24,0,.34,0,0.33.33-0.05,1.19,0,1.19-1.2,1.19h-0.55Z"/><path class="cls-23" d="M390.36,293.85a8.43,8.43,0,0,1,1.26,0c0.58,0.09.25,0.56,0.35,0.85s0.26,0.54-.19.54c-0.87,0-1.73,0-2.61,0-0.58,0-.25-0.56-0.35-0.85s-0.27-.54.19-0.54h1.35Z"/><path class="cls-24" d="M464.21,287.12c-0.41,0-.81,0-1.22,0-0.19,0-.26-0.05-0.26-0.26,0-1.12,0-1.12,1.08-1.12,0.55,0,1.09,0,1.64,0,0.21,0,.28.05,0.28,0.29,0,1.1,0,1.1-1.06,1.1h-0.46Z"/><path class="cls-22" d="M477.24,312.91c-0.39,0-.77,0-1.16,0s-0.31-.26-0.24-0.47-0.25-1,.32-1a9.33,9.33,0,0,1,2.4,0c0.51,0.07.11,0.67,0.16,1,0,0.19.08,0.51-.28,0.5S477.64,312.91,477.24,312.91Z"/><path class="cls-23" d="M462.41,273.58h-1a0.62,0.62,0,0,1-.21,0c-0.51-.2-0.1-0.63-0.18-0.94,0-.15-0.09-0.42.26-0.42h2.54a0.18,0.18,0,0,1,.22.22,0.79,0.79,0,0,0,0,.08c0,1.06,0,1.06-1.07,1.06h-0.51Z"/><path class="cls-22" d="M469.65,261.32c0.18,0,.36,0,0.53,0a1.26,1.26,0,0,1,.88.07,2.24,2.24,0,0,1,0,1.14c0,0.17-.13.17-0.25,0.17h-2.52c-0.16,0-.25,0-0.23-0.22a0.27,0.27,0,0,0,0,0c0-1.12,0-1.12,1.11-1.12h0.49Z"/><path class="cls-24" d="M401.25,276.27c-0.2,0-.41,0-0.61,0a1.24,1.24,0,0,1-.83-0.06,2.54,2.54,0,0,1-.16-1.16c0-.15.11-0.13,0.21-0.13h2.53c0.14,0,.23,0,0.23.19a0.6,0.6,0,0,0,0,.08c0.15,1.08.15,1.08-.94,1.08h-0.44Z"/><path class="cls-13" d="M405.43,274.92c0.39,0,.78,0,1.17,0s0.26,0.47.29,0.69,0.32,0.63-.19.65c-0.8,0-1.61,0-2.42,0-0.53,0-.27-0.46-0.3-0.69s-0.32-.61.18-0.65S405,274.92,405.43,274.92Z"/><path class="cls-23" d="M415.26,303.77h-1.09a0.24,0.24,0,0,1-.28-0.3,0.85,0.85,0,0,0,0-.09c-0.11-1.08-.11-1.08.85-1.08,0.51,0,1,0,1.54,0,0.23,0,.3.08,0.33,0.34,0.12,1.13.13,1.13-.86,1.13h-0.48Z"/><path class="cls-22" d="M471.32,258.54h0.4c1.15,0,1.14,0,1,1.14a0.24,0.24,0,0,1-.28.26H470c-0.17,0-.25-0.06-0.22-0.23a0.28,0.28,0,0,0,0,0c0-1.12,0-1.12,1.13-1.13h0.45Z"/><path class="cls-22" d="M471,241.42a6.79,6.79,0,0,1,1.24,0c0.6,0.11.12,0.63,0.19,0.95,0,0.17.14,0.53-.3,0.53-0.83,0-1.66.06-2.47,0-0.6-.06-0.12-0.62-0.19-0.94,0-.17-0.15-0.54.3-0.53H471Z"/><path class="cls-22" d="M468.73,240c-0.38,0-.77,0-1.15,0s-0.35-.26-0.27-0.46-0.28-1,.35-1a20.19,20.19,0,0,1,2.4,0c0.2,0,.29.07,0.25,0.27a0.32,0.32,0,0,0,0,0c0,1.2,0,1.2-1.16,1.2h-0.41Z"/><path class="cls-22" d="M471.19,251.65c-0.38,0-.75,0-1.13,0s-0.32-.09-0.31-0.34c0-1.1,0-1.1,1.17-1.1,0.48,0,1,0,1.45,0,0.26,0,.37,0,0.35.34-0.06,1.1,0,1.1-1.17,1.1h-0.36Z"/><path class="cls-23" d="M461.19,237a7,7,0,0,1-1.1,0c-0.57-.09-0.19-0.58-0.21-0.88s-0.2-.64.3-0.65a22.09,22.09,0,0,1,2.31,0c0.57,0,.19.58,0.21,0.88s0.19,0.63-.3.64S461.59,237,461.19,237Z"/><path class="cls-23" d="M391.31,305.28a6.35,6.35,0,0,1,1,0c0.54,0.09.27,0.56,0.34,0.85s0.29,0.61-.17.62a19.86,19.86,0,0,1-2.14,0c-0.54,0-.28-0.56-0.35-0.85s-0.29-.6.17-0.62S390.94,305.28,391.31,305.28Z"/><path class="cls-23" d="M391.05,303.71h-0.34c-1,0-1.16-.14-1.12-1.24,0-.15,0-0.22.19-0.22H392a0.22,0.22,0,0,1,.26.24v0c0.23,1.17.23,1.18-.89,1.18h-0.34Z"/><path class="cls-22" d="M469.22,278.88H469c-1.11,0-1.11,0-.93-1.13a0.23,0.23,0,0,1,.28-0.24c0.69,0,1.38,0,2.07,0,0.49,0,.23.42,0.2,0.61s0.24,0.67-.28.74A8.19,8.19,0,0,1,469.22,278.88Z"/><path class="cls-24" d="M404.55,257.38h-0.4a1.28,1.28,0,0,1-.85-0.06,2.63,2.63,0,0,1-.15-1.2c0-.15.12-0.14,0.22-0.14h2.15c0.14,0,.23,0,0.23.19a0.63,0.63,0,0,0,0,.09C405.9,257.38,405.9,257.38,404.55,257.38Z"/><path class="cls-22" d="M468.15,255.91a4.32,4.32,0,0,1,1,0c0.55,0.14.14,0.62,0.19,0.94s0.11,0.46-.29.46a16.38,16.38,0,0,1-2,0c-0.55-.08-0.14-0.61-0.2-0.93s-0.11-.47.29-0.46S467.81,255.91,468.15,255.91Z"/><path class="cls-24" d="M404.76,260h-0.29c-1.16,0-1.17,0-1.13-1.17a0.19,0.19,0,0,1,.23-0.22h2.1c0.19,0,.29,0,0.27.24,0,0,0,0,0,0a1.59,1.59,0,0,1,0,1A2.33,2.33,0,0,1,404.76,260Z"/><path class="cls-23" d="M410,284.27h-0.25c-1.08,0-1.11,0-1.07-1.13a0.2,0.2,0,0,1,.25-0.23,17.15,17.15,0,0,1,1.95,0c0.57,0.07.2,0.57,0.31,0.86s0.19,0.49-.21.49h-1Z"/><path class="cls-22" d="M469,274.95h0.22c1.11,0,1.11,0,.95,1.12a0.23,0.23,0,0,1-.27.25h-2c-0.16,0-.24-0.06-0.22-0.22a0.71,0.71,0,0,0,0-.09C467.63,274.95,467.63,274.95,469,274.95Z"/><path class="cls-24" d="M388.31,278.81H388c-1.15,0-1.18,0-1.17-1.15,0-.17.07-0.21,0.23-0.21h2.1c0.2,0,.28.06,0.28,0.24a0.25,0.25,0,0,0,0,0C389.64,278.81,389.65,278.81,388.31,278.81Z"/><path class="cls-23" d="M388.61,281.61c-0.32,0-.65,0-1,0a0.3,0.3,0,0,1-.34-0.41c0.07-.31-0.43-0.84.17-0.93a7.46,7.46,0,0,1,2,0c0.56,0.08.24,0.59,0.35,0.9s0.16,0.45-.22.44S388.94,281.61,388.61,281.61Z"/><path class="cls-24" d="M408.24,253.15c0.33,0,.66,0,1,0s0.3,0.08.32,0.3c0.1,1.12.11,1.12-1,1.12-0.42,0-.84,0-1.26,0a0.24,0.24,0,0,1-.3-0.28c-0.13-1.14-.13-1.14,1-1.14h0.22Z"/><path class="cls-13" d="M397,274.92h0.22c1.14,0,1.13,0,1.12,1.12a0.2,0.2,0,0,1-.25.23c-0.64,0-1.29,0-1.93,0s-0.23-.54-0.33-0.81-0.27-.52.2-0.52h1Z"/><path class="cls-24" d="M464.73,268.12h-0.17c-1.14,0-1.13,0-1-1.13a0.22,0.22,0,0,1,.27-0.24h1.92a0.21,0.21,0,0,1,.27.26c0,1.11,0,1.11-1.13,1.11h-0.17Z"/><path class="cls-24" d="M464.82,264c1,0,1,0,1,1,0,0.29-.07.41-0.4,0.39-0.48,0-1,0-1.44,0-0.23,0-.29-0.07-0.28-0.29C463.69,264,463.68,264,464.82,264Z"/><path class="cls-22" d="M468,265.38c-1.09,0-1.08,0-1-1.06a0.28,0.28,0,0,1,.34-0.32c0.5,0,1,0,1.5,0a0.23,0.23,0,0,1,.29.29C469.16,265.38,469.17,265.38,468,265.38Z"/><path class="cls-24" d="M416.87,309.65c-0.91,0-.89,0-1-1.07,0-.39.06-0.47,0.37-0.45a11.41,11.41,0,0,0,1.19,0,0.23,0.23,0,0,1,.27.29,0.73,0.73,0,0,0,0,.09C417.81,309.65,417.81,309.65,416.87,309.65Z"/><path class="cls-23" d="M466.93,316c-0.89,0-.88,0-0.83-1.09,0-.39.12-0.5,0.43-0.48a9.54,9.54,0,0,0,1.15,0c0.23,0,.28.1,0.28,0.37C467.92,316,467.93,316,466.93,316Z"/><path class="cls-24" d="M405.66,309.61c-0.84,0-.82,0-0.94-1-0.05-.41,0-0.61.41-0.53a1.69,1.69,0,0,0,.33,0c1,0,1.08,0,1.07,1.29,0,0.19-.06.23-0.21,0.23h-0.65Z"/><path class="cls-24" d="M408.84,274.92c0.88,0,.84,0,0.95.85,0.05,0.44-.08.58-0.5,0.51h-0.17c-1,0-1,0-1.11-1,0-.31.06-0.4,0.36-0.36A3.86,3.86,0,0,0,408.84,274.92Z"/><path class="cls-23" d="M465.71,290c-0.76,0-.77,0-0.72-0.8s0-.59.61-0.6h0c1,0,1,0,.93,1,0,0.35-.12.47-0.44,0.43A3,3,0,0,0,465.71,290Z"/><path class="cls-24" d="M463.07,288.59c0.78,0,.78,0,0.74.81,0,0.58,0,.58-0.57.58h-0.08c-1,0-1,0-.93-1,0-.29.07-0.43,0.38-0.39A3.2,3.2,0,0,0,463.07,288.59Z"/><path class="cls-22" d="M468.28,268.12c-0.83,0-.83,0-0.78-0.79s-0.05-.57.61-0.58h0.09c1,0,1,0,1,1,0,0.27-.09.4-0.38,0.37A4.08,4.08,0,0,0,468.28,268.12Z"/><path class="cls-24" d="M396.51,244.49c0.79,0,.79,0,0.84.74s0.05,0.73-.74.73-0.86,0-.92-0.81S395.64,244.49,396.51,244.49Z"/><path class="cls-23" d="M398.68,270.94c-0.82,0-.82,0-0.89-0.72s-0.06-.64.67-0.64,0.87,0,.94.8c0.05,0.63.12,0.55-.54,0.56h-0.18Z"/><path class="cls-13" d="M382.2,238.6c0.77,0,.76,0,0.83.77s0.07,0.75-.72.75-0.81,0-.88-0.81S381.37,238.6,382.2,238.6Z"/><path class="cls-23" d="M385.27,240.12c-0.76,0-.76,0-0.83-0.77a2.5,2.5,0,0,0,0-.33c-0.07-.34.06-0.47,0.38-0.42H385c1,0,1,0,1.09,1,0,0.42-.06.58-0.47,0.51A2.07,2.07,0,0,0,385.27,240.12Z"/><path class="cls-24" d="M407.11,287c-0.71,0-.71,0-0.77-0.66s-0.06-.71.65-0.71,0.74,0,.79.64S407.84,287,407.11,287Z"/><path class="cls-24" d="M465.28,298.21c-0.71,0-.71,0-0.68-0.8,0-.63,0-0.63.61-0.63,0.82,0,.82,0,0.78.73S466,298.21,465.28,298.21Z"/><path class="cls-24" d="M406.86,284.27c-0.69,0-.69,0-0.75-0.68s-0.06-.68.64-0.68,0.76,0,.82.75a0.69,0.69,0,0,0,0,.13c0.12,0.42-.05.57-0.46,0.49A1.49,1.49,0,0,0,406.86,284.27Z"/><path class="cls-21" d="M464.59,237c-0.83,0-.72.09-0.66-0.84s0-.69.86-0.7,0.67-.07.61,0.89C465.36,237,465.36,237,464.59,237Z"/><path class="cls-21" d="M460.16,244.41c0.81,0,.69-0.08.65,0.82s0,0.65-.84.65-0.64.07-.6-0.86C459.4,244.3,459.36,244.42,460.16,244.41Z"/><path class="cls-24" d="M401.37,272.9c0.06,0.67.06,0.67-.62,0.67s-0.72,0-.79-0.71-0.06-.65.6-0.65h0C401.32,272.21,401.31,272.21,401.37,272.9Z"/><path class="cls-23" d="M467.81,296.78c0.63,0,.63,0,0.58.82,0,0.61,0,.61-0.81.61-0.54,0-.55,0-0.5-0.87C467.13,296.68,467,296.79,467.81,296.78Z"/><path class="cls-24" d="M428.72,251.71c-0.71,0-.71,0-0.72-0.73s0-.7.69-0.7,0.73,0,.75.75S429.44,251.7,428.72,251.71Z"/><path class="cls-24" d="M421.05,254.55c-0.73,0-.73,0-0.76-0.83,0-.58,0-0.58.88-0.58,0.53,0,.53,0,0.56.9C421.75,254.55,421.75,254.55,421.05,254.55Z"/><path class="cls-24" d="M421.24,275.59c0,0.7,0,.7-0.64.7s-0.6,0-.64-0.68,0-.67.62-0.67S421.2,274.93,421.24,275.59Z"/><path class="cls-24" d="M412.78,248.17c0,0.69,0,.69-0.65.69s-0.68,0-.71-0.74,0-.71.67-0.71S412.74,247.4,412.78,248.17Z"/><path class="cls-24" d="M415.83,259.28c0,0.7,0,.7-0.64.7s-0.66,0-.69-0.67,0-.72.61-0.72S415.79,258.59,415.83,259.28Z"/><path class="cls-24" d="M414.36,256.64c0-.67,0-0.67.63-0.67s0.67,0,.7.71,0,0.69-.66.69S414.4,257.37,414.36,256.64Z"/><path class="cls-24" d="M409.54,289.18c0.06,0.69.06,0.69-.55,0.68s-0.57,0-.62-0.59c-0.07-.8-0.06-0.77.69-0.8,0.35,0,.49.09,0.46,0.45A1.63,1.63,0,0,0,409.54,289.18Z"/><path class="cls-23" d="M465.19,272.92a3.33,3.33,0,0,0,0-.37c0-.27.12-0.33,0.37-0.33,0.87,0,.88,0,0.82.83,0,0.17.11,0.46-.16,0.51a1.54,1.54,0,0,1-1,0A0.79,0.79,0,0,1,465.19,272.92Z"/><path class="cls-21" d="M468.17,248.12a0.74,0.74,0,0,1-.14.61,2.12,2.12,0,0,1-1,0,0.14,0.14,0,0,1-.13-0.15c0-.38,0-0.75.08-1.13a0.18,0.18,0,0,1,.21-0.15h0.27C468.34,247.34,468.22,247.24,468.17,248.12Z"/><path class="cls-21" d="M461.56,281.06a0.73,0.73,0,0,1-.11.58,1.58,1.58,0,0,1-.87,0,0.15,0.15,0,0,1-.11-0.1,3.87,3.87,0,0,1,.05-1.14c0-.15.21-0.11,0.33-0.11C461.72,280.32,461.58,280.26,461.56,281.06Z"/><path class="cls-23" d="M461.44,284a0.73,0.73,0,0,1-.11.59,1.07,1.07,0,0,1-.85,0c-0.34-.22-0.07-0.66-0.11-1,0-.12-0.05-0.31.17-0.33s0.5,0,.75,0,0.18,0.1.17,0.22S461.44,283.77,461.44,284Z"/><path class="cls-13" d="M472.92,309.15a0.85,0.85,0,0,1-.14.65,2.06,2.06,0,0,1-.85,0c-0.14,0-.11-0.15-0.1-0.25s0-.38,0-0.57c0.06-.78-0.05-0.67.62-0.68C473,308.33,473,308.33,472.92,309.15Z"/><path class="cls-21" d="M464,284a0.72,0.72,0,0,1-.12.58,1.6,1.6,0,0,1-.87,0,0.15,0.15,0,0,1-.13-0.19c0-.31,0-0.63,0-0.94a0.21,0.21,0,0,1,.25-0.23h0.13C464.13,283.24,464,283.17,464,284Z"/><path class="cls-24" d="M409.26,291.85c0.06,0.72.06,0.7-.65,0.72-0.31,0-.44-0.08-0.42-0.41a2.7,2.7,0,0,0,0-.39c-0.05-.61-0.05-0.61.51-0.6S409.21,291.17,409.26,291.85Z"/><path class="cls-24" d="M404,315c0.08,0.76-.12,1-0.76.77a0.22,0.22,0,0,1-.16-0.24l-0.06-.54c-0.08-.82,0-0.95.74-0.79a0.2,0.2,0,0,1,.18.22C404,314.62,404,314.82,404,315Z"/><path class="cls-25" d="M376.6,229.72a1.63,1.63,0,0,1-1.56,1.87,2,2,0,0,1-2-1.86,1.64,1.64,0,0,1,1.59-1.87A2,2,0,0,1,376.6,229.72Z"/><path class="cls-26" d="M366.66,227.86a2.07,2.07,0,0,1,1.94,1.88,1.62,1.62,0,0,1-1.62,1.85,2.05,2.05,0,0,1-1.92-1.88A1.63,1.63,0,0,1,366.66,227.86Z"/><path class="cls-27" d="M359.28,227.86a2.08,2.08,0,0,1,1.95,1.89,1.61,1.61,0,0,1-1.63,1.85,2.07,2.07,0,0,1-1.93-1.89A1.63,1.63,0,0,1,359.28,227.86Z"/><path class="cls-7" d="M371.37,365.42l-39.05.05c1.9-2.56,2.85-3.85,4.8-6.45l38.42,0Z"/><path class="cls-7" d="M355.87,354.92H340.19c2-2.63,3-4,5.06-6.67h15.56C358.8,351,357.81,352.29,355.87,354.92Z"/><path class="cls-7" d="M372.67,354.91h-14c1.92-2.63,2.9-4,4.89-6.66h13.62C375.36,351,374.45,352.28,372.67,354.91Z"/><path class="cls-7" d="M387.88,354.9H375.36c1.75-2.63,2.64-4,4.46-6.65h12Z"/><path class="cls-7" d="M401.53,354.89H390.16l3.82-6.64h10.7Z"/><path class="cls-7" d="M414.62,354.88H404.14l3-6.62h9.69Z"/><path class="cls-7" d="M426.46,354.87h-9.9c0.8-2.61,1.21-3.93,2-6.61h9.05C427.16,350.94,426.93,352.25,426.46,354.87Z"/><path class="cls-7" d="M438.06,354.85h-9.62c0.39-2.61.59-3.93,1-6.6h8.73C438.13,350.93,438.11,352.25,438.06,354.85Z"/><path class="cls-7" d="M449.51,354.84h-9.61c0-2.61,0-3.92-.05-6.59h8.73Z"/><path class="cls-7" d="M461.47,354.83h-9.9l-1.13-6.58h9.05Z"/><path class="cls-7" d="M473.88,354.82H463.41l-2.14-6.57H471Z"/><path class="cls-7" d="M487.44,354.81H476.1L473,348.26H483.7Z"/><path class="cls-7" d="M502.19,354.8H489.71l-3.86-6.55H497.8Z"/><path class="cls-7" d="M519.33,354.79h-14c-1.77-2.59-2.67-3.89-4.49-6.54h13.62C516.46,350.9,517.42,352.21,519.33,354.79Z"/><path class="cls-7" d="M537.83,354.78H522.15c-1.92-2.58-2.89-3.89-4.88-6.53h15.56C534.87,350.9,535.87,352.2,537.83,354.78Z"/><path class="cls-7" d="M406.63,365.37l-32.48.05,4.07-6.43,30.82,0Z"/><path class="cls-7" d="M438,365.31l-29.23.05,2.27-6.42,27.06,0C438.09,361.49,438.08,362.77,438,365.31Z"/><path class="cls-7" d="M469.15,365.26l-29.23.05c0-2.55,0-3.82-.05-6.4l27.06,0Z"/><path class="cls-7" d="M504.06,365.2l-32.52.05-2.38-6.38,30.86,0C501.65,361.4,502.46,362.67,504.06,365.2Z"/><path class="cls-7" d="M545.64,365.15l-39.05.05c-1.64-2.54-2.46-3.81-4.13-6.37l38.42,0C542.81,361.35,543.76,362.62,545.64,365.15Z"/><path class="cls-7" d="M356.63,373.39l-30.19,0,4.7-6.37L361,367Z"/><path class="cls-7" d="M385.77,373.34l-26.91,0,4.31-6.36,25.93,0Z"/><path class="cls-7" d="M412.34,373.29l-24.73,0,3.25-6.35,23.32,0Z"/><path class="cls-7" d="M437.54,373.24l-23.63,0,1.74-6.35,22,0C437.62,369.44,437.6,370.71,437.54,373.24Z"/><path class="cls-7" d="M463,373.19l-23.61,0c0-2.53,0-3.8,0-6.34l22,0C462,369.4,462.36,370.66,463,373.19Z"/><path class="cls-7" d="M489.4,373.14l-24.67,0c-0.69-2.53-1-3.79-1.74-6.33l23.26,0C487.51,369.35,488.14,370.61,489.4,373.14Z"/><path class="cls-7" d="M518.77,373.09l-26.88,0c-1.3-2.53-2-3.79-3.27-6.33l25.9,0C516.23,369.3,517.08,370.56,518.77,373.09Z"/><path class="cls-7" d="M551.46,373l-30.19,0c-1.72-2.53-2.58-3.79-4.31-6.32l29.86,0C548.69,369.26,549.61,370.52,551.46,373Z"/><path class="cls-7" d="M360.89,381.67l-40.56.06,4.68-6.35,40-.06Z"/><path class="cls-7" d="M391.07,381.62l-27.16,0,4-6.35,26,0Z"/><path class="cls-7" d="M418.8,381.57l-25.84,0,2.78-6.35,24.37,0Z"/><path class="cls-7" d="M445.76,381.52l-25.29,0c0.49-2.55.73-3.82,1.21-6.35l23.68,0C445.53,377.7,445.61,379,445.76,381.52Z"/><path class="cls-7" d="M471.29,381.47l-23.35,0c-0.21-2.55-.32-3.82-0.54-6.35l21.92,0C470.12,377.65,470.51,378.92,471.29,381.47Z"/><path class="cls-7" d="M497.13,381.42l-24.14,0c-0.82-2.55-1.23-3.82-2.06-6.35l22.92,0C495.17,377.6,495.82,378.87,497.13,381.42Z"/><path class="cls-7" d="M524.27,381.38l-25.52,0c-1.34-2.55-2-3.82-3.35-6.35l24.66,0C521.75,377.56,522.59,378.82,524.27,381.38Z"/><path class="cls-7" d="M381.76,398.22l-28.34,0,4.18-6.58,27.26,0Z"/><path class="cls-7" d="M411.72,398.2l-27.94,0,3-6.59,26.54,0C412.69,394.21,412.37,395.52,411.72,398.2Z"/><path class="cls-7" d="M441.3,398.18l-27.76,0c0.61-2.68.91-4,1.5-6.61l26.21,0C441.28,394.17,441.28,395.49,441.3,398.18Z"/><path class="cls-7" d="M469.13,398.15l-25.44,0c-0.07-2.68-.1-4-0.18-6.62l24,0C468.18,394.14,468.5,395.47,469.13,398.15Z"/><path class="cls-7" d="M496.59,398.13l-25.63,0c-0.67-2.69-1-4-1.68-6.63l24.38,0C494.83,394.11,495.41,395.44,496.59,398.13Z"/><path class="cls-7" d="M524.26,398.11l-26,0c-1.21-2.69-1.81-4-3-6.64l25,0C521.86,394.08,522.65,395.41,524.26,398.11Z"/><path class="cls-7" d="M566.63,394.2l-31.29,0c-5.17-7.91-7.67-11.67-12.76-19.21l30.29,0C558.35,382.51,561,386.27,566.63,394.2Z"/><path class="cls-7" d="M345.44,389.7l-31,0,4.75-6.42,30.7,0Z"/><path class="cls-7" d="M377.21,389.66l-29.39,0,4.36-6.42,28.41,0Z"/><path class="cls-7" d="M407.58,389.61l-28.3,0,3.29-6.43,26.9,0Z"/><path class="cls-7" d="M437.16,389.57l-27.75,0c0.72-2.6,1.08-3.88,1.79-6.44l26.13,0C437.27,385.69,437.23,387,437.16,389.57Z"/><path class="cls-7" d="M467.09,389.53l-27.74,0c0-2.6,0-3.89,0-6.44l26.12,0C466.14,385.64,466.45,386.93,467.09,389.53Z"/><path class="cls-7" d="M497.37,389.48l-28.28,0c-0.68-2.6-1-3.89-1.7-6.45l26.86,0C495.5,385.59,496.12,386.88,497.37,389.48Z"/><path class="cls-7" d="M529.55,389.44l-29.38,0c-1.3-2.61-1.94-3.9-3.24-6.46l28.4,0C527,385.54,527.85,386.83,529.55,389.44Z"/><path class="cls-7" d="M563.23,389.4l-31,0c-1.72-2.61-2.57-3.9-4.28-6.46l30.7,0C560.45,385.49,561.38,386.78,563.23,389.4Z"/><path class="cls-7" d="M350.15,398.25l-42.14,0c2-2.65,3-4,4.92-6.56l41.5-.05Z"/><path class="cls-7" d="M569.37,398.07l-42.14,0c-1.64-2.7-2.45-4-4.07-6.66l41.5-.05Z"/><path class="cls-7" d="M333.61,406.72h-32c2.11-2.75,3.14-4.1,5.16-6.77l31.61,0C336.5,402.6,335.55,404,333.61,406.72Z"/><path class="cls-7" d="M368.16,406.72h-32c1.91-2.76,2.85-4.12,4.69-6.79l31,0C370.37,402.59,369.64,403.95,368.16,406.72Z"/><path class="cls-7" d="M504.1,406.72H370.46c1.44-2.77,2.15-4.13,3.54-6.82l127-.08C502.2,402.53,502.83,403.91,504.1,406.72Z"/><path class="cls-7" d="M540.6,406.72h-32c-1.34-2.81-2-4.19-3.33-6.9l31,0C537.94,402.52,538.82,403.9,540.6,406.72Z"/><path class="cls-7" d="M575.43,406.72h-32c-1.81-2.82-2.69-4.2-4.46-6.93l31.61,0Z"/><path class="cls-17" d="M371.37,364.82l-39.05.05c1.9-2.56,2.85-3.85,4.8-6.45l38.42,0Z"/><path class="cls-17" d="M355.87,354.32H340.19c2-2.63,3-4,5.06-6.67h15.56C358.8,350.36,357.81,351.69,355.87,354.32Z"/><path class="cls-17" d="M372.67,354.31h-14c1.92-2.63,2.9-4,4.89-6.66h13.62C375.36,350.36,374.45,351.68,372.67,354.31Z"/><path class="cls-17" d="M387.88,354.3H375.36c1.75-2.63,2.64-4,4.46-6.65h12C390.21,350.35,389.43,351.68,387.88,354.3Z"/><path class="cls-17" d="M401.53,354.29H390.16l3.82-6.64h10.7Z"/><path class="cls-17" d="M414.62,354.28H404.14l3-6.62h9.69Z"/><path class="cls-17" d="M426.46,354.27h-9.9l2-6.61h9.05C427.16,350.34,426.93,351.66,426.46,354.27Z"/><path class="cls-17" d="M438.06,354.26h-9.62c0.39-2.61.59-3.93,1-6.6h8.73C438.13,350.33,438.11,351.65,438.06,354.26Z"/><path class="cls-17" d="M449.51,354.25h-9.61c0-2.61,0-3.92-.05-6.59h8.73Z"/><path class="cls-17" d="M461.47,354.24h-9.9l-1.13-6.58h9.05Z"/><path class="cls-17" d="M473.88,354.23H463.41l-2.14-6.57H471Z"/><path class="cls-17" d="M487.44,354.21H476.1L473,347.66H483.7Z"/><path class="cls-17" d="M502.19,354.2H489.71l-3.86-6.55H497.8Z"/><path class="cls-17" d="M519.33,354.19h-14c-1.77-2.59-2.67-3.89-4.49-6.54h13.62C516.46,350.31,517.42,351.61,519.33,354.19Z"/><path class="cls-17" d="M537.83,354.18H522.15c-1.92-2.58-2.89-3.89-4.88-6.53h15.56C534.87,350.3,535.87,351.6,537.83,354.18Z"/><path class="cls-17" d="M406.63,364.77l-32.48.05,4.07-6.43,30.82,0Z"/><path class="cls-17" d="M438,364.72l-29.23.05,2.27-6.42,27.06,0C438.09,360.89,438.08,362.17,438,364.72Z"/><path class="cls-17" d="M469.15,364.66l-29.23.05c0-2.55,0-3.82-.05-6.4l27.06,0Z"/><path class="cls-17" d="M504.06,364.61l-32.52.05-2.38-6.38,30.86,0C501.65,360.8,502.46,362.07,504.06,364.61Z"/><path class="cls-17" d="M545.64,364.55l-39.05.05c-1.64-2.54-2.46-3.81-4.13-6.37l38.42,0C542.81,360.75,543.76,362,545.64,364.55Z"/><path class="cls-17" d="M356.63,372.79l-30.19,0,4.7-6.37,29.86,0Z"/><path class="cls-17" d="M385.77,372.74l-26.91,0,4.31-6.36,25.93,0Z"/><path class="cls-17" d="M412.34,372.69l-24.73,0,3.25-6.35,23.32,0Z"/><path class="cls-17" d="M437.54,372.64l-23.63,0,1.74-6.35,22,0C437.62,368.85,437.6,370.11,437.54,372.64Z"/><path class="cls-17" d="M463,372.6l-23.61,0c0-2.53,0-3.8,0-6.34l22,0C462,368.8,462.36,370.06,463,372.6Z"/><path class="cls-17" d="M489.4,372.55l-24.67,0c-0.69-2.53-1-3.79-1.74-6.33l23.26,0C487.51,368.75,488.14,370,489.4,372.55Z"/><path class="cls-17" d="M518.77,372.5l-26.88,0c-1.3-2.53-2-3.79-3.27-6.33l25.9,0C516.23,368.71,517.08,370,518.77,372.5Z"/><path class="cls-17" d="M551.46,372.45l-30.19,0c-1.72-2.53-2.58-3.79-4.31-6.32l29.86,0C548.69,368.66,549.61,369.92,551.46,372.45Z"/><path class="cls-17" d="M360.89,381.07l-40.56.06,4.68-6.35,40-.06Z"/><path class="cls-17" d="M391.07,381l-27.16,0,4-6.35,26,0Z"/><path class="cls-17" d="M418.8,381L393,381l2.78-6.35,24.37,0Z"/><path class="cls-17" d="M445.76,380.92l-25.29,0c0.49-2.55.73-3.82,1.21-6.35l23.68,0C445.53,377.1,445.61,378.37,445.76,380.92Z"/><path class="cls-17" d="M471.29,380.87l-23.35,0c-0.21-2.55-.32-3.82-0.54-6.35l21.92,0C470.12,377.05,470.51,378.32,471.29,380.87Z"/><path class="cls-17" d="M497.13,380.83l-24.14,0c-0.82-2.55-1.23-3.82-2.06-6.35l22.92,0C495.17,377,495.82,378.27,497.13,380.83Z"/><path class="cls-17" d="M524.27,380.78l-25.52,0c-1.34-2.55-2-3.82-3.35-6.35l24.66,0C521.75,377,522.59,378.23,524.27,380.78Z"/><path class="cls-17" d="M381.76,397.63l-28.34,0,4.18-6.58,27.26,0Z"/><path class="cls-17" d="M411.72,397.6l-27.94,0,3-6.59,26.54,0C412.69,393.61,412.37,394.93,411.72,397.6Z"/><path class="cls-17" d="M441.3,397.58l-27.76,0c0.61-2.68.91-4,1.5-6.61l26.21,0C441.28,393.58,441.28,394.9,441.3,397.58Z"/><path class="cls-17" d="M469.13,397.56l-25.44,0c-0.07-2.68-.1-4-0.18-6.62l24,0C468.18,393.55,468.5,394.87,469.13,397.56Z"/><path class="cls-17" d="M496.59,397.53l-25.63,0c-0.67-2.69-1-4-1.68-6.63l24.38,0C494.83,393.51,495.41,394.84,496.59,397.53Z"/><path class="cls-17" d="M524.26,397.51l-26,0c-1.21-2.69-1.81-4-3-6.64l25,0C521.86,393.48,522.65,394.81,524.26,397.51Z"/><path class="cls-17" d="M566.63,393.6l-31.29,0c-5.17-7.91-7.67-11.67-12.76-19.21l30.29,0C558.35,381.91,561,385.67,566.63,393.6Z"/><path class="cls-17" d="M345.44,389.1l-31,0,4.75-6.42,30.7,0Z"/><path class="cls-17" d="M377.21,389.06l-29.39,0,4.36-6.42,28.41,0Z"/><path class="cls-17" d="M407.58,389l-28.3,0,3.29-6.43,26.9,0Z"/><path class="cls-17" d="M437.16,389l-27.75,0c0.72-2.6,1.08-3.88,1.79-6.44l26.13,0C437.27,385.09,437.23,386.38,437.16,389Z"/><path class="cls-17" d="M467.09,388.93l-27.74,0c0-2.6,0-3.89,0-6.44l26.12,0C466.14,385,466.45,386.33,467.09,388.93Z"/><path class="cls-17" d="M497.37,388.89l-28.28,0c-0.68-2.6-1-3.89-1.7-6.45l26.86,0C495.5,385,496.12,386.28,497.37,388.89Z"/><path class="cls-17" d="M529.55,388.84l-29.38,0c-1.3-2.61-1.94-3.9-3.24-6.46l28.4,0C527,384.94,527.85,386.23,529.55,388.84Z"/><path class="cls-17" d="M563.23,388.8l-31,0c-1.72-2.61-2.57-3.9-4.28-6.46l30.7,0C560.45,384.89,561.38,386.18,563.23,388.8Z"/><path class="cls-17" d="M350.15,397.65l-42.14,0c2-2.65,3-4,4.92-6.56l41.5-.05Z"/><path class="cls-17" d="M569.37,397.48l-42.14,0c-1.64-2.7-2.45-4-4.07-6.66l41.5-.05Z"/><path class="cls-17" d="M333.61,406.12h-32c2.11-2.75,3.14-4.1,5.16-6.77l31.61,0C336.5,402,335.55,403.36,333.61,406.12Z"/><path class="cls-17" d="M368.16,406.12h-32c1.91-2.76,2.85-4.12,4.69-6.79l31,0C370.37,402,369.64,403.35,368.16,406.12Z"/><path class="cls-17" d="M504.1,406.12H370.46c1.44-2.77,2.15-4.13,3.54-6.82l127-.08C502.2,401.94,502.83,403.31,504.1,406.12Z"/><path class="cls-17" d="M540.6,406.12h-32c-1.34-2.81-2-4.19-3.33-6.9l31,0C537.94,401.92,538.82,403.3,540.6,406.12Z"/><path class="cls-17" d="M575.43,406.12h-32c-1.81-2.82-2.69-4.2-4.46-6.93l31.61,0Z"/><path class="cls-20" d="M518.54,231.36l2.1,1.37-9.35,84-146.15-.33-9-81.57,162.4-3.48m0.34-1.2-164.08,3.52,9.26,83.93,148.29,0.33,9.55-85.82-3-2h0Z"/><polygon class="cls-18" points="434.01 207 435.39 207 550.45 207 550.89 203.61 438.63 203.61 437.56 203.61 325.29 203.61 325.74 207 434.01 207"/><g class="cls-28"><polygon class="cls-7" points="544.4 344.29 331.78 344.29 584.2 415.08 602.72 415.08 544.4 344.29"/></g><polygon class="cls-9" points="603.71 117.51 598.09 116.86 596.74 131.05 610.08 179.64 652.3 163.51 642.32 122.22 603.71 117.51"/><polygon class="cls-9" points="588.57 211.57 586.03 219.94 586.59 269.19 631.47 268.89 627.82 223.83 589.17 217.7 588.57 211.57"/><polygon class="cls-29" points="640.33 128.34 642.32 122.22 642.59 111.64 598.09 116.86 598.09 130.53 639.78 135.98 640.33 128.34"/><path class="cls-3" d="M662.55,152.36a60.5,60.5,0,0,1-12.64-13.54c-3.83-5.67-7.58-16.59-7.58-16.59l-32.48,6.1-11.76,2.21s1.1,2.68,2.85,6.69c3.78,8.67,10.59,23.55,15.82,30.87C627.73,168.88,657.38,157.33,662.55,152.36Z"/><g class="cls-6"><polygon class="cls-29" points="600.63 136.46 611.97 128.05 616.39 120.9 604 116.17 593.46 117.49 595.15 125.28 600.63 136.46"/></g><path class="cls-29" d="M641,162.11c9.32-3.26,18.21-7.4,20.75-9.84a56.39,56.39,0,0,1-11.4-12.09A102.32,102.32,0,0,1,641,162.11Z"/><path class="cls-3" d="M534.79,112.88l-0.92,4.61s10.15,16,14.39,20.71C552.66,143,568.2,155,568.2,155s9.35-3.51,21.67-12.78C606.78,129.53,610.22,123,610.22,123s-10.36-1.69-19.32-15.17c-2.78-4.17-9.05-14.62-9.05-14.62Z"/><polygon class="cls-29" points="529.18 107.48 578.93 84.14 581.85 93.17 533.87 117.49 529.18 107.48"/><polygon class="cls-29" points="588.57 211.57 629.76 216.34 629.01 223.83 587.23 219.94 588.57 211.57"/><path class="cls-3" d="M641,262.76s-8-14.47-9.6-19.72c-1.38-4.64-2.44-19.21-2.44-19.21l-41.78-3.89s0.13,17.11,1.28,22.67c1,4.62,6.49,17.74,6.49,17.74Z"/><g class="cls-30"><path class="cls-29" d="M631.45,243c-1.38-4.64-2.44-19.21-2.44-19.21l-41.78-3.89S633,248.3,631.45,243Z"/></g><path class="cls-29" d="M548.26,138.19C552.66,143,568.2,155,568.2,155s8.46-3.18,19.88-11.47Z"/><path class="cls-3" d="M609.91,298.21L614.1,295c3-2.3,3.81-5.67,2.06-8.57L614,282.87a5.36,5.36,0,0,1,.77-6.59l6.41-7.09-10.66,6.45c-3.27,2-4.34,5.3-2.63,8.13l2.69,4.44a5.93,5.93,0,0,1,.73,4.64Z"/><path class="cls-3" d="M618.61,293.75l2.6-2.45a5.53,5.53,0,0,0,1.28-6.54L621.16,282a4.81,4.81,0,0,1,.48-5l4-5.41L619,276.53a4.93,4.93,0,0,0-1.63,6.2l1.67,3.39a5.42,5.42,0,0,1,.45,3.54Z"/></g></g></svg>