<svg id="Layer_1" data-name="Layer 1" xmlns="http://www.w3.org/2000/svg" viewBox="0 0 795.83 153.51"><title>logo</title><rect x="475.32" y="101.04" width="38.52" height="29.03" fill="#AFB7D0"/><polygon points="549.92 22.75 549.92 100.75 522.92 100.75 522.92 129.75 542.5 129.75 544.73 129.75 579.52 129.75 587.92 117.42 587.92 76.48 587.92 22.75 549.92 22.75" fill="#AFB7D0"/><polygon points="176.68 22.75 136.48 22.75 120.92 54.54 120.92 22.75 80.92 22.75 80.92 129.75 120.92 129.75 120.92 98.42 136.48 129.75 176.68 129.75 148.95 76.25 176.68 22.75" fill="#AFB7D0"/><polygon points="768.11 22.75 736.85 22.75 764.57 76.25 736.85 129.75 768.11 129.75 795.83 76.25 768.11 22.75" fill="#AFB7D0"/><polygon points="27.73 129.75 58.98 129.75 31.26 76.25 58.98 22.75 27.73 22.75 0 76.25 27.73 129.75" fill="#AFB7D0"/><polygon points="730.75 0 701.73 0 668.23 153.51 697.26 153.51 730.75 0" fill="#AFB7D0"/><polygon points="677.37 51.76 683.64 22.75 632.46 22.75 603.15 22.75 593.92 22.75 593.92 129.75 603.15 129.75 632.46 129.75 660.28 129.75 666.56 100.75 631.92 100.75 631.92 91.75 668.78 91.75 675.6 60.76 631.92 60.76 631.92 51.76 677.37 51.76" fill="#AFB7D0"/><path d="M576.59,303.71" transform="translate(-302.08 -273.24)" fill="#AFB7D0"/><path d="M565.9,296H487.69L481,309.08v80.84L487.63,403h78.21L573,390.36V309.53ZM535,374H519V325h16v49Z" transform="translate(-302.08 -273.24)" fill="#AFB7D0"/><path d="M664.14,296H579V403h85.09L671,390.36V309.53ZM633,374H617V325h16v49Z" transform="translate(-302.08 -273.24)" fill="#AFB7D0"/><polygon points="460.31 22.75 458.94 22.75 428.92 22.75 428.92 51.91 428.92 79.08 428.92 79.45 428.92 100.75 413.92 100.75 413.92 79.45 413.92 79.08 413.92 51.91 413.92 22.75 382.67 22.75 382.1 22.75 375.92 22.75 375.92 35.84 375.92 49.68 375.92 76.48 375.92 79.08 375.92 103.27 375.92 116.67 382.04 129.75 383.41 129.75 418.2 129.75 420.43 129.75 459.69 129.75 460.25 129.75 466.92 117.12 466.92 103.27 466.92 79.08 466.92 76.48 466.92 49.68 466.92 36.28 466.92 22.75 460.31 22.75" fill="#AFB7D0"/></svg>
