<?xml version="1.0" encoding="utf-8"?>
<!-- Generator: Adobe Illustrator 21.1.0, SVG Export Plug-In . SVG Version: 6.00 Build 0)  -->
<svg version="1.1" xmlns="http://www.w3.org/2000/svg" xmlns:xlink="http://www.w3.org/1999/xlink" x="0px" y="0px"
	 viewBox="0 0 729 464.5" style="enable-background:new 0 0 729 464.5;" xml:space="preserve">
<style type="text/css">
	.st0{display:none;}
	.st1{fill:#0A9575;}
	.st2{fill:#098A6A;}
	.st3{fill:#9194D4;}
	.st4{fill:#E8B62C;}
	.st5{fill:#8487C1;}
	.st6{fill:#7678B8;}
	.st7{fill:#CCCCCC;}
	.st8{clip-path:url(#SVGID_2_);fill:#FBCFA5;}
	.st9{fill:#E6E6E6;stroke:#CCCCCC;stroke-width:0.25;stroke-miterlimit:10;}
	.st10{fill:#C7C5C5;}
	.st11{fill:#4DC0B6;}
	.st12{fill:#1D9763;}
	.st13{fill:#CCAB2D;}
	.st14{fill:#E7D71B;}
	.st15{fill:#16375D;}
	.st16{fill:#C2802B;}
	.st17{fill:#57BD8F;}
	.st18{fill:#1C929B;}
	.st19{fill:#E0336B;}
	.st20{fill:#B9204D;}
	.st21{fill:#267B8E;}
	.st22{fill:#FAAB1D;}
	.st23{fill:#217E67;}
	.st24{fill:#BE3629;}
	.st25{fill:#41BFBA;}
	.st26{fill:#666B84;}
	.st27{fill:#0F577E;}
	.st28{fill:#DE262C;}
	.st29{fill:#BC5E29;}
	.st30{fill:#176F53;}
	.st31{fill:#41BA9C;}
	.st32{fill:#797286;}
	.st33{fill:#C97685;}
	.st34{fill:#DF6842;}
	.st35{fill:#54B97A;}
	.st36{fill:#F27337;}
	.st37{fill:#1B534F;}
	.st38{fill:#1F9480;}
	.st39{fill:#2F4590;}
	.st40{fill:#ECD226;}
	.st41{fill:#EE4231;}
	.st42{fill:#FAAA1E;}
	.st43{fill:#1F8BB0;}
	.st44{fill:#3ABFC8;}
	.st45{fill:#AED147;}
	.st46{fill:#2BBAAF;}
	.st47{fill:#196F7F;}
	.st48{fill:#E63B7F;}
	.st49{fill:#299192;}
	.st50{fill:#34AC94;}
	.st51{fill:#617B3F;}
	.st52{fill:#1C7488;}
	.st53{fill:#C9C8C8;}
	.st54{fill:#18A1B8;}
	.st55{fill:#25825D;}
	.st56{fill:#456E83;}
	.st57{fill:#EE412A;}
	.st58{fill:#FDCE21;}
	.st59{fill:#B54E31;}
	.st60{fill:#E8A323;}
	.st61{fill:#227FA4;}
	.st62{fill:#BDD094;}
	.st63{fill:#70BC9C;}
	.st64{fill:#A396A6;}
	.st65{fill:#D7883A;}
	.st66{fill:#E7DE5A;}
	.st67{fill:#88414C;}
	.st68{fill:#69A54C;}
	.st69{fill:#727576;}
	.st70{fill:#AB5B33;}
	.st71{fill:#F9A626;}
	.st72{fill:#888A8B;}
	.st73{fill:#6D5345;}
	.st74{fill:#408C94;}
	.st75{fill:#5F6163;}
	.st76{fill:#55585A;}
	.st77{fill:#545759;}
	.st78{fill:#F27031;}
	.st79{fill:#545859;}
	.st80{fill:#8E8F91;}
	.st81{fill:#B9B9BA;}
	.st82{fill:#4F5254;}
	.st83{fill:#5E6061;}
	.st84{fill:#DADBDB;}
	.st85{fill:#222628;}
	.st86{fill:#717374;}
	.st87{fill:#1C6074;}
	.st88{fill:#B3B4B5;}
	.st89{fill:#606264;}
	.st90{fill:#1C627A;}
	.st91{fill:#646768;}
	.st92{fill:#535556;}
	.st93{fill:#494C4E;}
	.st94{fill:#767879;}
	.st95{fill:#6B6D6E;}
	.st96{fill:#495A62;}
	.st97{fill:#535657;}
	.st98{fill:#4F5355;}
	.st99{fill:#525456;}
	.st100{fill:#474A4C;}
	.st101{fill:#35A17D;}
	.st102{fill:#414446;}
	.st103{fill:#646668;}
	.st104{fill:#595C5D;}
	.st105{fill:#3E4143;}
	.st106{fill:#414345;}
	.st107{fill:#7C7E80;}
	.st108{fill:#747677;}
	.st109{fill:#848587;}
	.st110{fill:#656769;}
	.st111{fill:#B5B6B6;}
	.st112{fill:#484A4B;}
	.st113{fill:#5A5C5E;}
	.st114{fill:#67696A;}
	.st115{fill:#45484A;}
	.st116{fill:#E5E5E4;}
	.st117{fill:#3B3D3F;}
	.st118{fill:#3C3F41;}
	.st119{fill:#797B7C;}
	.st120{fill:#323537;}
	.st121{fill:#3E7A52;}
	.st122{fill:#93415B;}
	.st123{fill:#4B4F51;}
	.st124{fill:#21A9A3;}
	.st125{fill:#A6CACF;}
	.st126{fill:#1F89A4;}
	.st127{fill:#2CB286;}
	.st128{fill:#C2DED4;}
	.st129{fill:#3CB574;}
	.st130{fill:#21AA6D;}
	.st131{fill:#A5CEBE;}
	.st132{fill:#DDC125;}
	.st133{fill:#D3962A;}
	.st134{fill:#BDCABB;}
	.st135{fill:#C2BE4A;}
	.st136{fill:#252C64;}
	.st137{fill:#176F8F;}
	.st138{fill:#D9517B;}
	.st139{fill:#D02651;}
	.st140{fill:#C34266;}
	.st141{fill:#CE8A96;}
	.st142{fill:#56A581;}
	.st143{fill:#113254;}
	.st144{fill:#273371;}
	.st145{fill:#BDC1C4;}
	.st146{fill:#6E6F73;}
	.st147{fill:#CC9DAA;}
	.st148{fill:#2A2F74;}
	.st149{fill:#1F5795;}
	.st150{fill:#D6D6D6;}
	.st151{fill:#DFDFDE;}
	.st152{fill:#9098B5;}
	.st153{fill:#BADBCB;}
	.st154{fill:#090C1D;}
	.st155{fill:#FBCFA5;}
	.st156{fill:#E6E6E6;}
	.st157{fill:#6C6D9F;}
	.st158{fill:#F4B405;}
	.st159{fill:#F8B277;}
	.st160{clip-path:url(#SVGID_4_);fill:#E8B62C;}
	.st161{fill:none;stroke:#8487C1;stroke-width:5.2294;stroke-miterlimit:10;}
	.st162{fill:#6E6981;}
	.st163{fill:none;stroke:#6E6981;stroke-width:3.1866;stroke-miterlimit:10;}
	.st164{fill:#20AE88;}
	.st165{fill:#F7CD45;}
	.st166{fill:#E6E6E6;stroke:#CCCCCC;stroke-width:0.2069;stroke-miterlimit:10;}
	.st167{fill:#F2F2F2;}
	.st168{fill:none;stroke:#CCCCCC;stroke-width:0.2069;stroke-miterlimit:10;}
	.st169{fill:none;stroke:#CCCCCC;stroke-miterlimit:10;}
	.st170{fill:#E0E0E0;}
	.st171{fill:#B3B3B3;}
	.st172{display:inline;fill:none;stroke:#8487C1;stroke-miterlimit:10;}
	.st173{display:inline;fill:none;stroke:#8487C1;stroke-width:0.5;stroke-miterlimit:10;}
	.st174{display:inline;fill:none;stroke:#CCCCCC;stroke-width:0.25;stroke-miterlimit:10;}
</style>
<g id="Warstwa_1" class="st0">
	
		<image style="display:inline;overflow:visible;" width="1920" height="1080" xlink:href="7DCE888E.jpg"  transform="matrix(1 0 0 1 -901.5934 -217)">
	</image>
</g>
<g id="Warstwa_3">
	<path class="st1" d="M435.5,221.2c33.2-8.7,67-15.9,101.9-2.2c22.3,8.8,75.3,31.1,33.9,107.6c-41.3,76.5-91.5,77.7-91.5,77.7
		l-114.1-15.9L435.5,221.2"/>
	<path class="st2" d="M430,220.4c33.2-8.7,67-25.4,102-11.7c22.3,8.8,75.2,40.6,33.9,117.1c-41.3,76.5-85,86-85,86l-120.5-24.2
		L430,220.4"/>
	<path class="st1" d="M494.7,229.8c-35-13.7-28-16-61.2-7.3l0,0c0,0-20.8,69.5-83.3,156.1c-18,24.9,140.5-1.4,140.5-1.4
		s6.1-1.3,47.4-77.8C579.4,223,517,238.6,494.7,229.8z"/>
	<path class="st2" d="M558.9,246.8c-21.4-5.5-35.3,7.7-38.6,14.2c-3.3,6.5-10,25.5-13,31c-3,5.5-34.6,58-34.3,63.7
		c0.4,5.7-7,34.2-7,34.2l-30.8-6l27-119.5l61-41L558.9,246.8z"/>
	<path class="st3" d="M13.9,387.4c-3-21.9-0.8-44.3,7.2-64.9c15.4-39.6,53.2-78.2,113.7-91.8c46-10.4,108.1-22.5,145.5-22.2
		c15.8,0.2,16,28.9,6.1,41.3c-16,20-26.5,48.2,1.4,76.9c129,133,434.8,36.9,434.8,137.9H22.4L13.9,387.4z"/>
	<path class="st4" d="M312.4,337l60,58l75.7,6.1c0,0,13.5-13.6,13.7-36.4c0.1-14.1-70.4-25.7-103.3-27.7
		C330.2,335.3,312.4,337,312.4,337z"/>
	<path class="st5" d="M15.8,371.3c-3-21.9-0.8-44.3,7.2-64.9c15.4-39.6,53.2-78.2,113.7-91.8c46-10.4,99.3-12.2,136.7-11.8
		c15.8,0.2,24.7,18.5,14.9,30.9c-16,20-26.5,48.2,1.4,76.9c129,133,433,53,433,154h-694L15.8,371.3z"/>
	<path class="st6" d="M218.6,291.8c6.3,3.2,13.5,3.9,20.5,4.8s37.7-4.8,37.7-4.8l-3.8-11.2l-51.9,4.1L218.6,291.8z"/>
	<path class="st7" d="M255.2,292h-34.9c-3.5,0-6.3-2.8-6.3-6.3v-4.6c0-3.5,2.8-6.3,6.3-6.3h34.9c3.5,0,6.3,2.8,6.3,6.3v4.6
		C261.5,289.2,258.7,292,255.2,292z"/>
	<g>
		<defs>
			<path id="SVGID_1_" d="M408.3,206l-0.8-8.3c-34.2-0.1-26.1,29.4-60.1,61.9c-11.2-1-33.7,9.4-64.1,15.4
				c-6.7,1.3-13.1,1.4-19.1,1.4c-9.6-7.6-14.5-8.6-19.7-9.8c-4.4-1-15.8,1.7-20.8,3c-2.2,0.6-4,2.3-4.5,4.5c-0.1,0.3-0.1,0.7-0.1,1
				c0,0.3,11.8-0.1,11.8,0.2c-3,0.4-12.2,2.6-12,3.5c0.5,1.7,1.1,3.1,2.9,3.5c5.5,1.5,16.8-5.4,23.3,0.2c0.5,0.5,2.2,1,2.2,1
				s4.4,3.6-1.1,5.9c-5.3,2.2-11.1-0.7-15.3-0.2c-1.1,0.1-2.2,3.1-1.3,3.7c3,1.9,8.8,4.2,17.6,2.4c10.5-2.1,17-4.8,20.3-6.2
				c5,0.7,13,0.3,20,0.4c19.1,0.1,47.2-0.5,51.8-1.1c7.9-1,17.3,0.1,21.6-3c14.6-14.3,37.4-29.4,47-42.2
				C414.4,233.8,408.3,206,408.3,206z"/>
		</defs>
		<use xlink:href="#SVGID_1_"  style="overflow:visible;fill:#F8B277;"/>
		<clipPath id="SVGID_2_">
			<use xlink:href="#SVGID_1_"  style="overflow:visible;"/>
		</clipPath>
		<path class="st8" d="M389.2,195.5c-14.3,7.2-23.8,37-28,43.3s-19,17.8-13.8,20.8s2.5,5.6,11.9,3.4c9.4-2.3,12.6-4.1,17.1-13.1
			c5.7-11.3,13.1-23.3,19.4-27.8c6.4-4.5,13.2-14.4,10.3-19.6C403.3,197.2,403.7,188.3,389.2,195.5z"/>
		<path class="st8" d="M360.8,260c0.3,3.4-15.1,7-31.1,11.4c-44.4,12.1-74.9,13.8-76.5,11.7c-2-2.7,60.7-25.5,77.3-26.8
			S360.5,256.6,360.8,260z"/>
		<path class="st8" d="M219.4,278.8c-0.9,0.7,1.1,3.2,3.3,2.8c2.3-0.4,12.7-1.8,16.6-3c3.9-1.2,0.5-5.1,0.5-5.1
			S221.1,277.5,219.4,278.8z"/>
	</g>
	<polyline class="st6" points="134.2,341.7 133.8,348.2 120.8,379.9 211.5,374.6 133.8,333.4 134.2,341.7 	"/>
	<polygon class="st6" points="250.5,434.4 261.9,428.8 290.1,380.3 268.5,380.1 	"/>
	<g>
		<polygon class="st9" points="225.1,360.3 186.7,405.2 251.6,415.5 277.2,366.9 		"/>
		<g>
			<path class="st10" d="M187.3,405.2c1.9,0.5,3.8,0.7,5.8,1c2.5,0.4,4.9,0.7,7.4,1.1c2.9,0.4,5.9,0.9,8.8,1.3
				c2.6,0.4,5.2,0.8,7.9,1.2c3,0.5,6,0.9,9,1.4c1.8,0.3,3.6,0.6,5.4,0.8c3.3,0.5,6.6,1,9.9,1.6c3,0.5,6,0.9,8.9,1.4
				c0.5,0.1,0.9,0.1,1.4,0.1c0.4,0.4,0.4,0.9,0.4,1.5c0,0.9-0.1,1.9,0.1,2.8c0.1,3.1,0.4,6.2,0.3,9.3c0.1,1,0,1.9-0.1,3
				c-0.2,1-0.7,1.5-1.8,1.3c-4.1-0.7-8.2-1.3-12.3-2c-4.6-0.7-9.2-1.4-13.8-2.1c-3.6-0.6-7.2-1.2-10.8-1.7
				c-3.7-0.6-7.5-1.1-11.2-1.7c-3.2-0.5-6.3-1-9.5-1.5c-2-0.3-4-0.6-6-0.9c0-0.4,0-0.8,0-1.2c0.3-0.6,0.6-1.1,1.1-1.5
				c0.2-0.2,0.4-0.5,0.8-0.2c0.2,0.3,0.1,0.6,0,0.9c-0.3,0.8,0.1,1.1,0.8,1.2c6.6,1,13.3,2,19.9,3c9.9,1.5,19.7,3,29.6,4.5
				c3.2,0.5,6.5,1,9.7,1.5c1.3,0.2,1.4,0.1,1.6-1.1c0.5-3.3,0.8-6.7,0.4-10.1c-0.1-0.8,0-1.5-0.1-2.3c-0.1-0.9-0.4-1.3-1.3-1.4
				c-5.3-0.8-10.6-1.6-15.9-2.5c-8.9-1.4-17.9-2.8-26.8-4.1c-6.1-0.9-12.1-1.9-18.2-2.8c-0.5-0.1-1-0.1-1.5-0.4
				C187.3,406,187.3,405.6,187.3,405.2z"/>
			<path class="st11" d="M257,406.2c0.8-2,2-3.8,2.9-5.7c0.7-1.4,1.4-2.9,2.3-4.2c0.2,0.2,0.2,0.5,0.2,0.8c-0.5,3.1-0.9,6.3-1.4,9.4
				c0,0.5-0.2,0.8-0.4,1.2c-0.5,0.8-0.9,1.7-0.6,2.7c0,0.1-0.1,0.2-0.1,0.2c-0.3,0.3-0.5,0.1-0.8-0.1c-0.2,0.7-0.8,1.2-0.8,2
				c0,0.6-0.1,1.1-0.1,1.7c0,0.1,0,0.2,0,0.3c-0.1,0.2-0.2,0.4-0.5,0.5c-0.9-0.1-0.6-0.8-0.7-1.3c0.3-0.7,0.3-1.5,0.1-2.2
				c-0.2-1.2-0.1-2.5-0.3-3.7C256.6,407.2,256.7,406.7,257,406.2z"/>
			<path class="st12" d="M252.4,428.7c-0.1-3.1-0.1-6.3-0.2-9.4c-0.2-0.6-0.1-1.2-0.1-1.7c0.2-0.6,0.7-0.9,1.3-0.8
				c0.6,0.1,0.6,0.7,0.8,1.2c0.2,0.7,0,1.3-0.1,2c0,0.8-0.5,1.4-0.5,2.3c0.5-0.3,0.4-1.1,1.1-1.1c0.2,0.3,0.5,0.4,0.9,0.5
				c0.5,0.1,1,0.3,1.3,0.9c0.1,0.4-0.1,0.9-0.2,1.3c-1,2.1-2,4.2-3.2,6.2c-0.6-0.1-0.7-0.5-0.7-1c0-0.5,0.1-0.9,0-1.3
				C252.6,427.9,253.1,428.5,252.4,428.7z"/>
			<path class="st13" d="M269,399.9c-0.6,1.6-1.5,3.1-2.4,4.6c-0.2,0-0.4-0.2-0.3-0.3c0.1-1.1-0.3-2-0.8-2.9
				c-0.1-0.9,0.3-1.7,0.4-2.5c0.1-0.6,0.4-1.2,0.7-1.8c0.1-0.2,0.2-0.4,0.3-0.5c1.5-1.6,2-3.6,2.5-5.6c0.2-0.8,0.4-1.6,0.6-2.4
				c0.2-0.8,0.6-0.8,1.3-0.4c0.1,0.3,0.1,0.5,0.1,0.8c-0.4,1.7-0.5,3.5-1.1,5.2c-0.1,0.4-0.1,0.7-0.1,1.1c0,0.4,0,0.9-0.2,1
				c-0.9,0.7-0.7,1.6-0.7,2.5C269.3,399,269.1,399.4,269,399.9z"/>
			<path class="st14" d="M268,385.2c0.7-1.5,1.5-2.9,2.2-4.4c0.6-1.1,1.2-2.2,1.8-3.3c0.5,0.6,0.1,1.2,0.1,1.8c0,0.5,0,1.1,0,1.6
				c0,0.9,0,1.8-0.6,2.6c-0.3,0.4-0.4,1-0.5,1.5c-0.1,0.7-0.3,1.3-0.9,1.7c-0.3,0.2-0.4,0.6-0.4,1c-0.3,1.5-0.9,2.9-1.4,4.4
				c-0.2,0.5-0.4,1.2-1.2,0.7c-0.2-1.4-0.4-2.8-0.3-4.2c0-0.1,0.1-0.2,0.1-0.3c0.4-0.2,0.8-0.4,0.7-1
				C267.4,386.5,267.8,385.8,268,385.2z"/>
			<path class="st15" d="M265.8,406c-1.2,2.6-2.5,5.2-4,7.6c-0.3-0.1-0.5-0.4-0.4-0.7c0.2-1.5,0.2-3,0.9-4.3
				c0.4-0.2,0.6,0.1,0.7,0.5c0.4-0.9,0.4-1.9,0.6-2.9c0.1-0.4,0.1-0.9,0.7-1.1c0.4-0.1,0.3-0.6,0.3-0.9c0.1-0.7,0-1.3,0-2
				c0-0.4,0-0.7,0.3-1c0.2-0.1,0.5-0.1,0.6,0.2C266.3,403,266.2,404.5,265.8,406z"/>
			<path class="st16" d="M269,399.9c0-0.9,0-1.9,0-2.8c0-0.3-0.5-1.1,0.6-0.8c0.2,0.1,0.3-0.6,0.3-0.8c-0.1-1.4,0.7-2.7,0.8-4.1
				c0.1-0.9,0.4-1.7,0.5-2.5c1-0.6,0.9-1.6,1.1-2.5c0.1-0.3-0.2-1,0.6-0.8c0.3,1.2,0.2,2.4,0.1,3.6c-1.6,2.1-1.2,4.7-2.1,7
				C270.5,397.4,269.8,398.7,269,399.9z"/>
			<path class="st17" d="M252.2,417.4c0,0.6,0,1.2,0,1.8c-0.3-1-0.1-2-0.2-2.9c-0.1-0.4-0.1-0.8-0.1-1.3c0.5,0.2,0.4-0.2,0.6-0.5
				c1.4-2.7,2.8-5.3,4.2-8c0.1-0.2,0.2-0.3,0.4-0.5c0.1,2.1,0.3,4.2,0.4,6.2c0,0.6,0,1-0.4,1.4c0.1,0.5,0,1-0.7,1
				c-0.3-0.3-0.2-0.8-0.2-1.1c0-1.3,0.1-2.5-0.2-3.8c0-0.2,0-0.4,0.1-0.7C255,412.1,252.7,414.3,252.2,417.4z"/>
			<path class="st18" d="M259.8,417.5c-0.4,1.1-1,2.1-1.6,3.1c-0.5,0-0.4-0.4-0.4-0.7c0.1-0.5,0-1,0.1-1.5c1-2.4,1.1-5.1,1.7-7.6
				c0-0.2,0.1-0.3,0.2-0.4l0,0c0.1-0.5,0.2-0.9,0.6-1.3c0.2-0.2,0.4-0.3,0.5,0c0.2,0.7,0.1,1.5,0.1,2.2c0,0.2,0,0.5-0.1,0.7
				C260.5,413.9,260.4,415.7,259.8,417.5z"/>
			<path class="st19" d="M273.4,374.9c0.3-0.6,0.6-1.2,0.9-1.8c0.7-0.8,0.9-0.9,1.6-0.3c0.2,1.8-0.1,3.5-0.8,5.2
				c-0.8-0.2-1,0.2-1,0.9c0,0.4,0,0.7-0.2,1.1c-0.2,0.3-0.4,0.7-0.7,0.2C273,378.4,272.9,376.6,273.4,374.9z"/>
			<path class="st20" d="M275.4,387.6c-0.3,0.5-0.6,1.1-0.8,1.6c-0.3-0.1-0.4-0.3-0.4-0.5c-0.3-1.4-1-2.6-0.9-4.1
				c0.4-0.9,0.7-2,1.6-2.7c0.4,0.1,0.5,0.3,0.5,0.6c0,0.9,0.4,1.6,0.6,2.4C276.2,385.9,275.6,386.7,275.4,387.6z"/>
			<path class="st21" d="M265.6,401.5c-0.2,0-0.4,0-0.6-0.1c-0.2-0.1-0.3-0.2-0.3-0.4c0-0.1,0-0.2,0.1-0.3c0-0.6-0.3-1.2-0.3-1.8
				c0-1.1,0.2-2.1-0.1-3.2c-0.1-0.5-0.1-0.9-0.1-1.4c-0.1-0.9,0-1.7,0.2-2.6c0.1-0.5,0.3-0.9,0.6-1.2c0.2,0.1,0.4,0.3,0.4,0.6
				c0,2,0.4,3.9,0.2,5.9c0,0.5-0.4,1.2,0.3,1.6c0,0.9-0.4,1.7-0.4,2.6C265.7,401.3,265.7,401.4,265.6,401.5z"/>
			<path class="st22" d="M248.9,391.5c-0.3,0.6-0.7,1.2-1,1.8c-0.1,0.2-0.3,0.4-0.5,0.3c-0.4,0-0.8,0-1-0.3
				c-0.2-0.2,0.2-0.5,0.3-0.8c0.1-0.2,0.2-0.4,0.4-0.7c-1-0.2-1.8-0.3-2.7-0.4c-0.4-0.1-0.5,0.2-0.7,0.5c-0.4,1-1.1,1.3-2.1,0.7
				c0.4-0.7,0.8-1.4,1.3-2c0.6-0.2,1.1,0,1.7,0.1c1.3,0.2,2.5,0.5,3.8,0.4C248.7,391.2,248.8,391.3,248.9,391.5z"/>
			<path class="st23" d="M238.6,379.9c-0.1,0.7-0.7,0.9-1.2,1c-1.5,0.4-2.9,0.1-4.3-0.7c0.7-0.4,1.3-0.8,1.9-0.2
				c0.1,0.1,0.4,0.1,0.6,0.2c0.5,0.1,1.2,0.4,1.3-0.2c0.1-0.5-0.7-0.3-1.1-0.6c-0.6-0.3-1.6-0.3-1.3-1.4c0.7-0.4,1.5-0.6,2.2-0.9
				c0.2,0,0.3,0,0.4,0.2c0.1,0.2,0,0.4-0.2,0.5c-0.3,0.1-0.8-0.1-0.9,0.4c-0.1,0.3,0.4,0.3,0.5,0.5
				C237.1,379.3,238.1,379.2,238.6,379.9z"/>
			<path class="st24" d="M273.5,384.6c0.4,0.2,0.2,0.5,0.2,0.8c-0.1,1.4,1,2.5,1,3.8c-0.4,0.8-0.8,1.6-1.2,2.4
				c-0.9,0-0.7-0.7-0.8-1.2c0-0.4,0.5-0.7,0.2-1.2c0-1.3,0-2.5,0-3.8c-0.2-0.2-0.2-0.5-0.2-0.8c0.2-0.5,0-1.1,0.5-1.5
				c0.6,0.4,0.3,0.9,0.2,1.4C273.3,384.5,273.3,384.6,273.5,384.6C273.4,384.6,273.4,384.6,273.5,384.6z"/>
			<path class="st25" d="M230.9,387.8c-0.1,0.6-0.7,0.9-1,1.6c0.4-0.2,0.7-0.4,1-0.5c0.4,0.1,0.4,0.5,0.4,0.8
				c-0.2,0.2-0.5,0.3-0.7,0.5c-0.9,0.9-2,1-3.3,0.5c1-1.3,1.9-2.6,2.8-3.8C230.7,386.9,231.1,387,230.9,387.8z"/>
			<path class="st26" d="M277.8,368.6c0.3,4.4,0.3,8.9,0.2,13.3c0,0.3,0.1,0.7-0.2,0.9c-0.3-0.2-0.4-0.6-0.6-1
				c-0.2-0.7-0.1-1.5-0.1-2.2c0-0.7,0-1.4-0.1-2c0-0.4,0.1-0.7,0.1-1c0-1.6,0-3.2-0.2-4.8c-0.1-0.4,0-0.7,0.1-1.1
				c0.1-0.5,0.2-1,0.3-1.5C277.4,368.9,277.4,368.6,277.8,368.6z"/>
			<path class="st27" d="M260.8,412c0-0.2,0-0.4,0-0.6c0.4-1.3,0.4-2.7,0.5-4c0.1-0.9,0.7-1.7,1.1-2.5c0.1-0.2,0.3-0.5,0.6-0.2
				c0.2,1.4-0.1,2.7-0.7,3.9c-0.3,1.3-0.5,2.7-0.8,4c-0.1,0.4,0,0.7,0.2,1.1c-0.3,0.6-0.6,1.2-0.8,1.7c-0.6-0.2-0.5-0.7-0.4-1.1
				C260.6,413.6,260.6,412.8,260.8,412z"/>
			<path class="st28" d="M242.7,380.9c-0.4-0.7-1.3-0.4-1.8-0.8c-0.3-0.7,0-1.3,0.4-1.9c1.6-0.5,3-0.2,4.4,0.7
				c-0.7,0.5-1.2,0.6-1.9,0.1c-0.7-0.5-1.5-0.4-2.3-0.1c0.5,0.5,1.1,0.6,1.7,0.8c0.4,0.2,1.1,0.1,1.1,0.8c0,0.6-0.5,0.9-1.1,1
				C242.7,381.6,242.6,381.4,242.7,380.9z"/>
			<path class="st29" d="M272.8,389.2c0.3,0.3,0.2,0.7,0.1,1.1c-0.1,0.5-0.1,1,0.5,1.3c-0.7,1.5-1.5,3-2.4,4.5c0-2.1,0.7-4,1-6
				C272.1,389.5,272.8,389.7,272.8,389.2z"/>
			<path class="st30" d="M230.7,378c0.5,0.1,0.9,0.3,1.4,0.2c-0.2,0.7-0.5,0.9-1.1,0.7c-0.2-0.1-0.5-0.1-0.7-0.1
				c-0.3,0-0.8,0-0.8,0.4c0,0.4,0.4,0.4,0.7,0.4c0.5,0.1,1,0.1,1.5,0c0.3-0.1,0.6-0.1,0.7,0.2c0.1,0.4-0.2,0.4-0.5,0.4
				c-1.2,0.4-2.4,0-3.5-0.2c-0.3-0.1-0.4-0.3-0.5-0.6c0-0.3,0.1-0.6,0.4-0.7c0.4-0.2,0.8-0.4,1.3-0.3C230,378,230.4,378,230.7,378z"
				/>
			<path class="st31" d="M231.3,389.6c-0.1-0.3-0.3-0.5-0.4-0.8c0.7-0.5,1.5-1,2.2-1.5c0.6-0.4,0.9-0.2,0.9,0.5c0,0.7,0,1.5-0.1,2.2
				c-0.3,0.5-0.8,0.8-1.4,0.6c0-0.5,0-1,0-1.5C232,389,231.7,389.5,231.3,389.6z"/>
			<path class="st32" d="M277.4,379.5c0,0.8,0,1.6,0,2.4c0.3,0.9-0.2,1.7-0.4,2.5c-0.4,1.1-1,2.1-1.6,3.1c0-1,0.4-1.8,0.4-2.8
				c0-1.4,0.3-2.8,0.6-4.2C276.6,380.1,276.7,379.6,277.4,379.5z"/>
			<path class="st33" d="M277.2,370.6c0,2.1,0.3,4.1,0.1,6.2c-0.5-0.2-0.3-0.7-0.3-1.1c-0.1,0.3-0.2,0.4-0.5,0.2
				c-0.4-1.7-0.4-3.4-0.4-5.1c0-0.5,0.1-1,0.3-1.4c0-0.4,0.3-0.7,0.5-1C277.6,369,277.3,369.8,277.2,370.6z"/>
			<path class="st34" d="M273.2,383.2c-0.5,0.4,0,1-0.4,1.4c-0.4-0.4-0.3-0.9-0.3-1.4c0-0.9,0.1-1.7-0.1-2.6
				c-0.1-0.2-0.1-0.5-0.1-0.7c0-1.1-0.2-2.3,0.3-3.4c0.2-0.6,0.4-1.2,0.8-1.6c0,1.8,0,3.6,0,5.5c0.4,0.6,0.2,1.3,0.3,1.9
				C273.7,382.6,273.5,383,273.2,383.2z"/>
			<path class="st35" d="M232.5,390.6c0.5-0.1,0.9-0.4,1.4-0.6c0.8-0.6,1.1-1.6,1.8-2.3c0.4,0.1,0.9,0,1.3,0.4
				c-0.2,0.3-0.4,0.5-0.5,0.8c-0.7,0.5-1.7,0.8-1.4,2c-0.5,0.9-1.5,1.1-2.4,0.7C232.3,391.2,232.6,390.9,232.5,390.6z"/>
			<path class="st36" d="M248.6,391.4c-1.9-0.1-3.8-0.4-5.6-0.8c0.2-0.3,0.4-0.6,0.5-0.9c0.4-1,1-1.3,2.1-0.9
				c-0.1,0.6-0.7,1-0.8,1.6c0.8,0.3,1.7,0.3,2.5,0.5c0.8,0.2,0.7-0.7,1.2-1C248.9,390.4,248.9,390.8,248.6,391.4z"/>
			<path class="st37" d="M230.7,378c-0.3,0.2-0.7,0.3-1,0.4c-0.7-0.6-0.7-1,0-1.5c1.2-0.7,3.6-0.4,4.7,0.6c-0.5,0.4-0.9,0.5-1.5,0.1
				c-0.6-0.4-1.3-0.5-2-0.2C230.5,377.5,230.4,377.7,230.7,378z"/>
			<path class="st38" d="M258,418.4c0.2,0.4,0.3,0.9,0.1,1.3c-0.1,0.3-0.2,0.6,0.1,0.9c-0.5,1-1,2.1-1.6,3.1c0-0.5,0-1,0-1.5
				c-0.1-0.2-0.2-0.4-0.2-0.6c0.3-1.1,0.3-2.3,0.9-3.4C257.6,418.1,257.8,418.2,258,418.4z"/>
			<path class="st39" d="M264.6,391.8c0,0.9,0,1.8,0,2.6c-0.2,0.3-0.8,0.3-0.8,0.8c-0.2,0.4,0,0.9-0.3,1.4c-0.5,0-1,0.1-0.9,0.8
				c0,0.2-0.1,0.4-0.2,0.5c-0.1,0-0.2,0-0.3-0.1c0-0.3-0.1-0.5,0-0.8c0-0.3,0-0.5,0-0.8C262.9,394.7,263.6,393.2,264.6,391.8z"/>
			<path class="st40" d="M240.1,390.2c-0.2,0.4-0.4,0.8-0.7,1.3c0.4,0.1,0.8,0.1,1.2,0.2c0.2,0.1,0.6,0,0.5,0.3
				c0,0.3-0.2,0.6-0.6,0.6c-0.6,0-1.2-0.1-1.8-0.3c-0.6-0.5-0.4-1.1-0.4-1.7c0.1-0.2,0.2-0.4,0.4-0.6
				C239.2,389.9,239.7,389.8,240.1,390.2z"/>
			<path class="st41" d="M250,380.2c-0.8-0.7-1.6-0.9-2.6-0.5c-0.5,0.2-0.9,0-1.3-0.2c1.1-1,3.4-1,5,0.1
				C250.9,380.2,250.5,380.4,250,380.2z"/>
			<path class="st42" d="M250,380.2c0.4-0.1,0.8-0.3,1.1-0.6c0.9,1,0.5,1.8-1,2.6c-0.4-0.1-1,0.2-1.1-0.5
				C249.5,381.4,250.1,381,250,380.2z"/>
			<path class="st43" d="M220.9,389.6c-0.2,0.4-0.5,0.2-0.8,0.1c-1-0.2-2-0.3-3-0.5c0-0.3,0.2-0.5,0.4-0.7c0.4,0,0.9,0,1.3,0.1
				c0.7,0.2,1.3,0.1,1.7-0.5C221.2,388.5,221.1,389,220.9,389.6z"/>
			<path class="st44" d="M227.3,388.6c-0.2,0.3-0.4,0.6-0.6,0.9c-0.5,0.9-1.1,1.2-2.1,0.8c0.4-0.8,0.9-1.4,1.5-2.1
				C226.6,388.2,227,388.1,227.3,388.6z"/>
			<path class="st45" d="M238.3,390.6c0.3,0.5,0.2,1.2,0.4,1.7c-1.1-0.1-2.2-0.3-3.3-0.4c0.1-0.7,0.5-0.9,1.1-0.8
				C237.2,391.3,237.9,391.4,238.3,390.6z"/>
			<path class="st46" d="M227.3,388.6c-0.4-0.1-0.9-0.1-1.2-0.4c0-0.1,0.1-0.1,0.1-0.2c0.6-0.9,0.6-0.9-0.4-1
				c-0.2,0-0.3-0.1-0.5-0.1c1.1-0.6,2.2-0.6,3.3,0C228.2,387.5,227.8,388,227.3,388.6z"/>
			<path class="st47" d="M220.1,386.2c-0.4,0.2-1.2,0.2-0.6,1.1c-0.6,0.7-1.2,0.2-1.8,0c-0.2-0.9,0.5-1.2,1-1.5
				c0.5-0.3,1.1-0.4,1.7-0.3C220.7,385.8,220.6,386,220.1,386.2z"/>
			<path class="st48" d="M276.4,369.4c0,0.5,0,0.9,0,1.4c-0.2,0.5,0,1-0.2,1.6c-0.1,0.2-0.1,0.5-0.4,0.5c-0.6-0.4-1,0.1-1.5,0.4
				C275,371.9,275.5,370.5,276.4,369.4z"/>
			<path class="st49" d="M220.1,386.2c0.3-0.2,0.3-0.5,0.4-0.8c0.8-0.2,1.5,0,2.2,0.3c0.3,0.1,0.8,0.4,0.7,0.7
				c-0.2,0.3-0.8,0.7-1.3,0.3C221.5,386.2,220.8,386.1,220.1,386.2z"/>
			<path class="st50" d="M228.6,386.8c-1.1-0.2-2.2,0-3.3,0c-0.3-0.1-1,0.2-0.9-0.4c0-0.6,0.6-0.6,1.1-0.5c0.9,0.2,1.9,0.3,2.9,0.4
				C228.5,386.4,228.9,386.4,228.6,386.8z"/>
			<path class="st51" d="M265.6,401.5c0.1-0.1,0.1-0.2,0.2-0.3c0.9,0.9,0.7,2.1,0.9,3.3c-0.2,0.6-0.5,1.1-0.8,1.6
				C265.7,404.5,265.9,403,265.6,401.5z"/>
			<path class="st52" d="M260.8,412c0.1,1.1-0.2,2.3,0.2,3.4c-0.4,0.7-0.8,1.4-1.2,2.1C259.8,415.7,260.3,413.8,260.8,412z"/>
			<path class="st53" d="M218.1,398.6c0.6-0.5,1.3-0.6,1.8,0.1c0.3,0.2,0.8-0.1,1,0.3c-0.9,1.3-2.1,0.2-3.2,0.6
				C217.8,399.1,218.8,399.1,218.1,398.6L218.1,398.6z"/>
			<path class="st54" d="M220.9,389.6c-0.1-0.5-0.1-1-0.4-1.4c-0.1-0.1-0.1-0.1-0.2-0.2c-0.1-0.3,0.3-0.4,0.4-0.6
				c0.2,0,0.3-0.1,0.5-0.1c0.4-0.2,0.9-0.1,1.1,0.2c0.3,0.4-0.2,0.6-0.4,0.9C221.6,388.8,221.2,389.2,220.9,389.6z"/>
			<path class="st55" d="M252.4,428.7c0.4-0.4,0.1-0.9,0.3-1.3c0.6,0.8-0.2,1.9,0.7,2.5c-0.3,0.6-0.9,2.1-1.1,2.6
				C252.4,430.7,252.4,429.7,252.4,428.7z"/>
			<path class="st56" d="M237,377.9c0.1-0.3,0.3-0.5-0.2-0.5c-0.2,0.1-0.5,0.2-0.7,0c1.1-0.3,2.2-0.2,3.3,0.4c0.2,0.3,0,0.6-0.2,0.9
				C238.3,378.6,237.8,377.8,237,377.9z"/>
			<path class="st57" d="M248.6,391.4c0.1-0.5-0.1-1-0.2-1.4c0.2-0.9,0.9-0.6,1.4-0.5c0.4,0,0.2,0.3,0.1,0.5c-0.3,0.5-0.6,1-0.9,1.5
				C248.8,391.4,248.7,391.4,248.6,391.4z"/>
			<path class="st58" d="M248.9,381.7c0.3,0.4,0.8,0.2,1.1,0.5c-1,0.5-2.1,0.8-3.3,0.4c0.1-0.3,0.2-0.5,0.4-0.6
				C247.8,382,248.4,381.9,248.9,381.7z"/>
			<path class="st59" d="M242.7,380.9c0,0.3,0.2,0.6,0.5,0.7c-0.9,0.6-1.9,0.3-2.8,0.1c-0.2-0.3-0.1-0.6,0.2-0.8
				C241.3,381,242,381.5,242.7,380.9z"/>
			<path class="st60" d="M272.6,376.5c0,1.1,0,2.3,0,3.4c-0.6,0.2-0.5-0.4-0.8-0.6c0.1-0.6,0.1-1.2,0.2-1.8
				C272.3,377.3,272.1,376.7,272.6,376.5z"/>
			<path class="st61" d="M220.7,387.4c0.1,0.3-0.2,0.4-0.4,0.6c-0.6,0.1-1.3,0.1-1.9-0.1c-0.4-0.1-0.7-0.2-0.7-0.7
				c0.6-0.2,1.2,0.4,1.8,0C219.9,387.3,220.3,387.3,220.7,387.4z"/>
			<path class="st62" d="M267,388.2c0,0.1,0,0.1,0,0.2c-0.2,0.6-0.1,1.2-0.2,1.8c0,0.3,0,0.6-0.5,0.6c-0.6-0.6-0.4-1.3-0.1-2
				c0.1-0.8,0.6-1.3,1-2C267.6,387.3,267.3,387.8,267,388.2z"/>
			<path class="st63" d="M266.2,388.8c0,0.7,0,1.4,0.2,2c0.3,0.3,0.3,0.6,0,1c-0.5,0-0.7-0.5-1-0.7c-0.1-0.2-0.1-0.3-0.2-0.5
				C265.4,389.9,265.7,389.3,266.2,388.8z"/>
			<path class="st64" d="M277.2,370.6c0-0.7-0.1-1.5-0.3-2.2c0.1-0.5,0.4-0.9,0.7-1.3c0.4,0.5,0.2,1,0.2,1.5
				C277.4,369.2,277.6,369.9,277.2,370.6z"/>
			<path class="st65" d="M240.1,390.2c-0.5-0.1-1,0.1-1.4-0.2c0.1-0.2,0.3-0.4,0.4-0.6c0.7-0.3,1.1-1.1,2-0.8
				C240.8,389.1,240.5,389.7,240.1,390.2z"/>
			<path class="st66" d="M267,388.2c0.1-0.5,0.1-0.9,0.2-1.4c0.2-0.6,0.4-1.1,0.8-1.6c0,0.9-0.3,1.7-0.2,2.6
				C267.9,388.5,267.6,388.6,267,388.2z"/>
			<path class="st67" d="M241.3,378.2c-0.1,0.6-0.3,1.3-0.4,1.9c-0.4-0.2-1-0.3-0.9-0.9C240.1,378.6,240.7,378.2,241.3,378.2z"/>
			<path class="st68" d="M235.1,390.8c-0.6-1.3-0.3-1.6,1.4-2C236,389.5,235.6,390.1,235.1,390.8z"/>
			<path class="st69" d="M256.4,367.8c-0.4,0.7-0.8,1.2-1.4,0.3c-0.1-0.1-0.1-0.1-0.2-0.1c-0.3,0.1-0.5,0.1-0.5-0.2
				c0-0.3,0.3-0.4,0.5-0.3C255.3,367.8,255.8,367.5,256.4,367.8z"/>
			<path class="st70" d="M241.2,388.6c-0.8,0-1.2,0.9-2,0.8c0.4-0.8,0.7-1.6,1.9-1.2C241.3,388.2,241.5,388.3,241.2,388.6z"/>
			<path class="st71" d="M247.2,382c0,0.3,0,0.6-0.4,0.6c-0.6,0-1.1,0-1.6-0.4c0.2-0.4,0.6-0.6,1-0.6
				C246.5,381.7,246.8,381.8,247.2,382z"/>
			<path class="st72" d="M241.2,399.3c-0.8-0.2-0.6,1-1.4,0.8c-0.2-0.1-0.3-0.2-0.2-0.4c0.3-0.4,0.5-1,1.2-0.9
				C241,398.9,241.1,399,241.2,399.3z"/>
			<path class="st73" d="M240.6,381c-0.1,0.3-0.1,0.5-0.2,0.8c-0.1,0-0.2,0-0.3-0.1c-0.4-0.1-0.9-0.2-1.1-0.6
				c-0.1-0.1,0.1-0.2,0.2-0.2C239.7,380.6,240.2,380.4,240.6,381z"/>
			<path class="st74" d="M277,384.5c-0.1-0.9,0.1-1.7,0.4-2.5c0.5,0.1,0.4,0.5,0.4,0.9C277.6,383.4,277.4,384,277,384.5z"/>
			<path class="st75" d="M229.2,398.2c0.6,0.2,0.7-0.2,0.9-0.5c0.1-0.2,0.3-0.2,0.4-0.1c0.1,0.1,0,0.2-0.1,0.3
				c-0.2,0.6-0.7,0.8-1.3,0.7c-0.3,0-0.6-0.2-0.4-0.5c0.1-0.3,0.2-0.8,0.6-0.7c0.6,0.1,0,0.3,0,0.5
				C229.3,397.9,229.3,398,229.2,398.2z"/>
			<path class="st76" d="M236.6,399.4c-0.4,0.4-0.7,0.3-1-0.1c-0.2-0.3,0-0.5,0.2-0.7c0.4-0.3,0.9-0.4,1.3-0.1
				c0.4,0.3,0,0.6-0.2,0.9l0,0C236.8,399.4,236.7,399.4,236.6,399.4c-0.1-0.1-0.1-0.2-0.2-0.2C236.4,399.3,236.5,399.3,236.6,399.4z
				"/>
			<path class="st77" d="M232.8,400.4c0.3,0,0.7,0,0.7,0.4c0,0.6-0.5,0.7-1,0.8c-0.3,0-0.8,0-0.7-0.5
				C231.8,400.6,232.3,400.4,232.8,400.4z"/>
			<path class="st78" d="M246.2,381.6c-0.3,0.2-0.7,0.4-1,0.6c-0.3-0.2-0.5-0.4-0.6-0.8C245.1,381.4,245.7,380.7,246.2,381.6z"/>
			<path class="st79" d="M218.1,398.6c-0.1,0.1-0.3,0.2-0.4,0.2c-0.2,0-0.4-0.2-0.5,0c0,0.1,0.3,0,0.3,0.2c-0.2,0.5-0.6,0.5-1,0.3
				c-0.2-0.1-0.2-0.3-0.1-0.4c0.3-0.3,0.2-0.9,0.9-0.7C217.6,398.3,218.1,398,218.1,398.6C218.1,398.6,218.1,398.6,218.1,398.6z"/>
			<path class="st80" d="M244.2,366.7c0,0-0.1,0-0.1,0c-0.3-0.2-0.8,0.1-1-0.4c0-0.1,0-0.2,0.1-0.2c0.4-0.3,0.8,0.1,1.2,0.1
				c0.2,0,0.3,0.2,0.3,0.3C244.6,366.8,244.3,366.7,244.2,366.7z"/>
			<path class="st81" d="M233.8,398.8c-0.4-0.3-0.8,0.5-1.2,0c0-0.4,0.3-0.6,0.6-0.8c0.4,0,0.8-0.2,0.8,0.5
				C234.1,398.7,234,398.8,233.8,398.8z"/>
			<path class="st82" d="M224.8,399.5c0.4-0.2,0.7-0.3,1,0.1c0.2,0.3,0,0.5-0.2,0.7c-0.3,0.2-0.6,0.4-1,0.3
				c-0.3-0.1-0.2-0.4-0.1-0.5c0.2-0.3,0.2-0.1,0.4,0.1c0.2,0.3,0.4,0.1,0.5-0.1C225.5,399.5,225,399.7,224.8,399.5z"/>
			<path class="st83" d="M229.8,395.4c-0.3-0.1-0.3,0.4-0.7,0.3c0.1-0.3-0.3-0.6,0-0.8c0.3-0.2,0.7,0.4,1.2,0.1c0,0,0.1,0.3,0.1,0.5
				c0,0.2,0,0.5-0.3,0.5C229.4,396,230.2,395.5,229.8,395.4z"/>
			<path class="st84" d="M226.1,397.2c0.2-0.1,0.4-0.1,0.7-0.2c0.3,0,0.5,0.1,0.6,0.4c0,0.3-0.3,0.5-0.5,0.6
				c-0.3,0.2-0.3-0.1-0.4-0.4C226.3,397.5,226.2,397.3,226.1,397.2C226.1,397.2,226.1,397.2,226.1,397.2z"/>
			<path class="st85" d="M234.2,401.7c0.3-0.3,0.6-0.5,0.8-0.8c0.3,0.2,0.2,0.4,0.2,0.6c0,0.3,0.5,0.7,0,0.8
				c-0.5,0.1-0.3-0.4-0.3-0.7C234.6,400.9,234.4,401.8,234.2,401.7C234.1,401.6,234.2,401.7,234.2,401.7z"/>
			<path class="st86" d="M225.5,401c0.3-0.5,0.5-0.9,0.7-1.3c0.1-0.3,0.3-0.4,0.5-0.2c0.3,0.2-0.1,0.3-0.1,0.4
				C226.3,400.4,226.2,400.9,225.5,401z"/>
			<path class="st87" d="M236.1,377.3c0.2,0,0.4,0,0.7,0c-0.7,0.3-1.4,0.7-2.2,0.8C234.9,377.5,235.5,377.4,236.1,377.3z"/>
			<path class="st88" d="M227.5,400.8c-0.1,0-0.1,0-0.2-0.1c-0.7-0.5,0.1-0.7,0.2-1c0.2-0.3,0.6-0.2,0.9-0.3
				C228.5,400.1,228,400.5,227.5,400.8z"/>
			<path class="st89" d="M238.9,400.1c-0.3,0-0.3-0.2-0.4-0.3c0.6-0.2,0.3-0.9,0.8-1.1c0.1,0,0.4,0.2,0.3,0.3
				C239.3,399.4,239.4,400,238.9,400.1z"/>
			<path class="st90" d="M217.5,388.6c0,0.3,0,0.6-0.4,0.7c-0.2,0-0.5-0.1-0.8-0.1C216.6,388.6,216.9,388.2,217.5,388.6z"/>
			<path class="st91" d="M233.8,398.8c0.1-0.1,0.1-0.2,0.2-0.3c0.2-0.1,0.2-0.6,0.5-0.4c0.4,0.2,0,0.4-0.1,0.5
				c-0.1,0.2-0.1,0.4,0.2,0.5l0,0.1C234.2,399.3,233.8,399.5,233.8,398.8z"/>
			<path class="st92" d="M227.5,400.8c0.3-0.4,0.7-0.8,0.9-1.4c0.1,0,0.3,0,0.4,0c0,0.5-0.5,0.8-0.7,1.3
				C228,401.1,227.8,401,227.5,400.8z"/>
			<path class="st93" d="M230.3,401c-0.3,0.3-0.8,0.4-0.9,0c-0.1-0.3,0.1-0.8,0.6-1C230.3,400.3,230.2,400.7,230.3,401z"/>
			<path class="st94" d="M230.3,401c-0.8-0.1,0.1-0.8-0.4-1c0.3,0,0.8-0.2,0.9,0.2C231.1,400.7,230.4,400.7,230.3,401z"/>
			<path class="st95" d="M230.6,401.7c0.3-0.6,0.5-1.4,1.5-1.8C231.5,400.6,231.4,401.4,230.6,401.7z"/>
			<path class="st96" d="M238.6,379.9c-0.6-0.5-1.5-0.4-2-1.2c0.5,0.1,0.9,0.3,1.4,0.4C238.3,379.3,238.7,379.5,238.6,379.9z"/>
			<path class="st97" d="M228.6,397.6c-0.3,0.2-0.2,0.8-0.7,0.9c-0.2,0-0.3-0.2-0.4-0.4c0.7,0.1,0.4-0.8,0.9-0.9
				C228.5,397.1,228.6,397.3,228.6,397.6z"/>
			<path class="st98" d="M220.4,397.4c0-0.3,0.2-0.4,0.4-0.5c0.3-0.2-0.2-0.8,0.4-0.7c0.2,0,0.3,0.2,0.2,0.4
				C221.1,396.8,221.2,397.6,220.4,397.4z"/>
			<path class="st99" d="M236.9,399.4c0.8,0.3,0.9-0.8,1.8-0.9C238.1,399.3,237.9,400.3,236.9,399.4
				C236.9,399.4,236.9,399.4,236.9,399.4z"/>
			<path class="st100" d="M222.7,400c0.8,0.2,0.8-0.8,1.6-0.9c-0.5,1-0.9,1.5-1.9,1C222.5,399.9,222.6,399.9,222.7,400z"/>
			<path class="st101" d="M230.9,387.8c0-0.5-0.4-0.7-0.8-1c0.5-0.2,0.9,0,1.4,0.1C231.3,387.2,231.1,387.5,230.9,387.8z"/>
			<path class="st102" d="M223.7,397.7c-0.3,0-0.6,0-0.6-0.3c0-0.4,0.2-0.8,0.7-0.9c0.4,0.4-0.7,0.6-0.1,0.9
				C223.8,397.5,223.8,397.6,223.7,397.7z"/>
			<path class="st103" d="M230.6,398.8c0-0.2-0.1-0.3,0-0.3c0.3-0.3,0.3-0.8,0.8-0.9c0.1,0,0.1,0.1,0.2,0.1
				C231.2,398.1,231.2,398.6,230.6,398.8z"/>
			<path class="st104" d="M223.7,397.7c0-0.1,0-0.2,0-0.3c0.6,0.1,0.5-1,1.3-0.7C224.4,396.9,224.7,398,223.7,397.7z"/>
			<path class="st105" d="M215.6,395.3c0.4,0.3-0.7,1.1,0.6,0.9c-0.4,0.1-0.9,0.5-1.1,0C214.9,396,215.3,395.6,215.6,395.3z"/>
			<path class="st104" d="M226.1,397.2c-0.5,0.3-0.6,1.3-1.5,0.5c0.4-0.1,0.8-0.1,1-0.7C225.7,396.6,226.1,396.6,226.1,397.2
				C226.1,397.2,226.1,397.2,226.1,397.2z"/>
			<path class="st106" d="M217.7,396.3c0.2-0.2,0.2-0.5,0.5-0.5c0.2,0.2,0.1,0.4,0.1,0.6c0,0.2,0.1,0.6-0.3,0.5
				c-0.4-0.1,0-0.4-0.1-0.5c0,0,0-0.1,0-0.1C217.8,396.2,217.8,396.2,217.7,396.3L217.7,396.3z"/>
			<path class="st82" d="M234.6,399.2C234.6,399.2,234.6,399.1,234.6,399.2c0.5-0.2,0.4-1,1.3-0.9
				C235.2,398.5,235.6,399.7,234.6,399.2z"/>
			<path class="st107" d="M242.4,366c-0.3,0.3-0.3,0.7-0.7,0.7c0-0.2-0.3-0.3-0.2-0.6C241.7,365.7,242,365.8,242.4,366z"/>
			<path class="st108" d="M222.5,397.3c-0.3,0.2-0.7,0.5-1,0.1c-0.3-0.4-0.1-0.8,0.4-0.5C222.1,397,222.4,397.1,222.5,397.3z"/>
			<path class="st109" d="M253.4,368c-0.2-0.2-0.7,0.1-0.8-0.4c0-0.1,0.1-0.3,0.2-0.2c0.4,0.1,0.9,0.1,1.1,0.4
				C254.1,367.9,253.7,367.9,253.4,368z"/>
			<path class="st110" d="M236.6,385c0-0.1,0-0.2,0-0.2c0.2-0.4,0.2-0.9,0.8-0.9c0,0,0.1,0.1,0.1,0.1
				C237.2,384.3,237.2,384.9,236.6,385z"/>
			<path class="st82" d="M234.1,401.6c-0.2,0.3-0.5,0.5-1,0.5C233.5,401.7,233.4,400.9,234.1,401.6
				C234.2,401.7,234.1,401.6,234.1,401.6z"/>
			<path class="st111" d="M217.6,399c-0.2,0.1-0.4,0.1-0.7,0.2c0-0.4,0.2-0.7,0.6-0.8c0.2-0.1,0.2,0.2,0.3,0.4
				C217.7,398.9,217.6,398.9,217.6,399z"/>
			<path class="st112" d="M222.1,399.3c0,0.3-0.2,0.5-0.5,0.5c-0.2,0-0.1-0.4-0.3-0.5c0.1-0.1,0.2-0.3,0.4-0.4
				C222.2,398.7,221.7,399.4,222.1,399.3L222.1,399.3z"/>
			<path class="st113" d="M217.7,396.2c-0.2,0.1-0.4,0.7-0.6,0.1c-0.1-0.2-0.2-0.5,0.2-0.7C217.8,395.5,217.3,396.3,217.7,396.2
				C217.7,396.3,217.7,396.2,217.7,396.2z"/>
			<path class="st114" d="M220.9,399c-0.3,0-0.5-0.1-0.9,0c-0.4,0.2-0.2-0.2-0.1-0.3C220.3,398.7,220.8,398.2,220.9,399z"/>
			<path class="st115" d="M222.7,400c-0.1,0-0.2,0-0.3,0c-0.5,0,0.2-0.7-0.4-0.7c0,0,0,0,0,0c0.2-0.1,0.4-0.2,0.7-0.5
				C222.7,399.3,222.7,399.7,222.7,400z"/>
			<path class="st116" d="M219.1,396.1c0.1,0,0.2,0,0.2-0.1c0.2,0.2,0.6,0,0.6,0.3c0,0.3-0.2,0.5-0.4,0.5
				C218.9,396.9,218.9,396.6,219.1,396.1z"/>
			<path class="st117" d="M227.5,399.8c0,0.4-0.7,0.6-0.2,1c-0.2,0-0.5,0.2-0.5-0.2C226.7,400.1,227.1,399.9,227.5,399.8z"/>
			<path class="st118" d="M219.7,396.8c0.4-0.5,0.1-0.7-0.4-0.8c0.3,0.1,0.8-0.3,0.9,0.2c0.1,0.4-0.2,0.6-0.6,0.7
				C219.7,396.9,219.6,396.9,219.7,396.8C219.7,396.8,219.7,396.8,219.7,396.8z"/>
			<path class="st119" d="M251,367c-0.1,0.4-0.3,0.7-0.7,0.5c-0.5-0.1-0.3-0.3-0.1-0.5C250.5,367.4,250.7,367.1,251,367z"/>
			<path class="st120" d="M219.7,396.8c0,0,0,0.1,0,0.1c-0.3,0.1-0.7,0.3-1-0.1c-0.2-0.4,0.1-0.6,0.4-0.7
				C219.1,396.5,219,397,219.7,396.8z"/>
			<path class="st121" d="M237,388c-0.4,0-0.9-0.1-1.3-0.4C236.2,387.6,236.8,387.2,237,388z"/>
			<path class="st122" d="M239.1,378.6c-0.1-0.3,0.1-0.6,0.2-0.9c0.2,0.1,0.6,0.2,0.6,0.4C239.9,378.5,239.5,378.6,239.1,378.6z"/>
			<path class="st123" d="M233.1,398c-0.2,0.3-0.4,0.5-0.6,0.8c-0.6-0.3,0-0.5,0.1-0.8C232.7,397.6,233,398,233.1,398z"/>
			<path class="st7" d="M188.9,420c0.8-1.4,0.9-3,1-4.5c0.2-3-0.1-6-1.2-8.9c2.1,0.1,4.2,0.6,6.3,0.9c3,0.4,5.9,0.9,8.8,1.3
				c2.7,0.4,5.4,0.9,8.1,1.3c2.9,0.4,5.8,0.9,8.6,1.3c3.1,0.5,6.3,1,9.4,1.4c3.3,0.5,6.7,1,10,1.6c3.5,0.5,7.1,1.1,10.6,1.6
				c0.3,0.1,0.5,0.2,0.6,0.6c0.2,3,0.6,6.1,0.3,9.1c-0.2,1.5-0.2,3.1-0.5,4.6c-0.1,0.8-0.2,1.3-1.3,1.1c-2.9-0.6-5.9-0.9-8.8-1.4
				c-3.3-0.5-6.7-1-10-1.5c-2.8-0.4-5.6-0.9-8.4-1.3c-3.3-0.5-6.7-1-10-1.5c-3.7-0.6-7.3-1.2-11-1.7c-2.9-0.4-5.8-0.8-8.7-1.3
				c-1.2-0.2-2.4-0.4-3.6-0.6c-0.5-0.1-0.5-0.2-0.4-0.6C188.8,421.1,189.1,420.6,188.9,420z"/>
			<path class="st124" d="M258,418.4c-0.2-0.1-0.4-0.1-0.6-0.2c-0.4-1.2,0-2.2,0.4-3.3c0.1-0.2,0.1-0.4,0.2-0.5c0-0.1,0-0.2,0-0.3
				c0.2-1.2,0.8-2.2,1.5-3.2c0.1-0.1,0.2-0.2,0.3-0.1c-0.4,2.5-0.7,5-1.5,7.4C258.3,418.3,258.1,418.4,258,418.4z"/>
			<path class="st125" d="M263,404.6c-0.6,0.9-1.2,1.7-1.4,2.8c-0.2,0.6-0.3,1.2-0.8,1.6c-0.3,0.5-0.7,1-1,1.5c-0.6-1.1,0-2.1,0.5-3
				c0.1-0.3,0.3-0.6,0.4-0.9c0.3-1,0.7-1.9,1.3-2.7c0.2-0.2,0.3-0.5,0.4-0.8c0.1-0.1,0.2-0.3,0.3-0.3c0.3,0.1,0.3,0.4,0.3,0.6
				c0,0.3,0.1,0.5,0.1,0.7C263.1,404.3,263.1,404.5,263,404.6z"/>
			<path class="st126" d="M262.5,403.2c-0.6,1.1-1.2,2.2-1.8,3.4c-0.2-0.8,0.2-1.6,0.3-2.4c0.3-2.4,0.8-4.8,1.1-7.2
				c0,0.3,0,0.5,0.1,0.8c0.3,0.3,0.3,0.7,0.3,1c0,1.4,0,2.7-0.1,4.1C262.4,403,262.5,403.1,262.5,403.2z"/>
			<path class="st127" d="M258,414.4c-0.2,1.3-0.4,2.5-0.6,3.8c-0.3,1.1-0.4,2.3-0.8,3.4c-0.4-0.4-0.3-0.9-0.3-1.4
				c0-0.8,0.1-1.6-0.2-2.4c-0.3-0.9,0.6-1.3,0.7-2c0.2-0.4,0.3-0.9,0.8-1C257.7,414.7,257.9,414.6,258,414.4z"/>
			<path class="st125" d="M259.8,410.8c-0.8,1-1.2,2.3-1.8,3.3c-0.3-1.6,0.2-2.9,1.1-4.2c0.1,0.3,0.2,0.7,0.7,0.4
				C259.8,410.6,259.8,410.7,259.8,410.8z"/>
			<path class="st128" d="M257.6,414.8c-0.2,0.4-0.4,0.7-0.6,1.1c-0.3-0.1-0.5-0.2-0.7-0.5c-0.1-0.2-0.1-0.4,0.1-0.5
				c0.2-0.3,0.5-0.6,0.6-1C257.4,414,256.9,414.8,257.6,414.8z"/>
			<path class="st129" d="M256.4,414.9c0,0.2-0.1,0.4-0.1,0.5c0.1,0.5-0.2,0.9-0.5,1.3c-0.3,0.6-0.7,1.1-0.8,1.7
				c-0.1,0.8-0.4,1.4-1.3,1.6c-0.1-0.6,0.3-1.2,0.2-1.9c-0.2-1.4-0.5-1.6-1.8-0.7c-0.3-1.5,0.5-2.6,1.2-3.7c0.9-1.6,1.8-3.2,2.7-4.9
				C256.5,410.8,256.3,412.8,256.4,414.9z"/>
			<path class="st130" d="M256.2,417.6c0.5,0.4,0.4,1,0.4,1.5c0,0.8,0,1.6,0,2.5c0,0.2,0,0.4,0,0.6c-0.6-0.1-0.9-0.6-1.6-0.5
				c-0.4,0.1-0.4-0.4-0.4-0.8c-0.6-0.9,0-1.5,0.6-2.1C255.6,418.5,255.6,417.9,256.2,417.6z"/>
			<path class="st131" d="M255.4,419c-0.6,0.5-0.9,1.2-0.8,2c-0.4,0.5-0.5,1.2-1,1.7c-0.7-0.9,0.2-1.7,0.2-2.6c0.5-0.5,1-0.9,1-1.6
				C255.4,418.3,255.5,418.5,255.4,419z"/>
			<path class="st132" d="M271.8,379.4c0.3,0.1,0.4,0.6,0.8,0.6c0,0.2,0,0.4,0,0.6c0.3,1-0.1,1.9-0.3,2.9c-0.2,1.1-0.4,2.3-0.6,3.4
				c-0.1,0.4-0.1,0.9-0.6,1.1c-0.6-0.4-0.9-0.1-1,0.5c-0.3,2-0.9,4-1.5,5.9c-0.3,1-1.3,1.7-1.9,2.6c-0.9-0.4-0.4-1-0.3-1.5
				c0.3-0.9,0-1.9,0.7-2.7c0.5,0.1,0.7-0.2,0.8-0.6c0.5-1.7,1.3-3.4,1.5-5.2c0-0.2,0-0.4,0.2-0.4c1-0.2,0.9-1.1,1.1-1.9
				c0.1-0.3,0.1-0.6,0.2-0.8C272.1,382.5,271.7,380.9,271.8,379.4z"/>
			<path class="st133" d="M271.2,388c0.4-1.3,0.6-2.7,0.8-4.1c0.1-1.2,0.9-2.2,0.7-3.4c0.4,1.3,0.1,2.7,0.2,4c0,0.3,0,0.5,0,0.8
				c-0.2,0.8-0.4,1.7-0.5,2.5c-0.1,0.8-0.4,0.9-1.1,0.9C271.2,388.5,271.2,388.3,271.2,388z"/>
			<path class="st134" d="M266.8,395.4c-0.1,0.5-0.5,1.1,0,1.6c-0.2,0.5-0.4,1.1-0.6,1.6c-0.2,0-0.4,0.7-0.5,0
				c-0.1-0.4-0.3-0.8,0-1.2c0.4,0,0.2,0.3,0.4,0.4c-0.5-0.8-0.2-1.6,0.3-2.3C266.6,395.1,266.6,395.1,266.8,395.4z"/>
			<path class="st135" d="M266.8,395.4c-0.3-0.2-0.2,0.3-0.4,0.2c-0.3-0.3-0.4-0.6-0.3-1c0.1-0.9-0.2-1.9,0.1-2.8
				c0.3-0.3,0.1-0.7,0.2-1.1c0.4-0.7,0.2-1.6,0.6-2.4c0.1,1.5,0.1,2.9,0.2,4.4C267.1,393.7,267,394.5,266.8,395.4z"/>
			<path class="st136" d="M263,404.6c0-0.1,0-0.2,0-0.4c0-0.5,0.1-1,0.4-1.5c0.1-0.2,0-0.5,0.3-0.5c0.3,0,0.4,0.2,0.4,0.5
				c0,0.6,0.1,1.2-0.1,1.7c0.2-1.1,0-2.2,0.5-3.2c0.1-0.1,0.1-0.2,0.2-0.2c0.2,0.1,0.2,0.2,0.2,0.3c0,1.3,0,2.7,0,4.2
				c-0.8-0.4-1-0.1-1.1,0.6c-0.1,1-0.4,2.1-0.7,3.2c-0.3-0.3-0.6-0.5-0.9-0.7C262.4,407.3,263,406,263,404.6z"/>
			<path class="st137" d="M260.8,409c0.1-0.6,0.4-1.1,0.8-1.6c0,1.4,0.1,2.8-0.8,4C260.8,410.6,260.8,409.8,260.8,409z"/>
			<path class="st138" d="M275.8,372.8c0.5-0.6,0.2-1.4,0.6-2c0.1,1.6,0.2,3.1,0.2,4.7c0,0.2,0,0.4,0.2,0.5c0.3,1-0.5,2.7-1.5,2.9
				c-0.4-0.2-0.6-0.5-0.3-0.9C275.5,376.3,275.7,374.5,275.8,372.8z"/>
			<path class="st139" d="M275,378c0,0.3,0,0.7,0.4,0.8c0.1,0.3-0.2,0.6-0.2,0.9c0,0.3-0.1,0.5-0.2,0.8c-0.4,0.4-0.6,0.9-0.7,1.4
				c-0.1,0.3-0.2,0.7-0.7,0.7c0,0,0,0-0.1-0.1c0,0,0-0.1,0-0.1c-0.2-0.7-0.2-1.4-0.1-2c0.7-0.5,0.3-1.3,0.5-2
				C274.2,377.4,274.1,377.3,275,378z"/>
			<path class="st140" d="M274.8,380.4c0.1-0.3,0.1-0.6,0.2-0.8c0.3,0.4,0.3,0.4,0.3,1c0,0.1,0.2,0,0.1,0c-0.1,0-0.1,0-0.1-0.1
				c0-0.1,0-0.3,0.1-0.4c0.7-0.6,0.9-1.4,1.3-2.2c0.1-0.2,0.2-0.5,0.6-0.4c0.3,0.6,0.1,1.3,0.2,2c-1.1,0.9-0.8,2.3-1.2,3.5
				c-0.2,0.6-0.1,1.2-0.4,1.8c-0.3-0.7-0.8-1.3-0.6-2.2c0.1-0.3-0.1-0.5-0.4-0.6C274.5,381.5,274.9,380.9,274.8,380.4z"/>
			<path class="st141" d="M274.8,380.4c0.4,0.5,0.2,1.1,0,1.6c-0.5,0.9-0.9,1.7-1.4,2.6c0,0,0,0.1,0,0.1c0,0-0.1,0.1-0.1,0.1
				c0-0.5,0-1-0.1-1.6c0-0.3,0.1-0.6,0.4-0.8c0.4-0.1,0.6-0.6,0.6-0.8C274.2,381,274.7,380.8,274.8,380.4z"/>
			<path class="st142" d="M266.2,391.8c0.3,1.3,0.1,2.5,0.2,3.8c-0.5,0.8-0.6,1.7-0.3,2.8c-0.6-0.4-0.3-0.8-0.6-1
				c-0.1-2.1-0.1-4.2-0.2-6.4C266,391,266.3,391.2,266.2,391.8z"/>
			<path class="st143" d="M263.4,396.6c0.1-0.5-0.1-1.1,0.3-1.5c0.5,0.1,0.4,0.5,0.4,0.9c0,0.8,0,1.5,0.1,2.3c0-0.8-0.2-1.7,0.5-2.4
				c0.2,1.1,0.3,2.3,0,3.4c0.1,0.6-0.1,1-0.7,1.2c-0.5-0.9-1.1-1.7-1-2.8C263,397.2,263,396.8,263.4,396.6z"/>
			<path class="st144" d="M264.6,395.8c-0.3,0.8-0.1,1.8-0.5,2.6c-0.4-0.8-0.3-1.5-0.3-2.3c0-0.4,0.1-0.8-0.2-1.1
				c-0.1-0.8,0.6-0.4,1-0.6C264.6,394.9,264.6,395.3,264.6,395.8z"/>
			<path class="st145" d="M264,400.4c0.2-0.4,0.6-0.7,0.7-1.2c-0.1,0.6,1,1,0.2,1.7c-0.3,0.3-0.5,0-0.6-0.2c-0.1,0-0.1,0-0.2-0.1
				C263.9,400.6,263.9,400.5,264,400.4z"/>
			<path class="st146" d="M264.2,400.6c0.3-0.2,0.3,0.6,0.6,0.3c0,0.1,0,0.1,0,0.2c0,0.1,0,0.1-0.1,0.2c-0.3,0.2-0.2,0.6-0.4,0.9
				c-0.1,0.2-0.2,0.5-0.5,0.2C263.7,401.7,263.5,401.1,264.2,400.6z"/>
			<path class="st147" d="M277.2,377.6C277.2,377.6,277.2,377.6,277.2,377.6c-0.7,1.1-0.9,2.4-2,3.1c-0.1-0.3,0.1-0.7-0.2-1.1
				c-0.1-0.4,0.3-0.5,0.4-0.7c0.7-0.8,1.3-1.7,1.4-2.8c0.1-0.1,0.2-0.3,0.3-0.5c0.3,0.4,0,0.9,0.3,1.3
				C277.3,377,277.3,377.3,277.2,377.6z"/>
			<path class="st148" d="M264,400.4c0,0.1,0,0.1,0,0.2c-0.2,0.8-0.6,1.6-0.7,2.5c0,0.2-0.1,0.6-0.5,0.4c0-0.2,0.2-0.4-0.1-0.6
				c0,0-0.1,0.1-0.1,0.2c0,0-0.1,0-0.1,0c-0.3-0.9,0-1.8,0.1-2.7c0.1-0.9,0.2-1.8-0.1-2.6c0-0.3,0-0.7,0-1c0-0.3,0.1-0.6,0.4-0.7
				c0.3-0.1,0.3,0.4,0.6,0.5c-0.2,1-0.4,2.1,0.5,3C264.1,399.8,263.6,400.2,264,400.4z"/>
			<path class="st149" d="M262.4,397.8c0.9,0.7,0.4,1.7,0.3,2.5c-0.1,0.9-0.4,1.9-0.3,2.8c-0.3,0.1-0.2-0.2-0.2-0.3
				c0-1.7,0-3.4,0-5.1C262.3,397.8,262.3,397.8,262.4,397.8z"/>
			<path class="st150" d="M236.6,399.4c-0.3,0-0.7,0-0.5-0.5c0.1-0.2,0.4-0.4,0.6-0.3C237.1,398.9,236.5,399.1,236.6,399.4
				C236.5,399.4,236.6,399.4,236.6,399.4z"/>
			<path class="st151" d="M233,401c-0.1,0.2-0.2,0.5-0.5,0.4c-0.2,0-0.3-0.1-0.2-0.3c0-0.3,0.3-0.3,0.5-0.4
				C232.9,400.6,232.9,400.8,233,401z"/>
			<path class="st152" d="M262.8,403.5c0.5-0.8,0.2-1.9,0.9-2.6c0.1-0.1,0.1-0.2,0.2-0.3c0.1,0,0.1,0,0.2,0
				c-0.3,0.6-0.1,1.2-0.2,1.8c0.1,0.1,0,0.2,0,0.2c-0.1-0.1-0.2-0.2-0.3-0.4c0,0.7-0.2,1.4-0.6,2C262.9,404,262.7,403.8,262.8,403.5
				z"/>
			<path class="st153" d="M255.4,419c0-0.4-0.2-0.6-0.6-0.6c0.2-1.1,1-2,1.5-3c0.3,0,0.6,0.2,0.7,0.5c0,0.7-0.8,1-0.8,1.7
				C255.8,418,255.9,418.7,255.4,419z"/>
			<path class="st154" d="M264,402.6c0-0.1,0-0.1,0-0.2c0.5-0.2,0.1-1.1,0.8-1.2c-0.2,1.1-0.4,2.2-0.6,3.3c-0.1,0-0.2,0-0.2,0
				C264,403.9,264,403.3,264,402.6z"/>
		</g>
	</g>
	<path class="st155" d="M219.6,273.4c1.9-1.8,10.8-1.9,10.8-1.9s7.9-1.6,10.2-1.2s3,1.5,2.9,2.1c-0.1,0.5-0.1,1.1-3.4,1.1
		c-1.3,0-21.1,1.1-21.1,1.1L219.6,273.4z"/>
	<path class="st155" d="M221,271c1.7-1.6,10.5-2.7,10.5-2.7s8.4-1.8,10.7-1.7c2.3,0,3.6,0.6,3.1,0.8c-0.5,0.2-3.5,3.1-4.6,2.6
		c-2.4-1.2-20.2,2-20.2,2L221,271z"/>
	<path class="st155" d="M230.7,290.1c-0.9,0.2,1.6,2.8,2,2.8s9.7,0.3,10.9-0.8c1.2-1.1,0.3-1.5-0.6-1.5
		C242,290.6,232.3,289.7,230.7,290.1z"/>
</g>
<g id="Warstwa_2">
	<polyline class="st6" points="349.6,377.1 360.9,375.7 359.8,373 345,374.6 349.6,377.1 	"/>
	<path class="st156" d="M360.9,373c0,0.6-0.5,1-1,1c-0.6,0-4.2-0.4-4.2-0.9s3.7-1.1,4.2-1.1C360.5,371.9,360.9,372.4,360.9,373z"/>
	<path class="st157" d="M419.6,167.6c16.1-6.3,41.2-4.7,49.5-3.2c3.6,0.7,13.5,8.1,22.9,13.2c14.3,3,23.9,11.6,24.5,14.8
		c1.1,5.6-29.8-1-29.8-1l-47.6-6.1L419.6,167.6z"/>
	<path class="st158" d="M467.1,174.6c-14.1-9.8-22.8,8-38.4,6.8l-3.6-3.6l45.5,38.6c0,0-4.3,19,3.7,23.4c8,4.3,26.4-17.3,32.6-45.6
		C506.2,182.9,475,180.3,467.1,174.6z"/>
	<path class="st5" d="M452.2,163.8c8.9,0.3,32.9,10.8,35.9,13.1c3,2.3,6,1.5,6,1.5s-13.5-11.3-18.8-12.8c-5.3-1.5-21-4.5-22.5-3.8
		C451.3,162.6,452.2,163.8,452.2,163.8z"/>
	<path class="st159" d="M492.7,200.2c12.6-11.5,15.3-11.2,36-3.6c20.7,7.7,38.7,15,41.7,15.3c1,0.1,7,8.3,10.1,10
		c3.7,1.9-2.6,17.3-6.8,17.3c-22.4-0.3-56.2-18.2-78,17.9C476.2,264,482.2,209.8,492.7,200.2z"/>
	<path class="st159" d="M583.6,218.2c2.6,3.5,10.8,16.8-6.2,20.8c-4.6,1.1-17.8,0.1-19.4-3.5c-3.5-8.1-22.8-43.4-34.9-55.2
		c-11.5-11.2,16.2-2.1,26.3-4.3c2.1-0.5,4.3,0.4,4.8,2.5C557.9,191.6,576.1,207.9,583.6,218.2z"/>
	<g id="Warstwa_1_3_">
		<g id="Warstwa_1_4_">
			<path class="st1" d="M372.2,120.4c0,0,1.3,58.4-0.2,63.8c0,0,10.6-26.2,8.4-52.5S372.2,120.4,372.2,120.4z"/>
			<path class="st1" d="M375.4,126.1c0,0,7.1,58.1,5.9,63.6c0,0,8-27,3.3-53C380,110.6,375.4,126.1,375.4,126.1z"/>
			<path class="st157" d="M463.2,352.5c0,0,1.6,10.2-1.5,12.2c-31.6,3.7-75.6,6.6-100.6-28.4c4.2-7.1,11.3-7.2,11.3-7.2
				S450.3,344.7,463.2,352.5z"/>
			<g id="rest_2_">
				<g>
					<defs>
						<path id="SVGID_3_" d="M491.7,243c-10-23.2-2.3-30.3-2.3-30.3c4.8-10.2,20.8-20.8,15.9-27.9c-27.9,7.2-46.2,26-66.4,31.8
							c-8.6,5.2-34.5-33.9-38-29.6c0.7-1.2,0.1-4.9,0.1-4.9s-5.3,5-5.7,10.7s-1.7,2.6-0.8,11.7c-3.2,15.9,7,15-6.2,32.1
							c-23.8,28.9-4.8,42.7,0.9,52.5c2.5,22.8,3.5,26.2-13,43.8c8.7,10.2,26,19.5,45.7,22.6c11.5,1.7,36.5-2.7,36.5-2.7
							c25.8-36,24-52.5,28.7-63.1C494.1,269.5,500.4,263.2,491.7,243z"/>
					</defs>
					<use xlink:href="#SVGID_3_"  style="overflow:visible;fill:#F7CD45;"/>
					<clipPath id="SVGID_4_">
						<use xlink:href="#SVGID_3_"  style="overflow:visible;"/>
					</clipPath>
					<path class="st160" d="M494.1,203.2c-17.1,10.9-33.1,19.2-26.7,34.2c6.3,15,12.5,39.3-3.8,49.3c-9.7,5.9-22.9,4.3-22.2,9.3
						s17,23.5,6,27.1c-6,2-2.3,6-3.8,10.1c-3.1,9-6.1,19.1-17,21.2c-15.9,3-9.5,9.3-9.5,9.3l68.4-2.7l34.7-110.3l4.8-67.9
						L494.1,203.2z"/>
					<path class="st160" d="M450.1,323c-8.5,4.7-5.4,15.3-9.3,13.2c-19.4-10.1-14.2-3.2-10.3-0.7c3.9,2.5,12.6,4.5,6.3,14.7
						C442.6,348.3,450.1,323,450.1,323z"/>
				</g>
				<path id="collar4_2_" class="st157" d="M449.7,214.2l-15.3,9.5l-4.2-0.3c0,0-10.8-10.2-16.8-10.1c-6.6,0.3-13.1-18.4-13.1-18.4
					s-0.1-7.5,3.1-11.9c8.2-13.1,30.1-11,30.1-11l24.1,32.2L449.7,214.2z"/>
				<path id="neck_2_" class="st155" d="M434.1,136.2c0,0,13.2,32.2,21.5,42.3c7.9,5.7,20.3,8.8,20.3,8.8
					c-0.3,7.8-11.5,17.7-18.3,21.1c-12.2,6.1-31.1,4.5-43.8-7c-3.9-8.5,1.4-13.1,7.2-15.3c12.4-4.2,3.8-14.1-1.4-23.4L434.1,136.2z"
					/>
				<path id="neck_shadow_2_" class="st159" d="M418.4,162.8c8,5,10,10.4,6.8,21.1c5.7,9,19.1,11.6,23.9,10
					c13.8-4.7,12.2-10.8,12.2-10.8c0.5-12,2.9-26.9-3.1-34.3c-8.9-11.4-21.4-14.8-21.4-14.8L418.4,162.8z"/>
				<path id="collar3_1_" class="st5" d="M395.9,185.6c-2.8,3.7-4.4,15.2-1.2,18.8c8.1,8,37.6,19.1,37.6,19.1s-25-18.1-28.7-27
					c-3.5-6.2-2.1-15.9,11.9-22.3C414.7,173.9,404.5,175.2,395.9,185.6z"/>
				<path id="collar2_2_" class="st5" d="M475.8,185.2c18.3-9.9,18.3-15.1,29.6,1.4c-1.5,6-18.5,5-25.9,11.6
					c-8.1,7.2-28.4,27.3-46,24.3c6-3.5,17.5-16,22.3-21.6C462.5,193,470.5,188.1,475.8,185.2z"/>
				<path id="collar1_2_" class="st157" d="M505.9,191.2c4.6-7-4-11.5-10.2-9.8c-5.5,1.6-12.2,10.8-23.2,18.5
					c-9.6,6.7-21.6,13.9-26.2,16.2c-4,2.3-10.1,7.1-12,7.6C474.9,219.2,499.6,191.2,505.9,191.2z"/>
				<g id="zipper_1_">
					<path class="st161" d="M402.5,351.3c0,0,6.9-10,13.2-23.2c1.2-2.6-0.5-4.7,0.6-7.5c0.6-1.4,4-3.3,4.5-4.7
						c4.2-12,6.4-24.7,2.2-34.4c-7.6-17.3,2.4-29.1,4.9-36.2c2.5-7.2,4.1-23.3,4.1-23.3"/>
					<polygon class="st157" points="429.8,237.3 415.1,236.4 418.1,239.8 430.8,241.2 435.7,224.3 435.2,222.4 					"/>
					<polygon class="st5" points="430,222.7 415.1,236.4 429.8,237.3 435.2,222.4 					"/>
					<polygon class="st157" points="419.7,234.8 429.9,224.6 431.2,224.7 427.3,235.3 					"/>
				</g>
			</g>
			<g id="head_1_">
				<path id="hair_back_2_" class="st2" d="M443.1,66.8c0,0-42.7-10.9-66.8,11.7c-17.6,16.3,0.5,67.6,10.1,94.1
					c1.4,4-0.2,13.2,0.8,15.6c14.7-25,76.3-31.1,76.3-31.1L443.1,66.8z"/>
				<path id="head_4_" class="st155" d="M386.9,58.5c34.4-10.7,71.4-1.9,86.3,30.5c15.6,32.3,4.9,49.3-19.1,76.5
					c-3.3,3.8-16,13.4-20.7,16.1c-10.2,2.7-37.5-8.2-45.8-27.5c-3-6.6-2.7-15.8-7.5-26.3C368.3,101.5,378.9,61.1,386.9,58.5z"/>
				<path class="st159" d="M473.8,88.9c-15.6-32.3-55.5-47.8-86.9-30.4c-16.6,9.1-11.5,74.6-0.1,93.7c-2.5-15.1-6-31.6,3.6-45.2
					c10-14.1,17.2-25.3,27.3-26.9c19.9,15.5,40.6,53,40.9,81.5C476.7,135.3,487.4,117.1,473.8,88.9z"/>
				<path id="eyebrow2_2_" class="st162" d="M421.5,116.6c0.3-2,1.3-3.5,2.9-5.1s3.4-2.6,5.1-3.6c2.4-1.1,10.1-1.4,10.9-0.9l0.1,0.6
					c-1.3,0.2-8.1,1.6-9.9,2.6c-1.3,0.2-2.9,1.9-4,2.7s-2.8,2.5-4.5,3.5L421.5,116.6z"/>
				<path id="eyebrow1_1_" class="st162" d="M400.4,120.6c-4.5-2.8-10.4-2.4-11.7-2.3l0-0.6c0.6,0,4.4-0.8,5.1-0.8
					c3.2-0.1,4.6,0.3,5.8,1.1c0.7,0.5,2,1.2,2.6,2.5C402.2,120.3,400.9,120.6,400.4,120.6z"/>
				
					<ellipse id="eye1_2_" transform="matrix(0.968 -0.2508 0.2508 0.968 -18.5393 112.5857)" class="st162" cx="432.5" cy="129" rx="3.8" ry="5.7"/>
				<path class="st162" d="M419.8,164.5c0,0,3.1,3.9,8.9,2.1c6.4-2.4,6.5-5,6.5-8.2c-2.6,3.8-5.8,5.6-7.7,6.3
					C424.2,165.2,421.7,165.2,419.8,164.5z"/>
				<path class="st163" d="M396.6,141.1c2.9,1.3,10.2-0.5,13-1.6"/>
				<polygon class="st162" points="430.9,123.5 436.9,122.8 435.4,127.3 				"/>
			</g>
			<g id="hair_2_">
				<path class="st1" d="M362.8,99.8c-1.5,31.2,14.6,58.4,21.6,72.7c1.9,3.9,2.8,15.7,2.8,15.7s3.8-26.2-5.9-63.9
					c-3.9-15.2,4.9-35.5,18.5-46.8c-2.2,2.3-4.3,6.3-12.1,19.3c0,0,7-7.6,15.3-15.3c1.7-1.6,13.2-6,13.2-6s15.3,9.6,30.6,32.3
					c7,11.1,14.4,28.3,14,73.5c6.2-21.7,6.1-25.1,7.9-29.9c-2,19.8,0.2,27.5,0.2,27.5s2.6-4.5,16-21.5c2.3-5.5-1.6-37.8-1.6-37.8
					s3.3,12.4,4.2,25.8c-0.1,3.2,1.2,7.5,0.9,9.5c5.8-8,14.3-19.1,13.4-24.8c-2.6-20.2-29.8-108.6-89.2-94
					c-6.4,0.4-9.6,4.8-11.3,10.2C387.2,50.7,364.8,67.8,362.8,99.8z"/>
			</g>
			<path class="st159" d="M414.1,201.9c-4.7-7,0.1-12.5,4.4-14.6s7-4.6,7-4.6l1.2,3.3c0,0-7.2,3.3-9.2,7S414.1,201.9,414.1,201.9z"
				/>
		</g>
		<path class="st164" d="M364.3,116c-0.1,7.8,1.6,20.9,4.9,25.8c0-11.6-4.4-30-3.2-37.7C364,110.7,364.3,116,364.3,116z"/>
		<path class="st164" d="M370.6,114c-0.1,7.8,3.6,20.4,6.6,25.2c-7.3-23.1-3.6-31.4-4.5-39C370.8,106.7,370.6,114,370.6,114z"/>
		<path class="st164" d="M374.3,106.2c-0.8,7.8,1.8,20.6,4.4,25.7c-5.3-23.6-0.8-31.6-1.1-39.3C375.1,98.9,374.3,106.2,374.3,106.2z
			"/>
		<path class="st164" d="M368.7,113.6c-0.9,7.8,1.5,20.6,4,25.8c-4.9-23.7-0.3-31.6-0.5-39.3C369.6,106.4,368.7,113.6,368.7,113.6z"
			/>
		<path class="st164" d="M366.8,129.3c0,0-5.4-20-2.4-31.7c2.9-11.7,7.7-21.3,7.7-21.3s-3.6,10.8-2.9,15.3c1.4-7,8-16.3,8-16.3
			s-6,11.3-5.2,20.5c3.3-6.7,6.2-9.8,6.2-9.8s-7,20.7-6.2,26.7c-3.1-0.7-2.9,3.5-2.9,3.5L366.8,129.3z"/>
		<path class="st164" d="M371.3,128.3c0,0-5.4-20-2.4-31.7c2.9-11.7,7.7-21.3,7.7-21.3s-3.6,10.8-2.9,15.3c1.4-7,8-16.3,8-16.3
			s-6,11.3-5.2,20.5c3.3-6.7,6.2-9.8,6.2-9.8s-7,20.7-6.2,26.7c-3.1-0.7-2.9,3.5-2.9,3.5L371.3,128.3z"/>
		<path class="st164" d="M455.2,86.8c-5.9-6.9-18.2-17.4-26.2-20.1c8.9,10.1,28.8,23.9,33.2,31.2C459.8,91.3,455.2,86.8,455.2,86.8z
			"/>
		<path class="st164" d="M448.7,91.6c-5.9-6.9-20.4-15.9-28.1-18.7c27.3,16.5,28.9,25.5,36,31.7C454.1,98.1,448.7,91.6,448.7,91.6z"
			/>
		<path class="st164" d="M450,100.3c-5-7.2-18.3-17-25.6-20.2c25.1,18,25.5,27.1,31.8,33.6C454.6,107,450,100.3,450,100.3z"/>
		<path class="st164" d="M451.4,91.1c-4.8-7.2-17.8-17.2-25.1-20.5c24.7,18.2,24.8,27.3,31,33.9C455.8,97.8,451.4,91.1,451.4,91.1z"
			/>
		<path class="st164" d="M441.8,76.4c0,0,22.4,14.8,27.6,26.4s6.5,22.4,6.5,22.4s-3.8-11.2-8.2-14.8c3.6,6.8,2.3,18.2,2.3,18.2
			s-1.1-12.8-9.2-20.4c0.8,7.4-0.4,11.6-0.4,11.6s-7-21.4-12.6-26.2c4.5-0.9,1-4.5,1-4.5L441.8,76.4z"/>
		<path class="st164" d="M463.8,88.8c-4.5-7.5-17.2-18.1-24.3-21.7c23.9,19.5,23.8,28.6,29.7,35.5C468,95.8,463.8,88.8,463.8,88.8z"
			/>
		<path class="st164" d="M427.5,79.5c0,0,24.7,10.4,32,20.8s10.5,20.8,10.5,20.8s-5.8-10.3-10.7-13c4.8,6,5.6,17.5,5.6,17.5
			s-3.4-12.4-12.8-18.4c2.2,7.2,1.8,11.5,1.8,11.5S443,99,436.6,95.3c4.3-1.8,0.1-4.6,0.1-4.6L427.5,79.5z"/>
	</g>
	<path class="st6" d="M222.7,312.9l30.6,44.5c0.4,0.6,1,0.9,1.7,0.8l51-4.7c1.3-0.1,1.9-1.7,1.1-2.7L269,307.8
		c-0.7-0.8-1.8-1.2-2.9-1.2l-42,3.3C222.7,310.1,221.9,311.7,222.7,312.9z"/>
	<path class="st7" d="M216.5,311.8l30.6,44.5c0.4,0.6,1.4,2.2,2.1,1.9c0.6-1.2,1.9-1.3,1.9-1.3l48.8-4.5c1.3-0.1,1.9-1.7,1.1-2.7
		l-38.1-43.1c-0.7-0.8-1.8-1.2-2.9-1.2l-42,3.3C216.4,309,215.6,310.6,216.5,311.8z"/>
	<path class="st164" d="M364.3,116c-0.1,7.8,1.6,20.9,4.9,25.8c0-11.6-4.4-30-3.2-37.7C364,110.7,364.3,116,364.3,116z"/>
	<path class="st164" d="M370.6,114c-0.1,7.8,3.6,20.4,6.6,25.2c-7.3-23.1-3.6-31.4-4.5-39C370.8,106.7,370.6,114,370.6,114z"/>
	<path class="st164" d="M374.3,106.2c-0.8,7.8,1.8,20.6,4.4,25.7c-5.3-23.6-0.8-31.6-1.1-39.3C375.1,98.9,374.3,106.2,374.3,106.2z"
		/>
	<path class="st164" d="M368.7,113.6c-0.9,7.8,1.5,20.6,4,25.8c-4.9-23.7-0.3-31.6-0.5-39.3C369.6,106.4,368.7,113.6,368.7,113.6z"
		/>
	<path class="st164" d="M366.8,129.3c0,0-5.4-20-2.4-31.7c2.9-11.7,7.7-21.3,7.7-21.3s-2.2,7.5-1.4,12c1.4-7,6.6-13,6.6-13
		s-6,11.3-5.2,20.5c3.3-6.7,16.7-29.1,16.7-29.1s-17.4,40-16.7,45.9c-3.1-0.7-2.9,3.5-2.9,3.5L366.8,129.3z"/>
	<path class="st164" d="M371.3,128.3c0,0-5.4-20-2.4-31.7c2.9-11.7,7.7-21.3,7.7-21.3s-1.1,3.3-0.4,7.8c1.4-7,9.9-17.7,9.9-17.7
		s-7,10.7-6.2,19.9c3.3-6.7,12-11,12-11s-16.1,31.4-15.3,37.3c-3.1-0.7-2.9,3.5-2.9,3.5L371.3,128.3z"/>
	<path class="st164" d="M370.6,114c1.6,6.4,9.2,33.9,9.5,42.5c0.3,8.6,1.7,26.8,1.7,26.8s4.4-27.6-5.5-68c-2.7-11.1-3.5-6.2-3.5-6.2
		L370.6,114z"/>
	<path class="st164" d="M369.1,112.6c0.9,6.5,5.2,34.7,4.5,43.3c-0.7,8.5-1.4,26.8-1.4,26.8s7.5-27,2.3-68.2
		c-1.4-11.3-2.8-6.5-2.8-6.5L369.1,112.6z"/>
	<path class="st164" d="M450.6,97.7c1.6,6.4,9.2,33.9,9.5,42.5c0.3,8.6,1.7,26.8,1.7,26.8s4.4-27.6-5.5-68
		c-2.7-11.1-3.5-6.2-3.5-6.2L450.6,97.7z"/>
	<g>
		<path class="st164" d="M483.3,119.7c0,0,3.3,12.4,4.2,25.8c-0.1,3.2,8.2,8.2,7.9,10.1c5.8-8,7.3-19.7,6.4-25.4
			c-2.6-20.2-29.8-108.6-89.2-94c-6.4,0.4,17.6,6.6,27.3,10.4c11.7,4.6,35.5,26.2,40.6,59.8c5.7,37.9,3,41.2,2.5,54.2
			c2.4-3.2-2.6,2.7,2-3.1C487.3,152,483.3,119.7,483.3,119.7z"/>
	</g>
	<g>
		<path class="st2" d="M480.5,120c0,0,3.3,12.4,4.2,25.8c-0.1,3.2,8.2,8.2,7.9,10.1c5.8-8,5.2-18.4,4.3-24
			c-2.6-20.2-20-111.4-86.1-95.6c-6.3,2.1-10.5,5-12.2,10.4c-1.3,0.4,1.1,11.6,1.1,11.6c4.2-30.2,27.8-15.1,37.4-11.3
			c11.7,4.6,35.5,26.2,40.6,59.8c5.7,37.9,3,41.2,2.5,54.2c2.4-3.2-2.6,2.7,2-3.1C484.5,152.3,480.5,120,480.5,120z"/>
	</g>
	<path class="st159" d="M501.1,141c3.9,13.9,5.8,21.7,10.8,33.1c2,4.6,9.4,6.2,13.2,8.7c11.1,7.3,31.4-1.6,30.6-10.2
		c-0.3-3.4-4.3-8.8-5.8-17c-1-5.5,0.3-12.8-3.4-16.6c-6.9-6.8-6.3-6.3-7.8-12.2c-1.9-7.3-16.7,5.7-22.2,10.9
		c-1.7-1.8-7.1-2-10.5-16.2c-3.7-15.2-10.9-22.2-16.6-18.2c-7.8,5.3-2,19.9,5.2,28.5C502.3,140.9,501.1,141,501.1,141z"/>
	
		<ellipse transform="matrix(0.9933 -0.1158 0.1158 0.9933 -9.7281 57.8706)" class="st155" cx="493.2" cy="112.7" rx="6.6" ry="9.3"/>
	<path class="st1" d="M478.4,110c3.5,6.6,7.9,22.9,9.1,35.5c1.2,12.5,1.6,19.2,1.6,19.2s4.7-13.8,2.2-22.8c-2.5-9-6-29.2-6-29.2
		s-4.4-10.2-9.3-23C471.1,76.8,478.4,110,478.4,110z"/>
	<path class="st1" d="M448.7,51.9c11.2,4.4,20.2,14.3,24.3,21.1S483.1,94,483.1,94s-14.7-24.6-22.8-31.2S448.7,51.9,448.7,51.9z"/>
	
		<ellipse transform="matrix(0.9782 -0.2076 0.2076 0.9782 -19.7982 109.4736)" class="st155" cx="511.6" cy="149.1" rx="3" ry="6.3"/>
	<ellipse class="st155" cx="516.5" cy="159.8" rx="3" ry="6.3"/>
	<ellipse class="st155" cx="521.5" cy="169.9" rx="3" ry="6.3"/>
	<ellipse class="st155" cx="527.1" cy="176" rx="2.6" ry="5.5"/>
	<path class="st155" d="M509.3,143.6c0,0,0.1-3.3,4.2-4.8s11.6-9.4,14.7-9.5s-15.1,15.8-14.7,18.5s-3.6-4.3-3.6-4.3L509.3,143.6z"/>
	<path class="st155" d="M514.5,159.2c0.5-4.8,3.4-8.3,6.3-9.6s11-5.3,11-5.3s-9.2,9.3-10.3,11.3s-3,5.1-3,5.1L514.5,159.2z"/>
	<path class="st155" d="M519.5,168.3c-0.1-4.4-0.2-5,4.2-7.6c4.4-2.6,11.3-10.3,10.4-6s-6.9,7.8-7.6,8.8c-0.8,1-2.5,5.2-2.8,5.5
		C523.4,169.4,519.5,168.3,519.5,168.3z"/>
	<path class="st155" d="M525.2,176.1c-1-3.3-0.5-5.4,3.9-7.6s7.1-2.5,7.1-2.5s-5.2,3.5-6.4,7C528.5,176.6,525.2,176.1,525.2,176.1z"
		/>
	<path class="st155" d="M492,234.3c7.2-12.3,16.5-24.2,24.5-25.8c21.6-4.3,21-8.6,21-8.6s-17.2-7.5-22.9-8.5
		c-10.1-1.8-16.4,11.3-17.6,14.6C495.2,207.5,492,234.3,492,234.3z"/>
	<path class="st165" d="M389.6,342.3c0,0-11.8,11.5-12.2,12.8c-0.3,1.3,2.5,2,2.5,2l12.2-13.5L389.6,342.3z"/>
	<path class="st165" d="M379.1,332.5c0,0-14.2,8.4-14.8,9.6c-0.6,1.2,2,2.5,2,2.5l15-10.3L379.1,332.5z"/>
	<path class="st165" d="M419.8,351.8c0,0-4.6,15.8-4.2,17.2s3.2,0.5,3.2,0.5l3.9-17.7L419.8,351.8z"/>
	<path class="st158" d="M448.9,351.9c0,0-1.6,16.4-1,17.7c0.6,1.2,3.2-0.1,3.2-0.1l0.5-18.2L448.9,351.9z"/>
	<g>
		<g>
			<path class="st9" d="M264.2,348.6l-1.6-1.9c-0.2-0.2-0.7-0.3-1.3-0.3l-5.1,0.3c-0.5,0-0.8,0.2-0.7,0.4l1.5,1.9
				c0.2,0.2,0.7,0.3,1.3,0.3l5.1-0.3C264.1,349,264.4,348.8,264.2,348.6z"/>
			<path class="st9" d="M266.7,351.5l-1.6-1.9c-0.2-0.2-0.7-0.3-1.3-0.3l-5.1,0.3c-0.5,0-0.8,0.2-0.7,0.4l1.6,1.9
				c0.2,0.2,0.7,0.3,1.3,0.3l5.2-0.3C266.5,351.9,266.8,351.7,266.7,351.5z"/>
			<path class="st9" d="M259.4,342.8l-1.5-1.9c-0.2-0.2-0.7-0.3-1.2-0.3l-5,0.3c-0.5,0-0.8,0.2-0.7,0.4l1.5,1.9
				c0.2,0.2,0.7,0.3,1.2,0.3l5-0.3C259.2,343.2,259.5,343,259.4,342.8z"/>
			<path class="st9" d="M261.8,345.7l-1.6-1.9c-0.2-0.2-0.7-0.3-1.2-0.3l-5,0.3c-0.5,0-0.8,0.2-0.7,0.4l1.5,1.9
				c0.2,0.2,0.7,0.3,1.3,0.3l5.1-0.3C261.6,346.1,261.9,345.9,261.8,345.7z"/>
			<path class="st9" d="M249.1,337.8l4.9-0.3c0.5,0,0.8-0.2,0.6-0.4l-1.5-1.9c-0.2-0.2-0.7-0.3-1.2-0.3l-4.9,0.3
				c-0.5,0-0.8,0.2-0.7,0.4l1.4,1.9C248,337.7,248.6,337.8,249.1,337.8z"/>
			<path class="st9" d="M256.3,340.4c0.5,0,0.8-0.2,0.6-0.4l-1.5-1.9c-0.2-0.2-0.7-0.3-1.2-0.3l-4.9,0.3c-0.5,0-0.8,0.2-0.7,0.4
				l1.5,1.9c0.2,0.2,0.7,0.3,1.2,0.3L256.3,340.4z"/>
			<path class="st9" d="M242.1,329.8l1.4,1.9c0.1,0.2,0.7,0.3,1.2,0.3l4.8-0.3c0.5,0,0.8-0.2,0.6-0.4l-1.4-1.9
				c-0.1-0.2-0.7-0.3-1.2-0.3l-4.8,0.3C242.2,329.5,241.9,329.6,242.1,329.8z"/>
			<path class="st9" d="M246.9,334.9l4.9-0.3c0.5,0,0.8-0.2,0.6-0.4l-1.5-1.9c-0.2-0.2-0.7-0.3-1.2-0.3l-4.8,0.3
				c-0.5,0-0.8,0.2-0.7,0.4l1.4,1.9C245.8,334.8,246.3,334.9,246.9,334.9z"/>
			<path class="st9" d="M246.5,326.5c-0.1-0.2-0.7-0.3-1.2-0.3l-4.7,0.3c-0.5,0-0.8,0.2-0.7,0.4l1.4,1.9c0.1,0.2,0.7,0.3,1.2,0.3
				l4.8-0.3c0.5,0,0.8-0.2,0.6-0.4L246.5,326.5z"/>
			<path class="st9" d="M235.8,321.2l1.3,1.9c0.1,0.2,0.7,0.3,1.2,0.3l4.7-0.3c0.5,0,0.8-0.2,0.6-0.4l-1.4-1.9
				c-0.1-0.2-0.6-0.3-1.1-0.3l-4.6,0.3C236,320.8,235.7,321,235.8,321.2z"/>
			<path class="st9" d="M237.9,324l1.3,1.9c0.1,0.2,0.7,0.3,1.2,0.3l4.7-0.3c0.5,0,0.8-0.2,0.6-0.4l-1.4-1.9
				c-0.1-0.2-0.7-0.3-1.1-0.3l-4.7,0.3C238,323.7,237.7,323.8,237.9,324z"/>
			<path class="st9" d="M238.2,314.9c-0.1-0.2-0.6-0.3-1.1-0.3l-4.6,0.4c-0.5,0-0.8,0.2-0.6,0.4l1.3,1.9c0.1,0.2,0.6,0.3,1.1,0.3
				l4.6-0.4c0.5,0,0.7-0.2,0.6-0.4L238.2,314.9z"/>
			<path class="st9" d="M233.8,318.3l1.3,1.9c0.1,0.2,0.7,0.4,1.2,0.3l4.6-0.3c0.5,0,0.8-0.2,0.7-0.5l-1.3-1.9
				c-0.2-0.2-0.7-0.4-1.2-0.3l-4.6,0.4C233.9,317.9,233.6,318.1,233.8,318.3z"/>
			<path class="st9" d="M246.3,324.2l4.6-0.4c0.4,0,0.7-0.2,0.5-0.4l-1.4-1.9c-0.1-0.2-0.6-0.3-1-0.3l-4.5,0.4
				c-0.4,0-0.7,0.2-0.6,0.4l1.4,1.9C245.4,324.2,245.8,324.3,246.3,324.2z"/>
			<path class="st9" d="M242.1,318.5l4.5-0.4c0.5,0,0.7-0.2,0.6-0.4l-1.4-1.9c-0.1-0.2-0.6-0.3-1.1-0.3l-4.4,0.4
				c-0.5,0-0.7,0.2-0.6,0.4l1.3,1.9C241.1,318.4,241.6,318.5,242.1,318.5z"/>
			<path class="st9" d="M244.2,321.4l4.5-0.4c0.5,0,0.7-0.2,0.6-0.4l-1.4-1.9c-0.1-0.2-0.6-0.3-1.1-0.3l-4.5,0.4
				c-0.5,0-0.7,0.2-0.6,0.4l1.4,1.9C243.2,321.3,243.7,321.4,244.2,321.4z"/>
			<path class="st9" d="M235.7,310.6l1.3,1.9c0.1,0.2,0.6,0.3,1.1,0.3l4.4-0.4c0.5,0,0.7-0.2,0.6-0.4l-1.3-1.9
				c-0.1-0.2-0.6-0.3-1.1-0.3l-4.3,0.4C235.8,310.2,235.5,310.4,235.7,310.6z"/>
			<path class="st9" d="M242.6,312.7l-4.4,0.4c-0.5,0-0.7,0.2-0.6,0.4l1.3,1.9c0.1,0.2,0.6,0.3,1.1,0.3l4.4-0.4
				c0.5,0,0.7-0.2,0.6-0.4l-1.3-1.9C243.6,312.8,243.1,312.6,242.6,312.7z"/>
			<path class="st9" d="M263,338l-1.5-1.9c-0.2-0.2-0.7-0.3-1.2-0.3l-4.8,0.3c-0.5,0-0.8,0.2-0.6,0.4l1.5,1.9
				c0.2,0.2,0.7,0.3,1.2,0.3l4.8-0.3C262.9,338.4,263.1,338.2,263,338z"/>
			<path class="st9" d="M252.9,333l4.7-0.3c0.5,0,0.8-0.2,0.6-0.4l-1.5-1.9c-0.2-0.2-0.7-0.3-1.2-0.3l-4.7,0.3
				c-0.5,0-0.8,0.2-0.6,0.4l1.5,1.9C251.9,332.9,252.4,333,252.9,333z"/>
			<path class="st9" d="M260.6,335.1l-1.5-1.9c-0.2-0.2-0.7-0.3-1.2-0.3l-4.7,0.3c-0.5,0-0.8,0.2-0.6,0.4l1.5,1.9
				c0.2,0.2,0.7,0.3,1.2,0.3l4.8-0.3C260.5,335.5,260.7,335.3,260.6,335.1z"/>
			<path class="st9" d="M267.5,344.5l-4.9,0.3c-0.5,0-0.8,0.2-0.6,0.4l1.6,1.9c0.2,0.2,0.7,0.3,1.3,0.3l5-0.3c0.5,0,0.8-0.2,0.6-0.4
				l-1.6-1.9C268.5,344.6,268,344.5,267.5,344.5z"/>
			<path class="st9" d="M262.6,338.7l-4.8,0.3c-0.5,0-0.8,0.2-0.6,0.4l1.5,1.9c0.2,0.2,0.7,0.3,1.2,0.3l4.9-0.3
				c0.5,0,0.8-0.2,0.6-0.4l-1.6-1.9C263.6,338.8,263.1,338.7,262.6,338.7z"/>
			<path class="st9" d="M267.8,343.8l-1.6-1.9c-0.2-0.2-0.7-0.3-1.2-0.3l-4.9,0.3c-0.5,0-0.8,0.2-0.6,0.4l1.6,1.9
				c0.2,0.2,0.7,0.3,1.2,0.3l4.9-0.3C267.7,344.2,268,344,267.8,343.8z"/>
			<path class="st9" d="M251.1,324.2l-4.6,0.4c-0.5,0-0.8,0.2-0.6,0.4l1.4,1.9c0.1,0.2,0.7,0.3,1.2,0.3l4.6-0.4
				c0.5,0,0.7-0.2,0.6-0.4l-1.4-1.9C252.1,324.3,251.6,324.2,251.1,324.2z"/>
			<path class="st9" d="M250.7,330.1l4.7-0.3c0.5,0,0.7-0.2,0.6-0.4l-1.5-1.9c-0.2-0.2-0.7-0.3-1.1-0.3l-4.6,0.3
				c-0.5,0-0.8,0.2-0.6,0.4l1.4,1.9C249.7,330,250.2,330.1,250.7,330.1z"/>
			<path class="st9" d="M255.1,320.1l-4.4,0.4c-0.5,0-0.7,0.2-0.6,0.4l1.4,1.9c0.1,0.2,0.7,0.3,1.1,0.3l4.4-0.4
				c0.5,0,0.7-0.2,0.5-0.4l-1.5-1.9C256,320.2,255.5,320,255.1,320.1z"/>
			<path class="st9" d="M250.7,314.3l-4.3,0.4c-0.5,0-0.7,0.2-0.6,0.4l1.4,1.9c0.1,0.2,0.6,0.3,1.1,0.3l4.3-0.4
				c0.4,0,0.7-0.2,0.5-0.4l-1.4-1.9C251.6,314.4,251.1,314.2,250.7,314.3z"/>
			<path class="st9" d="M252.9,317.2l-4.3,0.4c-0.5,0-0.7,0.2-0.6,0.4l1.4,1.9c0.1,0.2,0.6,0.3,1.1,0.3l4.4-0.4
				c0.5,0,0.7-0.2,0.5-0.4l-1.4-1.9C253.8,317.3,253.3,317.1,252.9,317.2z"/>
			<path class="st9" d="M266.7,334.6l-4.6,0.4c-0.5,0-0.8,0.2-0.6,0.4l1.5,1.9c0.2,0.2,0.7,0.3,1.2,0.3l4.7-0.3
				c0.5,0,0.7-0.2,0.6-0.4l-1.6-1.9C267.7,334.7,267.2,334.6,266.7,334.6z"/>
			<path class="st9" d="M261.9,328.8l-4.5,0.4c-0.5,0-0.7,0.2-0.6,0.4l1.5,1.9c0.2,0.2,0.7,0.3,1.2,0.3l4.6-0.4
				c0.5,0,0.7-0.2,0.6-0.4l-1.5-1.9C262.9,328.9,262.4,328.7,261.9,328.8z"/>
			<path class="st9" d="M264.3,331.7l-4.6,0.4c-0.5,0-0.7,0.2-0.6,0.4l1.5,1.9c0.2,0.2,0.7,0.3,1.2,0.3l4.6-0.4
				c0.5,0,0.7-0.2,0.6-0.4l-1.6-1.9C265.3,331.8,264.8,331.6,264.3,331.7z"/>
			<path class="st9" d="M277,345.5l-1.7-1.9c-0.2-0.2-0.7-0.3-1.2-0.3l-4.8,0.3c-0.5,0-0.8,0.2-0.6,0.4l1.6,1.9
				c0.2,0.2,0.7,0.3,1.2,0.3l4.8-0.3C276.9,345.9,277.2,345.7,277,345.5z"/>
			<path class="st9" d="M271.9,339.6l-1.6-1.9c-0.2-0.2-0.7-0.3-1.2-0.3l-4.7,0.3c-0.5,0-0.8,0.2-0.6,0.4l1.6,1.9
				c0.2,0.2,0.7,0.3,1.2,0.3l4.7-0.3C271.8,340,272.1,339.8,271.9,339.6z"/>
			<path class="st9" d="M271.6,340.4l-4.7,0.3c-0.5,0-0.8,0.2-0.6,0.4l1.6,1.9c0.2,0.2,0.7,0.3,1.2,0.3l4.8-0.3
				c0.5,0,0.8-0.2,0.6-0.4l-1.6-1.9C272.6,340.5,272.1,340.3,271.6,340.4z"/>
			<path class="st9" d="M259.9,325.2l-1.5-1.9c-0.2-0.2-0.7-0.3-1.1-0.3l-4.4,0.4c-0.5,0-0.7,0.2-0.6,0.4l1.4,1.9
				c0.2,0.2,0.7,0.3,1.1,0.3l4.5-0.4C259.8,325.5,260.1,325.4,259.9,325.2z"/>
			<path class="st9" d="M259.6,325.9l-4.5,0.4c-0.5,0-0.7,0.2-0.6,0.4l1.5,1.9c0.2,0.2,0.7,0.3,1.1,0.3l4.5-0.4
				c0.5,0,0.7-0.2,0.6-0.4l-1.5-1.9C260.6,326,260.1,325.8,259.6,325.9z"/>
			<path class="st9" d="M262.9,320.3l-1.5-1.9c-0.2-0.2-0.6-0.3-1.1-0.3l-4.2,0.4c-0.4,0-0.7,0.2-0.5,0.4l1.5,1.9
				c0.2,0.2,0.6,0.3,1.1,0.3l4.3-0.4C262.8,320.6,263.1,320.4,262.9,320.3z"/>
			<path class="st9" d="M260.6,317.3l-1.5-1.9c-0.2-0.2-0.6-0.3-1.1-0.3l-4.2,0.4c-0.4,0-0.7,0.2-0.5,0.4l1.4,1.9
				c0.2,0.2,0.6,0.3,1.1,0.3l4.2-0.4C260.5,317.7,260.7,317.5,260.6,317.3z"/>
			<path class="st9" d="M275,334.8l-1.6-1.9c-0.2-0.2-0.7-0.3-1.1-0.3l-4.5,0.4c-0.5,0-0.7,0.2-0.6,0.4l1.6,1.9
				c0.2,0.2,0.7,0.3,1.2,0.3l4.5-0.4C274.9,335.2,275.2,335,275,334.8z"/>
			<path class="st9" d="M270,329l-1.6-1.9c-0.2-0.2-0.7-0.3-1.1-0.3l-4.4,0.4c-0.5,0-0.7,0.2-0.5,0.4l1.5,1.9
				c0.2,0.2,0.7,0.3,1.1,0.3l4.4-0.4C270,329.4,270.2,329.2,270,329z"/>
			<path class="st9" d="M272.5,331.9l-1.6-1.9c-0.2-0.2-0.7-0.3-1.1-0.3l-4.4,0.4c-0.5,0-0.7,0.2-0.6,0.4l1.6,1.9
				c0.2,0.2,0.7,0.3,1.1,0.3l4.4-0.4C272.4,332.3,272.6,332.1,272.5,331.9z"/>
			<path class="st9" d="M282.7,343.5l-1.7-1.9c-0.2-0.2-0.7-0.3-1.2-0.3l-4.6,0.4c-0.5,0-0.7,0.2-0.6,0.4l1.7,1.9
				c0.2,0.2,0.7,0.3,1.2,0.3l4.6-0.3C282.6,343.9,282.9,343.7,282.7,343.5z"/>
			<path class="st9" d="M287.5,348.1l1.8,1.9c0.2,0.2,0.8,0.3,1.3,0.3l5.2-0.4c0.5,0,0.8-0.2,0.6-0.4l-1.8-1.9
				c-0.2-0.2-0.8-0.3-1.3-0.3l-5.2,0.4C287.6,347.7,287.3,347.9,287.5,348.1z"/>
			<path class="st9" d="M284.8,345.2l1.7,1.9c0.2,0.2,0.8,0.3,1.3,0.3l5.2-0.4c0.5,0,0.8-0.2,0.6-0.4l-1.8-1.9
				c-0.2-0.2-0.8-0.3-1.3-0.3l-5.1,0.4C284.9,344.8,284.6,345,284.8,345.2z"/>
			<path class="st9" d="M282.2,342.3l1.7,1.9c0.2,0.2,0.8,0.3,1.3,0.3l5.1-0.4c0.5,0,0.8-0.2,0.6-0.4l-1.8-1.9
				c-0.2-0.2-0.8-0.3-1.3-0.3l-5.1,0.4C282.3,341.9,282,342.1,282.2,342.3z"/>
			<path class="st9" d="M261.3,317.5l1.5,1.9c0.2,0.2,0.7,0.3,1.2,0.3l4.6-0.4c0.5,0,0.7-0.2,0.6-0.4l-1.5-1.9
				c-0.2-0.2-0.7-0.3-1.1-0.3l-4.6,0.4C261.4,317.2,261.2,317.4,261.3,317.5z"/>
			<path class="st9" d="M277.5,337.7l-1.6-1.9c-0.2-0.2-0.7-0.3-1.2-0.3l-4.5,0.4c-0.5,0-0.7,0.2-0.6,0.4l1.6,1.9
				c0.2,0.2,0.7,0.3,1.2,0.3l4.5-0.4C277.4,338.1,277.7,337.9,277.5,337.7z"/>
			<path class="st9" d="M272.1,339.2l1.6,1.9c0.2,0.2,0.7,0.3,1.2,0.3l4.6-0.4c0.5,0,0.7-0.2,0.5-0.4l-1.7-1.9
				c-0.2-0.2-0.7-0.3-1.2-0.3l-4.5,0.4C272.2,338.8,271.9,339,272.1,339.2z"/>
			<path class="st9" d="M265.2,323.2l-1.5-1.9c-0.2-0.2-0.6-0.3-1.1-0.3l-4.3,0.4c-0.5,0-0.7,0.2-0.5,0.4l1.5,1.9
				c0.2,0.2,0.7,0.3,1.1,0.3l4.3-0.4C265.2,323.6,265.4,323.4,265.2,323.2z"/>
			<path class="st9" d="M260.1,324.7l1.5,1.9c0.2,0.2,0.7,0.3,1.1,0.3l4.4-0.4c0.4,0,0.7-0.2,0.5-0.4l-1.5-1.9
				c-0.2-0.2-0.7-0.3-1.1-0.3l-4.3,0.4C260.2,324.3,260,324.5,260.1,324.7z"/>
			<path class="st9" d="M258.8,352l-1.6-1.9c-0.2-0.2-0.7-0.3-1.3-0.3l-2.2,0.1c-0.6,0-0.9,0.2-0.7,0.4l1.5,1.9
				c0.2,0.2,0.7,0.3,1.3,0.3l2.3-0.1C258.7,352.4,259,352.2,258.8,352z"/>
			<path class="st9" d="M256.3,349l-1.5-1.9c-0.2-0.2-0.7-0.3-1.3-0.3l-2.2,0.1c-0.5,0-0.9,0.2-0.7,0.4l1.5,1.9
				c0.2,0.2,0.7,0.3,1.3,0.3l2.2-0.1C256.2,349.4,256.5,349.2,256.3,349z"/>
			<path class="st9" d="M253.9,346l-1.5-1.9c-0.2-0.2-0.7-0.3-1.3-0.3l-2.2,0.1c-0.5,0-0.9,0.2-0.7,0.4l1.5,1.9
				c0.2,0.2,0.7,0.3,1.3,0.3l2.2-0.1C253.7,346.4,254,346.2,253.9,346z"/>
			<path class="st9" d="M251.4,343l-1.5-1.9c-0.2-0.2-0.7-0.3-1.2-0.3l-2.2,0.1c-0.5,0-0.8,0.2-0.7,0.4l1.5,1.9
				c0.2,0.2,0.7,0.3,1.3,0.3l2.2-0.1C251.3,343.4,251.6,343.2,251.4,343z"/>
			<path class="st9" d="M249.1,340l-1.5-1.9c-0.2-0.2-0.7-0.3-1.2-0.3l-2.2,0.1c-0.5,0-0.8,0.2-0.7,0.4l1.4,1.9
				c0.2,0.2,0.7,0.3,1.2,0.3l2.2-0.1C249,340.4,249.3,340.2,249.1,340z"/>
			<path class="st9" d="M246.8,337l-1.4-1.9c-0.1-0.2-0.7-0.3-1.2-0.3l-2.1,0.1c-0.5,0-0.8,0.2-0.7,0.4l1.4,1.9
				c0.1,0.2,0.7,0.3,1.2,0.3l2.1-0.1C246.6,337.4,246.9,337.2,246.8,337z"/>
			<path class="st9" d="M244.5,334l-1.4-1.9c-0.1-0.2-0.7-0.3-1.2-0.3l-2.1,0.1c-0.5,0-0.8,0.2-0.7,0.4l1.4,1.9
				c0.1,0.2,0.7,0.3,1.2,0.3l2.1-0.1C244.3,334.4,244.6,334.2,244.5,334z"/>
			<path class="st9" d="M242.2,331l-1.4-1.9c-0.1-0.2-0.7-0.3-1.2-0.3l-2.1,0.1c-0.5,0-0.8,0.2-0.7,0.4l1.4,1.9
				c0.1,0.2,0.7,0.3,1.2,0.3l2.1-0.1C242.1,331.3,242.3,331.2,242.2,331z"/>
			<path class="st9" d="M240,328l-1.4-1.9c-0.1-0.2-0.7-0.3-1.2-0.3l-2.1,0.1c-0.5,0-0.8,0.2-0.7,0.4l1.3,1.9
				c0.1,0.2,0.7,0.3,1.2,0.3l2.1-0.1C239.9,328.4,240.2,328.2,240,328z"/>
			<path class="st9" d="M237.8,325l-1.3-1.9c-0.1-0.2-0.7-0.3-1.2-0.3l-2,0.1c-0.5,0-0.8,0.2-0.7,0.4l1.3,1.9
				c0.1,0.2,0.7,0.3,1.2,0.3l2.1-0.1C237.7,325.3,238,325.2,237.8,325z"/>
			<path class="st9" d="M235.8,322l-1.3-1.9c-0.1-0.2-0.6-0.3-1.1-0.3l-2,0.1c-0.5,0-0.8,0.2-0.7,0.4l1.3,1.9
				c0.1,0.2,0.7,0.3,1.2,0.3l2-0.1C235.6,322.4,235.9,322.2,235.8,322z"/>
			<path class="st9" d="M233.7,319l-1.3-1.9c-0.1-0.2-0.6-0.3-1.1-0.3l-2,0.1c-0.5,0-0.8,0.2-0.7,0.4l1.3,1.9
				c0.1,0.2,0.6,0.3,1.1,0.3l2-0.1C233.5,319.4,233.8,319.2,233.7,319z"/>
			<path class="st9" d="M231.6,316l-1.3-1.9c-0.1-0.2-0.6-0.3-1.1-0.3l-2,0.1c-0.5,0-0.8,0.2-0.7,0.4l1.2,1.9
				c0.1,0.2,0.6,0.3,1.1,0.3l2-0.1C231.5,316.4,231.8,316.2,231.6,316z"/>
			<path class="st9" d="M229.6,313l-1.2-1.9c-0.1-0.2-0.6-0.3-1.1-0.3l-2,0.1c-0.5,0-0.8,0.2-0.6,0.4l1.2,1.9
				c0.1,0.2,0.6,0.3,1.1,0.3l2-0.1C229.5,313.4,229.8,313.2,229.6,313z"/>
			<path class="st9" d="M274.1,351.1l-2.9-3.3c-0.2-0.2-0.7-0.3-1.2-0.3l-5,0.3c-0.5,0-0.8,0.2-0.6,0.4l2.8,3.3
				c0.2,0.2,0.7,0.3,1.3,0.3l5-0.3C274,351.4,274.3,351.3,274.1,351.1z"/>
			<path class="st9" d="M281.5,350.6l-3.7-4.1c-0.2-0.2-0.7-0.3-1.2-0.3l-4.8,0.3c-0.5,0-0.8,0.2-0.6,0.4l3.6,4.1
				c0.2,0.2,0.7,0.3,1.3,0.3l4.9-0.3C281.5,350.9,281.7,350.8,281.5,350.6z"/>
			<path class="st9" d="M288.7,350l-5.1-5.6c-0.2-0.2-0.7-0.3-1.2-0.3l-4.6,0.3c-0.5,0-0.7,0.2-0.6,0.4l5,5.6
				c0.2,0.2,0.7,0.3,1.2,0.3l4.7-0.3C288.6,350.4,288.8,350.2,288.7,350z"/>
			<path class="st9" d="M279,338.6l2.3,2.6c0.2,0.2,0.7,0.3,1.2,0.3l5.3-0.4c0.5,0,0.7-0.2,0.5-0.4l-2.4-2.6
				c-0.2-0.2-0.7-0.3-1.1-0.3l-5.2,0.4C279,338.3,278.8,338.4,279,338.6z"/>
			<path class="st9" d="M263.7,320.5l2.1,2.6c0.2,0.2,0.6,0.3,1.1,0.3l4.9-0.4c0.4,0,0.6-0.2,0.5-0.4l-2.2-2.6
				c-0.2-0.2-0.6-0.3-1.1-0.3l-4.9,0.4C263.8,320.1,263.5,320.3,263.7,320.5z"/>
			<path class="st9" d="M229.6,310.7c-0.5,0-0.8,0.2-0.6,0.4l2.2,3.4c0.1,0.2,0.6,0.3,1.1,0.3l4.5-0.4c0.5,0,0.7-0.2,0.6-0.4
				l-2.3-3.4c-0.1-0.2-0.6-0.3-1.1-0.3L229.6,310.7z"/>
			<path class="st9" d="M242.2,310l2.9,4.1c0.1,0.2,0.6,0.3,1.1,0.3l4.3-0.4c0.4,0,0.7-0.2,0.5-0.4l-3-4.1c-0.1-0.2-0.6-0.3-1-0.3
				l-4.2,0.4C242.4,309.6,242.1,309.8,242.2,310z"/>
			<path class="st9" d="M248.5,309.5l4.1,5.5c0.1,0.2,0.6,0.3,1.1,0.3l4.2-0.4c0.4,0,0.7-0.2,0.5-0.4l-4.2-5.5
				c-0.1-0.2-0.6-0.3-1-0.3l-4.1,0.4C248.6,309.1,248.4,309.3,248.5,309.5z"/>
			<path class="st9" d="M262.2,314.4l1.5,1.9c0.2,0.2,0.6,0.3,1,0.3l1.6-0.2c0.4,0,0.6-0.2,0.5-0.4l-1.5-1.9c-0.2-0.2-0.6-0.3-1-0.3
				l-1.6,0.2C262.3,314,262.1,314.2,262.2,314.4z"/>
			<path class="st9" d="M257.7,308.6l1.4,1.9c0.2,0.2,0.6,0.3,1,0.3l1.6-0.2c0.4,0,0.6-0.2,0.5-0.4l-1.5-1.9c-0.2-0.2-0.6-0.3-1-0.3
				l-1.6,0.2C257.8,308.2,257.6,308.4,257.7,308.6z"/>
			<path class="st9" d="M256.8,311.8l1.4,1.9c0.2,0.2,0.6,0.3,1,0.3l4.7-0.5c0.4,0,0.6-0.2,0.5-0.4l-1.5-1.9c-0.2-0.2-0.6-0.3-1-0.3
				l-4.7,0.5C256.9,311.4,256.7,311.6,256.8,311.8z"/>
			<path class="st9" d="M266.6,324.1l11.5,13.5c0.2,0.2,0.7,0.3,1.2,0.3l5.2-0.4c0.5,0,0.7-0.2,0.5-0.4l-11.8-13.5
				c-0.2-0.2-0.6-0.3-1.1-0.3l-4.9,0.4C266.7,323.7,266.4,323.9,266.6,324.1z"/>
		</g>
	</g>
	<polygon class="st6" points="284.7,380.2 336.8,419.9 382.4,395.7 322.7,362 	"/>
	<polygon class="st7" points="284.7,380.2 336.8,419.9 374.7,395.4 321.5,361.2 	"/>
	<path class="st166" d="M286.6,379.7c4.5,1.2,25.2,18.7,26.5,18.9c4.9-2.5,25,16.9,25,16.9s34.7-20,34.5-21.5
		c-0.1-1.5-23.6-16.7-27-17.3c-5.7-4.9-22.7-15.8-22.7-15.8L286.6,379.7"/>
	<path class="st9" d="M218.6,308.8l33.1,47.5c0,0-2.5,0.6-2.7,1.7s-32.5-46.9-32.5-46.9S215.7,309.5,218.6,308.8z"/>
	<polyline class="st7" points="313,398.6 345.6,376.7 311.1,397.4 313,398.6 	"/>
	<path class="st157" d="M315.8,375c0,0,2.7-0.3,6.7-0.6c1.9-0.2,3.9-0.9,6.2-1.1c2-0.2,4.2,0.1,6.3-0.1c9.9-0.9,20.3-1.8,22.4-1.7
		c4.2,0.2,1.7,2.7,1.7,2.7l-23.3,2.1c0,0-4.6,0.9-6.2,1c-1.5,0.1-6.2,0.1-6.2,0.1l-6,0.5l-5.7-1L315.8,375z"/>
	<path class="st167" d="M311,377.1l4.8-2.2c0.7,0.4,1,3.1,1,3.1l-5.9-0.7V377.1z"/>
	<polygon class="st156" points="348.7,373.3 359.1,372.6 358.4,370.6 346.1,371.5 	"/>
	<path class="st168" d="M320.1,374.6c0,0,0.5,0.7,0.6,1.5s-0.1,1.5-0.1,1.5"/>
	<path class="st169" d="M292.6,378.7c1.7,0.1,3.3,1.3,4.7,2.2s6.3,3.8,6.3,3.8l4.7,4.4l4.8,2.9"/>
	<path class="st169" d="M296.5,377.1c1.7,0.1,4.2,1,5.6,1.8c1.4,0.9,5.3,5.7,5.3,5.7l4.6,2.9l4.8,2.9"/>
	<path class="st155" d="M237.8,278.4c7.7,0,10.1,4,14.5,5s12.9,0.7,13.2-1c1.5-8.6-18.5-15.1-20.1-15.1s-4,0.8-4,0.8L237.8,278.4z"
		/>
	<path class="st5" d="M514.5,191.4c-5.6-5.4-11.4-10.1-15.3-10.3c-3.9-0.2-4.1-4.9-4.1-4.9s17.3,3.7,20.7,15.6L514.5,191.4z"/>
</g>
<g id="Warstwa_5">
	<g>
		<path class="st170" d="M122.7,139.4l61.2-27.3c9.8-4.4,21,2.4,21.7,13.1l13.7,207.4c0.8,12.6-13,20.8-23.6,14.1l-68.1-43
			c-4.2-2.7-6.9-7.3-7.2-12.3l-6.8-137.1C113.3,147.9,116.9,142,122.7,139.4z"/>
		<g>
			<path class="st7" d="M130.8,157.7l30.8-11.2c11.6-4.2,23.9,3.9,24.7,16.1l8.8,132.5c1,15.1,16,60.8,3.2,52.8l-74.1-47.3
				c-5.1-3.2-3.9-13.2-0.6-25.2l-5-99.5C118.2,167.9,123.1,160.5,130.8,157.7z"/>
		</g>
	</g>
	<path class="st171" d="M143.1,254.5c-4.1,0.9-5.4,5.5-5.6,6c0,0,0,0.1-0.1,0.1l-34.9,94.1c-0.2,0.5,0,3.6,0.3,4.1l12.1,18.9
		c0.8,1.4,10.5-1.7,10.8-3.3l25.9-113.9c0,0,0.7-3.5,5-4.7L143.1,254.5z"/>
	<path class="st171" d="M111.2,353.9l23.3-9c2.6-1,5.5-0.6,7.7,1.1l26.8,20.5c2.3,1.8,1.8,5.5-1,6.5l-43.4,7.9
		c-3.6,1.3-7.6-0.1-9.6-3.3l-7.8-12.1C104.6,361.3,106.5,355.7,111.2,353.9z"/>
	<ellipse class="st171" cx="146.4" cy="197.5" rx="6.7" ry="10.8"/>
</g>
<g id="Warstwa_4" class="st0">
	<rect x="-544.6" y="-152" class="st172" width="1188" height="981"/>
	<line class="st173" x1="334.3" y1="413.1" x2="332.1" y2="416.4"/>
	<path class="st174" d="M291.4,377.2l24.6,19c4-1.4,19.4,10.8,24.8,17"/>
	<path class="st174" d="M294.5,375.7l24.6,19c5.4-2,19.7,10.6,25.7,16.4"/>
	<line class="st174" x1="297.5" y1="374.2" x2="321.4" y2="392.6"/>
	<line class="st174" x1="300.6" y1="372.6" x2="324.2" y2="390.9"/>
	<line class="st174" x1="303.6" y1="371.1" x2="326.9" y2="389"/>
	<line class="st174" x1="306.7" y1="369.6" x2="329.7" y2="387.4"/>
	<line class="st174" x1="309.7" y1="368.1" x2="332.1" y2="385.4"/>
	<line class="st174" x1="312.8" y1="366.6" x2="335.6" y2="383.5"/>
	<line class="st174" x1="315.8" y1="365.1" x2="338.4" y2="381.4"/>
	<line class="st174" x1="318.9" y1="363.6" x2="341.5" y2="379.1"/>
	<path class="st174" d="M347.6,409.3c-4.6-5-22.1-19.9-26.2-16.8"/>
	<path class="st174" d="M350.3,407.8c-4.6-5-22.1-19.9-26.2-16.8"/>
	<path class="st174" d="M353.3,406c-4.6-5-22.1-19.9-26.2-16.8"/>
	<path class="st174" d="M356.3,404.4c-4.6-5-22.5-20.4-26.6-17.2"/>
	<path class="st174" d="M359.1,402.6c-4.6-5-22.7-20.2-26.8-17"/>
	<path class="st174" d="M362.3,400.7c-4.6-5-21.9-18.6-26.7-17.2"/>
	<path class="st174" d="M365.5,398.6c-4.6-5-22.3-18.8-27.2-17.2"/>
	<path class="st174" d="M367.9,396.8c-4.6-5-20.8-17.9-26.4-17.7"/>
	<polyline class="st173" points="291.2,385.1 292.7,383.3 327.6,364.3 	"/>
	<line class="st173" x1="333.1" y1="411" x2="367.8" y2="390.5"/>
</g>
</svg>
