<?xml version="1.0" encoding="utf-8"?>
<!-- Generator: Adobe Illustrator 21.1.0, SVG Export Plug-In . SVG Version: 6.00 Build 0)  -->
<svg version="1.1" xmlns="http://www.w3.org/2000/svg" xmlns:xlink="http://www.w3.org/1999/xlink" x="0px" y="0px"
	 viewBox="0 0 77.5 79.3" style="enable-background:new 0 0 77.5 79.3;" xml:space="preserve">
<style type="text/css">
	.st0{display:none;}
	.st1{display:inline;fill:#696E9E;}
	.st2{fill:#A5AAD8;}
	.st3{fill:#F8B277;}
	.st4{fill:#FBCFA5;}
	.st5{fill:#0A9575;}
	.st6{fill:#F4B405;}
	.st7{fill:#6C6D9F;}
	.st8{fill:#35B399;}
	.st9{fill:#F7CD44;}
	.st10{fill:#F7CD45;}
	.st11{fill:#8487C1;}
	.st12{fill:#088063;}
	.st13{fill:#6E6981;}
	.st14{fill:#20AE88;}
	.st15{fill:#F2F2F2;}
	.st16{fill:#CCCCCC;}
	.st17{fill:#34B399;}
	.st18{fill:#FFFFFF;stroke:#FFFFFF;stroke-width:0.25;stroke-miterlimit:10;}
	.st19{font-family:'BebasNeueBold';}
	.st20{font-size:2.6859px;}
	.st21{fill:#FFFFFF;}
	.st22{display:inline;fill:#606060;}
</style>
<g id="Warstwa_3" class="st0">
	<rect x="-3.6" class="st1" width="95.8" height="79.3"/>
</g>
<g id="Warstwa_2">
	<polygon class="st2" points="20.5,63.4 70.1,58.1 76.8,22.7 3.2,15.9 	"/>
</g>
<g id="Warstwa_5">
	<path class="st3" d="M46.7,45c0,0-0.5,5.2-1.2,6.2s-1.3,5.5-1.3,5.5l0.8,1.5l3.3-3.7L46.7,45z"/>
</g>
<g id="Warstwa_1">
	<path class="st4" d="M38.5,37.7c0.8-0.2,2.9,1.3,3.6,2.3c0.6,1-1.4,0.4-1.4,0.4L39.6,40L38.5,37.7z"/>
	<path class="st5" d="M40.3,14.3c0,0,1.1,9.1,0.6,10c0,0,1.4-4.2,0.8-8.3S40.3,14.3,40.3,14.3z"/>
	<path class="st6" d="M64.2,29l-0.8-0.5l-1.3-0.6L61.9,28c-1.3-1-3.1-2.2-4.4-3c-2.3-1.4-4.7-1.5-6.9-0.6l-0.6,1l9.9,4l-2.4,1.6
		c0,0,2,5.2,3.3,5.8s2.9,0.3,3.6-4.2C64.7,29.6,64.2,29,64.2,29z"/>
	<path class="st7" d="M56.4,24c0,0,3.9,2,4.9,2.5s1.7,1.5,1.7,1.5l-1.7,0.2l-1.8-1.5c0,0-1.4-0.7-1.9-0.9c-0.5-0.2-1.8-0.8-1.8-0.8
		L56.4,24z"/>
	<g id="Warstwa_1_1_">
		<path class="st3" d="M47,29.3L46.8,28c-4.8,0-2.1,11.9-1.5,13.2c0.5,1.4,7.6,12.9,7.6,12.9l-1.7-4.2L47,29.3z"/>
		<g>
			<path class="st5" d="M59.5,100.6l-5-0.2c-0.2,0.4,0.2,2.8-1.3,4.2l0,0c1,1.4,3.1,1.3,3.9,1.3c0.8,0.1-1.6,2.8-3.2,3.3
				c-1.6,0.6-3.5,1.3-4.6,0.3c0,0.1,0,0.2,0,0.3c-0.1,2.1,0.6,2.7,0.6,2.7s4,2.3,6-0.3c1.6-2.2,2.7-3.2,3.5-4.1
				c0.4-0.4,0.6-1,0.6-1.6L59.5,100.6z"/>
			<path class="st8" d="M54.1,109.8c1.6-0.6,3.8-3.8,3-3.9s-2.9,0.1-3.9-1.3l0,0c-0.1,0-0.1,0.1-0.2,0.1c-1.9,1.5-3.3,0.6-3.7,4.8
				C50.3,110.5,52.5,110.4,54.1,109.8z"/>
		</g>
		<g>
			<path class="st5" d="M40.9,101.3c-0.2,0.3,0.1,1.7-0.1,2.2l0,0c1.2,0.5,3,1.6,3.1,2.3c0.1,0.7-2,3-5.1,3.8
				c-2,0.5-4.2,0.6-5.2-0.4c0,1.7,0.3,2,0.3,2s2.7,2,6.1,1c3.4-1,7.1-4.2,7.1-4.2l0.2-5.7L40.9,101.3z"/>
			<path class="st8" d="M38.8,109.6c3.1-0.8,5.2-3.1,5.1-3.8c-0.1-0.7-1.9-1.7-3.1-2.3l0,0c-0.1,0.1-0.2,0.2-0.3,0.2
				c-0.7,0-6.5,0.5-6.9,5c0,0.2,0,0.4,0,0.5C34.7,110.2,36.8,110.1,38.8,109.6z"/>
		</g>
		<g>
			<path class="st6" d="M45.7,86.6c-0.2,2.5,0.8,11.9,1.1,16.4c0.6-0.1,1-0.1,1-0.1s-0.4-3.2-0.2-7.1c0.2-3.9,1-8.3,1.6-12.1
				l3.4-18.4c0,0-2.8,0.2-3.3,1.7C47.8,71.4,46.3,80.8,45.7,86.6z"/>
			<path class="st6" d="M59.1,84.8c0.2-7.6-0.1-12.9,1.3-16.1c1.3-2.9,1.5-5,1-9c-0.2-1.6-1.8-5.8-1.8-5.8l-12.1-1.7l-1.5,2.5
				c0,0-0.4,9.1-0.2,13.4c2.4-6.6,3.9-6.9,5-6.4c1.5,0.8,6.7-4.9,6.7-4.9s0.2,8.4-1.7,14.9C54,78.5,56,83.5,56.6,87
				s3.1,16.5,3.1,16.5c1.1-0.3,0.8-0.7,0.8-0.7S59.4,92,59.1,84.8z"/>
			<path class="st9" d="M56.4,70.9c3.1-8.3,1.7-14.7,1.7-14.7s-9.8,0.6-12.3-2.7c-2.9,4.8-2,5.9-3.1,13.9c-0.3,2.3,0.6,8.3-0.1,11.9
				c-1.4,7.6,0.1,4.9-1.6,22.1c1.4,1.6,3.9,1.7,5.8,1.6c-0.3-4.6,0-15.7,0.9-21c0.5-3.2,0.3-15.6,3-14.1c1,7.9,0.6,13.9,0.6,13.9
				c0.3,8.8,2,2.4,2.6,21.1c1.7,1.6,4.1,1.1,5.9,0.7c0,0-1.4-13.4-2-16.8C57,83.1,54,77.3,56.4,70.9z"/>
		</g>
		<path class="st7" d="M59.3,52.6c0,0,0.8,0.9,0.5,1.4c-4,1.2-8,2.6-14.4,0c0.1-1.3,0.5-1.6,0.5-1.6S56.4,51,59.3,52.6z"/>
		<g id="rest_1_">
			<path class="st10" d="M58.5,41.4L62.2,31c-1.1-1.2-2.5-2.6-3.9-3.8c-4.3,1.4-6.4-4.1-9.5-3c-1.3,0.9-2.2,1.7-2.7,2.4
				c0.1-0.2,0.2-0.3,0.2-0.3s-1.4,1.3-1.4,2.2c0,0.9,0.3,2,0.8,2.2c0.1,0.1,0.4,1.5-1.5,4.3c-3.7,3.5-0.8,6.9,0.9,7.6
				c0,3.3,1.6,2.6,1,10.3c1.8,1.1,6.4,1.5,9.5,1c1.8-0.3,2.9-1.6,2.9-1.6C58.9,45.8,57.9,50.7,58.5,41.4z"/>
			<path id="blouse_shadow_1_" class="st6" d="M59,53c-0.7,0.2-4.3,1-4.3,0.9L51.4,43c0,0,1.6-0.4,2.2-2.5c1-3.5,0.3-6.3,2-8.2
				c1.8-2,5.8-3.5,6.7-1.4C64.8,36.9,56.8,45.4,59,53z"/>
			<path id="zipper_3_" class="st11" d="M47.1,42.4c-0.7-1.4-1.3-2.2-0.9-4.1c0.3-1.4,0.8-2.2,2.1-3.2c2.1-1.7,1.6-4.2,1.6-4.2
				s0.7-0.2,0.8,0c0.1,0.1,0,3-1.5,4.3c-1.3,1.1-1.7,1.6-2.1,3.1c-0.4,1.7,0,2,0.7,3.8c1.2,2.7,1.6,12,1.6,12.1L48.8,54
				C48.7,53.9,48.5,45.1,47.1,42.4z"/>
			<path id="collar4_1_" class="st7" d="M52.1,28l-2.7,2.3c0,0-0.7-0.2-1.6-0.5c-1-0.3-1-3.4-1-3.4s2.3-2.1,2.5-2.6
				c0.2-0.6,3.6,0.9,3.6,0.9l2,0.6L52.1,28z"/>
			<path id="neck_1_" class="st4" d="M51,18.8c0,0,1.9,0.5,3.3,2c1.5,1.6,0.6,2.6,0.7,6s-6.1,5.1-6.2,3c-0.7-1.3-0.2-2.2,0.7-2.6
				c0.7-0.3,0.4-2.7-0.5-4.1L51,18.8z"/>
			<path id="neck_shadow_1_" class="st3" d="M48.5,23.1c1.3,0.7,1.5,2.4,1.1,4.1c0.6,0.7,0.8,1.1,1.6,1.1c2.7,0,3.1,0.9,4.2-1.5
				c-0.5-1.5,0.2-5.2-0.8-6.3c-1.5-1.7-3.5-2.1-3.5-2.1L48.5,23.1z"/>
			<path id="collar3_2_" class="st11" d="M47.8,24.7c-0.6,0.4-2.1,2.7-1.8,3.4c0.8,1.6,3.8,3.1,3.8,3.1s-1.7-2.4-1.8-3.9
				c-0.2-1.1,1.2-1,1.2-2.1C49.1,25.1,49.6,23.6,47.8,24.7z"/>
			<path id="collar2_1_" class="st11" d="M54.6,26.7c0.5-0.2,1.3-0.3,2.1-0.8c2.7-0.8,5.7,0.2,6.9,1.5c1.1,1.9-5.1-0.6-6.2,0.5
				c-1.2,1.2-4.2,3.5-7,3.2c0.9-0.6,2.6-2.4,3.2-3.4C53.9,27.2,54.2,26.9,54.6,26.7z"/>
			<path id="collar1_1_" class="st7" d="M63.7,29.1c1.2,0.7,1.1,0,1.1-0.1c-0.1-1.1-0.9-1.7-1.9-2.2c-0.8-0.4-1.9-0.5-3.5-0.4
				c-1,0.1-2.1,0.9-2.9,1.2c-1.7,0.7-2.4,2.3-3.1,2.7c-0.6,0.4-0.9,0.5-1.2,0.6C58.5,29.8,60.6,27.2,63.7,29.1z"/>
			<g id="zipper_2_">
				<polygon class="st7" points="50,33.2 47.7,33.2 48.2,33.7 50.2,33.8 50.8,31.1 50.7,30.8 				"/>
				<polygon class="st11" points="49.9,30.9 47.7,33.2 50,33.2 50.7,30.8 				"/>
				<polygon class="st7" points="48.4,32.9 49.9,31.2 50.1,31.2 49.6,32.9 				"/>
			</g>
			<path id="arm_3_" class="st4" d="M42,43.8c1.2,1.6,2.7,2.3,9.5,7.7c0.5,0.7,2.1,1.5,2.7,2.1c0.2,0.2,1.3-0.1,1.4-0.2
				c0.5-0.6,2.5-6,4.6-10.1c-0.1-2,2.1-10.1,0.9-11.6c-2.2-1.6-2.3-1.4-4.8,3.6c-1.4,2.8-0.5,8.6-2.2,13.4
				c-1.6-3.7-8.9-4.1-10.5-6.6C43.6,42,43.2,42.8,42,43.8z"/>
			<path id="arm_shadow_1_" class="st3" d="M55.6,53.3L56,53c2.1-1.8,2.3-6.2,4.5-10.4c2.9-5.6,2.4-10.3,0.6-11.4
				c-0.7-0.5-1.5-0.8-1.9-0.5c2,0.9,1.7,3.3,1.5,4.8c-0.2,2.1-0.3,4.4-1.8,8.6C57.7,47.6,56.4,52.2,55.6,53.3z"/>
		</g>
		<g id="head_2_">
			<path id="hair_back_1_" class="st12" d="M54.5,7.9c0,0-8.5-2.7-12.8,0.2c-3.6,2.4,0.3,14.2,1.1,17.2c2.9-3.5,12.6-2.9,12.6-2.9
				L54.5,7.9z"/>
			<path id="head_3_" class="st4" d="M46,5.2c5.6-0.8,11.1,1.5,12.6,6.9c1.6,5.4-2.7,8.2-7.1,11.8c-0.6,0.5-2.4,1.1-3.2,1.4
				c-0.3,0.1-0.6,0-0.8-0.1c-2.4-1.4-3.8-2.3-4.6-5.5c-0.3-1.1-0.1-2.2-0.7-3.6C40.3,12,44.7,5.4,46,5.2z"/>
			<path class="st3" d="M58.7,12.1C57.1,6.7,51.3,3.3,46,5.2c-2.8,1-4.2,5.5-4.3,8c2.3-2.5,5-3.6,6.2-4c2.7,2.9,4.6,10.9,4.6,12.6
				c0,1.2,0.8,0.9,0.5,2C57.3,21.7,60.1,16.8,58.7,12.1z"/>
			<path id="eyebrow2_1_" class="st13" d="M47.5,14.5c0.1-0.3,0.3-0.5,0.6-0.7c0.3-0.2,0.6-0.3,0.9-0.4c0.4-0.1,1.6,0.1,1.7,0.2
				l0,0.1c-0.2,0-1.3,0-1.6,0.1c-0.2,0-0.5,0.2-0.7,0.3c-0.2,0.1-0.5,0.3-0.8,0.4L47.5,14.5z"/>
			<path id="eyebrow1_3_" class="st13" d="M44.6,14.3l-0.4-0.2c-0.1-0.1-0.5-0.2-0.7-0.2c-0.2,0-0.7,0-0.9,0l0-0.1
				c0.1,0,0.7-0.1,0.8-0.1c0.5,0,0.7,0.1,0.9,0.2c0.1,0.1,0.3,0.2,0.4,0.4L44.6,14.3z"/>
			<g id="eyes_1_">
				
					<ellipse id="eye2_2_" transform="matrix(0.97 -0.2433 0.2433 0.97 -2.7903 11.1804)" class="st13" cx="43.9" cy="16.9" rx="0.5" ry="0.9"/>
				
					<ellipse id="eye1_1_" transform="matrix(0.97 -0.2433 0.2433 0.97 -2.6181 12.3729)" class="st13" cx="48.8" cy="16.8" rx="0.6" ry="0.9"/>
			</g>
			<path class="st13" d="M46.5,22.5c0,0,0.5,0.6,1.4,0.3c1-0.4,1-0.8,1-1.3c-0.4,0.6-0.9,0.9-1.2,1C47.2,22.6,46.8,22.6,46.5,22.5z"
				/>
		</g>
		<g id="hair_1_">
			<path class="st5" d="M40.4,9.9c-1.3,6.1,2.5,15.4,2.5,15.4S42,22,40.9,16c-0.7-4.3,2.4-6.5,4.8-7.9c-0.4,0.3-3.2,2.5-3.4,3.6l0,0
				c0.1-0.3,3.5-2.8,4-3.2C46.6,8.3,46.8,8.1,47,8c0,0,0,0,0.1,0l0,0l0,0l0,0c0,0,2.2,1.3,4,5.2c0.8,1.9,2.1,5.8,0.9,12.8
				c1.5-3.2,1.8-4.2,2.2-4.9c-0.7,4.7-1.4,6.1-1.4,6.1s3.4-1.9,5.9-4.2c0.5-0.8,0.7-5.9,0.7-5.9s0.2,2,0,4.1c-0.1,0.5,0,1.2-0.1,1.5
				c1.1-1.1,2.7-2.6,2.7-3.5C62.1,16,61.6,1.9,49.4,2.4c-1-0.1-1.6,0.5-2,1.3C45.1,4,41.5,5,40.4,9.9z"/>
			<path class="st14" d="M51.3,3.5c0.2,0-0.4,0-0.6-0.1c-0.2-0.1,0.6,0.7,0.6,0.7s-0.9-0.3-1.1-0.2C50,4,50,3.9,50,3.9
				c1.1,0.6,0.8,0.6,0.8,0.6s-0.9-0.3-0.9-0.2c0,0.1,0.8,0.6,0.8,0.6s-0.8-0.3-1-0.1c-0.2,0.3,0.1,0.9,1.9,1.8l0.1,0l0.2,0.1L52,7.1
				c0.1,0.1,0.1,0.1,0.2,0.2l0.2,0.2c0.6,0.6,1,1.3,1.4,2.1c0.3,0.8,0.6,1.6,0.7,2.4c0.1,0.9,0.2,1.7,0.2,2.5
				c0.2-0.9,0.2-1.7,0.2-2.6c-0.1-0.9-0.2-1.8-0.5-2.6S53.6,7.7,53,6.9l-0.1-0.1c0.3,0.3,0.7,0.5,0.9,0.8c0.2,0.2,0.4,0.4,0.5,0.7
				l0.1,0.2l0.1,0.2c0.1,0.1,0.2,0.2,0.2,0.4c0.3,0.5,0.5,1.1,0.7,1.5s0.3,1.1,0.4,1.7C56,12.9,56,13.5,56,14c0,0.6,0.1,1.2,0.1,1.7
				c0,0.6,0,1.1,0,1.7c0.2-1.2,0.3-2.3,0.2-3.5c0-0.6-0.1-1.2-0.1-1.8c-0.1-0.6-0.2-1.1-0.3-1.7c-0.2-0.5-0.3-1.1-0.6-1.7
				c-0.2-0.2-0.3-0.5-0.4-0.7c0,0,0.1,0,0.1,0.1c0.5,0.7,1,1.4,1.3,2.1c0.3,0.8,0.7,1.6,0.9,2.4c-0.1-0.8-0.2-1.7-0.5-2.6
				c-0.2-0.8-0.6-1.7-1.2-2.4s-1.1-1.4-1.9-2l0.1,0c0.7,0.4,1.4,0.9,1.9,1.5s1.1,1.3,1.5,2c0.4,0.7,0.8,1.5,1.1,2.3
				c-0.1-0.9-0.4-1.7-0.7-2.5c-0.1-0.4-0.4-0.7-0.5-1.1c0.2,0.2,0.3,0.5,0.4,0.7c0.4,0.7,0.8,1.5,1.1,2.3c-0.1-0.9-0.4-1.7-0.7-2.5
				C57.4,7.7,57,7,56.4,6.2C56.2,6,56,5.8,55.8,5.6c0.2,0.1,0.4,0.3,0.6,0.5l0.1,0.1l0.1,0.1c0.1,0.1,0.2,0.2,0.3,0.3
				c0.4,0.4,0.6,0.9,0.9,1.4c0.3,0.5,0.4,1,0.7,1.6c0.2,0.5,0.3,1.1,0.5,1.6c0.2,0.5,0.2,1.1,0.3,1.7c0.1,0.6,0.2,1.1,0.3,1.7
				c-0.1-1.2-0.1-2.3-0.4-3.4c-0.1-0.6-0.2-1.1-0.4-1.7c-0.2-0.5-0.3-1.1-0.6-1.7c-0.2-0.6-0.5-1.1-0.9-1.5
				c-0.2-0.2-0.4-0.5-0.6-0.7C56.8,5.9,57,6,57.1,6.2c0.6,0.6,1.1,1.3,1.5,2c0.4,0.7,0.8,1.5,1.1,2.3c-0.1-0.9-0.4-1.7-0.7-2.5
				c-0.3-0.8-0.8-1.5-1.4-2.3c-0.6-0.7-1.3-1.3-2-1.8c-0.2-0.1-0.4-0.2-0.6-0.4l-0.6-0.3c-0.1,0-0.5-0.1-0.5-0.2
				c-1-0.4-1.6-0.5-1.6-0.5s0.3,0.4,0.1,0.3S51,2.9,50.9,2.9C50.6,3.2,51.2,3.4,51.3,3.5z"/>
			<path class="st14" d="M49.2,5.6c0.1,0-0.3,0-0.5-0.1c-0.2-0.1,0.5,0.6,0.5,0.6S48.5,5.9,48.3,6c-0.2,0.1-0.1,0-0.1,0
				c1,0.5,0.7,0.5,0.7,0.5S48.1,6.3,48,6.4s0.7,0.5,0.7,0.5S48,6.7,47.8,6.9c-0.2,0.2,0.1,0.7,1.6,1.5l0.1,0l0.2,0.1l0.2,0.2
				c0,0.1,0.1,0.1,0.2,0.2l0.2,0.2c0.5,0.5,0.9,1.1,1.1,1.7c0.3,0.6,0.5,1.3,0.6,2C52,13.6,52,14.3,52,15c0.1-0.7,0.2-1.5,0.2-2.2
				c0-0.8-0.2-1.5-0.4-2.2s-0.6-1.4-1.1-2l0-0.1c0.3,0.2,0.6,0.4,0.8,0.7c0.2,0.2,0.3,0.4,0.5,0.6l0.1,0.2l0.1,0.2
				c0,0.1,0.2,0.2,0.2,0.3c0.2,0.4,0.4,0.9,0.6,1.3c0.2,0.4,0.2,0.9,0.3,1.4c0.1,0.4,0.1,0.9,0.1,1.4c0,0.5,0,1,0,1.5s0,1,0,1.5
				c0.2-1,0.2-1.9,0.2-2.9c0-0.5,0-1-0.1-1.5c-0.1-0.5-0.1-0.9-0.3-1.5c-0.1-0.5-0.3-0.9-0.5-1.4c-0.2-0.2-0.2-0.4-0.4-0.6
				c0,0,0.1,0,0,0.1c0.5,0.6,0.8,1.2,1.1,1.8c0.3,0.6,0.6,1.4,0.8,2c-0.1-0.7-0.2-1.4-0.4-2.2c-0.2-0.7-0.5-1.4-1-2
				c-0.4-0.6-1-1.2-1.6-1.7l0.1,0c0.6,0.3,1.2,0.8,1.6,1.3s0.9,1.1,1.3,1.7c0.4,0.6,0.6,1.3,0.9,2c-0.1-0.7-0.3-1.4-0.6-2.1
				c-0.1-0.3-0.3-0.6-0.4-0.9c0.2,0.2,0.2,0.4,0.4,0.6c0.4,0.6,0.6,1.3,0.9,2c-0.1-0.7-0.3-1.4-0.6-2.1C54.4,9.2,54,8.6,53.5,8
				c-0.2-0.2-0.4-0.4-0.5-0.6c0.2,0.1,0.3,0.2,0.5,0.4l0.1,0.1L53.7,8c0,0.1,0.2,0.2,0.3,0.3c0.3,0.4,0.5,0.8,0.8,1.2
				c0.2,0.4,0.4,0.9,0.6,1.4c0.1,0.5,0.3,0.9,0.4,1.4c0.1,0.5,0.2,1,0.3,1.4c0.1,0.5,0.1,0.9,0.3,1.5c0-1-0.1-1.9-0.3-2.9
				c-0.1-0.5-0.2-1-0.3-1.4c-0.1-0.5-0.3-0.9-0.5-1.4c-0.2-0.5-0.4-0.9-0.8-1.3C54.2,8,54,7.7,53.8,7.6c0.1,0.1,0.3,0.2,0.4,0.4
				c0.5,0.5,0.9,1.1,1.3,1.7c0.4,0.6,0.6,1.3,0.9,2c-0.1-0.7-0.3-1.4-0.6-2.1c-0.3-0.7-0.6-1.3-1.2-1.9c-0.5-0.6-1.1-1.1-1.7-1.5
				c-0.2-0.1-0.4-0.2-0.5-0.3l-0.5-0.2c-0.1,0-0.4-0.1-0.4-0.1C50.6,5.1,50.1,5,50.1,5s0.2,0.4,0.1,0.2c-0.2-0.1-1.2-0.1-1.3,0
				C48.6,5.4,49.1,5.6,49.2,5.6z"/>
			<path class="st14" d="M47.5,3.6c0,0-0.7,1-0.7,1.4c0,0.4-3.6,0.3-6.1,3.8c0.5-1.5,1.2-3,3.4-4.2C46.8,3.1,47.5,3.6,47.5,3.6z"/>
		</g>
		<g>
			<g id="phone_1_">
				<path class="st15" d="M36.2,33.5l4.7,7.2c0.3,0.4,0.2,0.9,0,1.2l-1.6,0.2c-0.2,0.2-0.5,0-0.8-0.4l-4.2-6.2
					c-0.3-0.4-0.3-0.7-0.1-1l1-1.2C35.4,33.1,35.9,33,36.2,33.5z"/>
				<path class="st16" d="M36.7,34.1l0.9,1.3c0.1,0.1,0.1,0.2,0,0.2l0,0c0,0-0.1,0-0.2-0.1l-0.9-1.3c-0.1-0.1-0.1-0.2,0-0.2l0,0
					C36.5,34,36.6,34.1,36.7,34.1z"/>
				<path class="st16" d="M35.7,35.4c0.1-0.2,0.3-0.1,0.5,0.1c0.2,0.2,0.2,0.5,0.1,0.7c-0.1,0.2-0.3,0.1-0.5-0.1
					C35.6,35.9,35.6,35.6,35.7,35.4z"/>
				<path class="st11" d="M34.6,34.8c0.1,0.1,0.1,0.2,0,0.3s-0.1,0-0.2-0.1c-0.1-0.1-0.1-0.2,0-0.3S34.5,34.7,34.6,34.8z"/>
				<path class="st16" d="M34.8,34.5c0,0.1,0.1,0.2,0,0.2s-0.1,0-0.1-0.1c0-0.1-0.1-0.2,0-0.2C34.6,34.4,34.7,34.4,34.8,34.5z"/>
			</g>
			<path class="st4" d="M43.6,42c-1.3-1-1.1-1.8-1.6-2c-1.3-0.9-4.4-0.7-5-0.9c-0.7,1.2-0.5,3.1,3.4,3.5c0.8,0.1,1.6,1.9,2.7,2.2
				c1.3,0.3,2.1-1.1,1.1-2.1C44.2,42.6,43.6,42,43.6,42z"/>
		</g>
	</g>
	<rect x="52.4" y="53.9" class="st9" width="0.4" height="2.8"/>
	<rect x="57.5" y="53.2" transform="matrix(0.994 -0.1091 0.1091 0.994 -5.6047 6.6156)" class="st6" width="0.4" height="2.8"/>
	
		<rect x="46.5" y="52.9" transform="matrix(0.9125 0.4091 -0.4091 0.9125 26.2783 -14.3628)" class="st9" width="0.4" height="2.8"/>
	<g>
		<ellipse transform="matrix(0.1068 -0.9943 0.9943 0.1068 2.8037 38.3951)" class="st17" cx="22.8" cy="17.6" rx="9.8" ry="9.8"/>
		<polygon class="st17" points="26.2,26.3 34.1,28.6 31.5,21.1 		"/>
		<circle class="st7" cx="25.3" cy="12.1" r="1.8"/>
		<text transform="matrix(1 0 0 1 24.6404 13.01)" class="st18 st19 st20">1</text>
		<polygon class="st5" points="18.2,14.9 18.7,23.1 29.5,21.5 29.1,16.2 		"/>
		<g>
			<polygon class="st21" points="27.8,20.2 17.3,21.8 17.3,14.4 26.9,14.6 			"/>
			<polygon class="st16" points="17.3,14.4 22.3,17.7 26.9,14.6 22.9,19 			"/>
		</g>
	</g>
	<line class="st21" x1="71.6" y1="20.2" x2="61.3" y2="12.6"/>
</g>
<g id="Warstwa_6">
</g>
<g id="Warstwa_4" class="st0">
	<rect x="-3.6" y="79.3" class="st22" width="95.8" height="47.2"/>
</g>
</svg>
