<?xml version="1.0" encoding="utf-8"?>
<!-- Generator: Adobe Illustrator 19.0.0, SVG Export Plug-In . SVG Version: 6.00 Build 0)  -->
<svg version="1.1" id="Warstwa_1" xmlns="http://www.w3.org/2000/svg" xmlns:xlink="http://www.w3.org/1999/xlink" x="0px" y="0px"
	 viewBox="-984 729.7 77.5 79.3" style="enable-background:new -984 729.7 77.5 79.3;" xml:space="preserve">
<style type="text/css">
	.st0{display:none;}
	.st1{display:inline;fill:#696E9E;}
	.st2{fill:#A5AAD8;}
	.st3{fill:#F8B277;}
	.st4{fill:#FBCFA5;}
	.st5{fill:#0A9575;}
	.st6{fill:#F4B405;}
	.st7{fill:#6C6D9F;}
	.st8{fill:#F7CD44;}
	.st9{fill:#F7CD45;}
	.st10{fill:#8487C1;}
	.st11{fill:#088063;}
	.st12{fill:#6E6981;}
	.st13{fill:#20AE88;}
	.st14{fill:#F2F2F2;}
	.st15{fill:#CCCCCC;}
	.st16{fill:#34B399;}
	.st17{fill:#FFFFFF;}
	.st18{font-family:'BebasNeueBold';}
	.st19{font-size:2.6859px;}
	.st20{fill:none;stroke:#FFFFFF;stroke-width:0.25;stroke-miterlimit:10;}
	.st21{fill:none;}
	.st22{display:inline;fill:#606060;}
</style>
<g id="Warstwa_3" class="st0">
	<rect x="-987.6" y="729.7" class="st1" width="95.8" height="79.3"/>
</g>
<g id="Warstwa_2">
	<polygon class="st2" points="-963.5,793.1 -913.9,787.8 -907.2,752.4 -980.8,745.6 	"/>
</g>
<g id="Warstwa_5">
	<path class="st3" d="M-937.3,774.7c0,0-0.5,5.2-1.2,6.2s-1.3,5.5-1.3,5.5l0.8,1.5l3.3-3.7L-937.3,774.7z"/>
</g>
<g id="Warstwa_1_2_">
	<path class="st4" d="M-945.5,767.4c0.8-0.2,2.9,1.3,3.6,2.3c0.6,1-1.4,0.4-1.4,0.4l-1.1-0.4L-945.5,767.4z"/>
	<path class="st5" d="M-943.7,744c0,0,1.1,9.1,0.6,10c0,0,1.4-4.2,0.8-8.3C-942.9,741.6-943.7,744-943.7,744z"/>
	<path class="st6" d="M-919.8,758.7l-0.8-0.5l-1.3-0.6l-0.2,0.1c-1.3-1-3.1-2.2-4.4-3c-2.3-1.4-4.7-1.5-6.9-0.6l-0.6,1l9.9,4
		l-2.4,1.6c0,0,2,5.2,3.3,5.8c1.3,0.6,2.9,0.3,3.6-4.2C-919.3,759.3-919.8,758.7-919.8,758.7z"/>
	<path class="st7" d="M-927.6,753.7c0,0,3.9,2,4.9,2.5s1.7,1.5,1.7,1.5l-1.7,0.2l-1.8-1.5c0,0-1.4-0.7-1.9-0.9s-1.8-0.8-1.8-0.8
		L-927.6,753.7z"/>
	<g id="Warstwa_1_1_">
		<path class="st3" d="M-937,759l-0.2-1.3c-4.8,0-2.1,11.9-1.5,13.2c0.5,1.4,7.6,12.9,7.6,12.9l-1.7-4.2L-937,759z"/>
		<g>
			<path class="st6" d="M-925.9,785.9c0,0,0.3,1.2,0.3,3.2l2.9-0.3c-0.4-1.9-1.7-5.2-1.7-5.2l-12.1-1.7l-1.1,1.9
				C-934.5,786.4-925.9,785.9-925.9,785.9z"/>
			<path class="st8" d="M-938,784.4l0.4-0.6c-0.2-0.2-0.4-0.4-0.6-0.6c-1.9,3.1-2.2,4.6-2.4,7.5l2.4-0.3
				C-938.1,787.2-938,784.4-938,784.4z"/>
			<path class="st8" d="M-926.5,786.5c0,0-1.5,1.6-3.1,3l3.1-0.3C-926.5,787.6-926.5,786.5-926.5,786.5z"/>
			<path class="st8" d="M-938.2,790.4l8.6-0.9c1.6-1.4,3.1-3,3.1-3s0,1.1,0,2.7l0.9-0.1c0-2-0.3-3.2-0.3-3.2s-8.6,0.5-11.7-2.1
				l-0.4,0.6C-938,784.4-938.1,787.2-938.2,790.4z"/>
		</g>
		<path class="st7" d="M-924.7,782.3c0,0,0.8,0.9,0.5,1.4c-4,1.2-8,2.6-14.4,0c0.1-1.3,0.5-1.6,0.5-1.6S-927.6,780.7-924.7,782.3z"
			/>
		<g id="rest_1_">
			<path class="st9" d="M-925.5,771.1l3.7-10.4c-1.1-1.2-2.5-2.6-3.9-3.8c-4.3,1.4-6.4-4.1-9.5-3c-1.3,0.9-2.2,1.7-2.7,2.4
				c0.1-0.2,0.2-0.3,0.2-0.3s-1.4,1.3-1.4,2.2s0.3,2,0.8,2.2c0.1,0.1,0.4,1.5-1.5,4.3c-3.7,3.5-0.8,6.9,0.9,7.6
				c0,3.3,1.6,2.6,1,10.3c1.8,1.1,6.4,1.5,9.5,1c1.8-0.3,2.9-1.6,2.9-1.6C-925.1,775.5-926.1,780.4-925.5,771.1z"/>
			<path id="blouse_shadow_1_" class="st6" d="M-925,782.7c-0.7,0.2-4.3,1-4.3,0.9l-3.3-10.9c0,0,1.6-0.4,2.2-2.5
				c1-3.5,0.3-6.3,2-8.2c1.8-2,5.8-3.5,6.7-1.4C-919.2,766.6-927.2,775.1-925,782.7z"/>
			<path id="zipper_3_" class="st10" d="M-936.9,772.1c-0.7-1.4-1.3-2.2-0.9-4.1c0.3-1.4,0.8-2.2,2.1-3.2c2.1-1.7,1.6-4.2,1.6-4.2
				s0.7-0.2,0.8,0c0.1,0.1,0,3-1.5,4.3c-1.3,1.1-1.7,1.6-2.1,3.1c-0.4,1.7,0,2,0.7,3.8c1.2,2.7,1.6,12,1.6,12.1l-0.6-0.2
				C-935.3,783.6-935.5,774.8-936.9,772.1z"/>
			<path id="collar4_1_" class="st7" d="M-931.9,757.7l-2.7,2.3c0,0-0.7-0.2-1.6-0.5c-1-0.3-1-3.4-1-3.4s2.3-2.1,2.5-2.6
				c0.2-0.6,3.6,0.9,3.6,0.9l2,0.6L-931.9,757.7z"/>
			<path id="neck_1_" class="st4" d="M-933,748.5c0,0,1.9,0.5,3.3,2c1.5,1.6,0.6,2.6,0.7,6c0.1,3.4-6.1,5.1-6.2,3
				c-0.7-1.3-0.2-2.2,0.7-2.6c0.7-0.3,0.4-2.7-0.5-4.1L-933,748.5z"/>
			<path id="neck_shadow_1_" class="st3" d="M-935.5,752.8c1.3,0.7,1.5,2.4,1.1,4.1c0.6,0.7,0.8,1.1,1.6,1.1c2.7,0,3.1,0.9,4.2-1.5
				c-0.5-1.5,0.2-5.2-0.8-6.3c-1.5-1.7-3.5-2.1-3.5-2.1L-935.5,752.8z"/>
			<path id="collar3_2_" class="st10" d="M-936.2,754.4c-0.6,0.4-2.1,2.7-1.8,3.4c0.8,1.6,3.8,3.1,3.8,3.1s-1.7-2.4-1.8-3.9
				c-0.2-1.1,1.2-1,1.2-2.1C-934.9,754.8-934.4,753.3-936.2,754.4z"/>
			<path id="collar2_1_" class="st10" d="M-929.4,756.4c0.5-0.2,1.3-0.3,2.1-0.8c2.7-0.8,5.7,0.2,6.9,1.5c1.1,1.9-5.1-0.6-6.2,0.5
				c-1.2,1.2-4.2,3.5-7,3.2c0.9-0.6,2.6-2.4,3.2-3.4C-930.1,756.9-929.8,756.6-929.4,756.4z"/>
			<path id="collar1_1_" class="st7" d="M-920.3,758.8c1.2,0.7,1.1,0,1.1-0.1c-0.1-1.1-0.9-1.7-1.9-2.2c-0.8-0.4-1.9-0.5-3.5-0.4
				c-1,0.1-2.1,0.9-2.9,1.2c-1.7,0.7-2.4,2.3-3.1,2.7c-0.6,0.4-0.9,0.5-1.2,0.6C-925.5,759.5-923.4,756.9-920.3,758.8z"/>
			<g id="zipper_2_">
				<polygon class="st7" points="-934,762.9 -936.3,762.9 -935.8,763.4 -933.8,763.5 -933.2,760.8 -933.3,760.5 				"/>
				<polygon class="st10" points="-934.1,760.6 -936.3,762.9 -934,762.9 -933.3,760.5 				"/>
				<polygon class="st7" points="-935.6,762.6 -934.1,760.9 -933.9,760.9 -934.4,762.6 				"/>
			</g>
			<path id="arm_3_" class="st4" d="M-942,773.5c1.2,1.6,2.7,2.3,9.5,7.7c0.5,0.7,2.1,1.5,2.7,2.1c0.2,0.2,1.3-0.1,1.4-0.2
				c0.5-0.6,2.5-6,4.6-10.1c-0.1-2,2.1-10.1,0.9-11.6c-2.2-1.6-2.3-1.4-4.8,3.6c-1.4,2.8-0.5,8.6-2.2,13.4
				c-1.6-3.7-8.9-4.1-10.5-6.6C-940.4,771.7-940.8,772.5-942,773.5z"/>
			<path id="arm_shadow_1_" class="st3" d="M-928.4,783l0.4-0.3c2.1-1.8,2.3-6.2,4.5-10.4c2.9-5.6,2.4-10.3,0.6-11.4
				c-0.7-0.5-1.5-0.8-1.9-0.5c2,0.9,1.7,3.3,1.5,4.8c-0.2,2.1-0.3,4.4-1.8,8.6C-926.3,777.3-927.6,781.9-928.4,783z"/>
		</g>
		<g id="head_2_">
			<path id="hair_back_1_" class="st11" d="M-929.5,737.6c0,0-8.5-2.7-12.8,0.2c-3.6,2.4,0.3,14.2,1.1,17.2
				c2.9-3.5,12.6-2.9,12.6-2.9L-929.5,737.6z"/>
			<path id="head_3_" class="st4" d="M-938,734.9c5.6-0.8,11.1,1.5,12.6,6.9c1.6,5.4-2.7,8.2-7.1,11.8c-0.6,0.5-2.4,1.1-3.2,1.4
				c-0.3,0.1-0.6,0-0.8-0.1c-2.4-1.4-3.8-2.3-4.6-5.5c-0.3-1.1-0.1-2.2-0.7-3.6C-943.7,741.7-939.3,735.1-938,734.9z"/>
			<path class="st3" d="M-925.3,741.8c-1.6-5.4-7.4-8.8-12.7-6.9c-2.8,1-4.2,5.5-4.3,8c2.3-2.5,5-3.6,6.2-4
				c2.7,2.9,4.6,10.9,4.6,12.6c0,1.2,0.8,0.9,0.5,2C-926.7,751.4-923.9,746.5-925.3,741.8z"/>
			<path id="eyebrow2_1_" class="st12" d="M-936.5,744.2c0.1-0.3,0.3-0.5,0.6-0.7c0.3-0.2,0.6-0.3,0.9-0.4c0.4-0.1,1.6,0.1,1.7,0.2
				v0.1c-0.2,0-1.3,0-1.6,0.1c-0.2,0-0.5,0.2-0.7,0.3C-935.8,743.9-936.1,744.1-936.5,744.2L-936.5,744.2z"/>
			<path id="eyebrow1_3_" class="st12" d="M-939.4,744l-0.4-0.2c-0.1-0.1-0.5-0.2-0.7-0.2s-0.7,0-0.9,0v-0.1c0.1,0,0.7-0.1,0.8-0.1
				c0.5,0,0.7,0.1,0.9,0.2c0.1,0.1,0.3,0.2,0.4,0.4H-939.4z"/>
			<g id="eyes_1_">
				
					<ellipse id="eye2_2_" transform="matrix(-0.2433 -0.97 0.97 -0.2433 -1892.9703 16.3805)" class="st12" cx="-940.1" cy="746.6" rx="0.9" ry="0.5"/>
				
					<ellipse id="eye1_1_" transform="matrix(-0.2433 -0.97 0.97 -0.2433 -1886.7833 21.0139)" class="st12" cx="-935.2" cy="746.5" rx="0.9" ry="0.6"/>
			</g>
			<path class="st12" d="M-937.5,752.2c0,0,0.5,0.6,1.4,0.3c1-0.4,1-0.8,1-1.3c-0.4,0.6-0.9,0.9-1.2,1
				C-936.8,752.3-937.2,752.3-937.5,752.2z"/>
		</g>
		<g id="hair_1_">
			<path class="st5" d="M-943.6,739.6c-1.3,6.1,2.5,15.4,2.5,15.4s-0.9-3.3-2-9.3c-0.7-4.3,2.4-6.5,4.8-7.9
				c-0.4,0.3-3.2,2.5-3.4,3.6l0,0c0.1-0.3,3.5-2.8,4-3.2c0.3-0.2,0.5-0.4,0.7-0.5c0,0,0,0,0.1,0l0,0l0,0l0,0c0,0,2.2,1.3,4,5.2
				c0.8,1.9,2.1,5.8,0.9,12.8c1.5-3.2,1.8-4.2,2.2-4.9c-0.7,4.7-1.4,6.1-1.4,6.1s3.4-1.9,5.9-4.2c0.5-0.8,0.7-5.9,0.7-5.9
				s0.2,2,0,4.1c-0.1,0.5,0,1.2-0.1,1.5c1.1-1.1,2.7-2.6,2.7-3.5c0.1-3.2-0.4-17.3-12.6-16.8c-1-0.1-1.6,0.5-2,1.3
				C-938.9,733.7-942.5,734.7-943.6,739.6z"/>
			<path class="st13" d="M-932.7,733.2c0.2,0-0.4,0-0.6-0.1c-0.2-0.1,0.6,0.7,0.6,0.7s-0.9-0.3-1.1-0.2c-0.2,0.1-0.2,0-0.2,0
				c1.1,0.6,0.8,0.6,0.8,0.6s-0.9-0.3-0.9-0.2c0,0.1,0.8,0.6,0.8,0.6s-0.8-0.3-1-0.1c-0.2,0.3,0.1,0.9,1.9,1.8h0.1l0.2,0.1l0.1,0.4
				c0.1,0.1,0.1,0.1,0.2,0.2l0.2,0.2c0.6,0.6,1,1.3,1.4,2.1c0.3,0.8,0.6,1.6,0.7,2.4c0.1,0.9,0.2,1.7,0.2,2.5
				c0.2-0.9,0.2-1.7,0.2-2.6c-0.1-0.9-0.2-1.8-0.5-2.6c-0.3-0.8-0.8-1.6-1.4-2.4l-0.1-0.1c0.3,0.3,0.7,0.5,0.9,0.8
				c0.2,0.2,0.4,0.4,0.5,0.7l0.1,0.2l0.1,0.2c0.1,0.1,0.2,0.2,0.2,0.4c0.3,0.5,0.5,1.1,0.7,1.5c0.2,0.4,0.3,1.1,0.4,1.7
				c0.2,0.6,0.2,1.2,0.2,1.7c0,0.6,0.1,1.2,0.1,1.7c0,0.6,0,1.1,0,1.7c0.2-1.2,0.3-2.3,0.2-3.5c0-0.6-0.1-1.2-0.1-1.8
				c-0.1-0.6-0.2-1.1-0.3-1.7c-0.2-0.5-0.3-1.1-0.6-1.7c-0.2-0.2-0.3-0.5-0.4-0.7c0,0,0.1,0,0.1,0.1c0.5,0.7,1,1.4,1.3,2.1
				c0.3,0.8,0.7,1.6,0.9,2.4c-0.1-0.8-0.2-1.7-0.5-2.6c-0.2-0.8-0.6-1.7-1.2-2.4c-0.6-0.7-1.1-1.4-1.9-2h0.1
				c0.7,0.4,1.4,0.9,1.9,1.5c0.5,0.6,1.1,1.3,1.5,2c0.4,0.7,0.8,1.5,1.1,2.3c-0.1-0.9-0.4-1.7-0.7-2.5c-0.1-0.4-0.4-0.7-0.5-1.1
				c0.2,0.2,0.3,0.5,0.4,0.7c0.4,0.7,0.8,1.5,1.1,2.3c-0.1-0.9-0.4-1.7-0.7-2.5c-0.4-0.6-0.8-1.3-1.4-2.1c-0.2-0.2-0.4-0.4-0.6-0.6
				c0.2,0.1,0.4,0.3,0.6,0.5l0.1,0.1l0.1,0.1c0.1,0.1,0.2,0.2,0.3,0.3c0.4,0.4,0.6,0.9,0.9,1.4s0.4,1,0.7,1.6
				c0.2,0.5,0.3,1.1,0.5,1.6s0.2,1.1,0.3,1.7c0.1,0.6,0.2,1.1,0.3,1.7c-0.1-1.2-0.1-2.3-0.4-3.4c-0.1-0.6-0.2-1.1-0.4-1.7
				c-0.2-0.5-0.3-1.1-0.6-1.7c-0.2-0.6-0.5-1.1-0.9-1.5c-0.2-0.2-0.4-0.5-0.6-0.7c0.1,0.3,0.3,0.4,0.4,0.6c0.6,0.6,1.1,1.3,1.5,2
				c0.4,0.7,0.8,1.5,1.1,2.3c-0.1-0.9-0.4-1.7-0.7-2.5s-0.8-1.5-1.4-2.3c-0.6-0.7-1.3-1.3-2-1.8c-0.2-0.1-0.4-0.2-0.6-0.4l-0.6-0.3
				c-0.1,0-0.5-0.1-0.5-0.2c-1-0.4-1.6-0.5-1.6-0.5s0.3,0.4,0.1,0.3c-0.2-0.1-1.4,0.1-1.5,0.1C-933.4,732.9-932.8,733.1-932.7,733.2
				z"/>
			<path class="st13" d="M-934.8,735.3c0.1,0-0.3,0-0.5-0.1s0.5,0.6,0.5,0.6s-0.7-0.2-0.9-0.1s-0.1,0-0.1,0c1,0.5,0.7,0.5,0.7,0.5
				s-0.8-0.2-0.9-0.1c-0.1,0.1,0.7,0.5,0.7,0.5s-0.7-0.2-0.9,0c-0.2,0.2,0.1,0.7,1.6,1.5h0.1l0.2,0.1l0.2,0.2c0,0.1,0.1,0.1,0.2,0.2
				l0.2,0.2c0.5,0.5,0.9,1.1,1.1,1.7c0.3,0.6,0.5,1.3,0.6,2c0,0.8,0,1.5,0,2.2c0.1-0.7,0.2-1.5,0.2-2.2c0-0.8-0.2-1.5-0.4-2.2
				c-0.2-0.7-0.6-1.4-1.1-2v-0.1c0.3,0.2,0.6,0.4,0.8,0.7c0.2,0.2,0.3,0.4,0.5,0.6l0.1,0.2l0.1,0.2c0,0.1,0.2,0.2,0.2,0.3
				c0.2,0.4,0.4,0.9,0.6,1.3c0.2,0.4,0.2,0.9,0.3,1.4c0.1,0.4,0.1,0.9,0.1,1.4s0,1,0,1.5s0,1,0,1.5c0.2-1,0.2-1.9,0.2-2.9
				c0-0.5,0-1-0.1-1.5s-0.1-0.9-0.3-1.5c-0.1-0.5-0.3-0.9-0.5-1.4c-0.2-0.2-0.2-0.4-0.4-0.6c0,0,0.1,0,0,0.1
				c0.5,0.6,0.8,1.2,1.1,1.8c0.3,0.6,0.6,1.4,0.8,2c-0.1-0.7-0.2-1.4-0.4-2.2c-0.2-0.7-0.5-1.4-1-2c-0.4-0.6-1-1.2-1.6-1.7h0.1
				c0.6,0.3,1.2,0.8,1.6,1.3c0.4,0.5,0.9,1.1,1.3,1.7c0.4,0.6,0.6,1.3,0.9,2c-0.1-0.7-0.3-1.4-0.6-2.1c-0.1-0.3-0.3-0.6-0.4-0.9
				c0.2,0.2,0.2,0.4,0.4,0.6c0.4,0.6,0.6,1.3,0.9,2c-0.1-0.7-0.3-1.4-0.6-2.1c-0.4-1-0.8-1.6-1.3-2.2c-0.2-0.2-0.4-0.4-0.5-0.6
				c0.2,0.1,0.3,0.2,0.5,0.4l0.1,0.1l0.1,0.1c0,0.1,0.2,0.2,0.3,0.3c0.3,0.4,0.5,0.8,0.8,1.2c0.2,0.4,0.4,0.9,0.6,1.4
				c0.1,0.5,0.3,0.9,0.4,1.4c0.1,0.5,0.2,1,0.3,1.4c0.1,0.5,0.1,0.9,0.3,1.5c0-1-0.1-1.9-0.3-2.9c-0.1-0.5-0.2-1-0.3-1.4
				c-0.1-0.5-0.3-0.9-0.5-1.4s-0.4-0.9-0.8-1.3c-0.3-0.2-0.5-0.5-0.7-0.6c0.1,0.1,0.3,0.2,0.4,0.4c0.5,0.5,0.9,1.1,1.3,1.7
				c0.4,0.6,0.6,1.3,0.9,2c-0.1-0.7-0.3-1.4-0.6-2.1c-0.3-0.7-0.6-1.3-1.2-1.9c-0.5-0.6-1.1-1.1-1.7-1.5c-0.2-0.1-0.4-0.2-0.5-0.3
				l-0.5-0.2c-0.1,0-0.4-0.1-0.4-0.1c-0.9-0.5-1.4-0.6-1.4-0.6s0.2,0.4,0.1,0.2c-0.2-0.1-1.2-0.1-1.3,0
				C-935.4,735.1-934.9,735.3-934.8,735.3z"/>
			<path class="st13" d="M-936.5,733.3c0,0-0.7,1-0.7,1.4s-3.6,0.3-6.1,3.8c0.5-1.5,1.2-3,3.4-4.2
				C-937.2,732.8-936.5,733.3-936.5,733.3z"/>
		</g>
		<g>
			<g id="phone_1_">
				<path class="st14" d="M-947.8,763.2l4.7,7.2c0.3,0.4,0.2,0.9,0,1.2l-1.6,0.2c-0.2,0.2-0.5,0-0.8-0.4l-4.2-6.2
					c-0.3-0.4-0.3-0.7-0.1-1l1-1.2C-948.6,762.8-948.1,762.7-947.8,763.2z"/>
				<path class="st15" d="M-947.3,763.8l0.9,1.3c0.1,0.1,0.1,0.2,0,0.2l0,0c0,0-0.1,0-0.2-0.1l-0.9-1.3c-0.1-0.1-0.1-0.2,0-0.2l0,0
					C-947.5,763.7-947.4,763.8-947.3,763.8z"/>
				<path class="st15" d="M-948.3,765.1c0.1-0.2,0.3-0.1,0.5,0.1s0.2,0.5,0.1,0.7c-0.1,0.2-0.3,0.1-0.5-0.1
					C-948.4,765.6-948.4,765.3-948.3,765.1z"/>
				<path class="st10" d="M-949.4,764.5c0.1,0.1,0.1,0.2,0,0.3c-0.1,0.1-0.1,0-0.2-0.1c-0.1-0.1-0.1-0.2,0-0.3
					C-949.5,764.3-949.5,764.4-949.4,764.5z"/>
				<path class="st15" d="M-949.2,764.2c0,0.1,0.1,0.2,0,0.2C-949.3,764.4-949.3,764.4-949.2,764.2
					C-949.3,764.2-949.4,764.1-949.2,764.2C-949.4,764.1-949.3,764.1-949.2,764.2z"/>
			</g>
			<path class="st4" d="M-940.4,771.7c-1.3-1-1.1-1.8-1.6-2c-1.3-0.9-4.4-0.7-5-0.9c-0.7,1.2-0.5,3.1,3.4,3.5
				c0.8,0.1,1.6,1.9,2.7,2.2c1.3,0.3,2.1-1.1,1.1-2.1C-939.8,772.3-940.4,771.7-940.4,771.7z"/>
		</g>
	</g>
	<rect x="-931.6" y="783.6" class="st8" width="0.4" height="2.8"/>
	
		<rect x="-926.5" y="782.9" transform="matrix(-0.994 0.1091 -0.1091 -0.994 -1761.4895 1664.9657)" class="st6" width="0.4" height="2.8"/>
	
		<rect x="-937.5" y="782.6" transform="matrix(-0.9125 -0.4091 0.4091 -0.9125 -2113.3479 1115.921)" class="st8" width="0.4" height="2.8"/>
	<g>
		<ellipse class="st16" cx="-961.3" cy="747.3" rx="9.8" ry="9.8"/>
		<polygon class="st16" points="-957.8,756 -949.9,758.3 -952.5,750.8 		"/>
		<circle class="st7" cx="-958.7" cy="741.8" r="1.8"/>
		<text transform="matrix(1 0 0 1 -959.3596 742.71)" class="st17 st18 st19">1</text>
		<text transform="matrix(1 0 0 1 -959.3596 742.71)" class="st20 st18 st19">1</text>
		<polygon class="st5" points="-965.8,744.6 -965.3,752.8 -954.5,751.2 -954.9,745.9 		"/>
		<g>
			<polygon class="st17" points="-956.2,749.9 -966.7,751.5 -966.7,744.1 -957.1,744.3 			"/>
			<polygon class="st15" points="-966.7,744.1 -961.7,747.4 -957.1,744.3 -961.1,748.7 			"/>
		</g>
	</g>
	<line class="st21" x1="-912.4" y1="749.9" x2="-922.7" y2="742.3"/>
</g>
<g id="Warstwa_6">
</g>
<g id="Warstwa_4" class="st0">
	<rect x="-987.6" y="809" class="st22" width="95.8" height="47.2"/>
</g>
</svg>
