<?xml version="1.0" encoding="utf-8"?>
<!-- Generator: Adobe Illustrator 21.1.0, SVG Export Plug-In . SVG Version: 6.00 Build 0)  -->
<svg version="1.1" id="Warstwa_1" xmlns="http://www.w3.org/2000/svg" xmlns:xlink="http://www.w3.org/1999/xlink" x="0px" y="0px"
	 viewBox="0 0 12 50" style="enable-background:new 0 0 12 50;" xml:space="preserve">
<style>
  .fill-me {
    fill: #8c92a5;
  }
</style>
<path id="path0_fill" class="fill-me" d="M11.8,6c0,3.3-2.6,6-5.9,6C2.6,11.9,0,9.2,0,6s2.6-6,5.9-6C9.1,0,11.8,2.7,11.8,6z"/>
<path id="path0_fill_1_" class="fill-me" d="M11.8,25c0,3.3-2.6,6-5.9,6C2.6,31,0,28.3,0,25s2.6-6,5.9-6C9.1,19,11.8,21.7,11.8,25z"/>
<path id="path0_fill_2_" class="fill-me" d="M11.8,44c0,3.3-2.6,6-5.9,6C2.6,50,0,47.3,0,44s2.6-6,5.9-6C9.1,38.1,11.8,40.8,11.8,44z"/>
</svg>
